<?xml version="1.0" encoding="utf-8" standalone="no"?>
<!DOCTYPE svg PUBLIC "-//W3C//DTD SVG 1.1//EN"
  "http://www.w3.org/Graphics/SVG/1.1/DTD/svg11.dtd">
<!-- Created with matplotlib (https://matplotlib.org/) -->
<svg height="345.6pt" version="1.1" viewBox="0 0 460.8 345.6" width="460.8pt" xmlns="http://www.w3.org/2000/svg" xmlns:xlink="http://www.w3.org/1999/xlink">
 <defs>
  <style type="text/css">
*{stroke-linecap:butt;stroke-linejoin:round;}
  </style>
 </defs>
 <g id="figure_1">
  <g id="patch_1">
   <path d="M 0 345.6 
L 460.8 345.6 
L 460.8 0 
L 0 0 
z
" style="fill:#ffffff;"/>
  </g>
  <g id="axes_1">
   <g id="patch_2">
    <path d="M 57.6 307.584 
L 414.72 307.584 
L 414.72 41.472 
L 57.6 41.472 
z
" style="fill:#ffffff;"/>
   </g>
   <g id="matplotlib.axis_1">
    <g id="xtick_1">
     <g id="line2d_1">
      <defs>
       <path d="M 0 0 
L 0 3.5 
" id="m3cddb8fbb6" style="stroke:#000000;stroke-width:0.8;"/>
      </defs>
      <g>
       <use style="stroke:#000000;stroke-width:0.8;" x="57.6" xlink:href="#m3cddb8fbb6" y="307.584"/>
      </g>
     </g>
     <g id="text_1">
      <!-- 1.50 -->
      <defs>
       <path d="M 12.40625 8.296875 
L 28.515625 8.296875 
L 28.515625 63.921875 
L 10.984375 60.40625 
L 10.984375 69.390625 
L 28.421875 72.90625 
L 38.28125 72.90625 
L 38.28125 8.296875 
L 54.390625 8.296875 
L 54.390625 0 
L 12.40625 0 
z
" id="DejaVuSans-49"/>
       <path d="M 10.6875 12.40625 
L 21 12.40625 
L 21 0 
L 10.6875 0 
z
" id="DejaVuSans-46"/>
       <path d="M 10.796875 72.90625 
L 49.515625 72.90625 
L 49.515625 64.59375 
L 19.828125 64.59375 
L 19.828125 46.734375 
Q 21.96875 47.46875 24.109375 47.828125 
Q 26.265625 48.1875 28.421875 48.1875 
Q 40.625 48.1875 47.75 41.5 
Q 54.890625 34.8125 54.890625 23.390625 
Q 54.890625 11.625 47.5625 5.09375 
Q 40.234375 -1.421875 26.90625 -1.421875 
Q 22.3125 -1.421875 17.546875 -0.640625 
Q 12.796875 0.140625 7.71875 1.703125 
L 7.71875 11.625 
Q 12.109375 9.234375 16.796875 8.0625 
Q 21.484375 6.890625 26.703125 6.890625 
Q 35.15625 6.890625 40.078125 11.328125 
Q 45.015625 15.765625 45.015625 23.390625 
Q 45.015625 31 40.078125 35.4375 
Q 35.15625 39.890625 26.703125 39.890625 
Q 22.75 39.890625 18.8125 39.015625 
Q 14.890625 38.140625 10.796875 36.28125 
z
" id="DejaVuSans-53"/>
       <path d="M 31.78125 66.40625 
Q 24.171875 66.40625 20.328125 58.90625 
Q 16.5 51.421875 16.5 36.375 
Q 16.5 21.390625 20.328125 13.890625 
Q 24.171875 6.390625 31.78125 6.390625 
Q 39.453125 6.390625 43.28125 13.890625 
Q 47.125 21.390625 47.125 36.375 
Q 47.125 51.421875 43.28125 58.90625 
Q 39.453125 66.40625 31.78125 66.40625 
z
M 31.78125 74.21875 
Q 44.046875 74.21875 50.515625 64.515625 
Q 56.984375 54.828125 56.984375 36.375 
Q 56.984375 17.96875 50.515625 8.265625 
Q 44.046875 -1.421875 31.78125 -1.421875 
Q 19.53125 -1.421875 13.0625 8.265625 
Q 6.59375 17.96875 6.59375 36.375 
Q 6.59375 54.828125 13.0625 64.515625 
Q 19.53125 74.21875 31.78125 74.21875 
z
" id="DejaVuSans-48"/>
      </defs>
      <g transform="translate(46.467187 322.182437)scale(0.1 -0.1)">
       <use xlink:href="#DejaVuSans-49"/>
       <use x="63.623047" xlink:href="#DejaVuSans-46"/>
       <use x="95.410156" xlink:href="#DejaVuSans-53"/>
       <use x="159.033203" xlink:href="#DejaVuSans-48"/>
      </g>
     </g>
    </g>
    <g id="xtick_2">
     <g id="line2d_2">
      <g>
       <use style="stroke:#000000;stroke-width:0.8;" x="102.24" xlink:href="#m3cddb8fbb6" y="307.584"/>
      </g>
     </g>
     <g id="text_2">
      <!-- 1.75 -->
      <defs>
       <path d="M 8.203125 72.90625 
L 55.078125 72.90625 
L 55.078125 68.703125 
L 28.609375 0 
L 18.3125 0 
L 43.21875 64.59375 
L 8.203125 64.59375 
z
" id="DejaVuSans-55"/>
      </defs>
      <g transform="translate(91.107187 322.182437)scale(0.1 -0.1)">
       <use xlink:href="#DejaVuSans-49"/>
       <use x="63.623047" xlink:href="#DejaVuSans-46"/>
       <use x="95.410156" xlink:href="#DejaVuSans-55"/>
       <use x="159.033203" xlink:href="#DejaVuSans-53"/>
      </g>
     </g>
    </g>
    <g id="xtick_3">
     <g id="line2d_3">
      <g>
       <use style="stroke:#000000;stroke-width:0.8;" x="146.88" xlink:href="#m3cddb8fbb6" y="307.584"/>
      </g>
     </g>
     <g id="text_3">
      <!-- 2.00 -->
      <defs>
       <path d="M 19.1875 8.296875 
L 53.609375 8.296875 
L 53.609375 0 
L 7.328125 0 
L 7.328125 8.296875 
Q 12.9375 14.109375 22.625 23.890625 
Q 32.328125 33.6875 34.8125 36.53125 
Q 39.546875 41.84375 41.421875 45.53125 
Q 43.3125 49.21875 43.3125 52.78125 
Q 43.3125 58.59375 39.234375 62.25 
Q 35.15625 65.921875 28.609375 65.921875 
Q 23.96875 65.921875 18.8125 64.3125 
Q 13.671875 62.703125 7.8125 59.421875 
L 7.8125 69.390625 
Q 13.765625 71.78125 18.9375 73 
Q 24.125 74.21875 28.421875 74.21875 
Q 39.75 74.21875 46.484375 68.546875 
Q 53.21875 62.890625 53.21875 53.421875 
Q 53.21875 48.921875 51.53125 44.890625 
Q 49.859375 40.875 45.40625 35.40625 
Q 44.1875 33.984375 37.640625 27.21875 
Q 31.109375 20.453125 19.1875 8.296875 
z
" id="DejaVuSans-50"/>
      </defs>
      <g transform="translate(135.747187 322.182437)scale(0.1 -0.1)">
       <use xlink:href="#DejaVuSans-50"/>
       <use x="63.623047" xlink:href="#DejaVuSans-46"/>
       <use x="95.410156" xlink:href="#DejaVuSans-48"/>
       <use x="159.033203" xlink:href="#DejaVuSans-48"/>
      </g>
     </g>
    </g>
    <g id="xtick_4">
     <g id="line2d_4">
      <g>
       <use style="stroke:#000000;stroke-width:0.8;" x="191.52" xlink:href="#m3cddb8fbb6" y="307.584"/>
      </g>
     </g>
     <g id="text_4">
      <!-- 2.25 -->
      <g transform="translate(180.387187 322.182437)scale(0.1 -0.1)">
       <use xlink:href="#DejaVuSans-50"/>
       <use x="63.623047" xlink:href="#DejaVuSans-46"/>
       <use x="95.410156" xlink:href="#DejaVuSans-50"/>
       <use x="159.033203" xlink:href="#DejaVuSans-53"/>
      </g>
     </g>
    </g>
    <g id="xtick_5">
     <g id="line2d_5">
      <g>
       <use style="stroke:#000000;stroke-width:0.8;" x="236.16" xlink:href="#m3cddb8fbb6" y="307.584"/>
      </g>
     </g>
     <g id="text_5">
      <!-- 2.50 -->
      <g transform="translate(225.027187 322.182437)scale(0.1 -0.1)">
       <use xlink:href="#DejaVuSans-50"/>
       <use x="63.623047" xlink:href="#DejaVuSans-46"/>
       <use x="95.410156" xlink:href="#DejaVuSans-53"/>
       <use x="159.033203" xlink:href="#DejaVuSans-48"/>
      </g>
     </g>
    </g>
    <g id="xtick_6">
     <g id="line2d_6">
      <g>
       <use style="stroke:#000000;stroke-width:0.8;" x="280.8" xlink:href="#m3cddb8fbb6" y="307.584"/>
      </g>
     </g>
     <g id="text_6">
      <!-- 2.75 -->
      <g transform="translate(269.667187 322.182437)scale(0.1 -0.1)">
       <use xlink:href="#DejaVuSans-50"/>
       <use x="63.623047" xlink:href="#DejaVuSans-46"/>
       <use x="95.410156" xlink:href="#DejaVuSans-55"/>
       <use x="159.033203" xlink:href="#DejaVuSans-53"/>
      </g>
     </g>
    </g>
    <g id="xtick_7">
     <g id="line2d_7">
      <g>
       <use style="stroke:#000000;stroke-width:0.8;" x="325.44" xlink:href="#m3cddb8fbb6" y="307.584"/>
      </g>
     </g>
     <g id="text_7">
      <!-- 3.00 -->
      <defs>
       <path d="M 40.578125 39.3125 
Q 47.65625 37.796875 51.625 33 
Q 55.609375 28.21875 55.609375 21.1875 
Q 55.609375 10.40625 48.1875 4.484375 
Q 40.765625 -1.421875 27.09375 -1.421875 
Q 22.515625 -1.421875 17.65625 -0.515625 
Q 12.796875 0.390625 7.625 2.203125 
L 7.625 11.71875 
Q 11.71875 9.328125 16.59375 8.109375 
Q 21.484375 6.890625 26.8125 6.890625 
Q 36.078125 6.890625 40.9375 10.546875 
Q 45.796875 14.203125 45.796875 21.1875 
Q 45.796875 27.640625 41.28125 31.265625 
Q 36.765625 34.90625 28.71875 34.90625 
L 20.21875 34.90625 
L 20.21875 43.015625 
L 29.109375 43.015625 
Q 36.375 43.015625 40.234375 45.921875 
Q 44.09375 48.828125 44.09375 54.296875 
Q 44.09375 59.90625 40.109375 62.90625 
Q 36.140625 65.921875 28.71875 65.921875 
Q 24.65625 65.921875 20.015625 65.03125 
Q 15.375 64.15625 9.8125 62.3125 
L 9.8125 71.09375 
Q 15.4375 72.65625 20.34375 73.4375 
Q 25.25 74.21875 29.59375 74.21875 
Q 40.828125 74.21875 47.359375 69.109375 
Q 53.90625 64.015625 53.90625 55.328125 
Q 53.90625 49.265625 50.4375 45.09375 
Q 46.96875 40.921875 40.578125 39.3125 
z
" id="DejaVuSans-51"/>
      </defs>
      <g transform="translate(314.307188 322.182437)scale(0.1 -0.1)">
       <use xlink:href="#DejaVuSans-51"/>
       <use x="63.623047" xlink:href="#DejaVuSans-46"/>
       <use x="95.410156" xlink:href="#DejaVuSans-48"/>
       <use x="159.033203" xlink:href="#DejaVuSans-48"/>
      </g>
     </g>
    </g>
    <g id="xtick_8">
     <g id="line2d_8">
      <g>
       <use style="stroke:#000000;stroke-width:0.8;" x="370.08" xlink:href="#m3cddb8fbb6" y="307.584"/>
      </g>
     </g>
     <g id="text_8">
      <!-- 3.25 -->
      <g transform="translate(358.947188 322.182437)scale(0.1 -0.1)">
       <use xlink:href="#DejaVuSans-51"/>
       <use x="63.623047" xlink:href="#DejaVuSans-46"/>
       <use x="95.410156" xlink:href="#DejaVuSans-50"/>
       <use x="159.033203" xlink:href="#DejaVuSans-53"/>
      </g>
     </g>
    </g>
    <g id="xtick_9">
     <g id="line2d_9">
      <g>
       <use style="stroke:#000000;stroke-width:0.8;" x="414.72" xlink:href="#m3cddb8fbb6" y="307.584"/>
      </g>
     </g>
     <g id="text_9">
      <!-- 3.50 -->
      <g transform="translate(403.587188 322.182437)scale(0.1 -0.1)">
       <use xlink:href="#DejaVuSans-51"/>
       <use x="63.623047" xlink:href="#DejaVuSans-46"/>
       <use x="95.410156" xlink:href="#DejaVuSans-53"/>
       <use x="159.033203" xlink:href="#DejaVuSans-48"/>
      </g>
     </g>
    </g>
    <g id="text_10">
     <!-- Energy (eV) -->
     <defs>
      <path d="M 9.8125 72.90625 
L 55.90625 72.90625 
L 55.90625 64.59375 
L 19.671875 64.59375 
L 19.671875 43.015625 
L 54.390625 43.015625 
L 54.390625 34.71875 
L 19.671875 34.71875 
L 19.671875 8.296875 
L 56.78125 8.296875 
L 56.78125 0 
L 9.8125 0 
z
" id="DejaVuSans-69"/>
      <path d="M 54.890625 33.015625 
L 54.890625 0 
L 45.90625 0 
L 45.90625 32.71875 
Q 45.90625 40.484375 42.875 44.328125 
Q 39.84375 48.1875 33.796875 48.1875 
Q 26.515625 48.1875 22.3125 43.546875 
Q 18.109375 38.921875 18.109375 30.90625 
L 18.109375 0 
L 9.078125 0 
L 9.078125 54.6875 
L 18.109375 54.6875 
L 18.109375 46.1875 
Q 21.34375 51.125 25.703125 53.5625 
Q 30.078125 56 35.796875 56 
Q 45.21875 56 50.046875 50.171875 
Q 54.890625 44.34375 54.890625 33.015625 
z
" id="DejaVuSans-110"/>
      <path d="M 56.203125 29.59375 
L 56.203125 25.203125 
L 14.890625 25.203125 
Q 15.484375 15.921875 20.484375 11.0625 
Q 25.484375 6.203125 34.421875 6.203125 
Q 39.59375 6.203125 44.453125 7.46875 
Q 49.3125 8.734375 54.109375 11.28125 
L 54.109375 2.78125 
Q 49.265625 0.734375 44.1875 -0.34375 
Q 39.109375 -1.421875 33.890625 -1.421875 
Q 20.796875 -1.421875 13.15625 6.1875 
Q 5.515625 13.8125 5.515625 26.8125 
Q 5.515625 40.234375 12.765625 48.109375 
Q 20.015625 56 32.328125 56 
Q 43.359375 56 49.78125 48.890625 
Q 56.203125 41.796875 56.203125 29.59375 
z
M 47.21875 32.234375 
Q 47.125 39.59375 43.09375 43.984375 
Q 39.0625 48.390625 32.421875 48.390625 
Q 24.90625 48.390625 20.390625 44.140625 
Q 15.875 39.890625 15.1875 32.171875 
z
" id="DejaVuSans-101"/>
      <path d="M 41.109375 46.296875 
Q 39.59375 47.171875 37.8125 47.578125 
Q 36.03125 48 33.890625 48 
Q 26.265625 48 22.1875 43.046875 
Q 18.109375 38.09375 18.109375 28.8125 
L 18.109375 0 
L 9.078125 0 
L 9.078125 54.6875 
L 18.109375 54.6875 
L 18.109375 46.1875 
Q 20.953125 51.171875 25.484375 53.578125 
Q 30.03125 56 36.53125 56 
Q 37.453125 56 38.578125 55.875 
Q 39.703125 55.765625 41.0625 55.515625 
z
" id="DejaVuSans-114"/>
      <path d="M 45.40625 27.984375 
Q 45.40625 37.75 41.375 43.109375 
Q 37.359375 48.484375 30.078125 48.484375 
Q 22.859375 48.484375 18.828125 43.109375 
Q 14.796875 37.75 14.796875 27.984375 
Q 14.796875 18.265625 18.828125 12.890625 
Q 22.859375 7.515625 30.078125 7.515625 
Q 37.359375 7.515625 41.375 12.890625 
Q 45.40625 18.265625 45.40625 27.984375 
z
M 54.390625 6.78125 
Q 54.390625 -7.171875 48.1875 -13.984375 
Q 42 -20.796875 29.203125 -20.796875 
Q 24.46875 -20.796875 20.265625 -20.09375 
Q 16.0625 -19.390625 12.109375 -17.921875 
L 12.109375 -9.1875 
Q 16.0625 -11.328125 19.921875 -12.34375 
Q 23.78125 -13.375 27.78125 -13.375 
Q 36.625 -13.375 41.015625 -8.765625 
Q 45.40625 -4.15625 45.40625 5.171875 
L 45.40625 9.625 
Q 42.625 4.78125 38.28125 2.390625 
Q 33.9375 0 27.875 0 
Q 17.828125 0 11.671875 7.65625 
Q 5.515625 15.328125 5.515625 27.984375 
Q 5.515625 40.671875 11.671875 48.328125 
Q 17.828125 56 27.875 56 
Q 33.9375 56 38.28125 53.609375 
Q 42.625 51.21875 45.40625 46.390625 
L 45.40625 54.6875 
L 54.390625 54.6875 
z
" id="DejaVuSans-103"/>
      <path d="M 32.171875 -5.078125 
Q 28.375 -14.84375 24.75 -17.8125 
Q 21.140625 -20.796875 15.09375 -20.796875 
L 7.90625 -20.796875 
L 7.90625 -13.28125 
L 13.1875 -13.28125 
Q 16.890625 -13.28125 18.9375 -11.515625 
Q 21 -9.765625 23.484375 -3.21875 
L 25.09375 0.875 
L 2.984375 54.6875 
L 12.5 54.6875 
L 29.59375 11.921875 
L 46.6875 54.6875 
L 56.203125 54.6875 
z
" id="DejaVuSans-121"/>
      <path id="DejaVuSans-32"/>
      <path d="M 31 75.875 
Q 24.46875 64.65625 21.28125 53.65625 
Q 18.109375 42.671875 18.109375 31.390625 
Q 18.109375 20.125 21.3125 9.0625 
Q 24.515625 -2 31 -13.1875 
L 23.1875 -13.1875 
Q 15.875 -1.703125 12.234375 9.375 
Q 8.59375 20.453125 8.59375 31.390625 
Q 8.59375 42.28125 12.203125 53.3125 
Q 15.828125 64.359375 23.1875 75.875 
z
" id="DejaVuSans-40"/>
      <path d="M 28.609375 0 
L 0.78125 72.90625 
L 11.078125 72.90625 
L 34.1875 11.53125 
L 57.328125 72.90625 
L 67.578125 72.90625 
L 39.796875 0 
z
" id="DejaVuSans-86"/>
      <path d="M 8.015625 75.875 
L 15.828125 75.875 
Q 23.140625 64.359375 26.78125 53.3125 
Q 30.421875 42.28125 30.421875 31.390625 
Q 30.421875 20.453125 26.78125 9.375 
Q 23.140625 -1.703125 15.828125 -13.1875 
L 8.015625 -13.1875 
Q 14.5 -2 17.703125 9.0625 
Q 20.90625 20.125 20.90625 31.390625 
Q 20.90625 42.671875 17.703125 53.65625 
Q 14.5 64.65625 8.015625 75.875 
z
" id="DejaVuSans-41"/>
     </defs>
     <g transform="translate(206.66625 335.860562)scale(0.1 -0.1)">
      <use xlink:href="#DejaVuSans-69"/>
      <use x="63.183594" xlink:href="#DejaVuSans-110"/>
      <use x="126.5625" xlink:href="#DejaVuSans-101"/>
      <use x="188.085938" xlink:href="#DejaVuSans-114"/>
      <use x="227.449219" xlink:href="#DejaVuSans-103"/>
      <use x="290.925781" xlink:href="#DejaVuSans-121"/>
      <use x="350.105469" xlink:href="#DejaVuSans-32"/>
      <use x="381.892578" xlink:href="#DejaVuSans-40"/>
      <use x="420.90625" xlink:href="#DejaVuSans-101"/>
      <use x="482.429688" xlink:href="#DejaVuSans-86"/>
      <use x="550.837891" xlink:href="#DejaVuSans-41"/>
     </g>
    </g>
   </g>
   <g id="matplotlib.axis_2">
    <g id="ytick_1">
     <g id="line2d_10">
      <defs>
       <path d="M 0 0 
L -3.5 0 
" id="m82569f9514" style="stroke:#000000;stroke-width:0.8;"/>
      </defs>
      <g>
       <use style="stroke:#000000;stroke-width:0.8;" x="57.6" xlink:href="#m82569f9514" y="307.584"/>
      </g>
     </g>
     <g id="text_11">
      <!-- 0.0 -->
      <g transform="translate(34.696875 311.383219)scale(0.1 -0.1)">
       <use xlink:href="#DejaVuSans-48"/>
       <use x="63.623047" xlink:href="#DejaVuSans-46"/>
       <use x="95.410156" xlink:href="#DejaVuSans-48"/>
      </g>
     </g>
    </g>
    <g id="ytick_2">
     <g id="line2d_11">
      <g>
       <use style="stroke:#000000;stroke-width:0.8;" x="57.6" xlink:href="#m82569f9514" y="254.3616"/>
      </g>
     </g>
     <g id="text_12">
      <!-- 0.2 -->
      <g transform="translate(34.696875 258.160819)scale(0.1 -0.1)">
       <use xlink:href="#DejaVuSans-48"/>
       <use x="63.623047" xlink:href="#DejaVuSans-46"/>
       <use x="95.410156" xlink:href="#DejaVuSans-50"/>
      </g>
     </g>
    </g>
    <g id="ytick_3">
     <g id="line2d_12">
      <g>
       <use style="stroke:#000000;stroke-width:0.8;" x="57.6" xlink:href="#m82569f9514" y="201.1392"/>
      </g>
     </g>
     <g id="text_13">
      <!-- 0.4 -->
      <defs>
       <path d="M 37.796875 64.3125 
L 12.890625 25.390625 
L 37.796875 25.390625 
z
M 35.203125 72.90625 
L 47.609375 72.90625 
L 47.609375 25.390625 
L 58.015625 25.390625 
L 58.015625 17.1875 
L 47.609375 17.1875 
L 47.609375 0 
L 37.796875 0 
L 37.796875 17.1875 
L 4.890625 17.1875 
L 4.890625 26.703125 
z
" id="DejaVuSans-52"/>
      </defs>
      <g transform="translate(34.696875 204.938419)scale(0.1 -0.1)">
       <use xlink:href="#DejaVuSans-48"/>
       <use x="63.623047" xlink:href="#DejaVuSans-46"/>
       <use x="95.410156" xlink:href="#DejaVuSans-52"/>
      </g>
     </g>
    </g>
    <g id="ytick_4">
     <g id="line2d_13">
      <g>
       <use style="stroke:#000000;stroke-width:0.8;" x="57.6" xlink:href="#m82569f9514" y="147.9168"/>
      </g>
     </g>
     <g id="text_14">
      <!-- 0.6 -->
      <defs>
       <path d="M 33.015625 40.375 
Q 26.375 40.375 22.484375 35.828125 
Q 18.609375 31.296875 18.609375 23.390625 
Q 18.609375 15.53125 22.484375 10.953125 
Q 26.375 6.390625 33.015625 6.390625 
Q 39.65625 6.390625 43.53125 10.953125 
Q 47.40625 15.53125 47.40625 23.390625 
Q 47.40625 31.296875 43.53125 35.828125 
Q 39.65625 40.375 33.015625 40.375 
z
M 52.59375 71.296875 
L 52.59375 62.3125 
Q 48.875 64.0625 45.09375 64.984375 
Q 41.3125 65.921875 37.59375 65.921875 
Q 27.828125 65.921875 22.671875 59.328125 
Q 17.53125 52.734375 16.796875 39.40625 
Q 19.671875 43.65625 24.015625 45.921875 
Q 28.375 48.1875 33.59375 48.1875 
Q 44.578125 48.1875 50.953125 41.515625 
Q 57.328125 34.859375 57.328125 23.390625 
Q 57.328125 12.15625 50.6875 5.359375 
Q 44.046875 -1.421875 33.015625 -1.421875 
Q 20.359375 -1.421875 13.671875 8.265625 
Q 6.984375 17.96875 6.984375 36.375 
Q 6.984375 53.65625 15.1875 63.9375 
Q 23.390625 74.21875 37.203125 74.21875 
Q 40.921875 74.21875 44.703125 73.484375 
Q 48.484375 72.75 52.59375 71.296875 
z
" id="DejaVuSans-54"/>
      </defs>
      <g transform="translate(34.696875 151.716019)scale(0.1 -0.1)">
       <use xlink:href="#DejaVuSans-48"/>
       <use x="63.623047" xlink:href="#DejaVuSans-46"/>
       <use x="95.410156" xlink:href="#DejaVuSans-54"/>
      </g>
     </g>
    </g>
    <g id="ytick_5">
     <g id="line2d_14">
      <g>
       <use style="stroke:#000000;stroke-width:0.8;" x="57.6" xlink:href="#m82569f9514" y="94.6944"/>
      </g>
     </g>
     <g id="text_15">
      <!-- 0.8 -->
      <defs>
       <path d="M 31.78125 34.625 
Q 24.75 34.625 20.71875 30.859375 
Q 16.703125 27.09375 16.703125 20.515625 
Q 16.703125 13.921875 20.71875 10.15625 
Q 24.75 6.390625 31.78125 6.390625 
Q 38.8125 6.390625 42.859375 10.171875 
Q 46.921875 13.96875 46.921875 20.515625 
Q 46.921875 27.09375 42.890625 30.859375 
Q 38.875 34.625 31.78125 34.625 
z
M 21.921875 38.8125 
Q 15.578125 40.375 12.03125 44.71875 
Q 8.5 49.078125 8.5 55.328125 
Q 8.5 64.0625 14.71875 69.140625 
Q 20.953125 74.21875 31.78125 74.21875 
Q 42.671875 74.21875 48.875 69.140625 
Q 55.078125 64.0625 55.078125 55.328125 
Q 55.078125 49.078125 51.53125 44.71875 
Q 48 40.375 41.703125 38.8125 
Q 48.828125 37.15625 52.796875 32.3125 
Q 56.78125 27.484375 56.78125 20.515625 
Q 56.78125 9.90625 50.3125 4.234375 
Q 43.84375 -1.421875 31.78125 -1.421875 
Q 19.734375 -1.421875 13.25 4.234375 
Q 6.78125 9.90625 6.78125 20.515625 
Q 6.78125 27.484375 10.78125 32.3125 
Q 14.796875 37.15625 21.921875 38.8125 
z
M 18.3125 54.390625 
Q 18.3125 48.734375 21.84375 45.5625 
Q 25.390625 42.390625 31.78125 42.390625 
Q 38.140625 42.390625 41.71875 45.5625 
Q 45.3125 48.734375 45.3125 54.390625 
Q 45.3125 60.0625 41.71875 63.234375 
Q 38.140625 66.40625 31.78125 66.40625 
Q 25.390625 66.40625 21.84375 63.234375 
Q 18.3125 60.0625 18.3125 54.390625 
z
" id="DejaVuSans-56"/>
      </defs>
      <g transform="translate(34.696875 98.493619)scale(0.1 -0.1)">
       <use xlink:href="#DejaVuSans-48"/>
       <use x="63.623047" xlink:href="#DejaVuSans-46"/>
       <use x="95.410156" xlink:href="#DejaVuSans-56"/>
      </g>
     </g>
    </g>
    <g id="ytick_6">
     <g id="line2d_15">
      <g>
       <use style="stroke:#000000;stroke-width:0.8;" x="57.6" xlink:href="#m82569f9514" y="41.472"/>
      </g>
     </g>
     <g id="text_16">
      <!-- 1.0 -->
      <g transform="translate(34.696875 45.271219)scale(0.1 -0.1)">
       <use xlink:href="#DejaVuSans-49"/>
       <use x="63.623047" xlink:href="#DejaVuSans-46"/>
       <use x="95.410156" xlink:href="#DejaVuSans-48"/>
      </g>
     </g>
    </g>
    <g id="text_17">
     <!-- Fraction of power transmitted -->
     <defs>
      <path d="M 9.8125 72.90625 
L 51.703125 72.90625 
L 51.703125 64.59375 
L 19.671875 64.59375 
L 19.671875 43.109375 
L 48.578125 43.109375 
L 48.578125 34.8125 
L 19.671875 34.8125 
L 19.671875 0 
L 9.8125 0 
z
" id="DejaVuSans-70"/>
      <path d="M 34.28125 27.484375 
Q 23.390625 27.484375 19.1875 25 
Q 14.984375 22.515625 14.984375 16.5 
Q 14.984375 11.71875 18.140625 8.90625 
Q 21.296875 6.109375 26.703125 6.109375 
Q 34.1875 6.109375 38.703125 11.40625 
Q 43.21875 16.703125 43.21875 25.484375 
L 43.21875 27.484375 
z
M 52.203125 31.203125 
L 52.203125 0 
L 43.21875 0 
L 43.21875 8.296875 
Q 40.140625 3.328125 35.546875 0.953125 
Q 30.953125 -1.421875 24.3125 -1.421875 
Q 15.921875 -1.421875 10.953125 3.296875 
Q 6 8.015625 6 15.921875 
Q 6 25.140625 12.171875 29.828125 
Q 18.359375 34.515625 30.609375 34.515625 
L 43.21875 34.515625 
L 43.21875 35.40625 
Q 43.21875 41.609375 39.140625 45 
Q 35.0625 48.390625 27.6875 48.390625 
Q 23 48.390625 18.546875 47.265625 
Q 14.109375 46.140625 10.015625 43.890625 
L 10.015625 52.203125 
Q 14.9375 54.109375 19.578125 55.046875 
Q 24.21875 56 28.609375 56 
Q 40.484375 56 46.34375 49.84375 
Q 52.203125 43.703125 52.203125 31.203125 
z
" id="DejaVuSans-97"/>
      <path d="M 48.78125 52.59375 
L 48.78125 44.1875 
Q 44.96875 46.296875 41.140625 47.34375 
Q 37.3125 48.390625 33.40625 48.390625 
Q 24.65625 48.390625 19.8125 42.84375 
Q 14.984375 37.3125 14.984375 27.296875 
Q 14.984375 17.28125 19.8125 11.734375 
Q 24.65625 6.203125 33.40625 6.203125 
Q 37.3125 6.203125 41.140625 7.25 
Q 44.96875 8.296875 48.78125 10.40625 
L 48.78125 2.09375 
Q 45.015625 0.34375 40.984375 -0.53125 
Q 36.96875 -1.421875 32.421875 -1.421875 
Q 20.0625 -1.421875 12.78125 6.34375 
Q 5.515625 14.109375 5.515625 27.296875 
Q 5.515625 40.671875 12.859375 48.328125 
Q 20.21875 56 33.015625 56 
Q 37.15625 56 41.109375 55.140625 
Q 45.0625 54.296875 48.78125 52.59375 
z
" id="DejaVuSans-99"/>
      <path d="M 18.3125 70.21875 
L 18.3125 54.6875 
L 36.8125 54.6875 
L 36.8125 47.703125 
L 18.3125 47.703125 
L 18.3125 18.015625 
Q 18.3125 11.328125 20.140625 9.421875 
Q 21.96875 7.515625 27.59375 7.515625 
L 36.8125 7.515625 
L 36.8125 0 
L 27.59375 0 
Q 17.1875 0 13.234375 3.875 
Q 9.28125 7.765625 9.28125 18.015625 
L 9.28125 47.703125 
L 2.6875 47.703125 
L 2.6875 54.6875 
L 9.28125 54.6875 
L 9.28125 70.21875 
z
" id="DejaVuSans-116"/>
      <path d="M 9.421875 54.6875 
L 18.40625 54.6875 
L 18.40625 0 
L 9.421875 0 
z
M 9.421875 75.984375 
L 18.40625 75.984375 
L 18.40625 64.59375 
L 9.421875 64.59375 
z
" id="DejaVuSans-105"/>
      <path d="M 30.609375 48.390625 
Q 23.390625 48.390625 19.1875 42.75 
Q 14.984375 37.109375 14.984375 27.296875 
Q 14.984375 17.484375 19.15625 11.84375 
Q 23.34375 6.203125 30.609375 6.203125 
Q 37.796875 6.203125 41.984375 11.859375 
Q 46.1875 17.53125 46.1875 27.296875 
Q 46.1875 37.015625 41.984375 42.703125 
Q 37.796875 48.390625 30.609375 48.390625 
z
M 30.609375 56 
Q 42.328125 56 49.015625 48.375 
Q 55.71875 40.765625 55.71875 27.296875 
Q 55.71875 13.875 49.015625 6.21875 
Q 42.328125 -1.421875 30.609375 -1.421875 
Q 18.84375 -1.421875 12.171875 6.21875 
Q 5.515625 13.875 5.515625 27.296875 
Q 5.515625 40.765625 12.171875 48.375 
Q 18.84375 56 30.609375 56 
z
" id="DejaVuSans-111"/>
      <path d="M 37.109375 75.984375 
L 37.109375 68.5 
L 28.515625 68.5 
Q 23.6875 68.5 21.796875 66.546875 
Q 19.921875 64.59375 19.921875 59.515625 
L 19.921875 54.6875 
L 34.71875 54.6875 
L 34.71875 47.703125 
L 19.921875 47.703125 
L 19.921875 0 
L 10.890625 0 
L 10.890625 47.703125 
L 2.296875 47.703125 
L 2.296875 54.6875 
L 10.890625 54.6875 
L 10.890625 58.5 
Q 10.890625 67.625 15.140625 71.796875 
Q 19.390625 75.984375 28.609375 75.984375 
z
" id="DejaVuSans-102"/>
      <path d="M 18.109375 8.203125 
L 18.109375 -20.796875 
L 9.078125 -20.796875 
L 9.078125 54.6875 
L 18.109375 54.6875 
L 18.109375 46.390625 
Q 20.953125 51.265625 25.265625 53.625 
Q 29.59375 56 35.59375 56 
Q 45.5625 56 51.78125 48.09375 
Q 58.015625 40.1875 58.015625 27.296875 
Q 58.015625 14.40625 51.78125 6.484375 
Q 45.5625 -1.421875 35.59375 -1.421875 
Q 29.59375 -1.421875 25.265625 0.953125 
Q 20.953125 3.328125 18.109375 8.203125 
z
M 48.6875 27.296875 
Q 48.6875 37.203125 44.609375 42.84375 
Q 40.53125 48.484375 33.40625 48.484375 
Q 26.265625 48.484375 22.1875 42.84375 
Q 18.109375 37.203125 18.109375 27.296875 
Q 18.109375 17.390625 22.1875 11.75 
Q 26.265625 6.109375 33.40625 6.109375 
Q 40.53125 6.109375 44.609375 11.75 
Q 48.6875 17.390625 48.6875 27.296875 
z
" id="DejaVuSans-112"/>
      <path d="M 4.203125 54.6875 
L 13.1875 54.6875 
L 24.421875 12.015625 
L 35.59375 54.6875 
L 46.1875 54.6875 
L 57.421875 12.015625 
L 68.609375 54.6875 
L 77.59375 54.6875 
L 63.28125 0 
L 52.6875 0 
L 40.921875 44.828125 
L 29.109375 0 
L 18.5 0 
z
" id="DejaVuSans-119"/>
      <path d="M 44.28125 53.078125 
L 44.28125 44.578125 
Q 40.484375 46.53125 36.375 47.5 
Q 32.28125 48.484375 27.875 48.484375 
Q 21.1875 48.484375 17.84375 46.4375 
Q 14.5 44.390625 14.5 40.28125 
Q 14.5 37.15625 16.890625 35.375 
Q 19.28125 33.59375 26.515625 31.984375 
L 29.59375 31.296875 
Q 39.15625 29.25 43.1875 25.515625 
Q 47.21875 21.78125 47.21875 15.09375 
Q 47.21875 7.46875 41.1875 3.015625 
Q 35.15625 -1.421875 24.609375 -1.421875 
Q 20.21875 -1.421875 15.453125 -0.5625 
Q 10.6875 0.296875 5.421875 2 
L 5.421875 11.28125 
Q 10.40625 8.6875 15.234375 7.390625 
Q 20.0625 6.109375 24.8125 6.109375 
Q 31.15625 6.109375 34.5625 8.28125 
Q 37.984375 10.453125 37.984375 14.40625 
Q 37.984375 18.0625 35.515625 20.015625 
Q 33.0625 21.96875 24.703125 23.78125 
L 21.578125 24.515625 
Q 13.234375 26.265625 9.515625 29.90625 
Q 5.8125 33.546875 5.8125 39.890625 
Q 5.8125 47.609375 11.28125 51.796875 
Q 16.75 56 26.8125 56 
Q 31.78125 56 36.171875 55.265625 
Q 40.578125 54.546875 44.28125 53.078125 
z
" id="DejaVuSans-115"/>
      <path d="M 52 44.1875 
Q 55.375 50.25 60.0625 53.125 
Q 64.75 56 71.09375 56 
Q 79.640625 56 84.28125 50.015625 
Q 88.921875 44.046875 88.921875 33.015625 
L 88.921875 0 
L 79.890625 0 
L 79.890625 32.71875 
Q 79.890625 40.578125 77.09375 44.375 
Q 74.3125 48.1875 68.609375 48.1875 
Q 61.625 48.1875 57.5625 43.546875 
Q 53.515625 38.921875 53.515625 30.90625 
L 53.515625 0 
L 44.484375 0 
L 44.484375 32.71875 
Q 44.484375 40.625 41.703125 44.40625 
Q 38.921875 48.1875 33.109375 48.1875 
Q 26.21875 48.1875 22.15625 43.53125 
Q 18.109375 38.875 18.109375 30.90625 
L 18.109375 0 
L 9.078125 0 
L 9.078125 54.6875 
L 18.109375 54.6875 
L 18.109375 46.1875 
Q 21.1875 51.21875 25.484375 53.609375 
Q 29.78125 56 35.6875 56 
Q 41.65625 56 45.828125 52.96875 
Q 50 49.953125 52 44.1875 
z
" id="DejaVuSans-109"/>
      <path d="M 45.40625 46.390625 
L 45.40625 75.984375 
L 54.390625 75.984375 
L 54.390625 0 
L 45.40625 0 
L 45.40625 8.203125 
Q 42.578125 3.328125 38.25 0.953125 
Q 33.9375 -1.421875 27.875 -1.421875 
Q 17.96875 -1.421875 11.734375 6.484375 
Q 5.515625 14.40625 5.515625 27.296875 
Q 5.515625 40.1875 11.734375 48.09375 
Q 17.96875 56 27.875 56 
Q 33.9375 56 38.25 53.625 
Q 42.578125 51.265625 45.40625 46.390625 
z
M 14.796875 27.296875 
Q 14.796875 17.390625 18.875 11.75 
Q 22.953125 6.109375 30.078125 6.109375 
Q 37.203125 6.109375 41.296875 11.75 
Q 45.40625 17.390625 45.40625 27.296875 
Q 45.40625 37.203125 41.296875 42.84375 
Q 37.203125 48.484375 30.078125 48.484375 
Q 22.953125 48.484375 18.875 42.84375 
Q 14.796875 37.203125 14.796875 27.296875 
z
" id="DejaVuSans-100"/>
     </defs>
     <g transform="translate(28.617187 248.812375)rotate(-90)scale(0.1 -0.1)">
      <use xlink:href="#DejaVuSans-70"/>
      <use x="50.269531" xlink:href="#DejaVuSans-114"/>
      <use x="91.382812" xlink:href="#DejaVuSans-97"/>
      <use x="152.662109" xlink:href="#DejaVuSans-99"/>
      <use x="207.642578" xlink:href="#DejaVuSans-116"/>
      <use x="246.851562" xlink:href="#DejaVuSans-105"/>
      <use x="274.634766" xlink:href="#DejaVuSans-111"/>
      <use x="335.816406" xlink:href="#DejaVuSans-110"/>
      <use x="399.195312" xlink:href="#DejaVuSans-32"/>
      <use x="430.982422" xlink:href="#DejaVuSans-111"/>
      <use x="492.164062" xlink:href="#DejaVuSans-102"/>
      <use x="527.369141" xlink:href="#DejaVuSans-32"/>
      <use x="559.15625" xlink:href="#DejaVuSans-112"/>
      <use x="622.632812" xlink:href="#DejaVuSans-111"/>
      <use x="683.814453" xlink:href="#DejaVuSans-119"/>
      <use x="765.601562" xlink:href="#DejaVuSans-101"/>
      <use x="827.125" xlink:href="#DejaVuSans-114"/>
      <use x="868.238281" xlink:href="#DejaVuSans-32"/>
      <use x="900.025391" xlink:href="#DejaVuSans-116"/>
      <use x="939.234375" xlink:href="#DejaVuSans-114"/>
      <use x="980.347656" xlink:href="#DejaVuSans-97"/>
      <use x="1041.626953" xlink:href="#DejaVuSans-110"/>
      <use x="1105.005859" xlink:href="#DejaVuSans-115"/>
      <use x="1157.105469" xlink:href="#DejaVuSans-109"/>
      <use x="1254.517578" xlink:href="#DejaVuSans-105"/>
      <use x="1282.300781" xlink:href="#DejaVuSans-116"/>
      <use x="1321.509766" xlink:href="#DejaVuSans-116"/>
      <use x="1360.71875" xlink:href="#DejaVuSans-101"/>
      <use x="1422.242188" xlink:href="#DejaVuSans-100"/>
     </g>
    </g>
   </g>
   <g id="line2d_16">
    <path clip-path="url(#p2d375f22a9)" d="M 412.774025 307.584 
L 396.75517 307.481364 
L 396.217474 307.260037 
L 395.680731 306.735715 
L 395.32343 306.10858 
L 394.788267 304.559682 
L 394.25405 302.05813 
L 393.720775 298.418687 
L 393.011203 291.726313 
L 392.12658 280.87718 
L 390.892458 262.498827 
L 388.264864 220.867166 
L 387.568047 214.670474 
L 386.352514 205.080807 
L 385.66014 197.285775 
L 384.280203 179.962262 
L 383.936217 177.43119 
L 383.592629 176.196384 
L 383.420983 176.045183 
L 383.249437 176.160814 
L 382.906642 176.985292 
L 382.051385 179.650401 
L 381.88063 179.839272 
L 381.709973 179.816711 
L 381.539414 179.557937 
L 381.198591 178.276796 
L 380.858161 175.976212 
L 380.348249 170.941654 
L 379.331061 159.986237 
L 378.992776 157.960126 
L 378.823779 157.480953 
L 378.654879 157.375173 
L 378.486076 157.630268 
L 378.148761 159.078387 
L 377.475287 164.022083 
L 376.971193 167.373399 
L 376.63561 168.609665 
L 376.467963 168.825736 
L 376.300411 168.749169 
L 376.132955 168.372477 
L 375.798329 166.732212 
L 375.297106 162.340673 
L 373.964694 148.72366 
L 373.632538 147.672747 
L 373.466601 147.732304 
L 373.300759 148.170202 
L 372.969357 150.029992 
L 372.142497 157.451062 
L 371.647506 161.08527 
L 371.317979 162.317169 
L 371.153355 162.493202 
L 370.988824 162.35917 
L 370.660043 161.159515 
L 370.331633 158.79743 
L 369.675925 151.592574 
L 368.858371 142.694578 
L 368.531994 140.911456 
L 368.368944 140.596647 
L 368.205986 140.68315 
L 368.043119 141.158294 
L 367.71766 143.130548 
L 367.067841 149.458288 
L 366.419481 155.307257 
L 366.095847 156.964469 
L 365.934166 157.362914 
L 365.772576 157.453265 
L 365.611076 157.229123 
L 365.288349 155.849147 
L 364.804935 151.695442 
L 363.359554 135.678212 
L 363.039345 134.580794 
L 362.879374 134.632763 
L 362.719493 135.079091 
L 362.399997 137.0267 
L 361.762074 143.53886 
L 361.12557 149.96334 
L 360.649121 152.659793 
L 360.490482 152.987808 
L 360.33193 153.006838 
L 360.173466 152.713259 
L 359.856803 151.207929 
L 359.382467 146.913516 
L 357.807032 129.697105 
L 357.649967 129.258228 
L 357.49299 129.219632 
L 357.336099 129.577153 
L 357.022578 131.376871 
L 356.552944 136.043255 
L 355.616006 146.137992 
L 355.148698 148.720132 
L 354.9931 149.010073 
L 354.837588 148.9952 
L 354.682161 148.673376 
L 354.371564 147.131305 
L 353.906308 142.825042 
L 352.360977 125.132625 
L 352.052926 124.358707 
L 351.899027 124.55988 
L 351.591482 126.071428 
L 351.130795 130.48696 
L 350.05879 142.486099 
L 349.600612 145.060812 
L 349.448052 145.359902 
L 349.295576 145.361956 
L 349.143182 145.065089 
L 348.838644 143.594997 
L 348.382458 139.427414 
L 346.716127 120.478728 
L 346.565136 120.06542 
L 346.414226 120.035131 
L 346.263398 120.384697 
L 345.961986 122.136501 
L 345.510481 126.757321 
L 344.459814 138.904592 
L 344.010743 141.612741 
L 343.711766 142.056449 
L 343.562399 141.845981 
L 343.263906 140.571726 
L 342.816768 136.715036 
L 342.073143 126.961657 
L 341.331514 118.176987 
L 341.03542 116.436428 
L 340.887493 116.097558 
L 340.739644 116.12948 
L 340.591875 116.527217 
L 340.296574 118.33339 
L 339.854217 122.963935 
L 338.678064 136.524277 
L 338.238302 138.779654 
L 338.091871 138.999848 
L 337.945519 138.94267 
L 337.653048 138.000289 
L 337.360889 136.005906 
L 336.923234 131.345655 
L 335.469425 113.651536 
L 335.179589 112.568119 
L 335.034787 112.555416 
L 334.890062 112.89587 
L 334.600841 114.564149 
L 334.167586 119.00186 
L 332.871943 134.024937 
L 332.58486 135.634681 
L 332.298079 136.227755 
L 332.154803 136.127219 
L 331.868477 135.135869 
L 331.582453 133.143018 
L 331.153982 128.562584 
L 329.730629 110.83098 
L 329.446856 109.496658 
L 329.305081 109.329012 
L 329.163381 109.501844 
L 328.880204 110.824317 
L 328.455995 114.827379 
L 326.906257 132.349044 
L 326.625444 133.499918 
L 326.485148 133.704233 
L 326.344925 133.655397 
L 326.064698 132.802533 
L 325.784764 130.985578 
L 325.365411 126.696553 
L 323.694538 107.028129 
L 323.417072 106.489291 
L 323.278447 106.705189 
L 323.001414 108.063152 
L 322.586402 112.019162 
L 321.070205 129.673609 
L 320.795459 131.042804 
L 320.520998 131.477349 
L 320.383873 131.334092 
L 320.109837 130.334229 
L 319.699312 127.170052 
L 319.152934 120.539397 
L 318.06355 106.503491 
L 317.656186 104.164006 
L 317.520538 103.974569 
L 317.384959 104.093535 
L 317.114011 105.226477 
L 316.708109 108.840722 
L 314.9564 128.526507 
L 314.687939 129.41966 
L 314.553812 129.528113 
L 314.419753 129.408204 
L 314.15184 128.491172 
L 313.750484 125.526175 
L 313.216298 119.21377 
L 312.018351 103.94788 
L 311.752885 102.30844 
L 311.487688 101.785865 
L 311.355191 101.961952 
L 311.090399 103.157426 
L 310.693713 106.751738 
L 308.981697 126.509546 
L 308.719309 127.609049 
L 308.457185 127.859284 
L 308.326222 127.660623 
L 308.064495 126.626637 
L 307.6724 123.591592 
L 307.150528 117.358896 
L 305.980153 102.33472 
L 305.591203 100.12684 
L 305.461684 99.920294 
L 305.332229 99.990758 
L 305.073515 100.943567 
L 304.68593 104.16143 
L 304.04125 112.40621 
L 303.269761 122.02209 
L 302.884883 125.090052 
L 302.628619 126.212993 
L 302.37261 126.534607 
L 302.244702 126.389319 
L 301.989076 125.494272 
L 301.606116 122.729177 
L 301.096391 116.881448 
L 299.826511 100.629702 
L 299.446776 98.545204 
L 299.320324 98.352941 
L 299.193934 98.422937 
L 298.941342 99.332929 
L 298.562923 102.409264 
L 297.933474 110.404913 
L 297.054857 121.367889 
L 296.679236 124.224444 
L 296.429131 125.24454 
L 296.179272 125.504593 
L 296.054436 125.34542 
L 295.804947 124.456854 
L 295.431174 121.78045 
L 294.933668 116.14968 
L 293.570561 98.952429 
L 293.200081 97.181419 
L 293.076708 97.073018 
L 292.953396 97.212819 
L 292.706953 98.216178 
L 292.337741 101.321158 
L 291.723591 109.188659 
L 290.866298 120.112624 
L 290.37773 123.805142 
L 290.133803 124.642907 
L 290.011928 124.791755 
L 289.890113 124.758401 
L 289.646661 124.148461 
L 289.281927 121.931666 
L 288.796442 116.887699 
L 287.225112 97.441679 
L 286.984246 96.316758 
L 286.863901 96.096327 
L 286.743614 96.110823 
L 286.503215 96.8362 
L 286.143052 99.5126 
L 285.543939 106.889195 
L 284.469172 120.524793 
L 283.992993 123.710968 
L 283.755247 124.327754 
L 283.636459 124.379459 
L 283.517729 124.259205 
L 283.28044 123.508918 
L 282.924933 121.170147 
L 282.45172 116.121457 
L 280.802602 96.208311 
L 280.567915 95.40204 
L 280.450655 95.328758 
L 280.333452 95.478126 
L 280.099212 96.427278 
L 279.748272 99.307713 
L 279.164487 106.713497 
L 278.117173 120.140823 
L 277.653137 123.400632 
L 277.42145 124.11564 
L 277.305688 124.23169 
L 277.189982 124.185409 
L 276.958734 123.609261 
L 276.612274 121.581848 
L 276.151092 116.975502 
L 275.231345 104.28165 
L 274.658268 97.551861 
L 274.31507 95.307583 
L 274.086541 94.802585 
L 273.972358 94.865596 
L 273.744152 95.615346 
L 273.402247 98.168456 
L 272.833477 105.142629 
L 271.699941 119.978445 
L 271.248015 123.306114 
L 270.909626 124.290281 
L 270.796936 124.314124 
L 270.571713 123.904022 
L 270.234273 122.177321 
L 269.78509 118.011957 
L 269.112889 109.046424 
L 268.219542 97.529545 
L 267.885396 95.158485 
L 267.66289 94.500631 
L 267.551715 94.469161 
L 267.32952 95.002586 
L 266.996615 97.199313 
L 266.553462 102.183886 
L 265.008888 121.857612 
L 264.569418 124.24601 
L 264.349987 124.598735 
L 264.240348 124.558846 
L 264.021222 124.048844 
L 263.692911 122.243304 
L 263.25587 118.096324 
L 262.492985 107.728574 
L 261.732553 97.847122 
L 261.299119 94.762787 
L 261.0827 94.272326 
L 260.974565 94.310238 
L 260.758444 94.948428 
L 260.434633 97.21347 
L 260.003578 102.152025 
L 258.394129 122.593076 
L 258.073561 124.402797 
L 257.860092 124.951456 
L 257.75343 125.022793 
L 257.646817 124.958227 
L 257.433737 124.424488 
L 257.114481 122.645342 
L 256.689483 118.629593 
L 255.947593 108.567354 
L 255.102601 97.517451 
L 254.681252 94.624121 
L 254.470864 94.180777 
L 254.365741 94.227355 
L 254.155639 94.852809 
L 253.84084 97.032752 
L 253.421773 101.787208 
L 251.753044 123.131326 
L 251.337736 125.230165 
L 251.130363 125.52935 
L 251.026746 125.487295 
L 250.819651 125.021948 
L 250.509358 123.39789 
L 250.096283 119.657164 
L 249.478057 111.550892 
L 248.451362 97.670678 
L 248.041967 94.717221 
L 247.837544 94.179561 
L 247.7354 94.163602 
L 247.53125 94.63782 
L 247.225366 96.547335 
L 246.818155 100.937215 
L 244.994644 124.088909 
L 244.591394 125.883118 
L 244.390036 126.070479 
L 244.188857 125.778286 
L 243.887422 124.459129 
L 243.486129 121.171314 
L 242.885519 113.660655 
L 241.589636 96.480638 
L 241.291638 94.634192 
L 241.093191 94.161757 
L 240.994033 94.164695 
L 240.795847 94.648008 
L 240.498895 96.503923 
L 240.103567 100.733856 
L 239.118273 115.027076 
L 238.431128 123.087093 
L 238.039417 125.709931 
L 237.746082 126.543457 
L 237.550738 126.538269 
L 237.355565 126.084759 
L 237.063124 124.586953 
L 236.673797 121.181557 
L 236.091075 113.720059 
L 234.83371 96.772512 
L 234.448252 94.426662 
L 234.255773 94.115946 
L 234.159596 94.186685 
L 233.967367 94.775438 
L 233.679336 96.710041 
L 233.200112 102.180029 
L 231.483441 124.582922 
L 231.103762 126.614298 
L 230.819431 127.054271 
L 230.63008 126.821161 
L 230.346359 125.694308 
L 229.968631 122.823712 
L 229.403252 116.088263 
L 227.902652 96.036341 
L 227.529101 94.166234 
L 227.342564 94.058854 
L 227.156186 94.516237 
L 226.876917 96.208252 
L 226.505113 100.058872 
L 225.763397 110.777593 
L 224.931974 121.978621 
L 224.47144 125.834053 
L 224.103715 127.267844 
L 223.920085 127.399314 
L 223.736611 127.137186 
L 223.46169 126.018472 
L 223.09567 123.246888 
L 222.547797 116.787798 
L 220.912459 95.285445 
L 220.641103 94.043547 
L 220.460389 93.866421 
L 220.279827 94.2201 
L 220.009266 95.705781 
L 219.649048 99.233683 
L 219.020116 108.073419 
L 218.035502 121.79499 
L 217.500342 126.256631 
L 217.144311 127.516426 
L 216.966518 127.598966 
L 216.788872 127.314568 
L 216.522681 126.211863 
L 216.168274 123.545987 
L 215.637768 117.370926 
L 213.966504 95.133278 
L 213.703818 93.834787 
L 213.528875 93.57469 
L 213.354076 93.811749 
L 213.092149 95.071866 
L 212.743415 98.249402 
L 212.134512 106.562417 
L 211.00833 122.268492 
L 210.490577 126.414687 
L 210.146115 127.57054 
L 209.974095 127.638462 
L 209.802216 127.364838 
L 209.544661 126.324417 
L 209.201746 123.81839 
L 208.688421 117.991133 
L 206.816933 93.943289 
L 206.563025 93.188848 
L 206.478458 93.167831 
L 206.309426 93.473091 
L 206.056135 94.769086 
L 205.718893 97.881642 
L 205.130032 105.901919 
L 203.957298 122.251276 
L 203.456722 126.237074 
L 203.123676 127.39996 
L 202.957355 127.508116 
L 202.791167 127.298765 
L 202.542135 126.397165 
L 202.21056 124.143917 
L 201.714195 118.77995 
L 200.889569 106.602981 
L 200.150224 96.559177 
L 199.740624 93.365809 
L 199.495257 92.643052 
L 199.331841 92.698095 
L 199.168557 93.180949 
L 198.923873 94.666707 
L 198.516717 98.871321 
L 197.785873 109.513635 
L 196.896162 121.623114 
L 196.412498 125.644807 
L 196.090693 126.954568 
L 195.849674 127.171354 
L 195.689153 126.948107 
L 195.44861 126.068945 
L 195.128328 123.921203 
L 194.648853 118.84189 
L 193.852243 107.183023 
L 192.979586 95.350389 
L 192.584168 92.513541 
L 192.347289 91.937618 
L 192.189525 92.052735 
L 191.95311 92.96192 
L 191.638322 95.434224 
L 191.167062 101.215744 
L 189.526322 123.320988 
L 189.137645 125.817996 
L 188.827247 126.631357 
L 188.672229 126.630738 
L 188.517331 126.358411 
L 188.28521 125.44808 
L 187.898941 122.655741 
L 187.359421 116.439016 
L 185.520687 92.227697 
L 185.215884 91.156776 
L 185.063658 91.171445 
L 184.91155 91.553887 
L 184.683606 92.788605 
L 184.304284 96.389978 
L 183.698882 104.785045 
L 182.568747 120.479716 
L 182.118506 124.254815 
L 181.744093 125.791401 
L 181.519789 125.96727 
L 181.370395 125.770659 
L 181.146517 125.010447 
L 180.848412 123.157654 
L 180.402104 118.746712 
L 179.734549 109.43519 
L 178.627013 93.858752 
L 178.259231 91.036065 
L 177.965506 90.205293 
L 177.81881 90.299186 
L 177.598974 91.069323 
L 177.306246 93.186797 
L 176.867981 98.235776 
L 174.980234 122.812729 
L 174.619315 124.673854 
L 174.403088 125.110966 
L 174.259071 125.113526 
L 174.043249 124.685059 
L 173.755862 123.323634 
L 173.397232 120.427022 
L 172.896274 114.477218 
L 171.046972 90.259651 
L 170.764047 89.250837 
L 170.622742 89.212277 
L 170.481542 89.486255 
L 170.269938 90.46482 
L 169.917787 93.457584 
L 169.355699 100.781523 
L 168.027378 119.116854 
L 167.540338 122.889965 
L 167.193218 124.081086 
L 166.985253 124.162359 
L 166.777516 123.766745 
L 166.50089 122.512213 
L 166.086711 119.167615 
L 165.535887 112.432826 
L 163.893046 90.144069 
L 163.552594 88.363016 
L 163.34862 88.133624 
L 163.212761 88.339473 
L 163.009158 89.172778 
L 162.670312 91.83875 
L 162.129436 98.585357 
L 160.650085 118.718315 
L 160.181845 122.081464 
L 159.84811 123.091038 
L 159.714785 123.155807 
L 159.581555 123.025896 
L 159.381891 122.469019 
L 159.049596 120.603858 
L 158.65163 116.940772 
L 158.056286 109.156215 
L 156.674595 90.029081 
L 156.281729 87.485406 
L 156.085611 87.056003 
L 155.954982 87.097698 
L 155.759213 87.647666 
L 155.498514 89.242626 
L 155.10816 93.203697 
L 154.394672 103.318657 
L 153.426213 116.379619 
L 152.911802 120.579788 
L 152.591033 121.857416 
L 152.398844 122.095341 
L 152.270831 122.031322 
L 152.078981 121.603082 
L 151.823496 120.424425 
L 151.440944 117.428687 
L 150.93213 111.480638 
L 149.036761 87.004429 
L 148.785547 86.076189 
L 148.597367 86.002997 
L 148.409384 86.46569 
L 148.159046 87.87692 
L 147.784194 91.468263 
L 147.161181 99.990402 
L 146.045203 115.245112 
L 145.551447 119.352919 
L 145.182027 120.8479 
L 144.997605 121.052835 
L 144.874763 120.986225 
L 144.690659 120.583089 
L 144.384243 119.120698 
L 144.017242 116.141272 
L 143.468162 109.580549 
L 141.710426 86.484847 
L 141.409132 85.122094 
L 141.228603 84.946637 
L 141.108353 85.102281 
L 140.928133 85.736578 
L 140.628177 87.791129 
L 140.149311 93.165941 
L 138.246847 117.565321 
L 137.833434 119.666584 
L 137.597638 120.068867 
L 137.421 119.981977 
L 137.185762 119.351515 
L 136.892162 117.760149 
L 136.481955 114.1473 
L 135.897623 106.743743 
L 134.387539 86.442799 
L 134.040927 84.403086 
L 133.810239 83.997327 
L 133.695011 84.091806 
L 133.522314 84.600597 
L 133.234871 86.373324 
L 132.833257 90.495476 
L 132.089888 101.002249 
L 131.179383 113.162748 
L 130.66935 117.452186 
L 130.330173 118.911599 
L 130.10443 119.21928 
L 129.935319 119.096438 
L 129.710099 118.465135 
L 129.372828 116.548813 
L 128.924172 112.345145 
L 128.253406 103.40001 
L 127.030536 86.691867 
L 126.643292 83.903675 
L 126.367232 83.175697 
L 126.256935 83.198546 
L 126.091625 83.568574 
L 125.816469 85.042406 
L 125.432006 88.671624 
L 124.774969 97.600817 
L 123.685605 112.417167 
L 123.143575 116.906672 
L 122.819201 118.239256 
L 122.603302 118.52235 
L 122.441562 118.413397 
L 122.226152 117.843111 
L 121.90356 116.103867 
L 121.47441 112.267606 
L 120.886136 104.762769 
L 119.450998 85.382098 
L 119.080954 82.998314 
L 118.817145 82.462575 
L 118.71174 82.534058 
L 118.553758 82.945016 
L 118.290793 84.403713 
L 117.923347 87.864346 
L 117.295348 96.317062 
L 116.098378 112.473936 
L 115.58068 116.562096 
L 115.219268 117.873273 
L 115.013107 118.01613 
L 114.858657 117.831956 
L 114.601567 116.977361 
L 114.242323 114.677566 
L 113.781603 110.032721 
L 113.067523 100.179538 
L 112.002284 85.757925 
L 111.598323 82.738022 
L 111.346362 81.964104 
L 111.195374 81.942188 
L 111.044528 82.253014 
L 110.793432 83.483587 
L 110.442557 86.541835 
L 109.892728 93.594487 
L 108.452177 112.955642 
L 107.958437 116.553906 
L 107.613728 117.64827 
L 107.417087 117.722584 
L 107.269765 117.514493 
L 107.024533 116.672213 
L 106.681843 114.493673 
L 106.193569 109.577521 
L 105.463972 99.459433 
L 104.44817 85.650279 
L 104.014825 82.342041 
L 103.72659 81.533901 
L 103.582671 81.582013 
L 103.390984 82.113216 
L 103.103893 83.857708 
L 102.674239 88.272534 
L 101.913313 99.098692 
L 100.967344 111.713405 
L 100.449501 115.989771 
L 100.073969 117.485394 
L 99.839722 117.686357 
L 99.699344 117.533757 
L 99.465662 116.829306 
L 99.139098 114.929469 
L 98.673772 110.537077 
L 98.024662 101.902086 
L 96.78048 84.918562 
L 96.367981 81.969566 
L 96.093598 81.28722 
L 95.95659 81.356835 
L 95.774103 81.873051 
L 95.500781 83.508914 
L 95.091711 87.619351 
L 94.367173 97.841343 
L 93.331654 111.858375 
L 92.83889 115.998084 
L 92.48152 117.554691 
L 92.258591 117.866099 
L 92.124992 117.805846 
L 91.947042 117.438812 
L 91.68051 116.286036 
L 91.325865 113.682808 
L 90.795457 107.804173 
L 89.827872 93.69182 
L 89.084443 84.425006 
L 88.692352 81.781555 
L 88.431528 81.194192 
L 88.301287 81.273264 
L 88.127808 81.76254 
L 87.867968 83.280397 
L 87.479056 87.085742 
L 86.833119 96.045863 
L 85.677467 112.039283 
L 85.166725 116.377817 
L 84.784824 117.997102 
L 84.573084 118.253008 
L 84.40391 118.123362 
L 84.192715 117.547129 
L 83.897551 115.989014 
L 83.476913 112.353354 
L 82.890037 105.009417 
L 81.267465 83.381296 
L 80.895573 81.457747 
L 80.689377 81.241163 
L 80.565799 81.411916 
L 80.360068 82.187605 
L 80.031505 84.612771 
L 79.54005 90.415356 
L 77.590762 116.051846 
L 77.187956 118.244039 
L 76.906663 118.802141 
L 76.746171 118.753159 
L 76.545807 118.317633 
L 76.265769 117.02466 
L 75.866661 113.876992 
L 75.309774 107.300709 
L 73.416796 82.656733 
L 73.103737 81.466143 
L 72.947467 81.407649 
L 72.791369 81.710942 
L 72.557544 82.82327 
L 72.20753 85.827182 
L 71.664783 92.850321 
L 70.087242 114.732978 
L 69.628857 118.15386 
L 69.286051 119.363017 
L 69.095965 119.511454 
L 68.944083 119.359897 
L 68.71657 118.686917 
L 68.413794 116.982733 
L 67.998549 113.248351 
L 67.396761 105.509949 
L 65.829384 84.098564 
L 65.458803 81.959789 
L 65.236932 81.621311 
L 65.126131 81.727899 
L 64.941659 82.309151 
L 64.647018 84.23122 
L 64.242916 88.561962 
L 63.51122 99.335049 
L 62.493375 113.654362 
L 61.951209 118.390761 
L 61.59096 119.979758 
L 61.339353 120.298769 
L 61.195787 120.185137 
L 60.980721 119.614793 
L 60.694497 118.12695 
L 60.301924 114.811646 
L 59.732935 107.801137 
L 57.935148 83.590431 
L 57.620374 82.10204 
L 57.445819 81.903833 
L 57.306339 82.076042 
L 57.09739 82.875258 
L 56.784579 85.205638 
L 56.33403 90.51265 
L 55.265756 106.870568 
L 54.546938 115.953185 
L 54.069884 119.656994 
L 53.730183 120.928539 
L 53.526781 121.118291 
L 53.391354 121.004809 
L 53.188473 120.477773 
L 52.884737 118.904586 
L 52.480844 115.441231 
L 51.91078 108.314002 
L 50.116285 83.908248 
L 49.786664 82.36649 
L 49.589291 82.215644 
L 49.457876 82.443921 
L 49.228219 83.459768 
L 48.900841 86.158348 
L 48.411321 92.339522 
L 46.503684 118.626949 
L 46.087134 121.155803 
L 45.799545 121.873728 
L 45.640051 121.89961 
L 45.480756 121.659591 
L 45.226297 120.730518 
L 44.877241 118.400249 
L 44.402789 113.454043 
L 43.710111 103.514315 
L 42.522501 86.43764 
L 42.087756 83.161022 
L 41.840001 82.492097 
L 41.716306 82.508426 
L 41.561857 82.857581 
L 41.315133 84.149441 
L 40.945953 87.59661 
L 40.394209 95.198857 
L 38.874228 117.192645 
L 38.391721 121.068282 
L 38.031065 122.463295 
L 37.821165 122.652919 
L 37.671453 122.50559 
L 37.462161 121.90741 
L 37.163784 120.280694 
L 36.747262 116.579588 
L 36.18422 109.351679 
L 34.393784 84.487877 
L 34.073683 82.903021 
L 33.870419 82.696635 
L 33.725437 82.939287 
L 33.493824 83.985699 
L 33.176073 86.63643 
L 32.68663 92.878255 
L 30.748382 119.957162 
L 30.324984 122.528619 
L 30.043544 123.226011 
L 29.874996 123.246196 
L 29.706684 122.968516 
L 29.454658 122.002059 
L 29.119446 119.726257 
L 28.646165 114.757037 
L 27.953552 104.708492 
L 26.716919 86.664017 
L 26.307556 83.556167 
L 26.035432 82.827534 
L 25.899605 82.892141 
L 25.736819 83.345335 
L 25.466006 84.97013 
L 25.08791 88.83832 
L 24.46938 97.869621 
L 23.162424 117.201721 
L 22.633146 121.838578 
L 22.264077 123.451162 
L 22.027436 123.740704 
L 21.869942 123.606876 
L 21.660283 123.025544 
L 21.372619 121.493092 
L 20.955471 117.844103 
L 20.384339 110.521411 
L 18.509271 84.360359 
L 18.203955 82.988496 
L 18.02623 82.846442 
L 17.899453 83.046448 
L 17.696902 83.877204 
L 17.393749 86.218407 
L 16.940529 91.725074 
L 15.939805 107.617336 
L 15.170288 118.018307 
L 14.65197 122.352488 
L 14.307747 123.766569 
L 14.087017 124.024398 
L 13.940104 123.911774 
L 13.74452 123.41056 
L 13.451782 121.923721 
L 13.062654 118.647015 
L 12.529807 112.067535 
L 11.519584 96.028209 
L 10.803588 86.390259 
L 10.399905 83.398364 
L 10.139484 82.733259 
L 10.021313 82.780119 
L 9.856088 83.210473 
L 9.596947 84.710504 
L 9.221103 88.471399 
L 8.613091 97.291559 
L 7.245788 117.648535 
L 6.717388 122.244912 
L 6.351318 123.824347 
L 6.12315 124.104448 
L 5.986481 124.009963 
L 5.781799 123.502097 
L 5.486832 122.010351 
L 5.102318 118.783501 
L 4.561803 112.110611 
L 3.577874 96.426332 
L 2.845823 86.375271 
L 2.426608 83.179885 
L 2.162689 82.483654 
L 2.030976 82.542709 
L 1.855611 83.040773 
L 1.593107 84.644423 
L 1.200567 88.721687 
L 0.571193 98.050321 
L -0.697763 117.033786 
L -1 120.095426 
L -1 120.095426 
" style="fill:none;stroke:#008000;stroke-linecap:square;stroke-opacity:0.7;stroke-width:0.8;"/>
   </g>
   <g id="line2d_17">
    <path clip-path="url(#p2d375f22a9)" d="M 57.592339 112.168378 
L 57.657331 115.178371 
L 57.689839 113.449442 
L 57.722355 112.970706 
L 57.78741 116.281405 
L 57.81995 114.488343 
L 57.852497 113.246664 
L 57.885052 113.347787 
L 57.950186 115.376092 
L 57.982765 113.186789 
L 58.015352 112.464295 
L 58.047947 113.311063 
L 58.08055 114.323353 
L 58.145779 112.913758 
L 58.178406 112.702199 
L 58.243683 115.057822 
L 58.276333 113.683088 
L 58.308991 112.504212 
L 58.341657 112.620237 
L 58.374332 114.48169 
L 58.439704 112.310748 
L 58.472402 112.099189 
L 58.537822 114.402389 
L 58.570544 112.448328 
L 58.668757 112.823812 
L 58.734273 109.465213 
L 58.79982 111.521726 
L 58.832606 110.995623 
L 58.898201 109.464148 
L 58.931011 111.452271 
L 58.963829 111.638815 
L 59.193777 105.819478 
L 59.226659 106.009482 
L 59.259549 105.934971 
L 59.325353 103.718524 
L 59.358267 105.083146 
L 59.391189 106.412642 
L 59.424119 104.89261 
L 59.457057 103.459331 
L 59.490003 104.792552 
L 59.522957 105.736185 
L 59.555919 104.313018 
L 59.753862 100.031542 
L 59.819908 101.626884 
L 59.852943 99.834619 
L 59.952096 100.743924 
L 60.183736 95.061901 
L 60.21686 96.85177 
L 60.283132 95.108204 
L 60.31628 94.747889 
L 60.382601 96.029484 
L 60.415774 94.690674 
L 60.448955 93.392846 
L 60.515341 94.887065 
L 60.548546 94.769444 
L 60.614981 92.859558 
L 60.648211 93.77179 
L 60.681448 94.335149 
L 60.714694 93.251541 
L 60.747949 92.693504 
L 60.781211 93.038917 
L 60.814481 94.171756 
L 60.84776 93.66774 
L 61.014276 89.597025 
L 61.047604 89.281416 
L 61.114284 92.097679 
L 61.147636 90.003644 
L 61.180996 89.099395 
L 61.214365 90.725606 
L 61.247742 91.405522 
L 61.31452 88.32288 
L 61.347922 89.814172 
L 61.381332 91.692923 
L 61.41475 90.814221 
L 61.448176 88.48441 
L 61.515053 90.237822 
L 61.548504 89.87112 
L 61.61543 86.459032 
L 61.648906 89.338896 
L 61.68239 89.669673 
L 61.715882 89.403827 
L 61.749382 88.22229 
L 61.782891 89.964259 
L 61.816408 91.737097 
L 61.883466 89.514796 
L 61.917008 89.327985 
L 61.984116 91.181455 
L 62.017682 89.340227 
L 62.25288 93.16053 
L 62.286513 92.397321 
L 62.320154 91.084058 
L 62.353803 91.600316 
L 62.421127 93.491574 
L 62.454801 91.436391 
L 62.488484 91.051327 
L 62.555874 92.427924 
L 62.589582 91.059842 
L 62.623298 90.502072 
L 62.825769 96.763953 
L 62.893326 95.090907 
L 62.960916 98.835103 
L 62.994724 97.859536 
L 63.02854 95.167015 
L 63.096198 97.959328 
L 63.197747 95.272927 
L 63.265488 99.168807 
L 63.299371 97.354722 
L 63.333263 96.897541 
L 63.502847 102.038559 
L 63.536789 103.644545 
L 63.57074 103.205992 
L 63.604699 100.871924 
L 63.672642 103.378699 
L 63.740619 100.692032 
L 63.808629 102.417236 
L 63.842647 102.849136 
L 63.876673 100.935525 
L 63.910708 100.998859 
L 64.081009 105.847686 
L 64.149189 106.749806 
L 64.183292 104.911504 
L 64.217403 105.398489 
L 64.251522 108.022886 
L 64.319787 106.423553 
L 64.353932 106.751669 
L 64.422247 109.350252 
L 64.456418 107.621855 
L 64.490597 107.773273 
L 64.55898 110.655532 
L 64.593185 109.398951 
L 64.627398 108.753363 
L 64.661619 109.403741 
L 64.695849 111.028088 
L 64.730088 110.376114 
L 64.764335 108.745646 
L 64.798591 110.397137 
L 64.832855 111.523589 
L 64.867127 110.9746 
L 64.901409 109.87263 
L 64.935699 110.422684 
L 64.969997 111.793427 
L 65.004304 111.466375 
L 65.038619 109.90616 
L 65.072943 110.83223 
L 65.107276 112.944095 
L 65.175967 111.15529 
L 65.279067 114.00189 
L 65.313451 111.908919 
L 65.347844 110.734035 
L 65.382245 112.662016 
L 65.416655 113.459288 
L 65.451073 111.764953 
L 65.4855 110.844737 
L 65.519936 112.746374 
L 65.55438 114.591328 
L 65.588833 113.30787 
L 65.623294 111.69736 
L 65.692243 113.610972 
L 65.761226 111.399847 
L 65.79573 112.168644 
L 65.864765 113.524751 
L 65.899295 111.78837 
L 66.002938 112.102116 
L 66.072077 110.530459 
L 66.106659 112.29558 
L 66.14125 112.103713 
L 66.210458 109.97801 
L 66.245075 111.349818 
L 66.2797 111.251889 
L 66.348977 109.321778 
L 66.383629 110.777145 
L 66.418289 111.044587 
L 66.487636 109.343333 
L 66.522322 110.313046 
L 66.557017 110.255831 
L 66.626433 107.942786 
L 66.730623 108.369896 
L 66.904446 105.223387 
L 66.800126 108.553779 
L 66.939237 106.139877 
L 66.974037 107.375169 
L 67.008845 106.153715 
L 67.043663 105.389974 
L 67.078488 106.492209 
L 67.113323 106.636708 
L 67.322515 103.707347 
L 67.357411 104.610531 
L 67.427229 103.792237 
L 67.636895 99.263277 
L 67.706854 100.413147 
L 67.776848 98.496608 
L 67.811858 100.305372 
L 67.846877 100.345288 
L 68.022105 95.988769 
L 68.057177 95.679014 
L 68.092258 95.696844 
L 68.127348 96.084037 
L 68.162447 94.729793 
L 68.232671 96.142582 
L 68.267796 96.948901 
L 68.30293 95.520678 
L 68.478733 91.905812 
L 68.549117 93.498493 
L 68.584322 93.070585 
L 68.619536 91.708889 
L 68.654759 92.721978 
L 68.689991 93.904047 
L 68.725231 92.165272 
L 68.760481 91.66232 
L 68.831007 93.924804 
L 68.866283 92.665296 
L 69.042799 87.764045 
L 69.254912 91.534054 
L 69.290296 91.146861 
L 69.325688 89.30643 
L 69.3965 90.548641 
L 69.467348 88.094822 
L 69.502785 89.731677 
L 69.538232 91.047069 
L 69.573687 89.760151 
L 69.609151 89.427245 
L 69.680107 91.6397 
L 69.715598 90.705913 
L 69.751099 89.822155 
L 69.786608 90.369814 
L 69.822126 92.621388 
L 69.89319 90.407868 
L 69.96429 93.973503 
L 69.999853 92.956955 
L 70.035426 90.969364 
L 70.106598 92.972389 
L 70.177806 91.374919 
L 70.213424 92.231001 
L 70.284686 94.28991 
L 70.320331 92.888032 
L 70.391648 95.50205 
L 70.42732 94.78408 
L 70.463001 93.366767 
L 70.498691 94.726866 
L 70.53439 96.936127 
L 70.570099 96.148702 
L 70.605816 94.114276 
L 70.641542 95.06536 
L 70.677278 97.482189 
L 70.748776 94.90862 
L 70.96349 99.70795 
L 70.999308 99.65526 
L 71.07097 97.661283 
L 71.106815 99.597514 
L 71.142669 99.619601 
L 71.178532 98.293565 
L 71.214405 99.097489 
L 71.286177 101.720023 
L 71.322077 100.678993 
L 71.357986 100.85782 
L 71.393904 102.683881 
L 71.429831 101.850418 
L 71.465767 100.503359 
L 71.501713 100.612199 
L 71.681579 105.026731 
L 71.717579 105.533408 
L 71.753589 104.604411 
L 71.789609 104.151488 
L 71.825637 106.231952 
L 71.897721 104.732677 
L 71.933777 104.792818 
L 72.005917 106.755394 
L 72.078093 106.654006 
L 72.150306 108.669272 
L 72.186427 106.846138 
L 72.222557 106.777481 
L 72.43953 111.061619 
L 72.475724 109.172756 
L 72.548141 110.668039 
L 72.584363 110.833028 
L 72.620595 109.322311 
L 72.656836 109.716156 
L 72.729346 112.361576 
L 72.765615 110.563723 
L 72.801893 110.619873 
L 72.83818 112.151879 
L 72.910783 110.586343 
L 72.947098 110.098825 
L 73.019757 111.621518 
L 73.0561 110.149121 
L 73.128815 112.000728 
L 73.165186 111.484471 
L 73.201567 110.492405 
L 73.237957 111.214633 
L 73.274356 112.483987 
L 73.310765 111.30857 
L 73.347183 110.392081 
L 73.38361 111.094616 
L 73.420047 112.355987 
L 73.456493 112.053684 
L 73.492948 110.381702 
L 73.529413 111.337311 
L 73.565888 112.271098 
L 73.602371 111.896944 
L 73.638864 110.964754 
L 73.675366 111.767081 
L 73.711878 112.288661 
L 73.748399 111.521992 
L 73.78493 110.60364 
L 73.82147 112.062998 
L 73.858019 112.606133 
L 74.040907 109.704181 
L 74.077513 108.78849 
L 74.150753 109.576714 
L 74.224031 108.622702 
L 74.297346 110.025112 
L 74.334018 108.790353 
L 74.370699 108.724623 
L 74.40739 109.888065 
L 74.44409 109.497944 
L 74.517519 107.792167 
L 74.554248 109.069504 
L 74.590986 108.753629 
L 74.738034 106.655602 
L 74.811614 104.19859 
L 74.848419 105.422705 
L 74.885233 105.137433 
L 74.922057 103.632038 
L 74.95889 104.348677 
L 74.995732 105.831986 
L 75.032585 105.131047 
L 75.069446 103.454807 
L 75.143198 104.815438 
L 75.180089 104.426382 
L 75.327745 102.505586 
L 75.512531 99.470312 
L 75.586512 100.379085 
L 75.660532 97.732068 
L 75.697556 98.753672 
L 75.734589 99.004616 
L 75.956994 95.438981 
L 76.031205 96.759163 
L 76.068325 96.146839 
L 76.105455 95.855181 
L 76.179744 96.992809 
L 76.254071 93.801062 
L 76.328437 94.412055 
L 76.402841 92.673545 
L 76.440058 93.671199 
L 76.477284 93.965785 
L 76.51452 92.176714 
L 76.589021 92.726502 
L 76.626286 92.33239 
L 76.663561 90.540924 
L 76.700845 91.214986 
L 76.738139 92.757371 
L 76.775443 92.19481 
L 76.812757 91.093639 
L 76.85008 92.080382 
L 76.887413 92.434843 
L 77.074223 89.759087 
L 77.111614 89.221807 
L 77.186426 91.307326 
L 77.223847 89.94297 
L 77.261277 89.721831 
L 77.298717 91.543102 
L 77.373626 90.053673 
L 77.411095 90.343735 
L 77.486063 92.128282 
L 77.523561 90.545448 
L 77.598588 93.781902 
L 77.636115 92.94498 
L 77.673653 91.64449 
L 77.7112 92.510419 
L 77.748758 93.35426 
L 77.786325 92.564706 
L 77.823902 91.502919 
L 77.861488 93.025079 
L 77.899085 93.454318 
L 77.936691 92.31802 
L 77.974307 92.497379 
L 78.049568 95.18378 
L 78.087214 93.60547 
L 78.124869 93.874509 
L 78.20021 95.566183 
L 78.237895 94.395556 
L 78.275589 94.616961 
L 78.313294 96.494648 
L 78.388733 95.061901 
L 78.464211 97.401291 
L 78.501965 96.598431 
L 78.539729 96.129542 
L 78.615286 99.27951 
L 78.653079 98.183927 
L 78.690883 97.523437 
L 78.728696 98.512575 
L 78.766519 98.904824 
L 78.804352 97.619237 
L 78.842195 97.642655 
L 79.031558 101.691549 
L 79.069461 101.498352 
L 79.107373 100.117496 
L 79.145296 101.625819 
L 79.183228 103.133078 
L 79.22117 101.912954 
L 79.259122 100.801937 
L 79.297084 102.136488 
L 79.335056 102.709427 
L 79.373038 101.702726 
L 79.41103 101.695008 
L 79.487044 104.785367 
L 79.525066 103.39094 
L 79.60114 105.694406 
L 79.677254 104.533891 
L 79.715326 104.454856 
L 79.753408 106.484226 
L 79.829601 105.160851 
L 79.905835 107.00208 
L 79.943967 106.487419 
L 79.982109 105.435479 
L 80.020261 106.390022 
L 80.211171 108.606469 
L 80.249384 107.345897 
L 80.287606 108.10405 
L 80.325838 109.220124 
L 80.364081 108.954012 
L 80.402333 107.982437 
L 80.440596 109.018677 
L 80.593747 111.170724 
L 80.63206 111.497244 
L 80.708716 109.871566 
L 80.785413 110.096696 
L 80.823776 109.053537 
L 80.86215 110.024314 
L 80.900533 111.04512 
L 80.938927 110.280314 
L 80.977331 109.62967 
L 81.015745 110.753195 
L 81.05417 111.334916 
L 81.131048 109.247533 
L 81.169503 111.079182 
L 81.207968 110.906475 
L 81.284928 109.180739 
L 81.323423 110.478301 
L 81.361929 110.236671 
L 81.400444 109.27308 
L 81.43897 109.81994 
L 81.477506 110.867091 
L 81.554609 110.149121 
L 81.631752 111.623381 
L 81.670339 110.281112 
L 81.708936 109.989719 
L 81.747544 110.534717 
L 81.786161 110.282975 
L 81.863427 108.687101 
L 81.940734 108.92128 
L 81.979402 108.389588 
L 82.018081 108.852091 
L 82.056771 109.52908 
L 82.09547 108.669804 
L 82.1729 108.836656 
L 82.289121 107.162279 
L 82.327882 107.959817 
L 82.366653 107.132741 
L 82.405435 106.073615 
L 82.483029 106.892176 
L 82.560664 105.239088 
L 82.599497 106.292625 
L 82.63834 106.735436 
L 82.832711 103.793302 
L 82.910532 104.189276 
L 83.105264 101.31021 
L 83.144242 101.068581 
L 83.18323 101.659349 
L 83.222228 100.718377 
L 83.417375 97.706256 
L 83.456436 98.530937 
L 83.495507 98.441789 
L 83.651895 97.012502 
L 83.847614 94.228438 
L 83.886789 94.827456 
L 83.925975 94.629469 
L 83.965171 93.291458 
L 84.004377 93.899523 
L 84.043594 94.925651 
L 84.082821 94.0387 
L 84.279115 92.444955 
L 84.318405 93.016564 
L 84.357706 92.904531 
L 84.436339 92.202793 
L 84.475671 93.276821 
L 84.515013 92.252024 
L 84.59373 92.483275 
L 84.711884 90.974154 
L 84.86957 92.416481 
L 84.909018 92.694834 
L 84.987946 91.970211 
L 85.027425 92.979308 
L 85.066915 92.655716 
L 85.106416 91.542569 
L 85.145927 91.564923 
L 85.185449 93.000065 
L 85.224981 92.158087 
L 85.264524 91.213921 
L 85.304078 92.509088 
L 85.343642 92.481945 
L 85.383217 91.531925 
L 85.422802 91.933754 
L 85.620888 94.607115 
L 85.660537 94.116139 
L 85.700196 94.20981 
L 85.779548 95.39667 
L 85.819239 94.833577 
L 85.898654 96.903928 
L 85.938378 95.923571 
L 85.978112 95.380171 
L 86.057612 97.349666 
L 86.097378 96.680926 
L 86.176943 97.941233 
L 86.216741 97.196917 
L 86.25655 96.380752 
L 86.296369 97.66421 
L 86.37604 97.372019 
L 86.495628 100.010253 
L 86.535511 99.382761 
L 86.575406 99.916848 
L 86.615311 100.666486 
L 86.655227 100.279559 
L 86.695154 99.846594 
L 86.894949 102.965959 
L 87.014955 103.758175 
L 87.054978 104.644062 
L 87.095013 103.63736 
L 87.135058 103.786383 
L 87.295346 105.541125 
L 87.335445 105.694938 
L 87.375555 105.264635 
L 87.415676 105.850879 
L 87.455808 106.877007 
L 87.49595 106.515361 
L 87.536103 105.731661 
L 87.576267 106.894039 
L 87.616442 107.905264 
L 87.656628 106.737831 
L 87.696824 106.91719 
L 87.737032 107.853106 
L 87.77725 107.445156 
L 87.817479 106.848533 
L 87.857719 107.8563 
L 88.059082 109.916539 
L 88.139703 108.353131 
L 88.220368 108.899991 
L 88.260717 108.742186 
L 88.341448 110.071416 
L 88.381829 109.864381 
L 88.422222 109.70019 
L 88.462625 110.270201 
L 88.50304 109.858526 
L 88.543465 109.070302 
L 88.583901 109.702318 
L 88.624348 110.158701 
L 88.664806 109.533603 
L 88.705276 109.5674 
L 88.745756 110.627856 
L 88.786247 110.103881 
L 88.826749 109.702318 
L 88.867262 109.892322 
L 88.907786 110.020855 
L 89.11057 107.881314 
L 89.191761 108.76933 
L 89.232373 108.201979 
L 89.272996 108.021555 
L 89.31363 109.122727 
L 89.394931 108.713712 
L 89.476276 109.64883 
L 89.516965 109.149072 
L 89.679832 107.643942 
L 89.720577 107.793231 
L 89.761332 107.63516 
L 89.842876 106.371128 
L 89.883665 107.296666 
L 89.924465 107.276441 
L 90.128631 105.47646 
L 90.169497 105.858065 
L 90.210375 105.285125 
L 90.251264 104.563164 
L 90.292163 104.834598 
L 90.333074 105.13078 
L 90.537797 102.859248 
L 90.701775 101.271624 
L 90.742798 101.373811 
L 90.989168 98.802903 
L 91.030269 98.993972 
L 91.112505 97.939902 
L 91.15364 98.309265 
L 91.194786 98.229432 
L 91.565605 94.417111 
L 91.606863 94.941086 
L 91.648133 94.475124 
L 91.689414 94.244671 
L 91.730706 94.471132 
L 91.77201 94.688812 
L 91.937337 93.425046 
L 92.102846 92.415683 
L 92.144252 92.301787 
L 92.185668 92.893354 
L 92.227097 92.70814 
L 92.309987 92.781587 
L 92.392923 91.827842 
L 92.475904 92.344631 
L 92.558931 91.223235 
L 92.600462 91.993363 
L 92.642003 91.996557 
L 92.683557 91.548956 
L 92.725121 91.880532 
L 92.766698 92.652789 
L 92.808285 92.34676 
L 92.849884 91.93269 
L 92.933116 92.952165 
L 92.974749 92.582535 
L 93.183087 94.103897 
L 93.224789 93.974301 
L 93.266502 93.538942 
L 93.349964 94.773435 
L 93.391711 94.019274 
L 93.433471 94.149669 
L 93.517024 95.937143 
L 93.558817 95.693384 
L 93.809822 97.182015 
L 93.851696 97.08994 
L 94.061241 98.688741 
L 94.14514 98.900566 
L 94.35509 102.626134 
L 94.439151 102.027648 
L 94.607412 102.994167 
L 94.73373 104.033068 
L 94.944493 105.535271 
L 94.98668 105.086606 
L 95.197793 107.815584 
L 95.28232 107.242113 
L 95.451514 108.05136 
L 95.620896 109.104897 
L 95.832887 108.302569 
L 95.87532 108.529829 
L 96.045172 110.07115 
L 96.130169 110.03283 
L 96.215212 110.657927 
L 96.257752 110.245453 
L 96.300303 110.153644 
L 96.342867 110.721527 
L 96.428028 110.681877 
L 96.513238 110.895565 
L 96.55586 110.512097 
L 96.598494 110.525935 
L 96.64114 110.763839 
L 96.683798 110.378775 
L 96.854549 109.390169 
L 96.982736 108.825746 
L 96.939995 109.495017 
L 97.025489 109.151467 
L 97.068254 109.140024 
L 97.153819 108.647184 
L 97.19662 109.029853 
L 97.239433 108.788224 
L 97.453674 107.27724 
L 97.496558 107.647934 
L 97.539454 107.49146 
L 97.582362 106.885789 
L 97.625282 107.295868 
L 97.668214 107.41615 
L 97.883054 105.714364 
L 97.926058 105.915545 
L 97.969074 105.792069 
L 98.615757 100.250286 
L 98.658965 100.192274 
L 98.961765 97.516252 
L 99.048388 97.570538 
L 99.30855 95.993293 
L 99.351952 96.051305 
L 99.699613 92.767217 
L 99.743126 93.351599 
L 99.786651 93.324189 
L 99.917298 92.708672 
L 99.960872 92.716656 
L 100.004458 92.456132 
L 100.048056 92.625379 
L 100.222571 93.242759 
L 100.309902 92.802876 
L 100.353586 93.10305 
L 100.397283 92.76908 
L 100.440991 92.63629 
L 100.484712 92.786643 
L 100.615949 92.673812 
L 101.317754 96.930273 
L 101.493701 98.681556 
L 101.581749 98.768841 
L 102.155275 103.706283 
L 102.243697 104.349476 
L 102.287927 104.117958 
L 102.464972 105.201034 
L 102.509264 105.241217 
L 102.819663 107.958753 
L 102.864056 107.842196 
L 103.041754 108.906377 
L 103.353212 110.829835 
L 103.397756 110.629985 
L 103.486883 110.689328 
L 103.620669 110.89929 
L 103.709923 110.646484 
L 103.888582 111.471697 
L 103.933279 111.262533 
L 104.246513 111.246566 
L 104.291311 111.47489 
L 104.336123 111.336778 
L 104.65016 110.167482 
L 104.78494 109.693271 
L 105.009829 108.773588 
L 105.189972 108.349937 
L 105.505718 105.277408 
L 105.822096 103.382158 
L 105.867345 103.316695 
L 106.365937 99.724981 
L 106.59309 98.247527 
L 106.957214 95.796104 
L 107.002788 95.925434 
L 107.048375 95.787854 
L 107.367855 93.889943 
L 107.459253 93.794143 
L 107.550703 93.280547 
L 107.596448 93.348406 
L 107.642206 93.169312 
L 107.687978 93.325786 
L 107.733762 93.326052 
L 107.917032 92.95456 
L 107.962883 92.867541 
L 108.008747 92.999533 
L 108.560145 95.185909 
L 108.882677 97.861133 
L 108.928807 97.562023 
L 109.437111 102.152721 
L 109.483401 101.658285 
L 109.529704 102.320372 
L 109.715051 103.891763 
L 109.761421 104.09454 
L 109.993474 106.618613 
L 110.039925 106.62287 
L 110.458592 109.684223 
L 110.505178 109.801312 
L 110.691658 110.753993 
L 110.878354 111.268121 
L 110.925063 111.193876 
L 110.971784 111.605551 
L 111.01852 111.505759 
L 111.065268 111.193078 
L 111.112031 111.398782 
L 111.43975 112.951014 
L 111.486622 112.611721 
L 111.580406 112.4619 
L 111.627319 111.870333 
L 111.721185 111.973318 
L 111.768138 111.910782 
L 111.862087 112.532153 
L 112.097198 111.289677 
L 112.144261 111.211972 
L 112.191338 110.871615 
L 112.238429 110.90754 
L 112.285534 111.118567 
L 112.521264 109.466809 
L 112.568451 109.540256 
L 112.804595 107.999202 
L 112.851865 108.091809 
L 113.230525 104.765675 
L 113.27792 104.865467 
L 113.942911 98.910146 
L 114.038133 99.404316 
L 114.228744 98.045548 
L 114.276432 98.0687 
L 114.515082 95.574698 
L 114.562855 95.60131 
L 114.658441 95.060836 
L 114.706255 95.437119 
L 114.945538 93.386726 
L 114.993437 93.517919 
L 115.089277 92.845986 
L 115.137219 93.362776 
L 115.185174 92.804206 
L 115.233143 92.784514 
L 115.281127 92.997936 
L 115.377137 92.443891 
L 115.425163 93.159466 
L 115.473203 92.715591 
L 115.521258 92.686851 
L 115.569326 93.376347 
L 115.617409 93.118751 
L 115.665506 93.042643 
L 115.713618 93.502218 
L 115.761743 93.125936 
L 115.858036 93.562892 
L 115.906205 92.78345 
L 115.954387 93.011508 
L 116.195512 94.963971 
L 116.582055 98.85719 
L 116.630437 98.567394 
L 117.893423 109.642975 
L 117.942195 108.981953 
L 117.99098 109.669321 
L 118.039781 109.757404 
L 118.088596 109.609445 
L 118.284 111.992478 
L 118.332888 111.90679 
L 118.38179 111.884703 
L 118.577544 113.050274 
L 118.626518 112.637268 
L 118.675508 112.763405 
L 118.724512 113.669782 
L 118.773531 113.024195 
L 118.822564 112.989334 
L 118.871612 113.765849 
L 118.920675 113.231496 
L 119.166207 114.493399 
L 119.215357 114.114722 
L 119.264522 114.449224 
L 119.313702 114.3968 
L 119.510568 113.08061 
L 119.609089 112.914024 
L 119.806309 111.822699 
L 119.85565 112.402557 
L 119.905007 112.148154 
L 119.954378 111.603423 
L 120.053165 111.7104 
L 120.250915 110.3668 
L 120.30039 110.53179 
L 120.498437 108.782635 
L 120.547986 108.682577 
L 120.597549 108.896797 
L 120.795953 106.506047 
L 121.094004 103.897884 
L 121.143732 104.042648 
L 121.293004 102.490151 
L 121.542089 99.945588 
L 121.591951 100.004665 
L 121.79155 98.109681 
L 121.841487 98.089191 
L 122.391787 93.994525 
L 122.441905 94.677103 
L 122.492038 94.092721 
L 122.542186 94.012355 
L 122.592349 94.31865 
L 122.692721 93.158402 
L 122.742929 93.561827 
L 122.943915 92.093421 
L 123.044499 92.893354 
L 123.094814 92.323076 
L 123.145143 92.711333 
L 123.195489 92.559117 
L 123.245849 92.726502 
L 123.296224 93.512597 
L 123.346615 92.910119 
L 123.397021 93.083624 
L 123.447442 94.231897 
L 123.54833 94.203157 
L 124.003083 97.712908 
L 124.053687 97.20357 
L 124.104307 97.204368 
L 124.459076 101.396963 
L 124.509819 101.241554 
L 124.712944 103.682067 
L 124.763763 103.52373 
L 124.967197 105.514514 
L 125.170877 107.955825 
L 125.221836 107.817713 
L 125.27281 109.09372 
L 125.3238 108.888548 
L 125.374805 108.81377 
L 125.578982 110.705827 
L 125.630065 110.501187 
L 125.885712 113.300419 
L 125.936889 112.680644 
L 126.039288 113.610439 
L 126.090511 113.283388 
L 126.14175 114.145591 
L 126.193004 113.684685 
L 126.244274 113.514107 
L 126.44951 115.162138 
L 126.500858 114.616077 
L 126.603601 115.701814 
L 126.654996 115.049041 
L 126.757833 115.129407 
L 126.860734 115.165332 
L 126.912207 114.389083 
L 126.963697 114.24485 
L 127.015202 114.622995 
L 127.066722 113.952925 
L 127.118259 114.487811 
L 127.376178 113.538057 
L 127.427809 113.810556 
L 127.634492 112.082956 
L 127.686202 112.05741 
L 127.893201 111.016113 
L 128.204176 107.916973 
L 128.256061 108.0322 
L 128.515723 105.319986 
L 128.567704 105.484975 
L 128.775785 102.770101 
L 128.827845 102.995498 
L 129.088386 100.419267 
L 129.140542 100.333313 
L 129.349327 98.509914 
L 129.401564 98.674371 
L 129.61067 95.758848 
L 129.662987 96.047313 
L 129.924814 94.729793 
L 129.977227 95.256162 
L 130.187044 93.108372 
L 130.239538 93.538676 
L 130.292049 93.306892 
L 130.344576 92.394394 
L 130.397119 93.279749 
L 130.502254 92.614202 
L 130.554846 93.040248 
L 130.607454 92.500839 
L 130.660078 92.989953 
L 130.712718 92.859026 
L 130.765375 91.893837 
L 130.818048 92.909321 
L 130.923443 92.417812 
L 131.134429 94.392097 
L 131.187216 94.078351 
L 131.398528 96.181434 
L 131.451397 95.788653 
L 131.821937 99.975393 
L 131.874937 99.61215 
L 132.405842 106.096767 
L 132.459023 105.992983 
L 132.671913 108.42844 
L 132.725176 108.234445 
L 133.526123 115.38035 
L 133.579652 114.873939 
L 133.633198 114.963353 
L 133.793937 116.511326 
L 133.847549 116.681638 
L 133.901179 116.43921 
L 133.954825 117.670244 
L 134.008488 117.083733 
L 134.115865 117.575508 
L 134.169578 116.87723 
L 134.223308 117.508448 
L 134.277055 117.392955 
L 134.330819 116.998311 
L 134.384599 117.66093 
L 134.438396 116.925396 
L 134.49221 117.021995 
L 134.546041 117.095442 
L 134.599888 116.057605 
L 134.707634 116.123601 
L 135.031275 114.46386 
L 135.085274 114.891502 
L 135.301441 112.844835 
L 135.355524 112.956868 
L 135.626198 110.772355 
L 135.680383 110.502517 
L 135.897295 108.319334 
L 135.951566 108.173771 
L 136.168818 105.496951 
L 136.223174 105.368685 
L 136.440767 102.160438 
L 136.495208 102.085927 
L 136.876775 97.992592 
L 136.931353 98.215062 
L 137.149837 96.202457 
L 137.204501 96.093617 
L 137.423329 94.105228 
L 137.47808 94.182933 
L 137.861814 92.471833 
L 137.916702 92.79915 
L 138.026531 92.361396 
L 138.136429 92.347292 
L 138.191404 92.859026 
L 138.246396 92.80873 
L 138.301406 92.223816 
L 138.521618 93.624896 
L 138.576715 92.991549 
L 138.631829 93.809045 
L 138.68696 93.788023 
L 138.742109 93.687166 
L 138.962879 96.04891 
L 139.018115 96.079513 
L 139.239235 98.845481 
L 139.294558 98.541049 
L 139.516028 101.177421 
L 139.571439 101.072306 
L 139.79326 104.648053 
L 139.848759 104.402432 
L 140.126519 107.317157 
L 140.293387 108.994727 
L 140.516125 111.884171 
L 140.571853 111.796886 
L 140.794945 114.142663 
L 140.850762 113.950797 
L 141.074209 116.223659 
L 141.130115 116.23111 
L 141.521957 118.426002 
L 141.578006 117.816073 
L 141.634073 118.514617 
L 141.690157 118.453678 
L 141.746259 118.432655 
L 141.914674 119.178567 
L 141.970848 119.072654 
L 142.139477 118.140464 
L 142.251987 118.170002 
L 142.420886 117.22291 
L 142.589946 115.983626 
L 142.646336 116.577588 
L 142.872075 114.34278 
L 142.928555 114.42421 
L 143.154655 111.404371 
L 143.211225 111.163806 
L 143.607725 107.020708 
L 143.664441 106.904151 
L 144.005116 103.035148 
L 144.11882 102.162833 
L 144.745499 95.695513 
L 144.80258 95.671829 
L 145.031087 93.829004 
L 145.08826 93.949553 
L 145.259888 93.048763 
L 145.317134 92.864082 
L 145.374399 93.303433 
L 145.546304 92.326535 
L 145.661 92.686585 
L 145.718376 91.891176 
L 145.77577 92.366186 
L 145.833183 92.276506 
L 145.890614 92.356872 
L 146.6966 97.076901 
L 147.738243 107.529514 
L 147.970546 111.203988 
L 148.028669 111.601028 
L 148.261348 114.546621 
L 148.319566 114.672758 
L 148.552623 117.131367 
L 148.610935 116.998311 
L 148.785985 118.30705 
L 148.902779 118.434784 
L 149.078113 120.200437 
L 149.195098 120.434615 
L 149.253619 120.994781 
L 149.429295 120.228379 
L 149.546509 120.265634 
L 149.605144 119.739265 
L 149.663799 120.313801 
L 149.722472 119.888554 
L 149.781165 119.903722 
L 150.545916 115.169323 
L 152.501877 94.543514 
L 152.740405 93.687432 
L 152.800086 93.554642 
L 152.979247 92.587325 
L 153.039007 92.978244 
L 153.098786 92.899741 
L 153.278243 92.316955 
L 153.338101 92.603026 
L 153.397978 92.09555 
L 153.457876 92.158619 
L 153.57773 92.641612 
L 153.817676 94.536862 
L 154.238344 98.107819 
L 154.418927 99.333797 
L 154.961754 106.116725 
L 156.356348 120.001385 
L 156.417224 120.035447 
L 156.599974 121.377982 
L 156.660931 121.049334 
L 156.782906 121.58209 
L 156.843924 121.289367 
L 156.904963 121.648086 
L 157.088199 121.066099 
L 157.149319 120.968702 
L 157.210458 121.322631 
L 157.577725 119.312421 
L 157.884342 118.069412 
L 158.375994 112.460569 
L 158.807268 107.345897 
L 160.355805 92.390136 
L 160.418017 92.318286 
L 160.480249 92.014652 
L 160.542503 92.139193 
L 160.729389 92.551666 
L 160.791727 92.286353 
L 160.854085 92.472099 
L 160.916464 92.315093 
L 162.168468 103.373909 
L 162.545718 108.954012 
L 162.860677 112.783097 
L 163.682067 120.504071 
L 163.99895 122.466381 
L 164.062391 122.312834 
L 164.125854 122.38362 
L 164.252843 122.826696 
L 164.316371 122.433383 
L 164.379919 122.575486 
L 164.44349 122.41848 
L 164.507082 122.798488 
L 164.570695 122.766821 
L 164.63433 122.605557 
L 164.889087 121.178132 
L 165.14419 119.860612 
L 166.23226 108.842511 
L 166.810855 101.243949 
L 167.520446 94.046683 
L 167.714434 93.387524 
L 167.973396 92.760032 
L 168.038192 92.934601 
L 168.10301 92.476623 
L 168.16785 92.713196 
L 168.297597 92.424465 
L 168.622355 93.845503 
L 169.077953 98.223045 
L 169.469339 102.543107 
L 169.665335 104.976702 
L 170.188981 111.928878 
L 171.372479 122.8251 
L 171.504434 123.356791 
L 171.570445 123.251145 
L 171.63648 123.467228 
L 171.702537 123.293457 
L 171.83472 123.830737 
L 171.900845 123.720034 
L 171.966994 123.896466 
L 172.364368 121.965292 
L 173.095036 116.046961 
L 173.428081 111.912113 
L 175.034787 93.813569 
L 175.236572 93.233711 
L 175.371213 92.579608 
L 175.505948 92.690577 
L 175.573351 92.667159 
L 175.640777 92.447084 
L 175.7757 93.091075 
L 176.248676 95.816062 
L 176.519468 98.634188 
L 178.699546 123.222139 
L 178.76807 123.1769 
L 178.973785 123.942238 
L 179.11105 123.822221 
L 179.179719 123.633282 
L 179.248412 123.699011 
L 179.317129 123.661756 
L 179.38587 123.882895 
L 179.454636 123.750371 
L 179.59224 123.909506 
L 179.936675 121.877209 
L 180.765809 113.518365 
L 181.2511 107.295602 
L 181.668024 101.433686 
L 182.295076 94.781419 
L 182.364873 94.645435 
L 182.714228 93.199649 
L 182.854144 92.911716 
L 182.994159 92.922094 
L 183.695737 95.799297 
L 186.09994 123.518587 
L 186.171096 123.649514 
L 186.313485 124.190786 
L 186.455976 123.946495 
L 186.527261 124.248799 
L 186.59857 124.158321 
L 186.669906 124.346994 
L 186.741267 124.273015 
L 186.812653 124.363493 
L 186.955504 124.05294 
L 187.31308 122.246306 
L 187.814769 116.79234 
L 188.894093 103.062558 
L 189.182902 99.48548 
L 189.544502 95.945126 
L 189.906757 93.489445 
L 189.979287 93.512064 
L 190.124425 93.090277 
L 190.269669 93.202044 
L 190.415018 93.054086 
L 190.706033 94.334883 
L 190.778853 94.699722 
L 191.435424 101.822742 
L 191.874333 106.806754 
L 192.534499 115.889689 
L 193.196836 122.806206 
L 193.491908 124.071036 
L 193.565743 124.104832 
L 193.787412 124.889596 
L 193.861355 124.582503 
L 193.935326 124.656482 
L 194.379719 123.650047 
L 195.271443 115.227868 
L 196.541467 98.806097 
L 197.367496 93.294385 
L 197.442756 93.162659 
L 197.593359 93.494767 
L 197.668702 93.425312 
L 197.894899 94.256646 
L 197.970354 94.49455 
L 198.49932 99.838877 
L 199.181436 108.425513 
L 200.170744 120.43089 
L 200.781929 124.825996 
L 200.858456 124.977413 
L 200.93501 124.67857 
L 201.088205 124.824931 
L 201.241514 124.535934 
L 201.702128 121.95172 
L 202.240815 118.016988 
L 203.244982 105.491628 
L 203.710095 99.702628 
L 204.331875 95.028371 
L 204.799437 93.406684 
L 205.737733 100.342361 
L 207.627109 122.251894 
L 208.022892 124.139427 
L 208.181415 124.470736 
L 208.419425 124.282329 
L 208.498821 124.279402 
L 208.975835 122.030223 
L 209.21475 119.975838 
L 209.453937 117.823791 
L 210.253202 108.302037 
L 210.734224 101.756214 
L 210.975148 99.891035 
L 211.377301 96.743196 
L 211.618962 95.671297 
L 211.699577 95.792378 
L 211.941607 95.43632 
L 212.264746 95.943796 
L 212.669367 98.573781 
L 213.643625 109.416248 
L 214.458943 119.245361 
L 214.70415 120.918673 
L 214.785949 121.045609 
L 215.031534 122.409166 
L 215.113459 122.482347 
L 215.359423 123.764475 
L 215.523557 123.6567 
L 215.605671 123.762878 
L 216.016719 122.506297 
L 216.511025 118.532979 
L 217.006479 112.489043 
L 218.416534 97.618971 
L 218.666334 96.670814 
L 218.916425 96.15908 
L 218.999853 96.261001 
L 219.083314 96.155621 
L 219.250334 96.83261 
L 219.668451 97.911162 
L 220.759376 109.491558 
L 221.77131 120.258183 
L 222.109678 122.379894 
L 222.363802 123.494903 
L 222.448576 123.483993 
L 222.533384 123.791618 
L 222.618225 123.713647 
L 222.872947 122.824567 
L 223.468467 118.769553 
L 224.236546 110.53312 
L 224.92157 102.312122 
L 225.52274 97.845964 
L 226.039353 96.533234 
L 226.298119 97.170838 
L 226.557192 98.821531 
L 227.683404 109.652556 
L 228.031101 113.168693 
L 228.205156 114.603303 
L 228.728152 119.819897 
L 229.252397 122.717856 
L 229.339893 122.689649 
L 229.51499 123.144966 
L 230.041118 120.500345 
L 230.216773 119.7861 
L 230.832674 114.553008 
L 232.069656 101.494892 
L 232.424355 99.269664 
L 232.86853 97.742447 
L 232.957472 97.718231 
L 233.224512 98.506987 
L 233.402718 99.464458 
L 233.581066 100.225006 
L 233.670295 100.529438 
L 234.206418 105.425366 
L 234.654178 110.442642 
L 235.462423 118.419083 
L 235.912719 120.515247 
L 236.002887 120.466815 
L 236.273611 121.0339 
L 236.363925 121.10096 
L 236.454276 120.741176 
L 236.635087 120.910424 
L 236.725548 120.867846 
L 237.087756 119.401303 
L 239.181902 99.700233 
L 239.364929 99.183976 
L 239.456498 98.892317 
L 239.548105 99.091901 
L 239.73143 98.744625 
L 239.823148 98.834038 
L 240.282303 100.183492 
L 240.834526 103.714532 
L 241.388105 109.661071 
L 242.406536 118.166809 
L 242.963983 120.508062 
L 243.057024 120.451114 
L 243.150104 120.547713 
L 243.709384 119.30018 
L 244.176506 116.462628 
L 244.925905 109.488631 
L 245.113641 108.174303 
L 245.583659 104.517392 
L 246.148963 100.258802 
L 246.243317 100.191209 
L 246.432142 99.991625 
L 246.526613 100.197596 
L 246.621122 100.139052 
L 246.715672 100.31708 
L 247.473475 104.320469 
L 247.94838 108.154611 
L 248.329015 111.417943 
L 249.092183 117.310727 
L 249.570455 119.696155 
L 249.762043 120.33988 
L 249.857896 120.301027 
L 249.95379 119.812978 
L 250.049724 119.981693 
L 250.241711 119.06201 
L 250.433859 118.189162 
L 250.626167 117.646294 
L 250.818635 116.689089 
L 250.91493 116.597813 
L 251.204055 114.614746 
L 252.364191 103.691647 
L 252.94645 101.755948 
L 253.140861 101.624223 
L 253.335437 101.687557 
L 253.432786 101.647374 
L 253.627606 102.5306 
L 254.115374 104.204178 
L 254.310769 105.459961 
L 254.799976 109.734784 
L 255.486599 115.284018 
L 255.879866 117.586419 
L 256.175252 119.23924 
L 256.471014 119.826017 
L 257.063662 118.56438 
L 257.558688 115.450604 
L 258.452381 108.612856 
L 258.850675 105.625217 
L 259.54932 102.70996 
L 259.649297 102.916196 
L 259.749316 102.828912 
L 259.849377 103.080121 
L 259.949481 102.990442 
L 260.049628 103.230741 
L 260.149818 103.145319 
L 260.551003 104.396577 
L 260.852342 106.391353 
L 262.061563 115.755834 
L 262.162611 115.978038 
L 262.466017 117.862643 
L 262.97256 119.556978 
L 263.073999 119.385602 
L 263.175481 119.90931 
L 263.277007 119.883764 
L 263.378577 119.7382 
L 263.48019 119.792221 
L 263.887079 118.114119 
L 263.98891 117.855458 
L 264.396673 114.646679 
L 265.829384 104.04531 
L 266.034764 103.082782 
L 266.13752 103.236595 
L 266.343165 103.827896 
L 266.446055 103.861426 
L 266.858056 105.443994 
L 266.961168 105.643312 
L 267.891183 111.640944 
L 268.928794 118.664438 
L 269.553526 120.385119 
L 269.657806 120.371015 
L 269.762132 120.484378 
L 270.284441 117.60478 
L 271.122504 112.521509 
L 272.279625 105.310938 
L 272.701777 104.129667 
L 272.807431 104.1938 
L 273.018876 104.437825 
L 273.548301 106.924908 
L 274.291447 112.502349 
L 274.823665 116.831725 
L 275.357054 119.720637 
L 275.570738 120.358507 
L 275.677651 120.437543 
L 275.891617 120.943954 
L 275.998671 120.976153 
L 276.320116 120.494491 
L 277.717968 111.852503 
L 278.47399 106.557141 
L 278.798717 105.615903 
L 279.015441 105.449849 
L 279.123875 105.474597 
L 279.232358 105.32105 
L 279.340888 105.587695 
L 279.884263 108.819891 
L 280.210867 111.326134 
L 280.647018 114.256027 
L 281.193297 119.187348 
L 282.069878 122.379628 
L 282.179671 122.418214 
L 282.399403 122.150239 
L 282.619331 120.956993 
L 282.729369 121.001434 
L 283.059778 119.252014 
L 283.390629 116.732199 
L 284.275074 110.354027 
L 284.607558 107.551601 
L 284.94049 106.580026 
L 285.162694 106.747411 
L 285.27387 106.713082 
L 285.496373 106.149457 
L 285.607699 106.448301 
L 286.165082 109.913079 
L 287.283615 119.776254 
L 287.732441 122.395063 
L 287.844774 122.479952 
L 287.957158 123.022022 
L 288.069593 122.958954 
L 288.182078 123.141507 
L 288.519838 124.114678 
L 288.632527 123.922812 
L 288.745267 123.969913 
L 289.083791 122.943253 
L 289.649021 118.229611 
L 290.897042 108.561496 
L 291.124624 107.68173 
L 291.352414 107.349888 
L 291.466386 107.775401 
L 291.58041 107.406836 
L 291.694486 107.664433 
L 292.037026 108.983018 
L 292.151309 109.480115 
L 292.494473 112.036919 
L 292.838105 114.772817 
L 293.411872 120.706582 
L 293.75676 123.223469 
L 293.871828 123.505016 
L 294.332625 125.431134 
L 294.563339 126.292007 
L 294.678775 125.954311 
L 294.909807 126.197005 
L 295.141049 124.977679 
L 296.068141 117.909479 
L 297.115194 108.961729 
L 297.348461 108.534087 
L 297.465175 108.056682 
L 297.932567 108.470752 
L 298.04955 108.397837 
L 298.635272 112.378607 
L 299.57524 122.617266 
L 299.928624 125.774419 
L 300.164486 127.079166 
L 300.282498 127.654234 
L 300.400565 127.663814 
L 300.518687 128.189119 
L 300.636864 128.201094 
L 300.991721 127.410475 
L 301.465633 125.255234 
L 301.940423 122.251628 
L 302.297095 118.496256 
L 302.773431 113.455562 
L 303.728763 108.748573 
L 304.207764 109.972156 
L 306.012 127.43203 
L 306.253522 128.816079 
L 306.737243 131.073241 
L 306.858315 131.204434 
L 306.979444 131.624093 
L 307.464526 129.052653 
L 308.437427 118.869611 
L 308.803208 115.001141 
L 309.169505 112.272162 
L 309.658706 110.232414 
L 309.78115 110.678417 
L 309.903653 110.531523 
L 310.026212 110.686135 
L 310.14883 111.083174 
L 310.639879 115.105457 
L 311.624761 126.193013 
L 311.995053 130.276502 
L 312.365871 132.183992 
L 312.737216 133.43259 
L 312.985072 133.494062 
L 313.233164 132.777688 
L 313.730053 128.366882 
L 314.976414 115.262995 
L 315.47662 112.20457 
L 315.601821 112.312079 
L 315.727081 112.247946 
L 315.852401 111.972786 
L 316.103219 112.731205 
L 316.354277 114.580684 
L 316.479896 115.08603 
L 316.857113 118.715532 
L 318.371397 135.145287 
L 318.624624 136.509909 
L 318.878094 136.094774 
L 319.00492 136.192171 
L 319.258754 134.940647 
L 320.404029 121.189841 
L 320.531588 120.474798 
L 321.042436 114.448426 
L 321.170302 114.446829 
L 321.426218 113.314523 
L 321.682381 113.694531 
L 321.810555 114.423145 
L 321.938791 114.104343 
L 322.195449 115.657107 
L 322.966908 125.480631 
L 323.482457 131.633141 
L 324.128297 136.748612 
L 324.516552 137.827164 
L 324.646096 138.214623 
L 324.905372 137.437043 
L 325.035104 136.898167 
L 326.857982 115.826886 
L 327.119407 114.783727 
L 327.250215 115.052766 
L 327.381087 114.599045 
L 327.643022 116.056009 
L 328.036403 119.19613 
L 329.088238 133.244715 
L 330.011971 141.245106 
L 330.144191 141.333189 
L 330.276476 140.952117 
L 330.67372 138.35034 
L 332.535272 117.756198 
L 332.802254 116.566411 
L 333.069499 116.479659 
L 333.203221 117.09012 
L 333.738764 123.788957 
L 334.678511 136.076413 
L 335.216968 141.197206 
L 335.486595 142.710585 
L 335.75649 142.465762 
L 335.891537 142.16266 
L 336.29708 139.153998 
L 336.703226 135.066784 
L 337.381479 126.373703 
L 337.653252 123.554513 
L 337.925294 120.957792 
L 338.333865 119.180962 
L 338.47019 118.894359 
L 339.152835 124.671385 
L 339.837181 135.216073 
L 340.385887 142.223866 
L 340.935688 145.805201 
L 341.07331 146.06812 
L 341.211 145.986424 
L 341.486588 144.1585 
L 342.038591 138.191737 
L 343.145916 123.57793 
L 343.562309 121.854855 
L 343.701246 121.86071 
L 344.118475 124.568931 
L 344.815255 132.817605 
L 345.513789 143.130776 
L 345.793696 145.969126 
L 345.933754 147.264027 
L 346.214084 147.746754 
L 346.635108 145.697426 
L 347.197467 140.918054 
L 348.466934 126.918967 
L 348.608343 126.929611 
L 348.749824 125.613953 
L 348.891376 125.749404 
L 349.033 126.105462 
L 349.600214 130.70441 
L 350.310852 139.983203 
L 350.738101 145.148969 
L 350.880662 145.683854 
L 351.166002 148.016592 
L 351.308781 147.723603 
L 351.451632 148.031228 
L 351.594556 148.025108 
L 351.737553 147.660534 
L 352.023765 145.358399 
L 352.740572 136.66931 
L 353.171535 131.764068 
L 353.603158 128.784944 
L 353.891274 128.595738 
L 354.46839 133.142262 
L 354.902003 138.552053 
L 355.626172 148.362005 
L 356.061566 151.033238 
L 356.3522 151.769037 
L 356.49763 151.557744 
L 356.643134 151.076614 
L 357.225897 145.039065 
L 358.248621 132.670445 
L 358.541506 130.81458 
L 358.834692 131.733731 
L 359.421972 138.7213 
L 360.747795 153.907779 
L 360.89549 154.821076 
L 361.191109 155.025716 
L 361.339033 154.857267 
L 362.228189 145.553193 
L 362.822498 137.805875 
L 363.120116 136.282916 
L 363.26904 136.326824 
L 363.567122 137.933608 
L 364.313683 145.844586 
L 365.362139 156.852841 
L 365.512231 157.595027 
L 365.662401 157.773056 
L 365.962976 156.060626 
L 366.263866 153.940777 
L 367.470572 141.395725 
L 367.621765 140.878404 
L 367.92439 141.621388 
L 368.227332 143.791798 
L 369.44228 157.380807 
L 369.594508 158.116341 
L 369.746815 159.893969 
L 369.899203 160.171524 
L 370.356846 158.368083 
L 371.121191 150.80039 
L 371.427493 148.330604 
L 371.580765 147.080676 
L 372.041067 146.665275 
L 372.655936 151.35204 
L 373.580678 161.562225 
L 373.889578 163.13202 
L 374.044151 162.407929 
L 374.198805 162.31 
L 374.66326 159.422152 
L 375.283682 153.556512 
L 375.438993 152.942591 
L 375.594387 151.596331 
L 375.905422 151.513836 
L 376.372594 153.006192 
L 376.684456 155.949657 
L 376.99665 159.811208 
L 377.465564 165.070912 
L 377.77859 167.103209 
L 377.935228 167.720057 
L 378.405642 165.713306 
L 378.719671 162.751746 
L 379.348733 159.304531 
L 379.506209 159.367067 
L 379.663768 159.586077 
L 379.821412 160.222351 
L 380.29485 164.071395 
L 380.927284 172.278555 
L 381.402499 174.713214 
L 381.561073 174.723858 
L 382.673481 170.371863 
L 382.832738 170.562399 
L 383.311023 173.870703 
L 383.630308 177.632196 
L 384.430026 187.994332 
L 384.750516 189.674297 
L 385.071352 188.94994 
L 385.2319 189.20594 
L 385.392534 188.671054 
L 385.553256 188.849083 
L 385.874958 190.715593 
L 386.519407 199.556898 
L 387.650551 213.92189 
L 388.46114 221.494373 
L 388.94855 228.088362 
L 391.397549 270.28654 
L 393.206244 294.301951 
L 393.86665 300.075011 
L 394.528503 303.753078 
L 395.025846 305.453031 
L 395.690243 306.626721 
L 396.856454 307.226167 
L 397.859643 307.366594 
L 402.585369 307.418152 
L 402.925733 307.452975 
L 403.436989 307.40577 
L 403.7783 307.407018 
L 404.63324 307.347921 
L 404.975883 307.380655 
L 405.490565 307.38295 
L 406.867268 307.405603 
L 407.212406 307.388256 
L 408.076943 307.312781 
L 409.291371 307.298326 
L 409.987473 307.353859 
L 410.336112 307.388214 
L 411.559438 307.454211 
L 412.4362 307.394662 
L 412.787597 307.388607 
L 413.139392 307.493187 
L 414.020618 307.461464 
L 414.55055 307.372838 
L 414.727395 307.391634 
L 414.727395 307.391634 
" style="fill:none;stroke:#0000ff;stroke-linecap:square;stroke-opacity:0.5;stroke-width:0.8;"/>
   </g>
   <g id="patch_3">
    <path d="M 57.6 307.584 
L 57.6 41.472 
" style="fill:none;stroke:#000000;stroke-linecap:square;stroke-linejoin:miter;stroke-width:0.8;"/>
   </g>
   <g id="patch_4">
    <path d="M 414.72 307.584 
L 414.72 41.472 
" style="fill:none;stroke:#000000;stroke-linecap:square;stroke-linejoin:miter;stroke-width:0.8;"/>
   </g>
   <g id="patch_5">
    <path d="M 57.6 307.584 
L 414.72 307.584 
" style="fill:none;stroke:#000000;stroke-linecap:square;stroke-linejoin:miter;stroke-width:0.8;"/>
   </g>
   <g id="patch_6">
    <path d="M 57.6 41.472 
L 414.72 41.472 
" style="fill:none;stroke:#000000;stroke-linecap:square;stroke-linejoin:miter;stroke-width:0.8;"/>
   </g>
   <g id="text_18">
    <!-- Transmission at normal incidence -->
    <defs>
     <path d="M -0.296875 72.90625 
L 61.375 72.90625 
L 61.375 64.59375 
L 35.5 64.59375 
L 35.5 0 
L 25.59375 0 
L 25.59375 64.59375 
L -0.296875 64.59375 
z
" id="DejaVuSans-84"/>
     <path d="M 9.421875 75.984375 
L 18.40625 75.984375 
L 18.40625 0 
L 9.421875 0 
z
" id="DejaVuSans-108"/>
    </defs>
    <g transform="translate(135.902812 35.472)scale(0.12 -0.12)">
     <use xlink:href="#DejaVuSans-84"/>
     <use x="46.333984" xlink:href="#DejaVuSans-114"/>
     <use x="87.447266" xlink:href="#DejaVuSans-97"/>
     <use x="148.726562" xlink:href="#DejaVuSans-110"/>
     <use x="212.105469" xlink:href="#DejaVuSans-115"/>
     <use x="264.205078" xlink:href="#DejaVuSans-109"/>
     <use x="361.617188" xlink:href="#DejaVuSans-105"/>
     <use x="389.400391" xlink:href="#DejaVuSans-115"/>
     <use x="441.5" xlink:href="#DejaVuSans-115"/>
     <use x="493.599609" xlink:href="#DejaVuSans-105"/>
     <use x="521.382812" xlink:href="#DejaVuSans-111"/>
     <use x="582.564453" xlink:href="#DejaVuSans-110"/>
     <use x="645.943359" xlink:href="#DejaVuSans-32"/>
     <use x="677.730469" xlink:href="#DejaVuSans-97"/>
     <use x="739.009766" xlink:href="#DejaVuSans-116"/>
     <use x="778.21875" xlink:href="#DejaVuSans-32"/>
     <use x="810.005859" xlink:href="#DejaVuSans-110"/>
     <use x="873.384766" xlink:href="#DejaVuSans-111"/>
     <use x="934.566406" xlink:href="#DejaVuSans-114"/>
     <use x="973.929688" xlink:href="#DejaVuSans-109"/>
     <use x="1071.341797" xlink:href="#DejaVuSans-97"/>
     <use x="1132.621094" xlink:href="#DejaVuSans-108"/>
     <use x="1160.404297" xlink:href="#DejaVuSans-32"/>
     <use x="1192.191406" xlink:href="#DejaVuSans-105"/>
     <use x="1219.974609" xlink:href="#DejaVuSans-110"/>
     <use x="1283.353516" xlink:href="#DejaVuSans-99"/>
     <use x="1338.333984" xlink:href="#DejaVuSans-105"/>
     <use x="1366.117188" xlink:href="#DejaVuSans-100"/>
     <use x="1429.59375" xlink:href="#DejaVuSans-101"/>
     <use x="1491.117188" xlink:href="#DejaVuSans-110"/>
     <use x="1554.496094" xlink:href="#DejaVuSans-99"/>
     <use x="1609.476562" xlink:href="#DejaVuSans-101"/>
    </g>
   </g>
  </g>
 </g>
 <defs>
  <clipPath id="p2d375f22a9">
   <rect height="266.112" width="357.12" x="57.6" y="41.472"/>
  </clipPath>
 </defs>
</svg>
