<?xml version="1.0" encoding="utf-8" standalone="no"?>
<!DOCTYPE svg PUBLIC "-//W3C//DTD SVG 1.1//EN"
  "http://www.w3.org/Graphics/SVG/1.1/DTD/svg11.dtd">
<!-- Created with matplotlib (https://matplotlib.org/) -->
<svg height="345.6pt" version="1.1" viewBox="0 0 460.8 345.6" width="460.8pt" xmlns="http://www.w3.org/2000/svg" xmlns:xlink="http://www.w3.org/1999/xlink">
 <defs>
  <style type="text/css">
*{stroke-linecap:butt;stroke-linejoin:round;}
  </style>
 </defs>
 <g id="figure_1">
  <g id="patch_1">
   <path d="M 0 345.6 
L 460.8 345.6 
L 460.8 0 
L 0 0 
z
" style="fill:#ffffff;"/>
  </g>
  <g id="axes_1">
   <g id="patch_2">
    <path d="M 57.6 307.584 
L 414.72 307.584 
L 414.72 41.472 
L 57.6 41.472 
z
" style="fill:#ffffff;"/>
   </g>
   <g id="matplotlib.axis_1">
    <g id="xtick_1">
     <g id="line2d_1">
      <defs>
       <path d="M 0 0 
L 0 3.5 
" id="m90aedbe2e8" style="stroke:#000000;stroke-width:0.8;"/>
      </defs>
      <g>
       <use style="stroke:#000000;stroke-width:0.8;" x="74.406955" xlink:href="#m90aedbe2e8" y="307.584"/>
      </g>
     </g>
     <g id="text_1">
      <!-- 0.5 -->
      <defs>
       <path d="M 31.78125 66.40625 
Q 24.171875 66.40625 20.328125 58.90625 
Q 16.5 51.421875 16.5 36.375 
Q 16.5 21.390625 20.328125 13.890625 
Q 24.171875 6.390625 31.78125 6.390625 
Q 39.453125 6.390625 43.28125 13.890625 
Q 47.125 21.390625 47.125 36.375 
Q 47.125 51.421875 43.28125 58.90625 
Q 39.453125 66.40625 31.78125 66.40625 
z
M 31.78125 74.21875 
Q 44.046875 74.21875 50.515625 64.515625 
Q 56.984375 54.828125 56.984375 36.375 
Q 56.984375 17.96875 50.515625 8.265625 
Q 44.046875 -1.421875 31.78125 -1.421875 
Q 19.53125 -1.421875 13.0625 8.265625 
Q 6.59375 17.96875 6.59375 36.375 
Q 6.59375 54.828125 13.0625 64.515625 
Q 19.53125 74.21875 31.78125 74.21875 
z
" id="DejaVuSans-48"/>
       <path d="M 10.6875 12.40625 
L 21 12.40625 
L 21 0 
L 10.6875 0 
z
" id="DejaVuSans-46"/>
       <path d="M 10.796875 72.90625 
L 49.515625 72.90625 
L 49.515625 64.59375 
L 19.828125 64.59375 
L 19.828125 46.734375 
Q 21.96875 47.46875 24.109375 47.828125 
Q 26.265625 48.1875 28.421875 48.1875 
Q 40.625 48.1875 47.75 41.5 
Q 54.890625 34.8125 54.890625 23.390625 
Q 54.890625 11.625 47.5625 5.09375 
Q 40.234375 -1.421875 26.90625 -1.421875 
Q 22.3125 -1.421875 17.546875 -0.640625 
Q 12.796875 0.140625 7.71875 1.703125 
L 7.71875 11.625 
Q 12.109375 9.234375 16.796875 8.0625 
Q 21.484375 6.890625 26.703125 6.890625 
Q 35.15625 6.890625 40.078125 11.328125 
Q 45.015625 15.765625 45.015625 23.390625 
Q 45.015625 31 40.078125 35.4375 
Q 35.15625 39.890625 26.703125 39.890625 
Q 22.75 39.890625 18.8125 39.015625 
Q 14.890625 38.140625 10.796875 36.28125 
z
" id="DejaVuSans-53"/>
      </defs>
      <g transform="translate(66.455392 322.182437)scale(0.1 -0.1)">
       <use xlink:href="#DejaVuSans-48"/>
       <use x="63.623047" xlink:href="#DejaVuSans-46"/>
       <use x="95.410156" xlink:href="#DejaVuSans-53"/>
      </g>
     </g>
    </g>
    <g id="xtick_2">
     <g id="line2d_2">
      <g>
       <use style="stroke:#000000;stroke-width:0.8;" x="127.831922" xlink:href="#m90aedbe2e8" y="307.584"/>
      </g>
     </g>
     <g id="text_2">
      <!-- 1.0 -->
      <defs>
       <path d="M 12.40625 8.296875 
L 28.515625 8.296875 
L 28.515625 63.921875 
L 10.984375 60.40625 
L 10.984375 69.390625 
L 28.421875 72.90625 
L 38.28125 72.90625 
L 38.28125 8.296875 
L 54.390625 8.296875 
L 54.390625 0 
L 12.40625 0 
z
" id="DejaVuSans-49"/>
      </defs>
      <g transform="translate(119.880359 322.182437)scale(0.1 -0.1)">
       <use xlink:href="#DejaVuSans-49"/>
       <use x="63.623047" xlink:href="#DejaVuSans-46"/>
       <use x="95.410156" xlink:href="#DejaVuSans-48"/>
      </g>
     </g>
    </g>
    <g id="xtick_3">
     <g id="line2d_3">
      <g>
       <use style="stroke:#000000;stroke-width:0.8;" x="181.256889" xlink:href="#m90aedbe2e8" y="307.584"/>
      </g>
     </g>
     <g id="text_3">
      <!-- 1.5 -->
      <g transform="translate(173.305327 322.182437)scale(0.1 -0.1)">
       <use xlink:href="#DejaVuSans-49"/>
       <use x="63.623047" xlink:href="#DejaVuSans-46"/>
       <use x="95.410156" xlink:href="#DejaVuSans-53"/>
      </g>
     </g>
    </g>
    <g id="xtick_4">
     <g id="line2d_4">
      <g>
       <use style="stroke:#000000;stroke-width:0.8;" x="234.681856" xlink:href="#m90aedbe2e8" y="307.584"/>
      </g>
     </g>
     <g id="text_4">
      <!-- 2.0 -->
      <defs>
       <path d="M 19.1875 8.296875 
L 53.609375 8.296875 
L 53.609375 0 
L 7.328125 0 
L 7.328125 8.296875 
Q 12.9375 14.109375 22.625 23.890625 
Q 32.328125 33.6875 34.8125 36.53125 
Q 39.546875 41.84375 41.421875 45.53125 
Q 43.3125 49.21875 43.3125 52.78125 
Q 43.3125 58.59375 39.234375 62.25 
Q 35.15625 65.921875 28.609375 65.921875 
Q 23.96875 65.921875 18.8125 64.3125 
Q 13.671875 62.703125 7.8125 59.421875 
L 7.8125 69.390625 
Q 13.765625 71.78125 18.9375 73 
Q 24.125 74.21875 28.421875 74.21875 
Q 39.75 74.21875 46.484375 68.546875 
Q 53.21875 62.890625 53.21875 53.421875 
Q 53.21875 48.921875 51.53125 44.890625 
Q 49.859375 40.875 45.40625 35.40625 
Q 44.1875 33.984375 37.640625 27.21875 
Q 31.109375 20.453125 19.1875 8.296875 
z
" id="DejaVuSans-50"/>
      </defs>
      <g transform="translate(226.730294 322.182437)scale(0.1 -0.1)">
       <use xlink:href="#DejaVuSans-50"/>
       <use x="63.623047" xlink:href="#DejaVuSans-46"/>
       <use x="95.410156" xlink:href="#DejaVuSans-48"/>
      </g>
     </g>
    </g>
    <g id="xtick_5">
     <g id="line2d_5">
      <g>
       <use style="stroke:#000000;stroke-width:0.8;" x="288.106824" xlink:href="#m90aedbe2e8" y="307.584"/>
      </g>
     </g>
     <g id="text_5">
      <!-- 2.5 -->
      <g transform="translate(280.155261 322.182437)scale(0.1 -0.1)">
       <use xlink:href="#DejaVuSans-50"/>
       <use x="63.623047" xlink:href="#DejaVuSans-46"/>
       <use x="95.410156" xlink:href="#DejaVuSans-53"/>
      </g>
     </g>
    </g>
    <g id="xtick_6">
     <g id="line2d_6">
      <g>
       <use style="stroke:#000000;stroke-width:0.8;" x="341.531791" xlink:href="#m90aedbe2e8" y="307.584"/>
      </g>
     </g>
     <g id="text_6">
      <!-- 3.0 -->
      <defs>
       <path d="M 40.578125 39.3125 
Q 47.65625 37.796875 51.625 33 
Q 55.609375 28.21875 55.609375 21.1875 
Q 55.609375 10.40625 48.1875 4.484375 
Q 40.765625 -1.421875 27.09375 -1.421875 
Q 22.515625 -1.421875 17.65625 -0.515625 
Q 12.796875 0.390625 7.625 2.203125 
L 7.625 11.71875 
Q 11.71875 9.328125 16.59375 8.109375 
Q 21.484375 6.890625 26.8125 6.890625 
Q 36.078125 6.890625 40.9375 10.546875 
Q 45.796875 14.203125 45.796875 21.1875 
Q 45.796875 27.640625 41.28125 31.265625 
Q 36.765625 34.90625 28.71875 34.90625 
L 20.21875 34.90625 
L 20.21875 43.015625 
L 29.109375 43.015625 
Q 36.375 43.015625 40.234375 45.921875 
Q 44.09375 48.828125 44.09375 54.296875 
Q 44.09375 59.90625 40.109375 62.90625 
Q 36.140625 65.921875 28.71875 65.921875 
Q 24.65625 65.921875 20.015625 65.03125 
Q 15.375 64.15625 9.8125 62.3125 
L 9.8125 71.09375 
Q 15.4375 72.65625 20.34375 73.4375 
Q 25.25 74.21875 29.59375 74.21875 
Q 40.828125 74.21875 47.359375 69.109375 
Q 53.90625 64.015625 53.90625 55.328125 
Q 53.90625 49.265625 50.4375 45.09375 
Q 46.96875 40.921875 40.578125 39.3125 
z
" id="DejaVuSans-51"/>
      </defs>
      <g transform="translate(333.580228 322.182437)scale(0.1 -0.1)">
       <use xlink:href="#DejaVuSans-51"/>
       <use x="63.623047" xlink:href="#DejaVuSans-46"/>
       <use x="95.410156" xlink:href="#DejaVuSans-48"/>
      </g>
     </g>
    </g>
    <g id="xtick_7">
     <g id="line2d_7">
      <g>
       <use style="stroke:#000000;stroke-width:0.8;" x="394.956758" xlink:href="#m90aedbe2e8" y="307.584"/>
      </g>
     </g>
     <g id="text_7">
      <!-- 3.5 -->
      <g transform="translate(387.005196 322.182437)scale(0.1 -0.1)">
       <use xlink:href="#DejaVuSans-51"/>
       <use x="63.623047" xlink:href="#DejaVuSans-46"/>
       <use x="95.410156" xlink:href="#DejaVuSans-53"/>
      </g>
     </g>
    </g>
    <g id="text_8">
     <!-- Energy (eV) -->
     <defs>
      <path d="M 9.8125 72.90625 
L 55.90625 72.90625 
L 55.90625 64.59375 
L 19.671875 64.59375 
L 19.671875 43.015625 
L 54.390625 43.015625 
L 54.390625 34.71875 
L 19.671875 34.71875 
L 19.671875 8.296875 
L 56.78125 8.296875 
L 56.78125 0 
L 9.8125 0 
z
" id="DejaVuSans-69"/>
      <path d="M 54.890625 33.015625 
L 54.890625 0 
L 45.90625 0 
L 45.90625 32.71875 
Q 45.90625 40.484375 42.875 44.328125 
Q 39.84375 48.1875 33.796875 48.1875 
Q 26.515625 48.1875 22.3125 43.546875 
Q 18.109375 38.921875 18.109375 30.90625 
L 18.109375 0 
L 9.078125 0 
L 9.078125 54.6875 
L 18.109375 54.6875 
L 18.109375 46.1875 
Q 21.34375 51.125 25.703125 53.5625 
Q 30.078125 56 35.796875 56 
Q 45.21875 56 50.046875 50.171875 
Q 54.890625 44.34375 54.890625 33.015625 
z
" id="DejaVuSans-110"/>
      <path d="M 56.203125 29.59375 
L 56.203125 25.203125 
L 14.890625 25.203125 
Q 15.484375 15.921875 20.484375 11.0625 
Q 25.484375 6.203125 34.421875 6.203125 
Q 39.59375 6.203125 44.453125 7.46875 
Q 49.3125 8.734375 54.109375 11.28125 
L 54.109375 2.78125 
Q 49.265625 0.734375 44.1875 -0.34375 
Q 39.109375 -1.421875 33.890625 -1.421875 
Q 20.796875 -1.421875 13.15625 6.1875 
Q 5.515625 13.8125 5.515625 26.8125 
Q 5.515625 40.234375 12.765625 48.109375 
Q 20.015625 56 32.328125 56 
Q 43.359375 56 49.78125 48.890625 
Q 56.203125 41.796875 56.203125 29.59375 
z
M 47.21875 32.234375 
Q 47.125 39.59375 43.09375 43.984375 
Q 39.0625 48.390625 32.421875 48.390625 
Q 24.90625 48.390625 20.390625 44.140625 
Q 15.875 39.890625 15.1875 32.171875 
z
" id="DejaVuSans-101"/>
      <path d="M 41.109375 46.296875 
Q 39.59375 47.171875 37.8125 47.578125 
Q 36.03125 48 33.890625 48 
Q 26.265625 48 22.1875 43.046875 
Q 18.109375 38.09375 18.109375 28.8125 
L 18.109375 0 
L 9.078125 0 
L 9.078125 54.6875 
L 18.109375 54.6875 
L 18.109375 46.1875 
Q 20.953125 51.171875 25.484375 53.578125 
Q 30.03125 56 36.53125 56 
Q 37.453125 56 38.578125 55.875 
Q 39.703125 55.765625 41.0625 55.515625 
z
" id="DejaVuSans-114"/>
      <path d="M 45.40625 27.984375 
Q 45.40625 37.75 41.375 43.109375 
Q 37.359375 48.484375 30.078125 48.484375 
Q 22.859375 48.484375 18.828125 43.109375 
Q 14.796875 37.75 14.796875 27.984375 
Q 14.796875 18.265625 18.828125 12.890625 
Q 22.859375 7.515625 30.078125 7.515625 
Q 37.359375 7.515625 41.375 12.890625 
Q 45.40625 18.265625 45.40625 27.984375 
z
M 54.390625 6.78125 
Q 54.390625 -7.171875 48.1875 -13.984375 
Q 42 -20.796875 29.203125 -20.796875 
Q 24.46875 -20.796875 20.265625 -20.09375 
Q 16.0625 -19.390625 12.109375 -17.921875 
L 12.109375 -9.1875 
Q 16.0625 -11.328125 19.921875 -12.34375 
Q 23.78125 -13.375 27.78125 -13.375 
Q 36.625 -13.375 41.015625 -8.765625 
Q 45.40625 -4.15625 45.40625 5.171875 
L 45.40625 9.625 
Q 42.625 4.78125 38.28125 2.390625 
Q 33.9375 0 27.875 0 
Q 17.828125 0 11.671875 7.65625 
Q 5.515625 15.328125 5.515625 27.984375 
Q 5.515625 40.671875 11.671875 48.328125 
Q 17.828125 56 27.875 56 
Q 33.9375 56 38.28125 53.609375 
Q 42.625 51.21875 45.40625 46.390625 
L 45.40625 54.6875 
L 54.390625 54.6875 
z
" id="DejaVuSans-103"/>
      <path d="M 32.171875 -5.078125 
Q 28.375 -14.84375 24.75 -17.8125 
Q 21.140625 -20.796875 15.09375 -20.796875 
L 7.90625 -20.796875 
L 7.90625 -13.28125 
L 13.1875 -13.28125 
Q 16.890625 -13.28125 18.9375 -11.515625 
Q 21 -9.765625 23.484375 -3.21875 
L 25.09375 0.875 
L 2.984375 54.6875 
L 12.5 54.6875 
L 29.59375 11.921875 
L 46.6875 54.6875 
L 56.203125 54.6875 
z
" id="DejaVuSans-121"/>
      <path id="DejaVuSans-32"/>
      <path d="M 31 75.875 
Q 24.46875 64.65625 21.28125 53.65625 
Q 18.109375 42.671875 18.109375 31.390625 
Q 18.109375 20.125 21.3125 9.0625 
Q 24.515625 -2 31 -13.1875 
L 23.1875 -13.1875 
Q 15.875 -1.703125 12.234375 9.375 
Q 8.59375 20.453125 8.59375 31.390625 
Q 8.59375 42.28125 12.203125 53.3125 
Q 15.828125 64.359375 23.1875 75.875 
z
" id="DejaVuSans-40"/>
      <path d="M 28.609375 0 
L 0.78125 72.90625 
L 11.078125 72.90625 
L 34.1875 11.53125 
L 57.328125 72.90625 
L 67.578125 72.90625 
L 39.796875 0 
z
" id="DejaVuSans-86"/>
      <path d="M 8.015625 75.875 
L 15.828125 75.875 
Q 23.140625 64.359375 26.78125 53.3125 
Q 30.421875 42.28125 30.421875 31.390625 
Q 30.421875 20.453125 26.78125 9.375 
Q 23.140625 -1.703125 15.828125 -13.1875 
L 8.015625 -13.1875 
Q 14.5 -2 17.703125 9.0625 
Q 20.90625 20.125 20.90625 31.390625 
Q 20.90625 42.671875 17.703125 53.65625 
Q 14.5 64.65625 8.015625 75.875 
z
" id="DejaVuSans-41"/>
     </defs>
     <g transform="translate(206.66625 335.860562)scale(0.1 -0.1)">
      <use xlink:href="#DejaVuSans-69"/>
      <use x="63.183594" xlink:href="#DejaVuSans-110"/>
      <use x="126.5625" xlink:href="#DejaVuSans-101"/>
      <use x="188.085938" xlink:href="#DejaVuSans-114"/>
      <use x="227.449219" xlink:href="#DejaVuSans-103"/>
      <use x="290.925781" xlink:href="#DejaVuSans-121"/>
      <use x="350.105469" xlink:href="#DejaVuSans-32"/>
      <use x="381.892578" xlink:href="#DejaVuSans-40"/>
      <use x="420.90625" xlink:href="#DejaVuSans-101"/>
      <use x="482.429688" xlink:href="#DejaVuSans-86"/>
      <use x="550.837891" xlink:href="#DejaVuSans-41"/>
     </g>
    </g>
   </g>
   <g id="matplotlib.axis_2">
    <g id="ytick_1">
     <g id="line2d_8">
      <defs>
       <path d="M 0 0 
L -3.5 0 
" id="md241acf9e2" style="stroke:#000000;stroke-width:0.8;"/>
      </defs>
      <g>
       <use style="stroke:#000000;stroke-width:0.8;" x="57.6" xlink:href="#md241acf9e2" y="307.584"/>
      </g>
     </g>
     <g id="text_9">
      <!-- 0.0 -->
      <g transform="translate(34.696875 311.383219)scale(0.1 -0.1)">
       <use xlink:href="#DejaVuSans-48"/>
       <use x="63.623047" xlink:href="#DejaVuSans-46"/>
       <use x="95.410156" xlink:href="#DejaVuSans-48"/>
      </g>
     </g>
    </g>
    <g id="ytick_2">
     <g id="line2d_9">
      <g>
       <use style="stroke:#000000;stroke-width:0.8;" x="57.6" xlink:href="#md241acf9e2" y="254.3616"/>
      </g>
     </g>
     <g id="text_10">
      <!-- 0.2 -->
      <g transform="translate(34.696875 258.160819)scale(0.1 -0.1)">
       <use xlink:href="#DejaVuSans-48"/>
       <use x="63.623047" xlink:href="#DejaVuSans-46"/>
       <use x="95.410156" xlink:href="#DejaVuSans-50"/>
      </g>
     </g>
    </g>
    <g id="ytick_3">
     <g id="line2d_10">
      <g>
       <use style="stroke:#000000;stroke-width:0.8;" x="57.6" xlink:href="#md241acf9e2" y="201.1392"/>
      </g>
     </g>
     <g id="text_11">
      <!-- 0.4 -->
      <defs>
       <path d="M 37.796875 64.3125 
L 12.890625 25.390625 
L 37.796875 25.390625 
z
M 35.203125 72.90625 
L 47.609375 72.90625 
L 47.609375 25.390625 
L 58.015625 25.390625 
L 58.015625 17.1875 
L 47.609375 17.1875 
L 47.609375 0 
L 37.796875 0 
L 37.796875 17.1875 
L 4.890625 17.1875 
L 4.890625 26.703125 
z
" id="DejaVuSans-52"/>
      </defs>
      <g transform="translate(34.696875 204.938419)scale(0.1 -0.1)">
       <use xlink:href="#DejaVuSans-48"/>
       <use x="63.623047" xlink:href="#DejaVuSans-46"/>
       <use x="95.410156" xlink:href="#DejaVuSans-52"/>
      </g>
     </g>
    </g>
    <g id="ytick_4">
     <g id="line2d_11">
      <g>
       <use style="stroke:#000000;stroke-width:0.8;" x="57.6" xlink:href="#md241acf9e2" y="147.9168"/>
      </g>
     </g>
     <g id="text_12">
      <!-- 0.6 -->
      <defs>
       <path d="M 33.015625 40.375 
Q 26.375 40.375 22.484375 35.828125 
Q 18.609375 31.296875 18.609375 23.390625 
Q 18.609375 15.53125 22.484375 10.953125 
Q 26.375 6.390625 33.015625 6.390625 
Q 39.65625 6.390625 43.53125 10.953125 
Q 47.40625 15.53125 47.40625 23.390625 
Q 47.40625 31.296875 43.53125 35.828125 
Q 39.65625 40.375 33.015625 40.375 
z
M 52.59375 71.296875 
L 52.59375 62.3125 
Q 48.875 64.0625 45.09375 64.984375 
Q 41.3125 65.921875 37.59375 65.921875 
Q 27.828125 65.921875 22.671875 59.328125 
Q 17.53125 52.734375 16.796875 39.40625 
Q 19.671875 43.65625 24.015625 45.921875 
Q 28.375 48.1875 33.59375 48.1875 
Q 44.578125 48.1875 50.953125 41.515625 
Q 57.328125 34.859375 57.328125 23.390625 
Q 57.328125 12.15625 50.6875 5.359375 
Q 44.046875 -1.421875 33.015625 -1.421875 
Q 20.359375 -1.421875 13.671875 8.265625 
Q 6.984375 17.96875 6.984375 36.375 
Q 6.984375 53.65625 15.1875 63.9375 
Q 23.390625 74.21875 37.203125 74.21875 
Q 40.921875 74.21875 44.703125 73.484375 
Q 48.484375 72.75 52.59375 71.296875 
z
" id="DejaVuSans-54"/>
      </defs>
      <g transform="translate(34.696875 151.716019)scale(0.1 -0.1)">
       <use xlink:href="#DejaVuSans-48"/>
       <use x="63.623047" xlink:href="#DejaVuSans-46"/>
       <use x="95.410156" xlink:href="#DejaVuSans-54"/>
      </g>
     </g>
    </g>
    <g id="ytick_5">
     <g id="line2d_12">
      <g>
       <use style="stroke:#000000;stroke-width:0.8;" x="57.6" xlink:href="#md241acf9e2" y="94.6944"/>
      </g>
     </g>
     <g id="text_13">
      <!-- 0.8 -->
      <defs>
       <path d="M 31.78125 34.625 
Q 24.75 34.625 20.71875 30.859375 
Q 16.703125 27.09375 16.703125 20.515625 
Q 16.703125 13.921875 20.71875 10.15625 
Q 24.75 6.390625 31.78125 6.390625 
Q 38.8125 6.390625 42.859375 10.171875 
Q 46.921875 13.96875 46.921875 20.515625 
Q 46.921875 27.09375 42.890625 30.859375 
Q 38.875 34.625 31.78125 34.625 
z
M 21.921875 38.8125 
Q 15.578125 40.375 12.03125 44.71875 
Q 8.5 49.078125 8.5 55.328125 
Q 8.5 64.0625 14.71875 69.140625 
Q 20.953125 74.21875 31.78125 74.21875 
Q 42.671875 74.21875 48.875 69.140625 
Q 55.078125 64.0625 55.078125 55.328125 
Q 55.078125 49.078125 51.53125 44.71875 
Q 48 40.375 41.703125 38.8125 
Q 48.828125 37.15625 52.796875 32.3125 
Q 56.78125 27.484375 56.78125 20.515625 
Q 56.78125 9.90625 50.3125 4.234375 
Q 43.84375 -1.421875 31.78125 -1.421875 
Q 19.734375 -1.421875 13.25 4.234375 
Q 6.78125 9.90625 6.78125 20.515625 
Q 6.78125 27.484375 10.78125 32.3125 
Q 14.796875 37.15625 21.921875 38.8125 
z
M 18.3125 54.390625 
Q 18.3125 48.734375 21.84375 45.5625 
Q 25.390625 42.390625 31.78125 42.390625 
Q 38.140625 42.390625 41.71875 45.5625 
Q 45.3125 48.734375 45.3125 54.390625 
Q 45.3125 60.0625 41.71875 63.234375 
Q 38.140625 66.40625 31.78125 66.40625 
Q 25.390625 66.40625 21.84375 63.234375 
Q 18.3125 60.0625 18.3125 54.390625 
z
" id="DejaVuSans-56"/>
      </defs>
      <g transform="translate(34.696875 98.493619)scale(0.1 -0.1)">
       <use xlink:href="#DejaVuSans-48"/>
       <use x="63.623047" xlink:href="#DejaVuSans-46"/>
       <use x="95.410156" xlink:href="#DejaVuSans-56"/>
      </g>
     </g>
    </g>
    <g id="ytick_6">
     <g id="line2d_13">
      <g>
       <use style="stroke:#000000;stroke-width:0.8;" x="57.6" xlink:href="#md241acf9e2" y="41.472"/>
      </g>
     </g>
     <g id="text_14">
      <!-- 1.0 -->
      <g transform="translate(34.696875 45.271219)scale(0.1 -0.1)">
       <use xlink:href="#DejaVuSans-49"/>
       <use x="63.623047" xlink:href="#DejaVuSans-46"/>
       <use x="95.410156" xlink:href="#DejaVuSans-48"/>
      </g>
     </g>
    </g>
    <g id="text_15">
     <!-- Fraction of power transmitted -->
     <defs>
      <path d="M 9.8125 72.90625 
L 51.703125 72.90625 
L 51.703125 64.59375 
L 19.671875 64.59375 
L 19.671875 43.109375 
L 48.578125 43.109375 
L 48.578125 34.8125 
L 19.671875 34.8125 
L 19.671875 0 
L 9.8125 0 
z
" id="DejaVuSans-70"/>
      <path d="M 34.28125 27.484375 
Q 23.390625 27.484375 19.1875 25 
Q 14.984375 22.515625 14.984375 16.5 
Q 14.984375 11.71875 18.140625 8.90625 
Q 21.296875 6.109375 26.703125 6.109375 
Q 34.1875 6.109375 38.703125 11.40625 
Q 43.21875 16.703125 43.21875 25.484375 
L 43.21875 27.484375 
z
M 52.203125 31.203125 
L 52.203125 0 
L 43.21875 0 
L 43.21875 8.296875 
Q 40.140625 3.328125 35.546875 0.953125 
Q 30.953125 -1.421875 24.3125 -1.421875 
Q 15.921875 -1.421875 10.953125 3.296875 
Q 6 8.015625 6 15.921875 
Q 6 25.140625 12.171875 29.828125 
Q 18.359375 34.515625 30.609375 34.515625 
L 43.21875 34.515625 
L 43.21875 35.40625 
Q 43.21875 41.609375 39.140625 45 
Q 35.0625 48.390625 27.6875 48.390625 
Q 23 48.390625 18.546875 47.265625 
Q 14.109375 46.140625 10.015625 43.890625 
L 10.015625 52.203125 
Q 14.9375 54.109375 19.578125 55.046875 
Q 24.21875 56 28.609375 56 
Q 40.484375 56 46.34375 49.84375 
Q 52.203125 43.703125 52.203125 31.203125 
z
" id="DejaVuSans-97"/>
      <path d="M 48.78125 52.59375 
L 48.78125 44.1875 
Q 44.96875 46.296875 41.140625 47.34375 
Q 37.3125 48.390625 33.40625 48.390625 
Q 24.65625 48.390625 19.8125 42.84375 
Q 14.984375 37.3125 14.984375 27.296875 
Q 14.984375 17.28125 19.8125 11.734375 
Q 24.65625 6.203125 33.40625 6.203125 
Q 37.3125 6.203125 41.140625 7.25 
Q 44.96875 8.296875 48.78125 10.40625 
L 48.78125 2.09375 
Q 45.015625 0.34375 40.984375 -0.53125 
Q 36.96875 -1.421875 32.421875 -1.421875 
Q 20.0625 -1.421875 12.78125 6.34375 
Q 5.515625 14.109375 5.515625 27.296875 
Q 5.515625 40.671875 12.859375 48.328125 
Q 20.21875 56 33.015625 56 
Q 37.15625 56 41.109375 55.140625 
Q 45.0625 54.296875 48.78125 52.59375 
z
" id="DejaVuSans-99"/>
      <path d="M 18.3125 70.21875 
L 18.3125 54.6875 
L 36.8125 54.6875 
L 36.8125 47.703125 
L 18.3125 47.703125 
L 18.3125 18.015625 
Q 18.3125 11.328125 20.140625 9.421875 
Q 21.96875 7.515625 27.59375 7.515625 
L 36.8125 7.515625 
L 36.8125 0 
L 27.59375 0 
Q 17.1875 0 13.234375 3.875 
Q 9.28125 7.765625 9.28125 18.015625 
L 9.28125 47.703125 
L 2.6875 47.703125 
L 2.6875 54.6875 
L 9.28125 54.6875 
L 9.28125 70.21875 
z
" id="DejaVuSans-116"/>
      <path d="M 9.421875 54.6875 
L 18.40625 54.6875 
L 18.40625 0 
L 9.421875 0 
z
M 9.421875 75.984375 
L 18.40625 75.984375 
L 18.40625 64.59375 
L 9.421875 64.59375 
z
" id="DejaVuSans-105"/>
      <path d="M 30.609375 48.390625 
Q 23.390625 48.390625 19.1875 42.75 
Q 14.984375 37.109375 14.984375 27.296875 
Q 14.984375 17.484375 19.15625 11.84375 
Q 23.34375 6.203125 30.609375 6.203125 
Q 37.796875 6.203125 41.984375 11.859375 
Q 46.1875 17.53125 46.1875 27.296875 
Q 46.1875 37.015625 41.984375 42.703125 
Q 37.796875 48.390625 30.609375 48.390625 
z
M 30.609375 56 
Q 42.328125 56 49.015625 48.375 
Q 55.71875 40.765625 55.71875 27.296875 
Q 55.71875 13.875 49.015625 6.21875 
Q 42.328125 -1.421875 30.609375 -1.421875 
Q 18.84375 -1.421875 12.171875 6.21875 
Q 5.515625 13.875 5.515625 27.296875 
Q 5.515625 40.765625 12.171875 48.375 
Q 18.84375 56 30.609375 56 
z
" id="DejaVuSans-111"/>
      <path d="M 37.109375 75.984375 
L 37.109375 68.5 
L 28.515625 68.5 
Q 23.6875 68.5 21.796875 66.546875 
Q 19.921875 64.59375 19.921875 59.515625 
L 19.921875 54.6875 
L 34.71875 54.6875 
L 34.71875 47.703125 
L 19.921875 47.703125 
L 19.921875 0 
L 10.890625 0 
L 10.890625 47.703125 
L 2.296875 47.703125 
L 2.296875 54.6875 
L 10.890625 54.6875 
L 10.890625 58.5 
Q 10.890625 67.625 15.140625 71.796875 
Q 19.390625 75.984375 28.609375 75.984375 
z
" id="DejaVuSans-102"/>
      <path d="M 18.109375 8.203125 
L 18.109375 -20.796875 
L 9.078125 -20.796875 
L 9.078125 54.6875 
L 18.109375 54.6875 
L 18.109375 46.390625 
Q 20.953125 51.265625 25.265625 53.625 
Q 29.59375 56 35.59375 56 
Q 45.5625 56 51.78125 48.09375 
Q 58.015625 40.1875 58.015625 27.296875 
Q 58.015625 14.40625 51.78125 6.484375 
Q 45.5625 -1.421875 35.59375 -1.421875 
Q 29.59375 -1.421875 25.265625 0.953125 
Q 20.953125 3.328125 18.109375 8.203125 
z
M 48.6875 27.296875 
Q 48.6875 37.203125 44.609375 42.84375 
Q 40.53125 48.484375 33.40625 48.484375 
Q 26.265625 48.484375 22.1875 42.84375 
Q 18.109375 37.203125 18.109375 27.296875 
Q 18.109375 17.390625 22.1875 11.75 
Q 26.265625 6.109375 33.40625 6.109375 
Q 40.53125 6.109375 44.609375 11.75 
Q 48.6875 17.390625 48.6875 27.296875 
z
" id="DejaVuSans-112"/>
      <path d="M 4.203125 54.6875 
L 13.1875 54.6875 
L 24.421875 12.015625 
L 35.59375 54.6875 
L 46.1875 54.6875 
L 57.421875 12.015625 
L 68.609375 54.6875 
L 77.59375 54.6875 
L 63.28125 0 
L 52.6875 0 
L 40.921875 44.828125 
L 29.109375 0 
L 18.5 0 
z
" id="DejaVuSans-119"/>
      <path d="M 44.28125 53.078125 
L 44.28125 44.578125 
Q 40.484375 46.53125 36.375 47.5 
Q 32.28125 48.484375 27.875 48.484375 
Q 21.1875 48.484375 17.84375 46.4375 
Q 14.5 44.390625 14.5 40.28125 
Q 14.5 37.15625 16.890625 35.375 
Q 19.28125 33.59375 26.515625 31.984375 
L 29.59375 31.296875 
Q 39.15625 29.25 43.1875 25.515625 
Q 47.21875 21.78125 47.21875 15.09375 
Q 47.21875 7.46875 41.1875 3.015625 
Q 35.15625 -1.421875 24.609375 -1.421875 
Q 20.21875 -1.421875 15.453125 -0.5625 
Q 10.6875 0.296875 5.421875 2 
L 5.421875 11.28125 
Q 10.40625 8.6875 15.234375 7.390625 
Q 20.0625 6.109375 24.8125 6.109375 
Q 31.15625 6.109375 34.5625 8.28125 
Q 37.984375 10.453125 37.984375 14.40625 
Q 37.984375 18.0625 35.515625 20.015625 
Q 33.0625 21.96875 24.703125 23.78125 
L 21.578125 24.515625 
Q 13.234375 26.265625 9.515625 29.90625 
Q 5.8125 33.546875 5.8125 39.890625 
Q 5.8125 47.609375 11.28125 51.796875 
Q 16.75 56 26.8125 56 
Q 31.78125 56 36.171875 55.265625 
Q 40.578125 54.546875 44.28125 53.078125 
z
" id="DejaVuSans-115"/>
      <path d="M 52 44.1875 
Q 55.375 50.25 60.0625 53.125 
Q 64.75 56 71.09375 56 
Q 79.640625 56 84.28125 50.015625 
Q 88.921875 44.046875 88.921875 33.015625 
L 88.921875 0 
L 79.890625 0 
L 79.890625 32.71875 
Q 79.890625 40.578125 77.09375 44.375 
Q 74.3125 48.1875 68.609375 48.1875 
Q 61.625 48.1875 57.5625 43.546875 
Q 53.515625 38.921875 53.515625 30.90625 
L 53.515625 0 
L 44.484375 0 
L 44.484375 32.71875 
Q 44.484375 40.625 41.703125 44.40625 
Q 38.921875 48.1875 33.109375 48.1875 
Q 26.21875 48.1875 22.15625 43.53125 
Q 18.109375 38.875 18.109375 30.90625 
L 18.109375 0 
L 9.078125 0 
L 9.078125 54.6875 
L 18.109375 54.6875 
L 18.109375 46.1875 
Q 21.1875 51.21875 25.484375 53.609375 
Q 29.78125 56 35.6875 56 
Q 41.65625 56 45.828125 52.96875 
Q 50 49.953125 52 44.1875 
z
" id="DejaVuSans-109"/>
      <path d="M 45.40625 46.390625 
L 45.40625 75.984375 
L 54.390625 75.984375 
L 54.390625 0 
L 45.40625 0 
L 45.40625 8.203125 
Q 42.578125 3.328125 38.25 0.953125 
Q 33.9375 -1.421875 27.875 -1.421875 
Q 17.96875 -1.421875 11.734375 6.484375 
Q 5.515625 14.40625 5.515625 27.296875 
Q 5.515625 40.1875 11.734375 48.09375 
Q 17.96875 56 27.875 56 
Q 33.9375 56 38.25 53.625 
Q 42.578125 51.265625 45.40625 46.390625 
z
M 14.796875 27.296875 
Q 14.796875 17.390625 18.875 11.75 
Q 22.953125 6.109375 30.078125 6.109375 
Q 37.203125 6.109375 41.296875 11.75 
Q 45.40625 17.390625 45.40625 27.296875 
Q 45.40625 37.203125 41.296875 42.84375 
Q 37.203125 48.484375 30.078125 48.484375 
Q 22.953125 48.484375 18.875 42.84375 
Q 14.796875 37.203125 14.796875 27.296875 
z
" id="DejaVuSans-100"/>
     </defs>
     <g transform="translate(28.617187 248.812375)rotate(-90)scale(0.1 -0.1)">
      <use xlink:href="#DejaVuSans-70"/>
      <use x="50.269531" xlink:href="#DejaVuSans-114"/>
      <use x="91.382812" xlink:href="#DejaVuSans-97"/>
      <use x="152.662109" xlink:href="#DejaVuSans-99"/>
      <use x="207.642578" xlink:href="#DejaVuSans-116"/>
      <use x="246.851562" xlink:href="#DejaVuSans-105"/>
      <use x="274.634766" xlink:href="#DejaVuSans-111"/>
      <use x="335.816406" xlink:href="#DejaVuSans-110"/>
      <use x="399.195312" xlink:href="#DejaVuSans-32"/>
      <use x="430.982422" xlink:href="#DejaVuSans-111"/>
      <use x="492.164062" xlink:href="#DejaVuSans-102"/>
      <use x="527.369141" xlink:href="#DejaVuSans-32"/>
      <use x="559.15625" xlink:href="#DejaVuSans-112"/>
      <use x="622.632812" xlink:href="#DejaVuSans-111"/>
      <use x="683.814453" xlink:href="#DejaVuSans-119"/>
      <use x="765.601562" xlink:href="#DejaVuSans-101"/>
      <use x="827.125" xlink:href="#DejaVuSans-114"/>
      <use x="868.238281" xlink:href="#DejaVuSans-32"/>
      <use x="900.025391" xlink:href="#DejaVuSans-116"/>
      <use x="939.234375" xlink:href="#DejaVuSans-114"/>
      <use x="980.347656" xlink:href="#DejaVuSans-97"/>
      <use x="1041.626953" xlink:href="#DejaVuSans-110"/>
      <use x="1105.005859" xlink:href="#DejaVuSans-115"/>
      <use x="1157.105469" xlink:href="#DejaVuSans-109"/>
      <use x="1254.517578" xlink:href="#DejaVuSans-105"/>
      <use x="1282.300781" xlink:href="#DejaVuSans-116"/>
      <use x="1321.509766" xlink:href="#DejaVuSans-116"/>
      <use x="1360.71875" xlink:href="#DejaVuSans-101"/>
      <use x="1422.242188" xlink:href="#DejaVuSans-100"/>
     </g>
    </g>
   </g>
   <g id="line2d_14">
    <path clip-path="url(#pa3260cddd0)" d="M 395.839043 307.584 
L 386.366346 307.503973 
L 386.040754 307.320009 
L 385.715742 306.868036 
L 385.391309 305.934558 
L 385.067452 304.268311 
L 384.636537 300.521788 
L 384.099326 293.032155 
L 383.456764 280.09755 
L 380.909096 222.226013 
L 379.334911 191.378174 
L 379.126059 190.385152 
L 378.917451 190.195175 
L 378.396992 190.461246 
L 378.189232 189.824405 
L 377.878044 187.314732 
L 377.46397 181.072574 
L 376.741647 168.880833 
L 376.535806 167.350035 
L 376.432975 167.104286 
L 376.330204 167.196928 
L 376.124839 168.260783 
L 375.203626 175.58966 
L 375.101564 175.566534 
L 374.897617 174.672643 
L 374.592135 171.292077 
L 373.476534 155.371497 
L 373.375465 155.383009 
L 373.1735 156.461519 
L 372.770264 161.398085 
L 372.267515 167.208849 
L 372.066818 168.023899 
L 371.966556 167.991033 
L 371.766202 167.010158 
L 371.4661 163.411361 
L 370.469458 147.577789 
L 370.370106 147.266744 
L 370.27081 147.348774 
L 370.072387 148.615233 
L 369.676217 154.113245 
L 369.182267 160.910904 
L 368.886568 162.348391 
L 368.788113 162.221911 
L 368.591371 161.034605 
L 368.296674 157.130795 
L 367.317951 140.832462 
L 367.220382 140.521588 
L 367.122868 140.612168 
L 366.928005 141.92758 
L 366.538935 147.708157 
L 365.956969 156.241595 
L 365.763416 157.336071 
L 365.666721 157.427868 
L 365.57008 157.204992 
L 365.37696 155.827093 
L 365.087687 151.675649 
L 364.126941 134.918441 
L 364.031161 134.56732 
L 363.935435 134.620001 
L 363.744143 135.880512 
L 363.457604 140.016668 
L 362.695839 152.028166 
L 362.505927 152.983221 
L 362.41105 153.002488 
L 362.221454 152.106308 
L 361.937455 148.577656 
L 361.370872 136.858341 
L 360.994195 130.519703 
L 360.806169 129.25587 
L 360.712234 129.217394 
L 360.524519 130.306884 
L 360.243337 134.30605 
L 359.402575 148.132909 
L 359.216305 149.009304 
L 359.123247 148.99447 
L 358.937284 148.04798 
L 358.658722 144.491916 
L 358.102975 132.725206 
L 357.641248 125.132203 
L 357.456911 124.358323 
L 357.364818 124.559516 
L 357.180784 126.071105 
L 356.813318 132.300628 
L 356.172183 143.607323 
L 355.89816 145.359776 
L 355.806918 145.361835 
L 355.624584 144.472885 
L 355.351455 141.047761 
L 354.806532 129.412713 
L 354.353784 121.262759 
L 354.173028 120.065355 
L 354.082724 120.035069 
L 353.902263 121.09579 
L 353.631936 125.022652 
L 352.734011 140.969142 
L 352.555008 141.977765 
L 352.465578 142.056429 
L 352.376197 141.845963 
L 352.197579 140.571709 
L 351.930013 136.71502 
L 350.775539 116.097548 
L 350.687066 116.12947 
L 350.510264 117.272167 
L 350.245416 121.231189 
L 349.277939 138.286689 
L 349.102645 138.999845 
L 349.015068 138.942667 
L 348.840054 138.000287 
L 348.577883 134.651343 
L 348.054796 123.342612 
L 347.533378 113.651534 
L 347.359941 112.568117 
L 347.273292 112.555415 
L 347.100131 113.574308 
L 346.840734 117.324748 
L 345.80726 135.63468 
L 345.635652 136.227755 
L 345.549915 136.127219 
L 345.378578 135.135868 
L 345.121912 131.806371 
L 344.609795 120.706599 
L 344.099295 110.83098 
L 343.844648 109.329012 
L 343.759855 109.501843 
L 343.590402 110.824317 
L 343.25203 116.537247 
L 342.409196 132.349044 
L 342.157205 133.704233 
L 342.073296 133.655397 
L 341.905609 132.802533 
L 341.654407 129.74551 
L 341.236609 121.110176 
L 340.570392 107.770789 
L 340.321275 106.489291 
L 340.238322 106.705189 
L 340.072546 108.063152 
L 339.741509 113.699302 
L 338.916915 129.673609 
L 338.670368 131.37972 
L 338.58827 131.477349 
L 338.506215 131.334092 
L 338.342232 130.334229 
L 338.096575 127.170052 
L 337.6064 116.670387 
L 337.036442 105.444965 
L 336.792801 103.974569 
L 336.711671 104.093535 
L 336.549536 105.226477 
L 336.225765 110.42646 
L 335.338811 127.753381 
L 335.09778 129.41966 
L 335.017518 129.528113 
L 334.937298 129.408204 
L 334.77698 128.491172 
L 334.536809 125.526175 
L 334.057569 115.467754 
L 333.500304 103.94788 
L 333.262083 101.901886 
L 333.182757 101.785865 
L 333.103471 101.961952 
L 332.945019 103.157426 
L 332.628599 108.310192 
L 331.683177 126.509546 
L 331.447717 127.842005 
L 331.36931 127.859284 
L 331.212614 127.248197 
L 330.977866 124.787259 
L 330.587409 117.358896 
L 329.809438 101.348141 
L 329.576808 99.920294 
L 329.499343 99.990758 
L 329.344529 100.943567 
L 329.112599 104.16143 
L 327.881508 126.212993 
L 327.728313 126.534607 
L 327.575271 126.041309 
L 327.345993 123.8289 
L 326.964626 116.881448 
L 326.128951 99.696123 
L 325.901831 98.352941 
L 325.826199 98.422937 
L 325.675049 99.332929 
L 325.373197 103.800784 
L 324.24656 124.827698 
L 324.022232 125.504593 
L 323.872865 124.995 
L 323.64909 122.841131 
L 323.276865 116.14968 
L 322.38725 98.130825 
L 322.165664 97.073018 
L 322.091875 97.212819 
L 321.944404 98.216178 
L 321.649895 102.698186 
L 320.550601 123.805142 
L 320.331706 124.791755 
L 320.258812 124.758401 
L 320.113131 124.148461 
L 319.894875 121.931666 
L 319.531821 115.33971 
L 318.664081 97.441679 
L 318.447933 96.096327 
L 318.375954 96.110823 
L 318.232099 96.8362 
L 318.016578 99.5126 
L 317.586473 108.574878 
L 316.943645 121.550531 
L 316.658837 124.104354 
L 316.516639 124.379459 
L 316.374577 123.968158 
L 316.16174 122.103582 
L 315.807693 116.121457 
L 314.750629 95.696985 
L 314.61026 95.328758 
L 314.470025 95.846808 
L 314.259923 98.174239 
L 313.84062 106.713497 
L 313.14444 121.17023 
L 312.866894 123.837964 
L 312.728319 124.23169 
L 312.65908 124.185409 
L 312.520702 123.609261 
L 312.313381 121.581848 
L 311.9685 115.550684 
L 310.938739 95.307583 
L 310.801988 94.802585 
L 310.73366 94.865596 
L 310.597103 95.615346 
L 310.324373 99.343629 
L 309.780452 111.646962 
L 309.238572 121.91409 
L 308.968394 124.113443 
L 308.833494 124.314124 
L 308.698721 123.904022 
L 308.496798 122.177321 
L 308.160889 116.69205 
L 307.024646 94.73163 
L 306.891561 94.469161 
L 306.7586 95.002586 
L 306.55939 97.199313 
L 306.161802 105.229997 
L 305.369939 121.857612 
L 305.106961 124.24601 
L 304.975654 124.598735 
L 304.910046 124.558846 
L 304.778921 124.048844 
L 304.582461 122.243304 
L 304.255631 116.799137 
L 303.15002 94.762787 
L 303.020516 94.272326 
L 302.955808 94.310238 
L 302.826482 94.948428 
L 302.568184 98.273244 
L 302.117301 108.281811 
L 301.475682 121.740371 
L 301.155969 124.744445 
L 301.028288 125.022793 
L 300.900723 124.758332 
L 300.709593 123.364541 
L 300.391624 118.629593 
L 299.757848 103.959099 
L 299.315913 95.757778 
L 299.064007 94.180777 
L 299.001102 94.227355 
L 298.875377 94.852809 
L 298.624267 98.050993 
L 298.185916 107.747792 
L 297.499868 122.309472 
L 297.18915 125.230165 
L 297.065058 125.52935 
L 297.003054 125.487295 
L 296.879129 125.021948 
L 296.631612 122.621867 
L 296.26117 115.883442 
L 295.216968 94.717221 
L 295.033519 94.163602 
L 294.911356 94.63782 
L 294.728316 96.547335 
L 294.362967 103.684428 
L 293.453849 123.3563 
L 293.152152 125.883118 
L 293.03166 126.070479 
L 292.911275 125.778286 
L 292.730897 124.459129 
L 292.430798 120.105811 
L 291.892286 107.747384 
L 291.355907 96.480638 
L 291.118197 94.318884 
L 290.999499 94.164695 
L 290.880905 94.648008 
L 290.64403 97.394691 
L 290.230497 106.250976 
L 289.465862 123.087093 
L 289.172927 126.098978 
L 288.997473 126.597177 
L 288.88063 126.367153 
L 288.705558 125.192425 
L 288.414279 121.181557 
L 287.949548 110.851645 
L 287.255472 95.984376 
L 287.024915 94.196212 
L 286.967338 94.115946 
L 286.909786 94.186685 
L 286.73728 95.28619 
L 286.450265 99.719013 
L 285.763954 116.240137 
L 285.30838 124.582922 
L 285.024443 126.866058 
L 284.911038 127.054271 
L 284.797731 126.821161 
L 284.627953 125.694308 
L 284.345474 121.882943 
L 283.894765 111.988599 
L 283.165644 96.036341 
L 282.942112 94.166234 
L 282.830488 94.058854 
L 282.71896 94.516237 
L 282.496189 97.017028 
L 282.10725 105.156411 
L 281.222577 124.552226 
L 280.947344 127.05458 
L 280.782484 127.399314 
L 280.672693 127.137186 
L 280.45339 125.457969 
L 280.125129 120.314469 
L 279.525469 105.911883 
L 279.036898 95.944766 
L 278.766267 93.888496 
L 278.712209 93.866421 
L 278.604161 94.2201 
L 278.388336 96.436437 
L 278.065276 102.747354 
L 276.994241 125.719008 
L 276.727875 127.516426 
L 276.621484 127.598966 
L 276.515181 127.314568 
L 276.30284 125.6693 
L 275.984991 120.743066 
L 275.404317 106.837835 
L 274.878721 95.79377 
L 274.616737 93.642686 
L 274.564405 93.57469 
L 274.512095 93.631281 
L 274.355293 94.535615 
L 274.094388 98.249402 
L 273.574185 110.563616 
L 272.952758 123.951664 
L 272.643189 127.161138 
L 272.437232 127.638462 
L 272.33438 127.364838 
L 272.128929 125.814186 
L 271.82138 121.179394 
L 271.310469 109.181985 
L 270.700117 95.681843 
L 270.446681 93.325958 
L 270.34545 93.167831 
L 270.244302 93.473091 
L 270.042251 95.40991 
L 269.739789 101.028943 
L 268.53725 126.237074 
L 268.288183 127.493777 
L 268.188696 127.443021 
L 268.039616 126.774992 
L 267.791549 124.143917 
L 267.445091 117.694181 
L 266.264583 93.01903 
L 266.117814 92.616567 
L 266.020065 92.886793 
L 265.824802 94.666707 
L 265.532491 99.916639 
L 264.27383 126.079763 
L 264.033264 127.172725 
L 263.937171 127.096391 
L 263.793173 126.433626 
L 263.553556 123.921203 
L 263.171151 116.740698 
L 262.031136 92.513541 
L 261.842176 91.945175 
L 261.747807 92.259311 
L 261.559291 94.03093 
L 261.230097 100.12441 
L 260.061723 125.010987 
L 259.783002 126.631357 
L 259.69024 126.630738 
L 259.551231 126.121238 
L 259.319909 123.956107 
L 258.996811 118.448934 
L 258.307399 101.407571 
L 257.850006 92.715812 
L 257.62197 91.156776 
L 257.576415 91.117787 
L 257.530878 91.171445 
L 257.394373 91.8797 
L 257.167212 94.743352 
L 256.759422 103.638552 
L 255.90314 122.615791 
L 255.589233 125.607384 
L 255.410234 125.96727 
L 255.276164 125.578811 
L 255.053055 123.707777 
L 254.741414 118.746712 
L 254.164849 104.83023 
L 253.591121 92.510244 
L 253.327275 90.286392 
L 253.239459 90.209621 
L 253.10786 90.730557 
L 252.888859 93.186797 
L 252.539315 100.269406 
L 251.540222 122.276861 
L 251.237859 124.877118 
L 251.108518 125.141177 
L 251.065436 125.113526 
L 250.936288 124.685059 
L 250.721364 122.846874 
L 250.378319 117.261691 
L 249.780449 102.65121 
L 249.228068 91.209071 
L 248.974021 89.250837 
L 248.889464 89.212277 
L 248.762747 89.73836 
L 248.551864 92.074216 
L 248.173258 99.755905 
L 247.169772 121.560214 
L 246.878757 123.947813 
L 246.754265 124.188414 
L 246.712798 124.162359 
L 246.588489 123.766745 
L 246.381611 122.072721 
L 246.051395 116.906735 
L 245.475838 103.095548 
L 244.862428 90.144069 
L 244.618002 88.214769 
L 244.536645 88.133624 
L 244.495988 88.200876 
L 244.374108 88.826842 
L 244.130746 91.83875 
L 243.726319 100.561292 
L 242.881776 119.329842 
L 242.561727 122.629475 
L 242.362165 123.155807 
L 242.2426 122.888263 
L 242.043612 121.486885 
L 241.76563 117.650012 
L 241.290712 107.180427 
L 240.464503 88.945979 
L 240.22958 87.133796 
L 240.151384 87.043993 
L 240.112307 87.097698 
L 239.995159 87.647666 
L 239.76124 90.375003 
L 239.372482 98.469101 
L 238.445077 118.793746 
L 238.137689 121.689333 
L 237.984321 122.095341 
L 237.946013 122.085583 
L 237.83117 121.789845 
L 237.640034 120.424425 
L 237.334917 116.130591 
L 236.84093 105.034021 
L 236.08534 88.29192 
L 235.822132 86.076189 
L 235.747048 85.967408 
L 235.709525 86.002997 
L 235.597037 86.46569 
L 235.409817 88.361565 
L 235.073645 94.614222 
L 233.886853 119.352919 
L 233.628994 120.956832 
L 233.518675 121.039838 
L 233.408469 120.757654 
L 233.225047 119.490331 
L 232.93223 115.525571 
L 232.458122 105.181884 
L 231.62449 86.909967 
L 231.372079 85.009053 
L 231.300072 84.946637 
L 231.264088 84.997324 
L 231.120272 85.736578 
L 230.904916 88.337462 
L 230.511243 96.493191 
L 229.586585 116.652578 
L 229.26841 119.666584 
L 229.092065 120.07692 
L 228.986401 119.879167 
L 228.810533 118.819814 
L 228.529762 115.332622 
L 228.110025 106.743743 
L 227.13721 85.581646 
L 226.895432 84.024524 
L 226.826457 84.019809 
L 226.723081 84.382806 
L 226.516639 86.373324 
L 226.17349 92.703211 
L 224.981437 117.452186 
L 224.71091 119.132749 
L 224.609647 119.211981 
L 224.575915 119.171007 
L 224.441099 118.672519 
L 224.205601 116.548813 
L 223.870118 111.038282 
L 223.235743 95.852618 
L 222.704602 85.261581 
L 222.440076 83.231955 
L 222.374053 83.16457 
L 222.341057 83.198546 
L 222.209184 83.779715 
L 221.978821 86.396822 
L 221.585137 94.398595 
L 220.607642 115.434185 
L 220.283924 118.239256 
L 220.122459 118.516603 
L 220.025705 118.3161 
L 219.832479 117.102988 
L 219.543342 113.376075 
L 219.095242 103.992037 
L 218.173438 84.140232 
L 217.920654 82.488241 
L 217.85756 82.47788 
L 217.826028 82.534058 
L 217.7 83.16128 
L 217.47984 85.703924 
L 217.103566 93.278598 
L 216.076206 115.224884 
L 215.767006 117.76818 
L 215.612774 118.01613 
L 215.520351 117.831956 
L 215.33577 116.725912 
L 215.059553 113.324506 
L 214.63144 104.665621 
L 213.62975 83.297506 
L 213.388474 81.919623 
L 213.298152 82.009089 
L 213.147803 82.887953 
L 212.907733 86.02092 
L 212.48905 95.049081 
L 211.627563 113.855619 
L 211.273349 117.328515 
L 211.096734 117.741772 
L 211.00855 117.608873 
L 210.832427 116.672213 
L 210.568854 113.669592 
L 210.160303 105.810324 
L 209.060202 82.590993 
L 208.83023 81.516229 
L 208.744135 81.665242 
L 208.60082 82.572979 
L 208.343402 86.080415 
L 207.887511 96.244444 
L 207.095016 113.546652 
L 206.75743 117.09216 
L 206.561069 117.691747 
L 206.477041 117.607312 
L 206.337165 117.014678 
L 206.1138 114.929469 
L 205.77976 109.452399 
L 205.142875 94.284301 
L 204.592619 83.342223 
L 204.318723 81.325176 
L 204.264042 81.279862 
L 204.209393 81.356835 
L 204.072914 82.075882 
L 203.85497 84.680206 
L 203.474813 92.458091 
L 202.450882 114.74794 
L 202.129918 117.554691 
L 201.969862 117.866593 
L 201.943213 117.846498 
L 201.836697 117.561084 
L 201.650596 116.286036 
L 201.358924 112.416566 
L 200.910005 102.915355 
L 199.99276 83.004784 
L 199.732406 81.223273 
L 199.680426 81.192851 
L 199.628476 81.273264 
L 199.498733 81.951847 
L 199.265671 84.768208 
L 198.878583 92.840394 
L 197.854519 115.195339 
L 197.524232 117.997102 
L 197.372207 118.248422 
L 197.346895 118.225263 
L 197.220444 117.832352 
L 197.0185 116.263709 
L 196.716449 111.90702 
L 196.215328 100.70283 
L 195.444213 83.708815 
L 195.172221 81.364389 
L 195.073524 81.241163 
L 195.048868 81.273101 
L 194.925689 81.805076 
L 194.728967 83.88012 
L 194.38577 90.415356 
L 193.146937 116.877451 
L 192.858016 118.726209 
L 192.761924 118.811093 
L 192.737917 118.790475 
L 192.617987 118.43774 
L 192.426446 117.02466 
L 192.116103 112.66005 
L 191.64084 102.145405 
L 190.791984 83.454681 
L 190.534294 81.466143 
L 190.46415 81.388223 
L 190.41742 81.449732 
L 190.300707 81.995953 
L 190.091029 84.310573 
L 189.742717 91.174984 
L 188.546265 117.235869 
L 188.249798 119.363017 
L 188.136051 119.511454 
L 188.11332 119.496041 
L 187.999759 119.194572 
L 187.795738 117.727041 
L 187.501918 113.648901 
L 187.029467 103.284141 
L 186.136937 83.522141 
L 185.871046 81.652533 
L 185.804707 81.636417 
L 185.782605 81.671967 
L 185.650123 82.309151 
L 185.429791 84.886534 
L 185.056578 92.596555 
L 183.947032 117.392562 
L 183.623546 120.065674 
L 183.49451 120.298769 
L 183.451544 120.268794 
L 183.322781 119.857775 
L 183.10863 118.12695 
L 182.78846 113.276051 
L 182.27881 101.431821 
L 181.520326 84.39089 
L 181.24818 82.025707 
L 181.164628 81.903833 
L 181.122884 81.953294 
L 180.997785 82.538255 
L 180.78972 84.885037 
L 180.437247 91.975338 
L 179.225933 118.8208 
L 178.9209 120.990189 
L 178.819483 121.118291 
L 178.778953 121.085489 
L 178.657488 120.700654 
L 178.45546 119.124498 
L 178.153387 114.725321 
L 177.672474 103.813785 
L 176.818159 84.399698 
L 176.542016 82.250353 
L 176.48297 82.199588 
L 176.443631 82.248159 
L 176.325732 82.785108 
L 176.110049 85.207363 
L 175.758403 92.339522 
L 174.540094 119.587832 
L 174.233731 121.788668 
L 174.119159 121.915762 
L 174.081007 121.872816 
L 173.947623 121.389067 
L 173.738489 119.605809 
L 173.416403 114.589654 
L 172.907639 102.521706 
L 172.141531 84.982446 
L 171.863175 82.572099 
L 171.78912 82.470866 
L 171.752119 82.508426 
L 171.641227 82.970586 
L 171.438347 85.11205 
L 171.107539 91.556098 
L 169.762694 121.068282 
L 169.493023 122.601203 
L 169.403349 122.642263 
L 169.36751 122.592707 
L 169.224326 122.020568 
L 168.992242 119.850141 
L 168.654345 114.174022 
L 168.08873 100.129157 
L 167.422665 85.171872 
L 167.144017 82.779019 
L 167.074521 82.687035 
L 167.022442 82.75488 
L 166.901069 83.363529 
L 166.693469 85.785928 
L 166.34878 92.878255 
L 165.104384 121.012731 
L 164.800814 123.152829 
L 164.699908 123.272669 
L 164.666304 123.246196 
L 164.548814 122.893493 
L 164.347849 121.365716 
L 164.047454 117.030666 
L 163.582668 106.459283 
L 162.645765 84.723678 
L 162.384984 82.849093 
L 162.336194 82.81892 
L 162.287438 82.892141 
L 162.157587 83.58548 
L 161.93092 86.422501 
L 161.560114 94.484949 
L 160.443484 120.515626 
L 160.111946 123.451162 
L 159.97034 123.740704 
L 159.938912 123.72508 
L 159.829023 123.442487 
L 159.641045 122.1465 
L 159.360032 118.386152 
L 158.940641 109.364134 
L 157.834594 84.035858 
L 157.606396 82.836674 
L 157.530499 82.936476 
L 157.394097 83.739886 
L 157.167364 86.723998 
L 156.776142 95.489487 
L 155.719164 120.399667 
L 155.380282 123.639712 
L 155.20415 124.021404 
L 155.189493 124.012091 
L 155.086985 123.770567 
L 154.91162 122.64846 
L 154.634896 119.132653 
L 154.229169 110.664905 
L 153.026635 83.510381 
L 152.82832 82.725727 
L 152.74351 82.912923 
L 152.588308 84.053078 
L 152.335129 87.912687 
L 151.873487 99.186598 
L 151.028637 119.32208 
L 150.658159 123.479335 
L 150.439611 124.10235 
L 150.344228 123.934905 
L 150.18104 123.032775 
L 149.9235 120.079441 
L 149.545833 112.745818 
L 148.162232 82.696956 
L 148.057034 82.473082 
L 148.017629 82.513983 
L 147.91267 82.952748 
L 147.716338 85.005098 
L 147.390464 91.35056 
L 145.976305 122.621983 
L 145.722578 123.933333 
L 145.64666 123.960704 
L 145.608736 123.910989 
L 145.482489 123.44223 
L 145.268455 121.599984 
L 144.955032 116.678249 
L 144.469237 105.01624 
L 143.60678 84.449222 
L 143.326025 82.138083 
L 143.265161 82.079499 
L 143.216514 82.149351 
L 143.095064 82.771233 
L 142.877062 85.396746 
L 142.515451 93.10176 
L 141.31364 120.920254 
L 140.996379 123.428916 
L 140.867604 123.619071 
L 140.832531 123.586682 
L 140.715771 123.219638 
L 140.517799 121.698451 
L 140.216283 117.325561 
L 139.766848 107.056602 
L 138.765083 83.344978 
L 138.506038 81.565819 
L 138.449874 81.559697 
L 138.416202 81.622093 
L 138.292901 82.267987 
L 138.080536 84.829086 
L 137.724602 92.355928 
L 136.50655 120.448141 
L 136.192496 122.886079 
L 136.073819 123.068731 
L 136.030724 123.033201 
L 135.912379 122.656983 
L 135.708538 121.064537 
L 135.409456 116.683234 
L 134.953174 106.205752 
L 133.957898 82.687801 
L 133.698866 80.909578 
L 133.647202 80.897669 
L 133.605905 80.971646 
L 133.482195 81.631511 
L 133.266355 84.261736 
L 132.908457 91.865679 
L 131.698512 119.692968 
L 131.390183 122.123442 
L 131.261394 122.332072 
L 131.221827 122.299175 
L 131.103297 121.92821 
L 130.906311 120.420247 
L 130.612151 116.204634 
L 130.16415 106.08165 
L 129.126576 81.737616 
L 128.879728 80.144796 
L 128.832386 80.135749 
L 128.794543 80.19824 
L 128.671735 80.822612 
L 128.455143 83.403402 
L 128.099199 90.873097 
L 126.871749 118.913301 
L 126.562466 121.265415 
L 126.444688 121.442725 
L 126.408501 121.416389 
L 126.291066 121.069619 
L 126.092924 119.590446 
L 125.797106 115.400487 
L 125.352056 105.422013 
L 124.2992 80.842473 
L 124.056583 79.306605 
L 124.004742 79.301391 
L 123.97021 79.361969 
L 123.84953 79.970994 
L 123.634734 82.496478 
L 123.284402 89.752504 
L 122.031134 118.0951 
L 121.732923 120.274034 
L 121.617427 120.437738 
L 121.576243 120.402922 
L 121.452891 120.006102 
L 121.247977 118.391389 
L 120.946232 113.965074 
L 120.484921 103.405284 
L 119.503822 80.349013 
L 119.243884 78.447417 
L 119.188921 78.406315 
L 119.14186 78.473454 
L 119.016582 79.10683 
L 118.805901 81.576519 
L 118.456769 88.74505 
L 117.190135 117.137484 
L 116.889828 119.234324 
L 116.777696 119.36122 
L 116.740377 119.323273 
L 116.62115 118.934339 
L 116.420628 117.373741 
L 116.117734 112.981669 
L 115.65604 102.49331 
L 114.667345 79.410342 
L 114.403856 77.537969 
L 114.347081 77.511095 
L 114.304544 77.580223 
L 114.184235 78.184697 
L 113.972678 80.630064 
L 113.62221 87.764973 
L 112.348133 116.112802 
L 112.050251 118.150559 
L 111.942412 118.27041 
L 111.902037 118.229665 
L 111.78113 117.829324 
L 111.580331 116.256078 
L 111.274157 111.800621 
L 110.812192 101.311058 
L 109.831587 78.551818 
L 109.569015 76.664027 
L 109.511585 76.628233 
L 109.466968 76.695842 
L 109.346093 77.293302 
L 109.136934 79.677231 
L 108.790529 86.634975 
L 107.49256 115.219359 
L 107.201251 117.114562 
L 107.098549 117.213202 
L 107.062359 117.176365 
L 106.941947 116.785867 
L 106.738018 115.198678 
L 106.433933 110.795114 
L 105.973009 100.397412 
L 104.991203 77.729709 
L 104.727881 75.83464 
L 104.670855 75.796054 
L 104.625291 75.862448 
L 104.505919 76.441278 
L 104.296425 78.7965 
L 103.953328 85.6146 
L 102.635854 114.38033 
L 102.349343 116.163318 
L 102.252494 116.245015 
L 102.214893 116.204998 
L 102.09159 115.793031 
L 101.888692 114.19304 
L 101.580954 109.708506 
L 101.113261 99.123162 
L 100.153151 77.050217 
L 99.883768 75.0807 
L 99.823031 75.041772 
L 99.777539 75.112501 
L 99.656483 75.712534 
L 99.445527 78.108917 
L 99.096438 85.085928 
L 97.802559 113.402395 
L 97.510768 115.310616 
L 97.410828 115.417133 
L 97.368076 115.376382 
L 97.244839 114.970212 
L 97.041895 113.381578 
L 96.737162 108.974818 
L 96.273079 98.552087 
L 95.303294 76.353263 
L 95.034608 74.417219 
L 94.976649 74.380622 
L 94.932127 74.446445 
L 94.812184 75.025421 
L 94.604319 77.341948 
L 94.261923 84.084984 
L 92.932029 112.955907 
L 92.646741 114.688297 
L 92.554925 114.761733 
L 92.513269 114.716469 
L 92.388589 114.288757 
L 92.181753 112.628849 
L 91.869647 108.020934 
L 91.390448 97.09667 
L 90.466935 75.963401 
L 90.193028 73.879633 
L 90.130724 73.825343 
L 90.080184 73.898572 
L 89.956093 74.518942 
L 89.743849 76.949498 
L 89.391727 84.019498 
L 88.106451 112.228426 
L 87.810808 114.202821 
L 87.705592 114.316678 
L 87.665769 114.278085 
L 87.542981 113.877408 
L 87.33814 112.276932 
L 87.031459 107.833361 
L 86.562714 97.281827 
L 85.604105 75.376158 
L 85.336787 73.424778 
L 85.276188 73.382255 
L 85.229135 73.453631 
L 85.10511 74.074175 
L 84.891707 76.527398 
L 84.541365 83.586447 
L 83.250061 112.022199 
L 82.954917 113.982058 
L 82.851965 114.091576 
L 82.811502 114.052285 
L 82.69043 113.657921 
L 82.486615 112.071182 
L 82.183405 107.694434 
L 81.720644 97.30588 
L 80.743067 74.934965 
L 80.479798 73.070972 
L 80.422247 73.037837 
L 80.376287 73.110037 
L 80.25312 73.730792 
L 80.042349 76.157651 
L 79.695311 83.160848 
L 78.384516 112.120791 
L 78.093764 113.991863 
L 77.995737 114.085109 
L 77.953451 114.040641 
L 77.829598 113.617486 
L 77.622629 111.951284 
L 77.313694 107.369196 
L 76.840052 96.508893 
L 75.90154 74.823535 
L 75.632909 72.813017 
L 75.572223 72.767218 
L 75.523771 72.841503 
L 75.400606 73.468745 
L 75.18939 75.929074 
L 74.840195 83.067028 
L 73.832727 107.931714 
L 73.832727 107.931714 
" style="fill:none;stroke:#008000;stroke-linecap:square;stroke-opacity:0.7;stroke-width:0.8;"/>
   </g>
   <g id="line2d_15">
    <path clip-path="url(#pa3260cddd0)" d="M 176.42534 113.888526 
L 176.44363 118.259948 
L 176.498524 110.137944 
L 176.535142 116.960257 
L 176.663441 106.921714 
L 176.791952 116.303759 
L 176.810328 113.637849 
L 176.883875 117.782809 
L 176.920675 108.815367 
L 176.957492 115.191145 
L 176.994326 107.266861 
L 177.01275 105.672584 
L 177.031178 109.213471 
L 177.049611 113.865907 
L 177.086489 106.118588 
L 177.141838 113.302814 
L 177.27114 104.861209 
L 177.308123 112.474141 
L 177.345123 102.309727 
L 177.382141 107.310504 
L 177.400657 108.398104 
L 177.419176 103.696437 
L 177.474762 108.342486 
L 177.530388 100.076249 
L 177.567493 106.629257 
L 177.604616 98.210272 
L 177.641757 103.724112 
L 177.790497 94.374533 
L 177.809109 97.915154 
L 177.827726 99.57862 
L 177.846347 95.646815 
L 177.958166 89.260925 
L 177.902237 97.362971 
L 177.976818 91.882128 
L 177.995475 94.964504 
L 178.032801 87.377651 
L 178.070146 90.890595 
L 178.088824 90.723477 
L 178.2197 84.321886 
L 178.294584 82.983609 
L 178.332053 88.921366 
L 178.463334 79.955521 
L 178.482106 83.481505 
L 178.500883 85.340563 
L 178.53845 80.11572 
L 178.594835 84.101014 
L 178.726555 78.008113 
L 178.76423 82.102778 
L 178.801923 77.575415 
L 178.858496 80.969407 
L 178.971764 75.225114 
L 178.990657 76.079599 
L 179.104115 80.076336 
L 179.047366 74.588042 
L 179.12304 78.378009 
L 179.14197 77.13021 
L 179.179844 81.191611 
L 179.217736 78.121743 
L 179.236688 78.42857 
L 179.274607 82.964449 
L 179.312544 76.628589 
L 179.3505 81.410089 
L 179.388473 77.791498 
L 179.407467 79.091189 
L 179.521524 85.84112 
L 179.55958 81.148501 
L 179.597653 87.160769 
L 179.654799 82.264042 
L 179.788297 90.377531 
L 179.826481 86.305485 
L 179.864683 92.953229 
L 179.902904 86.378666 
L 180.03682 97.498422 
L 180.05597 94.661668 
L 180.075124 91.273264 
L 180.132614 97.441474 
L 180.170963 91.911135 
L 180.305332 103.341709 
L 180.343765 97.203038 
L 180.382216 105.545117 
L 180.420686 99.332466 
L 180.555478 109.28266 
L 180.574752 106.805157 
L 180.594031 102.234417 
L 180.651897 110.161362 
L 180.690497 103.032753 
L 180.825745 111.864212 
L 180.903132 114.867286 
L 180.941854 105.977549 
L 181.077528 116.054944 
L 181.096929 111.910782 
L 181.116335 107.559585 
L 181.15516 115.535227 
L 181.213433 108.095534 
L 181.252305 115.047178 
L 181.291196 107.919368 
L 181.330106 114.968143 
L 181.369035 108.420191 
L 181.407983 114.555403 
L 181.427464 116.52543 
L 181.44695 111.413685 
L 181.544449 107.455801 
L 181.505435 114.564451 
L 181.563963 108.046836 
L 181.603006 115.60282 
L 181.642067 107.39699 
L 181.681148 114.257624 
L 181.81808 104.743055 
L 181.83766 108.333704 
L 181.857246 113.38318 
L 181.896431 105.287786 
L 181.955245 110.919249 
L 182.073002 100.531833 
L 182.092644 102.400471 
L 182.112292 106.91719 
L 182.151602 99.831692 
L 182.210602 105.712501 
L 182.328733 97.709183 
L 182.368148 104.305833 
L 182.427307 97.145824 
L 182.447037 101.461894 
L 182.466771 100.912639 
L 182.585277 92.992614 
L 182.624818 100.287276 
L 182.664378 92.029554 
L 182.703958 96.376228 
L 182.842639 85.03347 
L 182.86247 88.433317 
L 182.882306 90.230371 
L 182.902146 86.452911 
L 183.001423 83.676033 
L 182.961698 88.861225 
L 183.021293 83.767043 
L 183.041168 87.843879 
L 183.100822 82.571934 
L 183.140615 86.211548 
L 183.260113 78.977825 
L 183.280046 79.165966 
L 183.299985 81.596367 
L 183.359829 77.740671 
L 183.39975 81.276235 
L 183.43969 77.701818 
L 183.47965 82.047161 
L 183.51963 77.92003 
L 183.55963 79.944344 
L 183.579637 78.552578 
L 183.619666 76.087051 
L 183.659714 79.713359 
L 183.699783 77.326068 
L 183.739871 80.675886 
L 183.779979 75.765321 
L 183.820106 79.606382 
L 183.860254 75.541255 
L 183.900421 79.043289 
L 183.920512 80.240261 
L 183.940608 77.451407 
L 183.960709 75.963575 
L 183.980815 78.567481 
L 184.081419 81.8364 
L 184.041163 76.131225 
L 184.101555 80.382098 
L 184.121696 78.882291 
L 184.161992 83.417106 
L 184.182148 83.343659 
L 184.202308 80.728044 
L 184.242645 83.881471 
L 184.283001 81.980367 
L 184.424404 88.264602 
L 184.444625 85.364513 
L 184.46485 84.275583 
L 184.485081 88.048253 
L 184.545802 86.12719 
L 184.586309 91.546295 
L 184.626835 86.324645 
L 184.667381 91.609097 
L 184.707948 87.815405 
L 184.748534 93.290659 
L 184.850088 97.342481 
L 184.809452 91.130894 
L 184.870414 94.561078 
L 184.890745 93.120614 
L 184.911081 96.553991 
L 185.012838 101.603998 
L 184.97212 95.774549 
L 185.033204 100.849571 
L 185.053575 96.277766 
L 185.094333 101.218136 
L 185.155509 97.91542 
L 185.277996 106.156376 
L 185.318865 99.797098 
L 185.359755 107.173722 
L 185.400666 102.393818 
L 185.544012 110.582085 
L 185.564511 105.446655 
L 185.626037 111.974649 
L 185.66708 105.653957 
L 185.790332 113.97315 
L 185.913768 106.648417 
L 186.058012 114.223029 
L 186.14055 114.985972 
L 186.18185 107.334986 
L 186.264512 107.280167 
L 186.305874 115.094812 
L 186.430084 105.925923 
L 186.450804 108.53728 
L 186.512994 105.78994 
L 186.554481 112.408411 
L 186.679065 104.127006 
L 186.699847 104.2896 
L 186.720635 108.144499 
L 186.783029 101.884746 
L 186.803837 106.158239 
L 186.824651 106.785997 
L 186.949642 99.112391 
L 186.991348 102.848072 
L 187.033074 95.932619 
L 187.053945 100.294727 
L 187.074822 101.262044 
L 187.11659 94.457294 
L 187.200191 95.067755 
L 187.242022 99.880923 
L 187.283875 93.101986 
L 187.304809 94.83331 
L 187.325749 96.117035 
L 187.346694 92.357671 
L 187.451497 87.335871 
L 187.40956 93.246751 
L 187.472474 89.027545 
L 187.493455 91.724058 
L 187.535435 85.306501 
L 187.577435 90.37966 
L 187.703564 82.129124 
L 187.724605 82.803451 
L 187.829885 85.566492 
L 187.787757 81.090755 
L 187.850957 84.807807 
L 187.956396 79.3416 
L 187.9775 79.645234 
L 187.99861 81.905057 
L 188.040844 77.291207 
L 188.0831 80.612551 
L 188.209996 75.860589 
L 188.231164 75.901304 
L 188.337085 79.169958 
L 188.294701 75.884007 
L 188.358286 77.444488 
L 188.379491 75.532473 
L 188.421919 77.980438 
L 188.464368 75.898377 
L 188.591844 81.447345 
L 188.613109 80.20194 
L 188.676936 81.232858 
L 188.719514 77.182634 
L 188.847379 82.544524 
L 188.868709 80.943861 
L 188.890044 78.892936 
L 188.932731 82.62968 
L 188.975439 80.882655 
L 189.103695 88.999869 
L 189.12509 87.102225 
L 189.189307 89.328784 
L 189.232146 84.523333 
L 189.360794 93.222535 
L 189.382255 91.982186 
L 189.403721 89.644659 
L 189.446669 95.892436 
L 189.489639 91.735235 
L 189.618682 98.842554 
L 189.640208 96.849109 
L 189.66174 94.140089 
L 189.70482 99.93175 
L 189.747922 95.047265 
L 189.87736 104.981225 
L 189.898952 102.43959 
L 189.92055 99.595651 
L 189.963762 105.711703 
L 190.006997 100.491118 
L 190.136833 108.909305 
L 190.158492 106.720534 
L 190.180156 103.644811 
L 190.223501 109.702052 
L 190.266869 104.971379 
L 190.397105 112.051821 
L 190.440561 105.87962 
L 190.527541 107.612009 
L 190.658178 114.215844 
L 190.789017 107.408699 
L 190.832675 111.760961 
L 190.876355 106.394546 
L 190.920058 111.291273 
L 190.985654 111.610342 
L 191.051301 106.740492 
L 191.073195 111.225544 
L 191.116999 106.571777 
L 191.160825 111.214101 
L 191.292441 104.669076 
L 191.314397 106.052592 
L 191.336358 109.38192 
L 191.380298 103.72225 
L 191.42426 109.054336 
L 191.556284 99.598844 
L 191.578307 101.285196 
L 191.600337 104.130732 
L 191.644413 97.797798 
L 191.688512 102.434268 
L 191.820945 93.470019 
L 191.865135 97.997382 
L 191.909348 92.475026 
L 191.931463 94.345527 
L 191.953584 95.690191 
L 191.97571 92.896281 
L 192.042124 93.618243 
L 192.086429 88.557857 
L 192.175107 86.995514 
L 192.219481 90.722146 
L 192.330515 86.027398 
L 192.352739 86.200105 
L 192.374969 87.834565 
L 192.397205 86.403415 
L 192.50847 80.60989 
L 192.530741 81.733149 
L 192.553017 83.792324 
L 192.597587 80.508235 
L 192.642179 83.259567 
L 192.776097 78.89879 
L 192.798437 80.106672 
L 192.843134 77.264064 
L 192.865492 77.386742 
L 192.887855 78.858607 
L 192.932599 76.459341 
L 192.977366 78.797135 
L 193.111807 75.713695 
L 193.224003 77.70235 
L 193.246459 77.224147 
L 193.268922 76.064697 
L 193.313864 78.363639 
L 193.336344 77.355074 
L 193.35883 77.206584 
L 193.493869 81.758696 
L 193.516396 80.117849 
L 193.584012 82.746503 
L 193.606563 80.801491 
L 193.74199 84.554202 
L 193.764582 82.63793 
L 193.787179 81.963602 
L 193.809783 84.061895 
L 193.990826 91.309988 
L 194.013483 90.842163 
L 194.036146 88.555462 
L 194.081489 91.893039 
L 194.126857 88.770215 
L 194.263102 95.681676 
L 194.28583 93.392846 
L 194.331305 97.606464 
L 194.376803 94.694932 
L 194.513442 101.396697 
L 194.559037 97.709449 
L 194.604655 102.903955 
L 194.627473 100.12548 
L 194.650297 99.997746 
L 194.764507 106.853323 
L 194.787367 106.275594 
L 194.810233 103.812994 
L 194.855984 108.220341 
L 194.901758 104.159206 
L 195.039226 110.113195 
L 195.108041 111.610608 
L 195.153949 107.174787 
L 195.19988 111.259074 
L 195.291816 111.24497 
L 195.360831 111.723439 
L 195.406872 108.193197 
L 195.452937 112.593625 
L 195.54514 112.170773 
L 195.591278 107.730961 
L 195.683627 108.129064 
L 195.706729 111.185893 
L 195.752953 107.257281 
L 195.799201 110.992962 
L 195.938092 104.959138 
L 195.961261 107.060625 
L 196.00762 103.513086 
L 196.054003 106.46001 
L 196.193299 102.176937 
L 196.216536 104.112636 
L 196.26303 100.417937 
L 196.286286 100.2918 
L 196.309548 102.419099 
L 196.356091 98.70524 
L 196.402659 101.125795 
L 196.542511 94.408862 
L 196.565841 95.945659 
L 196.589177 93.89633 
L 196.659224 93.942101 
L 196.705953 90.487435 
L 196.729327 92.261338 
L 196.799486 89.474879 
L 196.822884 91.217381 
L 196.963407 84.480223 
L 197.010298 85.49065 
L 197.080681 85.746384 
L 197.198111 80.922838 
L 197.245128 81.879777 
L 197.292169 80.018323 
L 197.339235 81.455062 
L 197.386326 79.424627 
L 197.409881 80.362406 
L 197.551344 78.047232 
L 197.574944 78.764137 
L 197.598549 79.189384 
L 197.622161 78.210092 
L 197.716671 77.23559 
L 197.669404 78.301635 
L 197.740315 77.893685 
L 197.763965 78.013169 
L 197.882309 76.001629 
L 197.92969 78.065327 
L 198.000811 77.966067 
L 198.048256 76.849728 
L 198.071989 77.518201 
L 198.262076 82.574063 
L 198.309661 81.682588 
L 198.333464 83.604182 
L 198.381088 82.436483 
L 198.404909 83.976207 
L 198.428737 85.926276 
L 198.524113 85.76927 
L 198.547973 85.114634 
L 198.571839 85.981361 
L 198.691268 90.583768 
L 198.739084 90.464284 
L 198.858737 94.459423 
L 198.882687 93.018693 
L 199.07452 97.433491 
L 199.194625 101.925994 
L 199.218666 100.304041 
L 199.266767 103.043398 
L 199.290827 102.773028 
L 199.314893 101.675848 
L 199.338966 103.358741 
L 199.435323 106.25191 
L 199.459429 105.939229 
L 199.483541 104.000869 
L 199.580054 104.072453 
L 199.700843 109.833246 
L 199.72502 108.861405 
L 199.797591 110.059441 
L 199.846005 107.423069 
L 199.967154 110.715407 
L 200.015659 108.147692 
L 200.039922 110.786459 
L 200.088467 108.233646 
L 200.112749 108.478203 
L 200.137038 110.376912 
L 200.185636 107.551069 
L 200.23426 110.005154 
L 200.307245 111.326666 
L 200.355935 107.796158 
L 200.404651 109.247799 
L 200.42902 106.830438 
L 200.477776 107.78578 
L 200.526558 105.321583 
L 200.575368 107.445423 
L 200.624203 105.042963 
L 200.648631 106.302738 
L 200.795338 102.344588 
L 200.819812 103.928753 
L 200.868781 101.014294 
L 200.893275 102.158842 
L 200.917776 102.466467 
L 201.040382 97.366697 
L 201.064923 97.975029 
L 201.089471 97.980617 
L 201.21231 94.434675 
L 201.236898 95.790249 
L 201.286095 92.654385 
L 201.384568 89.722363 
L 201.335318 92.954294 
L 201.433845 89.92727 
L 201.557155 87.22783 
L 201.581837 87.576436 
L 201.606526 87.13469 
L 201.730072 83.500665 
L 201.754802 84.318959 
L 201.804281 82.651235 
L 201.853787 82.753422 
L 202.126558 78.81257 
L 202.151396 77.929876 
L 202.250817 78.272628 
L 202.275689 78.938973 
L 202.325454 78.023015 
L 202.350347 78.074109 
L 202.400153 76.763773 
L 202.499847 77.408297 
L 202.624618 78.771855 
L 202.649593 78.30536 
L 202.674575 78.732204 
L 202.799587 80.307853 
L 202.82461 79.908951 
L 202.84964 80.858971 
L 203.050128 84.202668 
L 203.07522 83.990577 
L 203.100319 84.64814 
L 203.301361 90.174222 
L 203.326522 89.451727 
L 203.35169 90.076292 
L 203.553287 95.598382 
L 203.578518 95.459472 
L 203.603756 95.719197 
L 203.730051 99.059169 
L 203.755331 98.726529 
L 204.415071 109.043957 
L 204.44054 108.176698 
L 204.491501 109.399749 
L 204.516992 109.372073 
L 204.54249 109.059924 
L 204.670087 111.304579 
L 204.74673 111.431248 
L 204.797861 109.100107 
L 204.84902 110.168547 
L 204.874611 108.5756 
L 204.925813 110.145927 
L 204.977044 108.637072 
L 205.053943 108.784232 
L 205.105245 109.4394 
L 205.233626 106.768434 
L 205.259323 107.311834 
L 205.285028 107.4244 
L 205.413659 104.432503 
L 205.439407 105.332759 
L 205.465162 104.764078 
L 205.645649 99.241988 
L 205.929985 93.837785 
L 205.955878 93.965519 
L 206.241171 87.532262 
L 206.788273 79.528677 
L 207.049935 77.516604 
L 207.102356 78.071182 
L 207.601832 83.540316 
L 207.81294 87.975072 
L 208.024527 91.453156 
L 208.316242 98.582829 
L 208.555596 102.771964 
L 208.742183 106.506846 
L 208.768869 106.319769 
L 208.795562 106.64203 
L 208.982627 109.861453 
L 209.036143 109.15466 
L 209.062912 109.821271 
L 209.223688 110.648081 
L 209.331025 111.259606 
L 209.357878 111.086101 
L 209.465368 110.359349 
L 209.519159 110.478833 
L 209.546066 110.369727 
L 209.572981 110.728712 
L 209.626833 109.987591 
L 209.653771 109.99584 
L 209.896557 106.65161 
L 209.923572 106.759918 
L 210.112892 103.531447 
L 210.710376 90.77803 
L 211.503761 78.719963 
L 211.613714 79.563804 
L 211.668738 78.974898 
L 211.751335 79.11301 
L 211.861574 79.918531 
L 211.889154 79.877018 
L 211.916741 79.778822 
L 212.137731 82.933048 
L 212.16539 82.666404 
L 212.386956 88.806938 
L 212.414688 88.902472 
L 212.636832 93.790684 
L 212.664636 93.803457 
L 212.887361 99.668033 
L 212.915238 99.35615 
L 213.138546 104.48466 
L 213.166496 104.09933 
L 213.194454 104.706066 
L 213.39039 108.537014 
L 213.446445 108.453189 
L 213.558652 110.338858 
L 213.586725 110.025378 
L 213.614805 110.091108 
L 213.72721 111.218092 
L 213.755331 111.186425 
L 213.783461 110.544031 
L 213.839745 111.460254 
L 213.8679 110.735631 
L 213.924233 111.547007 
L 213.980599 111.213036 
L 214.008795 111.363123 
L 214.036999 110.215382 
L 214.12166 110.249977 
L 214.178142 111.697626 
L 214.262926 111.08823 
L 214.376088 108.19985 
L 214.4044 108.362711 
L 214.432719 108.533555 
L 214.574441 106.240467 
L 214.602811 106.363677 
L 214.716371 103.13973 
L 214.744782 103.321751 
L 214.773202 103.388279 
L 215.000856 97.45957 
L 215.029351 97.57932 
L 215.400542 88.198872 
L 215.429154 88.308776 
L 215.457775 88.427462 
L 215.658354 84.157695 
L 215.687042 84.323483 
L 215.715738 84.068282 
L 215.91685 80.463795 
L 215.945614 81.079844 
L 215.974387 80.558531 
L 216.003168 79.739172 
L 216.089562 79.757533 
L 216.176034 79.644436 
L 216.204874 80.24851 
L 216.349206 79.3738 
L 216.464825 80.945724 
L 216.493751 80.500252 
L 216.522686 80.893566 
L 216.725469 85.322468 
L 216.754472 84.821645 
L 216.783484 85.470692 
L 216.986808 89.766804 
L 217.015889 89.297915 
L 217.219697 94.18107 
L 217.540824 100.722369 
L 217.745725 106.859976 
L 217.775032 106.069624 
L 217.804347 106.731178 
L 217.921695 108.652241 
L 217.951054 107.671086 
L 217.980422 108.562295 
L 218.039183 108.559634 
L 218.09798 110.619607 
L 218.127392 109.661603 
L 218.156812 111.071199 
L 218.245125 111.753776 
L 218.215679 110.528596 
L 218.274581 111.748454 
L 218.304045 110.602575 
L 218.333518 112.221867 
L 218.392491 110.992163 
L 218.510541 112.716835 
L 218.56962 111.905726 
L 218.687883 113.486431 
L 218.83591 111.00813 
L 218.865543 111.903597 
L 218.895184 110.014734 
L 219.073217 106.946729 
L 219.10292 107.985896 
L 219.132632 108.206503 
L 219.25157 104.979895 
L 219.281327 105.984468 
L 219.311093 104.732411 
L 219.519703 99.647809 
L 219.549541 99.990827 
L 219.66898 95.330142 
L 219.698862 95.403322 
L 219.728753 95.291555 
L 219.848408 92.065746 
L 219.878344 92.83747 
L 220.118159 87.293825 
L 220.148176 87.159705 
L 220.268337 83.767841 
L 220.2984 83.94587 
L 220.328472 83.755866 
L 220.44885 81.742729 
L 220.478967 82.3963 
L 220.509094 81.533831 
L 220.569374 81.727827 
L 220.690043 80.322755 
L 220.780641 80.260485 
L 220.810859 81.336908 
L 220.841086 80.399928 
L 220.901567 81.342497 
L 220.931821 80.779936 
L 221.143857 83.666985 
L 221.174184 83.481239 
L 221.204521 83.662727 
L 221.32596 86.539398 
L 221.356343 85.660164 
L 221.56928 91.022853 
L 221.599737 90.439801 
L 221.630203 91.25783 
L 221.843723 96.830481 
L 221.874263 96.620253 
L 221.996516 100.271575 
L 222.027103 99.719659 
L 222.333481 107.627443 
L 222.36417 107.274845 
L 222.394868 107.511951 
L 222.517756 110.921644 
L 222.548501 109.228373 
L 222.61002 111.494849 
L 222.640794 110.250509 
L 222.763982 113.072095 
L 222.794802 111.536895 
L 222.856471 113.377325 
L 222.88732 111.664894 
L 223.01081 113.985923 
L 223.13445 111.972786 
L 223.103526 114.129358 
L 223.165384 112.485584 
L 223.196328 113.642107 
L 223.22728 111.696562 
L 223.289214 112.992527 
L 223.351186 113.039629 
L 223.413196 111.215431 
L 223.444215 112.516453 
L 223.475244 110.128364 
L 223.506282 110.973535 
L 223.53733 111.182966 
L 223.661616 107.481614 
L 223.692711 108.670336 
L 223.723816 106.969082 
L 223.786055 107.25941 
L 225.007389 82.756616 
L 225.038898 83.282985 
L 225.070418 82.931717 
L 225.165035 81.825756 
L 225.196593 81.869132 
L 225.291327 82.401622 
L 225.259739 81.736076 
L 225.322924 82.203369 
L 225.354532 81.874188 
L 225.386149 82.963651 
L 225.481059 82.931451 
L 225.512715 82.543726 
L 225.639438 84.584539 
L 225.671143 83.933895 
L 225.702858 84.75831 
L 225.988737 89.975968 
L 226.02055 89.304301 
L 226.052374 90.760466 
L 226.084207 90.709905 
L 226.11605 91.146329 
L 226.243522 95.232212 
L 226.275415 94.712496 
L 226.403085 99.123036 
L 226.435027 98.45403 
L 226.658902 104.858548 
L 226.690924 103.637626 
L 226.722956 105.866314 
L 227.075966 112.530823 
L 227.108118 110.890775 
L 227.172452 113.201159 
L 227.204634 111.656113 
L 227.236826 113.833441 
L 227.269029 112.744777 
L 227.333463 114.642156 
L 227.43019 114.491802 
L 227.462453 113.647695 
L 227.494726 115.605481 
L 227.527008 113.902896 
L 227.591604 115.204184 
L 227.720917 113.359762 
L 227.75327 114.974529 
L 227.785634 113.1655 
L 227.818008 113.833973 
L 227.850392 114.137075 
L 227.980029 111.430184 
L 228.012463 112.616245 
L 228.044908 110.282177 
L 228.077363 110.714875 
L 228.109829 110.691989 
L 228.239791 107.978179 
L 228.272307 109.065246 
L 228.304834 106.733041 
L 228.33737 107.137531 
L 228.369917 106.652675 
L 228.565412 101.157462 
L 228.598031 101.840838 
L 228.630659 100.508681 
L 228.826647 95.657992 
L 228.859347 96.217891 
L 229.055767 91.636773 
L 229.351093 85.734941 
L 229.383959 85.83633 
L 229.581371 83.054927 
L 229.61431 83.241206 
L 229.647259 82.904574 
L 229.746168 82.009905 
L 229.878193 83.032042 
L 229.911225 82.344674 
L 229.977321 83.262495 
L 230.010385 82.689555 
L 230.043459 83.757463 
L 230.076543 83.27101 
L 230.308429 87.44817 
L 230.341597 86.692678 
L 230.374776 88.35987 
L 230.574072 92.252024 
L 230.607324 91.889313 
L 230.740441 95.415297 
L 230.773746 94.984728 
L 230.973802 101.026535 
L 231.007182 101.353321 
L 231.040572 101.226651 
L 231.241137 107.490928 
L 231.274602 106.756725 
L 231.308078 108.353663 
L 231.509154 112.008179 
L 231.542704 111.085569 
L 231.677012 114.365399 
L 231.710616 113.175612 
L 231.74423 115.048509 
L 231.777855 114.499253 
L 231.811491 114.372584 
L 231.845137 116.036849 
L 231.946142 115.710063 
L 232.013532 116.499085 
L 232.047243 114.825241 
L 232.182195 117.151059 
L 232.31732 114.670097 
L 232.351128 116.018753 
L 232.418777 114.308185 
L 232.452618 115.104392 
L 232.588089 112.44407 
L 232.621984 112.900719 
L 232.757672 109.759 
L 232.791622 110.195158 
L 232.927528 106.799303 
L 232.961532 107.081115 
L 233.097656 103.359273 
L 233.131714 103.744071 
L 233.336294 96.963271 
L 233.37043 97.686829 
L 233.404576 96.162274 
L 234.08981 84.452015 
L 234.124187 84.653196 
L 234.158576 84.646543 
L 234.365143 83.220449 
L 234.434087 83.142744 
L 234.57211 84.963216 
L 234.606644 84.477296 
L 234.81408 88.371845 
L 234.848692 88.028561 
L 234.883315 88.772876 
L 235.26491 96.603487 
L 235.299668 96.664693 
L 235.438812 100.618053 
L 235.473627 100.579999 
L 235.682751 106.431536 
L 235.717645 105.909424 
L 235.857333 109.856131 
L 235.892283 109.255516 
L 236.032199 112.837384 
L 236.067206 112.456045 
L 236.172297 115.16959 
L 236.20735 115.098271 
L 236.242414 114.942596 
L 236.347676 116.485513 
L 236.382786 115.954088 
L 236.417908 116.62948 
L 236.488185 116.623093 
L 236.523341 118.027366 
L 236.558509 116.549646 
L 236.66408 116.729272 
L 236.699293 117.423558 
L 236.734518 116.032058 
L 236.769755 117.233022 
L 236.910815 114.74248 
L 236.946109 116.062661 
L 236.981415 114.382962 
L 237.016732 114.94233 
L 237.335107 109.397886 
L 237.370539 109.900306 
L 237.583381 104.276561 
L 237.618895 104.50728 
L 237.832225 98.691668 
L 237.867821 98.955651 
L 238.188711 91.444906 
L 238.224424 91.318769 
L 238.403165 88.091895 
L 238.689764 84.650801 
L 238.761532 84.562186 
L 238.797434 84.989828 
L 238.833347 84.395067 
L 238.90521 84.809138 
L 239.193135 86.978216 
L 239.662639 96.945175 
L 239.698839 97.006381 
L 239.916287 102.17401 
L 239.952571 102.309993 
L 240.170524 108.596091 
L 240.206892 108.215018 
L 240.388912 111.683522 
L 240.571234 115.378754 
L 240.607735 115.390729 
L 240.75386 117.416107 
L 240.790422 117.015875 
L 240.93679 118.798027 
L 241.046694 117.487159 
L 241.193404 118.690251 
L 241.266832 119.058284 
L 241.303565 117.951524 
L 241.340309 118.63969 
L 241.377066 117.375126 
L 241.413836 117.534261 
L 241.487411 116.043501 
L 241.524217 116.180549 
L 241.745312 112.493567 
L 241.856026 110.805353 
L 242.077787 105.20609 
L 242.188835 103.141327 
L 242.411265 97.195321 
L 242.44838 96.856826 
L 242.671333 91.427343 
L 242.708535 91.369331 
L 242.932012 87.792519 
L 243.04392 87.075347 
L 243.230684 86.434017 
L 243.305477 86.136238 
L 243.417762 85.803066 
L 243.455215 85.915897 
L 243.905642 93.088946 
L 244.357896 103.862757 
L 244.471246 106.016401 
L 244.925801 114.988899 
L 245.115745 117.830177 
L 245.153772 117.62394 
L 245.191812 117.917462 
L 245.306011 119.183091 
L 245.344103 118.704089 
L 245.382208 119.699082 
L 245.458457 119.525045 
L 245.496601 119.578001 
L 245.534757 119.481934 
L 245.572927 119.938849 
L 245.61111 119.178035 
L 245.649306 119.564429 
L 245.840479 117.672373 
L 245.95534 116.58158 
L 245.993653 116.858336 
L 246.377501 109.764589 
L 246.492911 107.356275 
L 247.071737 93.698077 
L 247.614663 87.754997 
L 247.653543 87.671704 
L 247.770264 87.269343 
L 248.512295 97.469682 
L 248.944116 107.570229 
L 249.535611 118.688122 
L 249.773069 120.05035 
L 249.812694 119.898932 
L 249.931649 120.539197 
L 249.971329 120.506466 
L 250.130183 119.634683 
L 250.368879 117.830177 
L 250.528287 115.839127 
L 250.807783 110.54749 
L 251.972984 88.24491 
L 252.134629 87.563929 
L 252.499159 89.910771 
L 252.620925 91.368266 
L 253.681617 114.795436 
L 253.96885 119.034866 
L 254.174451 120.947679 
L 254.215615 120.765925 
L 254.339193 121.272868 
L 254.380415 120.846025 
L 254.462902 120.87237 
L 254.504168 120.879555 
L 254.959055 115.928807 
L 256.292495 89.513998 
L 256.502219 87.79864 
L 256.628233 88.566373 
L 256.670268 88.562381 
L 256.922791 91.502387 
L 257.429464 100.663026 
L 257.768457 108.895999 
L 258.150987 116.511326 
L 258.193567 116.645447 
L 258.321398 118.9545 
L 258.364039 118.917245 
L 258.577474 120.749426 
L 258.620207 120.504603 
L 258.748498 121.370531 
L 258.791292 121.323163 
L 258.834102 121.492145 
L 258.876928 121.287504 
L 259.048384 119.543939 
L 259.564237 110.748405 
L 259.779836 105.874563 
L 259.823003 105.63799 
L 260.298868 94.901701 
L 260.863705 88.555196 
L 261.300012 92.499242 
L 261.606372 98.186056 
L 262.001414 107.823834 
L 262.177405 111.232196 
L 262.662708 120.039705 
L 262.706923 119.794882 
L 262.839666 121.432269 
L 262.883946 120.700461 
L 263.016884 121.967687 
L 263.061229 121.359887 
L 263.149967 121.390756 
L 263.194361 121.280852 
L 263.683769 115.551992 
L 263.951553 109.914144 
L 264.758463 92.335051 
L 265.073711 89.259062 
L 265.118813 89.600218 
L 265.163931 89.467428 
L 265.209067 89.369233 
L 265.480229 90.9683 
L 266.388469 109.351583 
L 266.662259 114.96282 
L 266.936659 119.227798 
L 266.982453 119.405294 
L 267.119934 121.309326 
L 267.165796 121.062906 
L 267.303482 122.272385 
L 267.349412 122.280634 
L 267.809654 118.356015 
L 269.200755 90.62741 
L 269.340728 89.748442 
L 269.434131 89.787029 
L 269.480859 89.887087 
L 269.527604 89.704002 
L 270.042967 94.649959 
L 270.37204 101.497021 
L 270.701983 109.756605 
L 270.985488 116.346337 
L 271.080132 117.808888 
L 271.127481 117.781213 
L 271.269636 119.661826 
L 271.317057 119.649319 
L 271.506921 121.236411 
L 271.554432 120.924262 
L 271.697073 121.853791 
L 271.887513 120.717759 
L 271.935169 120.483314 
L 273.614587 90.280666 
L 273.662901 90.520433 
L 273.711233 90.430221 
L 273.759584 90.181407 
L 273.807953 90.289182 
L 273.953172 90.905497 
L 274.001616 90.798786 
L 274.681776 103.094758 
L 275.463593 119.344621 
L 275.512617 119.333444 
L 275.708901 121.801899 
L 275.758019 121.667512 
L 275.807156 122.133208 
L 275.905487 122.104468 
L 276.102377 120.530416 
L 276.151647 120.699397 
L 276.892988 107.353082 
L 277.538977 93.129129 
L 277.938133 89.944035 
L 278.038116 89.680584 
L 278.138176 89.880434 
L 278.790475 99.809871 
L 279.143085 107.987759 
L 279.496661 116.218869 
L 280.10505 121.686672 
L 280.155879 121.578365 
L 280.206727 121.670972 
L 280.563225 117.122053 
L 280.665261 116.081821 
L 281.587214 96.209642 
L 282.102244 89.515594 
L 282.153859 89.781174 
L 282.515736 92.503234 
L 283.086431 103.378167 
L 284.025686 119.876579 
L 284.235324 121.075945 
L 284.550409 118.866684 
L 285.553173 98.695926 
L 286.030834 91.365073 
L 286.190438 90.792932 
L 286.296947 90.921198 
L 286.350234 90.986662 
L 286.403542 90.793198 
L 286.456872 90.933173 
L 286.937804 98.238214 
L 287.420483 107.987227 
L 287.689395 114.648542 
L 288.066786 119.171914 
L 288.391115 120.209751 
L 288.661991 118.65885 
L 289.096537 111.567231 
L 289.368845 105.155529 
L 290.079441 91.858977 
L 290.40868 90.467743 
L 290.518605 90.817414 
L 290.738725 92.300989 
L 291.069579 98.989182 
L 291.235311 102.282051 
L 292.06703 118.880255 
L 292.345409 120.017352 
L 292.45692 120.074034 
L 292.62436 119.697751 
L 292.792006 118.170801 
L 293.240075 110.382501 
L 293.802243 97.531154 
L 294.253652 90.871701 
L 294.479917 90.255918 
L 294.649862 91.035626 
L 294.933573 94.150467 
L 295.673983 110.178393 
L 296.131612 117.953919 
L 296.475836 120.823405 
L 296.878521 117.00044 
L 297.340176 108.845704 
L 298.268136 91.31531 
L 298.501101 90.524425 
L 298.851283 92.9354 
L 299.789436 112.265243 
L 300.024965 117.019866 
L 300.319936 119.421261 
L 300.497219 119.877111 
L 300.556363 119.759755 
L 300.674726 119.338766 
L 301.149184 113.150332 
L 302.043144 95.175264 
L 302.402328 91.189705 
L 302.52226 90.668924 
L 302.822537 93.828205 
L 303.244004 100.797679 
L 303.727226 111.694433 
L 304.151404 118.346701 
L 304.516 120.363297 
L 304.576857 120.383522 
L 304.94255 116.807775 
L 305.43161 106.313116 
L 305.983821 94.896113 
L 306.291531 92.292739 
L 306.476477 91.493871 
L 306.599908 91.619742 
L 306.785253 94.124388 
L 307.280687 104.235314 
L 308.21427 120.384054 
L 308.276725 120.338283 
L 308.401717 121.02086 
L 308.464254 120.864386 
L 309.028314 114.194555 
L 309.468559 104.065002 
L 309.846985 96.577675 
L 310.289738 92.183633 
L 310.416489 92.932739 
L 310.670323 95.433127 
L 310.924603 99.534711 
L 311.370668 109.545578 
L 311.946202 120.479056 
L 312.202728 121.538714 
L 312.26693 121.835695 
L 312.33116 121.643828 
L 312.588365 119.774658 
L 312.975026 112.850157 
L 313.881233 94.549103 
L 314.011151 93.342551 
L 314.141184 93.399765 
L 314.206244 93.296514 
L 314.466772 95.176861 
L 314.858433 102.78314 
L 315.776387 121.231089 
L 315.973838 122.142256 
L 316.039714 122.168335 
L 316.171554 121.721533 
L 316.303511 121.088453 
L 317.762872 95.606898 
L 317.962994 95.231148 
L 318.029761 95.218641 
L 318.230244 96.411887 
L 318.497974 101.196581 
L 319.438843 121.308261 
L 319.641232 122.686987 
L 319.708756 122.581341 
L 319.776311 123.08855 
L 320.114543 120.673318 
L 320.385681 117.051534 
L 320.725295 110.534983 
L 321.202051 99.589264 
L 321.680326 95.452021 
L 321.954311 97.336626 
L 323.124338 120.43568 
L 323.608762 125.70044 
L 323.816848 124.379194 
L 324.233881 117.246061 
L 325.00143 101.613312 
L 325.281503 99.128624 
L 325.351602 98.996367 
L 325.421734 99.052782 
L 325.843201 103.295406 
L 326.195316 110.42774 
L 326.831177 123.579527 
L 327.114633 126.024032 
L 327.256558 126.408298 
L 327.611948 123.669473 
L 328.110881 113.536992 
L 328.539832 104.897932 
L 328.754757 101.882085 
L 328.969982 99.651268 
L 329.041791 99.628915 
L 329.185509 100.122553 
L 330.702686 127.972238 
L 330.920645 128.645501 
L 330.993367 128.584828 
L 331.430413 122.411029 
L 331.649398 118.086443 
L 332.161568 107.233331 
L 332.454995 102.74961 
L 332.528438 102.55455 
L 332.601916 102.585951 
L 332.675429 102.541511 
L 332.896175 104.087887 
L 333.117234 106.3046 
L 333.930471 126.23905 
L 334.227245 129.851787 
L 334.450196 130.873657 
L 334.599006 130.736875 
L 334.97165 125.31644 
L 335.944681 106.053923 
L 336.170083 104.387263 
L 336.395809 105.170963 
L 336.621858 108.143168 
L 337.301954 123.843776 
L 337.756981 131.421315 
L 337.832946 131.935178 
L 338.21332 130.054032 
L 338.365725 128.03504 
L 338.82382 119.289003 
L 339.206578 111.211174 
L 339.359939 109.378992 
L 339.513448 107.695568 
L 339.590258 106.734904 
L 339.667105 106.82618 
L 339.897869 108.159933 
L 340.360401 116.632673 
L 340.746871 125.827109 
L 341.211871 133.49353 
L 341.367171 134.458984 
L 341.600405 133.345571 
L 341.833978 130.060153 
L 342.145939 123.676924 
L 342.536745 114.458804 
L 342.850075 110.500654 
L 343.085473 109.382984 
L 343.242597 110.522742 
L 343.47857 113.455562 
L 343.951554 124.391435 
L 344.346769 133.07254 
L 344.584363 135.771981 
L 344.742953 135.364829 
L 344.901698 135.321187 
L 345.937349 116.600474 
L 346.257344 112.191796 
L 346.337441 111.981568 
L 346.497754 112.4619 
L 346.899229 118.258618 
L 347.785969 137.551205 
L 347.866821 137.480952 
L 348.028645 138.107379 
L 348.109618 137.783255 
L 348.515081 132.994303 
L 349.32903 117.397213 
L 349.574004 115.20791 
L 349.655743 115.330587 
L 350.065051 120.058865 
L 350.311125 125.290893 
L 350.722067 134.509545 
L 351.134036 140.571843 
L 351.216553 140.565988 
L 351.381712 139.858396 
L 351.62976 136.461743 
L 352.209989 123.908974 
L 352.459283 119.878175 
L 352.708952 118.262875 
L 352.958997 119.658633 
L 354.130878 141.688981 
L 354.383072 143.067175 
L 354.467222 142.547192 
L 355.649794 123.707527 
L 355.734584 123.206704 
L 355.819417 123.271902 
L 355.904294 123.208035 
L 356.159181 125.041014 
L 356.414457 129.579554 
L 357.011616 143.749486 
L 357.182623 145.485069 
L 357.268192 145.562241 
L 357.525161 144.701901 
L 357.782522 141.763492 
L 358.643244 126.876655 
L 358.729559 126.112913 
L 358.90232 126.734285 
L 359.161793 129.843537 
L 359.942608 146.098191 
L 360.116612 147.7087 
L 360.290795 147.906156 
L 360.465158 147.22278 
L 360.727037 144.27559 
L 361.427362 130.814314 
L 361.515106 130.414614 
L 361.602894 130.531703 
L 361.866533 132.339934 
L 362.13058 136.39894 
L 363.013698 152.1227 
L 363.102262 152.109927 
L 363.190871 151.793254 
L 363.634606 144.403589 
L 363.990424 137.791505 
L 364.436237 133.302461 
L 364.793723 138.336502 
L 365.241627 148.344974 
L 365.600792 154.225517 
L 365.780656 155.119121 
L 365.960708 154.194914 
L 366.050804 153.555713 
L 366.682798 141.056699 
L 367.044978 139.643112 
L 367.226353 140.238937 
L 367.680623 149.235385 
L 368.044897 157.048699 
L 368.227322 158.839899 
L 368.318606 158.781355 
L 368.409939 158.504332 
L 368.684224 154.33276 
L 369.32591 145.400445 
L 369.509684 144.345045 
L 369.693652 146.014365 
L 370.062172 151.953985 
L 370.523918 160.122559 
L 370.708959 161.577127 
L 370.801553 161.888212 
L 370.894196 161.708853 
L 371.172419 157.864333 
L 371.730195 150.805446 
L 371.916516 151.016739 
L 373.038608 168.034335 
L 373.414236 164.141383 
L 373.790665 158.528016 
L 373.979182 157.295385 
L 374.262335 160.318684 
L 374.545942 165.931252 
L 374.924794 173.883477 
L 375.114525 175.101205 
L 375.209467 175.342835 
L 375.30446 175.102802 
L 375.780188 169.526425 
L 375.875487 168.78344 
L 375.970837 169.377136 
L 376.352751 175.866011 
L 377.119049 189.42149 
L 377.215069 189.214987 
L 377.31114 188.695803 
L 377.695945 190.223818 
L 377.985094 195.856877 
L 378.274713 204.711754 
L 378.661603 212.646415 
L 379.632503 232.660699 
L 381.590202 285.000299 
L 382.379279 299.17055 
L 382.874208 303.919079 
L 383.370495 306.145313 
L 383.668921 306.895717 
L 384.167391 307.091264 
L 384.667233 307.187993 
L 385.369328 307.356711 
L 385.872487 307.432223 
L 386.276015 307.378182 
L 386.781682 307.575215 
L 387.085755 307.449455 
L 387.390334 307.395327 
L 387.69542 307.404014 
L 388.205028 307.295034 
L 388.409267 307.171686 
L 388.818429 307.281279 
L 389.228503 307.379491 
L 389.331165 307.390582 
L 389.536659 307.263849 
L 389.845332 307.250908 
L 390.670991 307.332024 
L 390.981567 307.256073 
L 391.188908 307.354003 
L 391.396481 307.341899 
L 392.333449 307.460923 
L 392.646825 307.390602 
L 392.960731 307.385093 
L 393.275168 307.337736 
L 394.010925 307.3332 
L 394.116271 307.264993 
L 394.221676 307.391592 
L 394.432665 307.391503 
L 396.555751 307.235995 
L 397.090299 307.499468 
L 398.056331 307.358788 
L 398.379445 307.391724 
L 398.487273 307.351736 
L 398.487273 307.351736 
" style="fill:none;stroke:#0000ff;stroke-linecap:square;stroke-opacity:0.5;stroke-width:0.8;"/>
   </g>
   <g id="patch_3">
    <path d="M 57.6 307.584 
L 57.6 41.472 
" style="fill:none;stroke:#000000;stroke-linecap:square;stroke-linejoin:miter;stroke-width:0.8;"/>
   </g>
   <g id="patch_4">
    <path d="M 414.72 307.584 
L 414.72 41.472 
" style="fill:none;stroke:#000000;stroke-linecap:square;stroke-linejoin:miter;stroke-width:0.8;"/>
   </g>
   <g id="patch_5">
    <path d="M 57.6 307.584 
L 414.72 307.584 
" style="fill:none;stroke:#000000;stroke-linecap:square;stroke-linejoin:miter;stroke-width:0.8;"/>
   </g>
   <g id="patch_6">
    <path d="M 57.6 41.472 
L 414.72 41.472 
" style="fill:none;stroke:#000000;stroke-linecap:square;stroke-linejoin:miter;stroke-width:0.8;"/>
   </g>
   <g id="text_16">
    <!-- Transmission at normal incidence -->
    <defs>
     <path d="M -0.296875 72.90625 
L 61.375 72.90625 
L 61.375 64.59375 
L 35.5 64.59375 
L 35.5 0 
L 25.59375 0 
L 25.59375 64.59375 
L -0.296875 64.59375 
z
" id="DejaVuSans-84"/>
     <path d="M 9.421875 75.984375 
L 18.40625 75.984375 
L 18.40625 0 
L 9.421875 0 
z
" id="DejaVuSans-108"/>
    </defs>
    <g transform="translate(135.902812 35.472)scale(0.12 -0.12)">
     <use xlink:href="#DejaVuSans-84"/>
     <use x="46.333984" xlink:href="#DejaVuSans-114"/>
     <use x="87.447266" xlink:href="#DejaVuSans-97"/>
     <use x="148.726562" xlink:href="#DejaVuSans-110"/>
     <use x="212.105469" xlink:href="#DejaVuSans-115"/>
     <use x="264.205078" xlink:href="#DejaVuSans-109"/>
     <use x="361.617188" xlink:href="#DejaVuSans-105"/>
     <use x="389.400391" xlink:href="#DejaVuSans-115"/>
     <use x="441.5" xlink:href="#DejaVuSans-115"/>
     <use x="493.599609" xlink:href="#DejaVuSans-105"/>
     <use x="521.382812" xlink:href="#DejaVuSans-111"/>
     <use x="582.564453" xlink:href="#DejaVuSans-110"/>
     <use x="645.943359" xlink:href="#DejaVuSans-32"/>
     <use x="677.730469" xlink:href="#DejaVuSans-97"/>
     <use x="739.009766" xlink:href="#DejaVuSans-116"/>
     <use x="778.21875" xlink:href="#DejaVuSans-32"/>
     <use x="810.005859" xlink:href="#DejaVuSans-110"/>
     <use x="873.384766" xlink:href="#DejaVuSans-111"/>
     <use x="934.566406" xlink:href="#DejaVuSans-114"/>
     <use x="973.929688" xlink:href="#DejaVuSans-109"/>
     <use x="1071.341797" xlink:href="#DejaVuSans-97"/>
     <use x="1132.621094" xlink:href="#DejaVuSans-108"/>
     <use x="1160.404297" xlink:href="#DejaVuSans-32"/>
     <use x="1192.191406" xlink:href="#DejaVuSans-105"/>
     <use x="1219.974609" xlink:href="#DejaVuSans-110"/>
     <use x="1283.353516" xlink:href="#DejaVuSans-99"/>
     <use x="1338.333984" xlink:href="#DejaVuSans-105"/>
     <use x="1366.117188" xlink:href="#DejaVuSans-100"/>
     <use x="1429.59375" xlink:href="#DejaVuSans-101"/>
     <use x="1491.117188" xlink:href="#DejaVuSans-110"/>
     <use x="1554.496094" xlink:href="#DejaVuSans-99"/>
     <use x="1609.476562" xlink:href="#DejaVuSans-101"/>
    </g>
   </g>
  </g>
 </g>
 <defs>
  <clipPath id="pa3260cddd0">
   <rect height="266.112" width="357.12" x="57.6" y="41.472"/>
  </clipPath>
 </defs>
</svg>
