<?xml version="1.0" encoding="utf-8" standalone="no"?>
<!DOCTYPE svg PUBLIC "-//W3C//DTD SVG 1.1//EN"
  "http://www.w3.org/Graphics/SVG/1.1/DTD/svg11.dtd">
<!-- Created with matplotlib (https://matplotlib.org/) -->
<svg height="345.6pt" version="1.1" viewBox="0 0 460.8 345.6" width="460.8pt" xmlns="http://www.w3.org/2000/svg" xmlns:xlink="http://www.w3.org/1999/xlink">
 <defs>
  <style type="text/css">
*{stroke-linecap:butt;stroke-linejoin:round;}
  </style>
 </defs>
 <g id="figure_1">
  <g id="patch_1">
   <path d="M 0 345.6 
L 460.8 345.6 
L 460.8 0 
L 0 0 
z
" style="fill:#ffffff;"/>
  </g>
  <g id="axes_1">
   <g id="patch_2">
    <path d="M 57.6 307.584 
L 414.72 307.584 
L 414.72 41.472 
L 57.6 41.472 
z
" style="fill:#ffffff;"/>
   </g>
   <g id="matplotlib.axis_1">
    <g id="xtick_1">
     <g id="line2d_1">
      <defs>
       <path d="M 0 0 
L 0 3.5 
" id="m8f0add14fe" style="stroke:#000000;stroke-width:0.8;"/>
      </defs>
      <g>
       <use style="stroke:#000000;stroke-width:0.8;" x="74.406955" xlink:href="#m8f0add14fe" y="307.584"/>
      </g>
     </g>
     <g id="text_1">
      <!-- 0.5 -->
      <defs>
       <path d="M 31.78125 66.40625 
Q 24.171875 66.40625 20.328125 58.90625 
Q 16.5 51.421875 16.5 36.375 
Q 16.5 21.390625 20.328125 13.890625 
Q 24.171875 6.390625 31.78125 6.390625 
Q 39.453125 6.390625 43.28125 13.890625 
Q 47.125 21.390625 47.125 36.375 
Q 47.125 51.421875 43.28125 58.90625 
Q 39.453125 66.40625 31.78125 66.40625 
z
M 31.78125 74.21875 
Q 44.046875 74.21875 50.515625 64.515625 
Q 56.984375 54.828125 56.984375 36.375 
Q 56.984375 17.96875 50.515625 8.265625 
Q 44.046875 -1.421875 31.78125 -1.421875 
Q 19.53125 -1.421875 13.0625 8.265625 
Q 6.59375 17.96875 6.59375 36.375 
Q 6.59375 54.828125 13.0625 64.515625 
Q 19.53125 74.21875 31.78125 74.21875 
z
" id="DejaVuSans-48"/>
       <path d="M 10.6875 12.40625 
L 21 12.40625 
L 21 0 
L 10.6875 0 
z
" id="DejaVuSans-46"/>
       <path d="M 10.796875 72.90625 
L 49.515625 72.90625 
L 49.515625 64.59375 
L 19.828125 64.59375 
L 19.828125 46.734375 
Q 21.96875 47.46875 24.109375 47.828125 
Q 26.265625 48.1875 28.421875 48.1875 
Q 40.625 48.1875 47.75 41.5 
Q 54.890625 34.8125 54.890625 23.390625 
Q 54.890625 11.625 47.5625 5.09375 
Q 40.234375 -1.421875 26.90625 -1.421875 
Q 22.3125 -1.421875 17.546875 -0.640625 
Q 12.796875 0.140625 7.71875 1.703125 
L 7.71875 11.625 
Q 12.109375 9.234375 16.796875 8.0625 
Q 21.484375 6.890625 26.703125 6.890625 
Q 35.15625 6.890625 40.078125 11.328125 
Q 45.015625 15.765625 45.015625 23.390625 
Q 45.015625 31 40.078125 35.4375 
Q 35.15625 39.890625 26.703125 39.890625 
Q 22.75 39.890625 18.8125 39.015625 
Q 14.890625 38.140625 10.796875 36.28125 
z
" id="DejaVuSans-53"/>
      </defs>
      <g transform="translate(66.455392 322.182437)scale(0.1 -0.1)">
       <use xlink:href="#DejaVuSans-48"/>
       <use x="63.623047" xlink:href="#DejaVuSans-46"/>
       <use x="95.410156" xlink:href="#DejaVuSans-53"/>
      </g>
     </g>
    </g>
    <g id="xtick_2">
     <g id="line2d_2">
      <g>
       <use style="stroke:#000000;stroke-width:0.8;" x="127.831922" xlink:href="#m8f0add14fe" y="307.584"/>
      </g>
     </g>
     <g id="text_2">
      <!-- 1.0 -->
      <defs>
       <path d="M 12.40625 8.296875 
L 28.515625 8.296875 
L 28.515625 63.921875 
L 10.984375 60.40625 
L 10.984375 69.390625 
L 28.421875 72.90625 
L 38.28125 72.90625 
L 38.28125 8.296875 
L 54.390625 8.296875 
L 54.390625 0 
L 12.40625 0 
z
" id="DejaVuSans-49"/>
      </defs>
      <g transform="translate(119.880359 322.182437)scale(0.1 -0.1)">
       <use xlink:href="#DejaVuSans-49"/>
       <use x="63.623047" xlink:href="#DejaVuSans-46"/>
       <use x="95.410156" xlink:href="#DejaVuSans-48"/>
      </g>
     </g>
    </g>
    <g id="xtick_3">
     <g id="line2d_3">
      <g>
       <use style="stroke:#000000;stroke-width:0.8;" x="181.256889" xlink:href="#m8f0add14fe" y="307.584"/>
      </g>
     </g>
     <g id="text_3">
      <!-- 1.5 -->
      <g transform="translate(173.305327 322.182437)scale(0.1 -0.1)">
       <use xlink:href="#DejaVuSans-49"/>
       <use x="63.623047" xlink:href="#DejaVuSans-46"/>
       <use x="95.410156" xlink:href="#DejaVuSans-53"/>
      </g>
     </g>
    </g>
    <g id="xtick_4">
     <g id="line2d_4">
      <g>
       <use style="stroke:#000000;stroke-width:0.8;" x="234.681856" xlink:href="#m8f0add14fe" y="307.584"/>
      </g>
     </g>
     <g id="text_4">
      <!-- 2.0 -->
      <defs>
       <path d="M 19.1875 8.296875 
L 53.609375 8.296875 
L 53.609375 0 
L 7.328125 0 
L 7.328125 8.296875 
Q 12.9375 14.109375 22.625 23.890625 
Q 32.328125 33.6875 34.8125 36.53125 
Q 39.546875 41.84375 41.421875 45.53125 
Q 43.3125 49.21875 43.3125 52.78125 
Q 43.3125 58.59375 39.234375 62.25 
Q 35.15625 65.921875 28.609375 65.921875 
Q 23.96875 65.921875 18.8125 64.3125 
Q 13.671875 62.703125 7.8125 59.421875 
L 7.8125 69.390625 
Q 13.765625 71.78125 18.9375 73 
Q 24.125 74.21875 28.421875 74.21875 
Q 39.75 74.21875 46.484375 68.546875 
Q 53.21875 62.890625 53.21875 53.421875 
Q 53.21875 48.921875 51.53125 44.890625 
Q 49.859375 40.875 45.40625 35.40625 
Q 44.1875 33.984375 37.640625 27.21875 
Q 31.109375 20.453125 19.1875 8.296875 
z
" id="DejaVuSans-50"/>
      </defs>
      <g transform="translate(226.730294 322.182437)scale(0.1 -0.1)">
       <use xlink:href="#DejaVuSans-50"/>
       <use x="63.623047" xlink:href="#DejaVuSans-46"/>
       <use x="95.410156" xlink:href="#DejaVuSans-48"/>
      </g>
     </g>
    </g>
    <g id="xtick_5">
     <g id="line2d_5">
      <g>
       <use style="stroke:#000000;stroke-width:0.8;" x="288.106824" xlink:href="#m8f0add14fe" y="307.584"/>
      </g>
     </g>
     <g id="text_5">
      <!-- 2.5 -->
      <g transform="translate(280.155261 322.182437)scale(0.1 -0.1)">
       <use xlink:href="#DejaVuSans-50"/>
       <use x="63.623047" xlink:href="#DejaVuSans-46"/>
       <use x="95.410156" xlink:href="#DejaVuSans-53"/>
      </g>
     </g>
    </g>
    <g id="xtick_6">
     <g id="line2d_6">
      <g>
       <use style="stroke:#000000;stroke-width:0.8;" x="341.531791" xlink:href="#m8f0add14fe" y="307.584"/>
      </g>
     </g>
     <g id="text_6">
      <!-- 3.0 -->
      <defs>
       <path d="M 40.578125 39.3125 
Q 47.65625 37.796875 51.625 33 
Q 55.609375 28.21875 55.609375 21.1875 
Q 55.609375 10.40625 48.1875 4.484375 
Q 40.765625 -1.421875 27.09375 -1.421875 
Q 22.515625 -1.421875 17.65625 -0.515625 
Q 12.796875 0.390625 7.625 2.203125 
L 7.625 11.71875 
Q 11.71875 9.328125 16.59375 8.109375 
Q 21.484375 6.890625 26.8125 6.890625 
Q 36.078125 6.890625 40.9375 10.546875 
Q 45.796875 14.203125 45.796875 21.1875 
Q 45.796875 27.640625 41.28125 31.265625 
Q 36.765625 34.90625 28.71875 34.90625 
L 20.21875 34.90625 
L 20.21875 43.015625 
L 29.109375 43.015625 
Q 36.375 43.015625 40.234375 45.921875 
Q 44.09375 48.828125 44.09375 54.296875 
Q 44.09375 59.90625 40.109375 62.90625 
Q 36.140625 65.921875 28.71875 65.921875 
Q 24.65625 65.921875 20.015625 65.03125 
Q 15.375 64.15625 9.8125 62.3125 
L 9.8125 71.09375 
Q 15.4375 72.65625 20.34375 73.4375 
Q 25.25 74.21875 29.59375 74.21875 
Q 40.828125 74.21875 47.359375 69.109375 
Q 53.90625 64.015625 53.90625 55.328125 
Q 53.90625 49.265625 50.4375 45.09375 
Q 46.96875 40.921875 40.578125 39.3125 
z
" id="DejaVuSans-51"/>
      </defs>
      <g transform="translate(333.580228 322.182437)scale(0.1 -0.1)">
       <use xlink:href="#DejaVuSans-51"/>
       <use x="63.623047" xlink:href="#DejaVuSans-46"/>
       <use x="95.410156" xlink:href="#DejaVuSans-48"/>
      </g>
     </g>
    </g>
    <g id="xtick_7">
     <g id="line2d_7">
      <g>
       <use style="stroke:#000000;stroke-width:0.8;" x="394.956758" xlink:href="#m8f0add14fe" y="307.584"/>
      </g>
     </g>
     <g id="text_7">
      <!-- 3.5 -->
      <g transform="translate(387.005196 322.182437)scale(0.1 -0.1)">
       <use xlink:href="#DejaVuSans-51"/>
       <use x="63.623047" xlink:href="#DejaVuSans-46"/>
       <use x="95.410156" xlink:href="#DejaVuSans-53"/>
      </g>
     </g>
    </g>
    <g id="text_8">
     <!-- Energy (eV) -->
     <defs>
      <path d="M 9.8125 72.90625 
L 55.90625 72.90625 
L 55.90625 64.59375 
L 19.671875 64.59375 
L 19.671875 43.015625 
L 54.390625 43.015625 
L 54.390625 34.71875 
L 19.671875 34.71875 
L 19.671875 8.296875 
L 56.78125 8.296875 
L 56.78125 0 
L 9.8125 0 
z
" id="DejaVuSans-69"/>
      <path d="M 54.890625 33.015625 
L 54.890625 0 
L 45.90625 0 
L 45.90625 32.71875 
Q 45.90625 40.484375 42.875 44.328125 
Q 39.84375 48.1875 33.796875 48.1875 
Q 26.515625 48.1875 22.3125 43.546875 
Q 18.109375 38.921875 18.109375 30.90625 
L 18.109375 0 
L 9.078125 0 
L 9.078125 54.6875 
L 18.109375 54.6875 
L 18.109375 46.1875 
Q 21.34375 51.125 25.703125 53.5625 
Q 30.078125 56 35.796875 56 
Q 45.21875 56 50.046875 50.171875 
Q 54.890625 44.34375 54.890625 33.015625 
z
" id="DejaVuSans-110"/>
      <path d="M 56.203125 29.59375 
L 56.203125 25.203125 
L 14.890625 25.203125 
Q 15.484375 15.921875 20.484375 11.0625 
Q 25.484375 6.203125 34.421875 6.203125 
Q 39.59375 6.203125 44.453125 7.46875 
Q 49.3125 8.734375 54.109375 11.28125 
L 54.109375 2.78125 
Q 49.265625 0.734375 44.1875 -0.34375 
Q 39.109375 -1.421875 33.890625 -1.421875 
Q 20.796875 -1.421875 13.15625 6.1875 
Q 5.515625 13.8125 5.515625 26.8125 
Q 5.515625 40.234375 12.765625 48.109375 
Q 20.015625 56 32.328125 56 
Q 43.359375 56 49.78125 48.890625 
Q 56.203125 41.796875 56.203125 29.59375 
z
M 47.21875 32.234375 
Q 47.125 39.59375 43.09375 43.984375 
Q 39.0625 48.390625 32.421875 48.390625 
Q 24.90625 48.390625 20.390625 44.140625 
Q 15.875 39.890625 15.1875 32.171875 
z
" id="DejaVuSans-101"/>
      <path d="M 41.109375 46.296875 
Q 39.59375 47.171875 37.8125 47.578125 
Q 36.03125 48 33.890625 48 
Q 26.265625 48 22.1875 43.046875 
Q 18.109375 38.09375 18.109375 28.8125 
L 18.109375 0 
L 9.078125 0 
L 9.078125 54.6875 
L 18.109375 54.6875 
L 18.109375 46.1875 
Q 20.953125 51.171875 25.484375 53.578125 
Q 30.03125 56 36.53125 56 
Q 37.453125 56 38.578125 55.875 
Q 39.703125 55.765625 41.0625 55.515625 
z
" id="DejaVuSans-114"/>
      <path d="M 45.40625 27.984375 
Q 45.40625 37.75 41.375 43.109375 
Q 37.359375 48.484375 30.078125 48.484375 
Q 22.859375 48.484375 18.828125 43.109375 
Q 14.796875 37.75 14.796875 27.984375 
Q 14.796875 18.265625 18.828125 12.890625 
Q 22.859375 7.515625 30.078125 7.515625 
Q 37.359375 7.515625 41.375 12.890625 
Q 45.40625 18.265625 45.40625 27.984375 
z
M 54.390625 6.78125 
Q 54.390625 -7.171875 48.1875 -13.984375 
Q 42 -20.796875 29.203125 -20.796875 
Q 24.46875 -20.796875 20.265625 -20.09375 
Q 16.0625 -19.390625 12.109375 -17.921875 
L 12.109375 -9.1875 
Q 16.0625 -11.328125 19.921875 -12.34375 
Q 23.78125 -13.375 27.78125 -13.375 
Q 36.625 -13.375 41.015625 -8.765625 
Q 45.40625 -4.15625 45.40625 5.171875 
L 45.40625 9.625 
Q 42.625 4.78125 38.28125 2.390625 
Q 33.9375 0 27.875 0 
Q 17.828125 0 11.671875 7.65625 
Q 5.515625 15.328125 5.515625 27.984375 
Q 5.515625 40.671875 11.671875 48.328125 
Q 17.828125 56 27.875 56 
Q 33.9375 56 38.28125 53.609375 
Q 42.625 51.21875 45.40625 46.390625 
L 45.40625 54.6875 
L 54.390625 54.6875 
z
" id="DejaVuSans-103"/>
      <path d="M 32.171875 -5.078125 
Q 28.375 -14.84375 24.75 -17.8125 
Q 21.140625 -20.796875 15.09375 -20.796875 
L 7.90625 -20.796875 
L 7.90625 -13.28125 
L 13.1875 -13.28125 
Q 16.890625 -13.28125 18.9375 -11.515625 
Q 21 -9.765625 23.484375 -3.21875 
L 25.09375 0.875 
L 2.984375 54.6875 
L 12.5 54.6875 
L 29.59375 11.921875 
L 46.6875 54.6875 
L 56.203125 54.6875 
z
" id="DejaVuSans-121"/>
      <path id="DejaVuSans-32"/>
      <path d="M 31 75.875 
Q 24.46875 64.65625 21.28125 53.65625 
Q 18.109375 42.671875 18.109375 31.390625 
Q 18.109375 20.125 21.3125 9.0625 
Q 24.515625 -2 31 -13.1875 
L 23.1875 -13.1875 
Q 15.875 -1.703125 12.234375 9.375 
Q 8.59375 20.453125 8.59375 31.390625 
Q 8.59375 42.28125 12.203125 53.3125 
Q 15.828125 64.359375 23.1875 75.875 
z
" id="DejaVuSans-40"/>
      <path d="M 28.609375 0 
L 0.78125 72.90625 
L 11.078125 72.90625 
L 34.1875 11.53125 
L 57.328125 72.90625 
L 67.578125 72.90625 
L 39.796875 0 
z
" id="DejaVuSans-86"/>
      <path d="M 8.015625 75.875 
L 15.828125 75.875 
Q 23.140625 64.359375 26.78125 53.3125 
Q 30.421875 42.28125 30.421875 31.390625 
Q 30.421875 20.453125 26.78125 9.375 
Q 23.140625 -1.703125 15.828125 -13.1875 
L 8.015625 -13.1875 
Q 14.5 -2 17.703125 9.0625 
Q 20.90625 20.125 20.90625 31.390625 
Q 20.90625 42.671875 17.703125 53.65625 
Q 14.5 64.65625 8.015625 75.875 
z
" id="DejaVuSans-41"/>
     </defs>
     <g transform="translate(206.66625 335.860562)scale(0.1 -0.1)">
      <use xlink:href="#DejaVuSans-69"/>
      <use x="63.183594" xlink:href="#DejaVuSans-110"/>
      <use x="126.5625" xlink:href="#DejaVuSans-101"/>
      <use x="188.085938" xlink:href="#DejaVuSans-114"/>
      <use x="227.449219" xlink:href="#DejaVuSans-103"/>
      <use x="290.925781" xlink:href="#DejaVuSans-121"/>
      <use x="350.105469" xlink:href="#DejaVuSans-32"/>
      <use x="381.892578" xlink:href="#DejaVuSans-40"/>
      <use x="420.90625" xlink:href="#DejaVuSans-101"/>
      <use x="482.429688" xlink:href="#DejaVuSans-86"/>
      <use x="550.837891" xlink:href="#DejaVuSans-41"/>
     </g>
    </g>
   </g>
   <g id="matplotlib.axis_2">
    <g id="ytick_1">
     <g id="line2d_8">
      <defs>
       <path d="M 0 0 
L -3.5 0 
" id="md78f9e674a" style="stroke:#000000;stroke-width:0.8;"/>
      </defs>
      <g>
       <use style="stroke:#000000;stroke-width:0.8;" x="57.6" xlink:href="#md78f9e674a" y="295.488"/>
      </g>
     </g>
     <g id="text_9">
      <!-- 0.0 -->
      <g transform="translate(34.696875 299.287219)scale(0.1 -0.1)">
       <use xlink:href="#DejaVuSans-48"/>
       <use x="63.623047" xlink:href="#DejaVuSans-46"/>
       <use x="95.410156" xlink:href="#DejaVuSans-48"/>
      </g>
     </g>
    </g>
    <g id="ytick_2">
     <g id="line2d_9">
      <g>
       <use style="stroke:#000000;stroke-width:0.8;" x="57.6" xlink:href="#md78f9e674a" y="240.686566"/>
      </g>
     </g>
     <g id="text_10">
      <!-- 0.2 -->
      <g transform="translate(34.696875 244.485785)scale(0.1 -0.1)">
       <use xlink:href="#DejaVuSans-48"/>
       <use x="63.623047" xlink:href="#DejaVuSans-46"/>
       <use x="95.410156" xlink:href="#DejaVuSans-50"/>
      </g>
     </g>
    </g>
    <g id="ytick_3">
     <g id="line2d_10">
      <g>
       <use style="stroke:#000000;stroke-width:0.8;" x="57.6" xlink:href="#md78f9e674a" y="185.885132"/>
      </g>
     </g>
     <g id="text_11">
      <!-- 0.4 -->
      <defs>
       <path d="M 37.796875 64.3125 
L 12.890625 25.390625 
L 37.796875 25.390625 
z
M 35.203125 72.90625 
L 47.609375 72.90625 
L 47.609375 25.390625 
L 58.015625 25.390625 
L 58.015625 17.1875 
L 47.609375 17.1875 
L 47.609375 0 
L 37.796875 0 
L 37.796875 17.1875 
L 4.890625 17.1875 
L 4.890625 26.703125 
z
" id="DejaVuSans-52"/>
      </defs>
      <g transform="translate(34.696875 189.684351)scale(0.1 -0.1)">
       <use xlink:href="#DejaVuSans-48"/>
       <use x="63.623047" xlink:href="#DejaVuSans-46"/>
       <use x="95.410156" xlink:href="#DejaVuSans-52"/>
      </g>
     </g>
    </g>
    <g id="ytick_4">
     <g id="line2d_11">
      <g>
       <use style="stroke:#000000;stroke-width:0.8;" x="57.6" xlink:href="#md78f9e674a" y="131.083698"/>
      </g>
     </g>
     <g id="text_12">
      <!-- 0.6 -->
      <defs>
       <path d="M 33.015625 40.375 
Q 26.375 40.375 22.484375 35.828125 
Q 18.609375 31.296875 18.609375 23.390625 
Q 18.609375 15.53125 22.484375 10.953125 
Q 26.375 6.390625 33.015625 6.390625 
Q 39.65625 6.390625 43.53125 10.953125 
Q 47.40625 15.53125 47.40625 23.390625 
Q 47.40625 31.296875 43.53125 35.828125 
Q 39.65625 40.375 33.015625 40.375 
z
M 52.59375 71.296875 
L 52.59375 62.3125 
Q 48.875 64.0625 45.09375 64.984375 
Q 41.3125 65.921875 37.59375 65.921875 
Q 27.828125 65.921875 22.671875 59.328125 
Q 17.53125 52.734375 16.796875 39.40625 
Q 19.671875 43.65625 24.015625 45.921875 
Q 28.375 48.1875 33.59375 48.1875 
Q 44.578125 48.1875 50.953125 41.515625 
Q 57.328125 34.859375 57.328125 23.390625 
Q 57.328125 12.15625 50.6875 5.359375 
Q 44.046875 -1.421875 33.015625 -1.421875 
Q 20.359375 -1.421875 13.671875 8.265625 
Q 6.984375 17.96875 6.984375 36.375 
Q 6.984375 53.65625 15.1875 63.9375 
Q 23.390625 74.21875 37.203125 74.21875 
Q 40.921875 74.21875 44.703125 73.484375 
Q 48.484375 72.75 52.59375 71.296875 
z
" id="DejaVuSans-54"/>
      </defs>
      <g transform="translate(34.696875 134.882917)scale(0.1 -0.1)">
       <use xlink:href="#DejaVuSans-48"/>
       <use x="63.623047" xlink:href="#DejaVuSans-46"/>
       <use x="95.410156" xlink:href="#DejaVuSans-54"/>
      </g>
     </g>
    </g>
    <g id="ytick_5">
     <g id="line2d_12">
      <g>
       <use style="stroke:#000000;stroke-width:0.8;" x="57.6" xlink:href="#md78f9e674a" y="76.282264"/>
      </g>
     </g>
     <g id="text_13">
      <!-- 0.8 -->
      <defs>
       <path d="M 31.78125 34.625 
Q 24.75 34.625 20.71875 30.859375 
Q 16.703125 27.09375 16.703125 20.515625 
Q 16.703125 13.921875 20.71875 10.15625 
Q 24.75 6.390625 31.78125 6.390625 
Q 38.8125 6.390625 42.859375 10.171875 
Q 46.921875 13.96875 46.921875 20.515625 
Q 46.921875 27.09375 42.890625 30.859375 
Q 38.875 34.625 31.78125 34.625 
z
M 21.921875 38.8125 
Q 15.578125 40.375 12.03125 44.71875 
Q 8.5 49.078125 8.5 55.328125 
Q 8.5 64.0625 14.71875 69.140625 
Q 20.953125 74.21875 31.78125 74.21875 
Q 42.671875 74.21875 48.875 69.140625 
Q 55.078125 64.0625 55.078125 55.328125 
Q 55.078125 49.078125 51.53125 44.71875 
Q 48 40.375 41.703125 38.8125 
Q 48.828125 37.15625 52.796875 32.3125 
Q 56.78125 27.484375 56.78125 20.515625 
Q 56.78125 9.90625 50.3125 4.234375 
Q 43.84375 -1.421875 31.78125 -1.421875 
Q 19.734375 -1.421875 13.25 4.234375 
Q 6.78125 9.90625 6.78125 20.515625 
Q 6.78125 27.484375 10.78125 32.3125 
Q 14.796875 37.15625 21.921875 38.8125 
z
M 18.3125 54.390625 
Q 18.3125 48.734375 21.84375 45.5625 
Q 25.390625 42.390625 31.78125 42.390625 
Q 38.140625 42.390625 41.71875 45.5625 
Q 45.3125 48.734375 45.3125 54.390625 
Q 45.3125 60.0625 41.71875 63.234375 
Q 38.140625 66.40625 31.78125 66.40625 
Q 25.390625 66.40625 21.84375 63.234375 
Q 18.3125 60.0625 18.3125 54.390625 
z
" id="DejaVuSans-56"/>
      </defs>
      <g transform="translate(34.696875 80.081483)scale(0.1 -0.1)">
       <use xlink:href="#DejaVuSans-48"/>
       <use x="63.623047" xlink:href="#DejaVuSans-46"/>
       <use x="95.410156" xlink:href="#DejaVuSans-56"/>
      </g>
     </g>
    </g>
    <g id="text_14">
     <!-- Fraction of power transmitted -->
     <defs>
      <path d="M 9.8125 72.90625 
L 51.703125 72.90625 
L 51.703125 64.59375 
L 19.671875 64.59375 
L 19.671875 43.109375 
L 48.578125 43.109375 
L 48.578125 34.8125 
L 19.671875 34.8125 
L 19.671875 0 
L 9.8125 0 
z
" id="DejaVuSans-70"/>
      <path d="M 34.28125 27.484375 
Q 23.390625 27.484375 19.1875 25 
Q 14.984375 22.515625 14.984375 16.5 
Q 14.984375 11.71875 18.140625 8.90625 
Q 21.296875 6.109375 26.703125 6.109375 
Q 34.1875 6.109375 38.703125 11.40625 
Q 43.21875 16.703125 43.21875 25.484375 
L 43.21875 27.484375 
z
M 52.203125 31.203125 
L 52.203125 0 
L 43.21875 0 
L 43.21875 8.296875 
Q 40.140625 3.328125 35.546875 0.953125 
Q 30.953125 -1.421875 24.3125 -1.421875 
Q 15.921875 -1.421875 10.953125 3.296875 
Q 6 8.015625 6 15.921875 
Q 6 25.140625 12.171875 29.828125 
Q 18.359375 34.515625 30.609375 34.515625 
L 43.21875 34.515625 
L 43.21875 35.40625 
Q 43.21875 41.609375 39.140625 45 
Q 35.0625 48.390625 27.6875 48.390625 
Q 23 48.390625 18.546875 47.265625 
Q 14.109375 46.140625 10.015625 43.890625 
L 10.015625 52.203125 
Q 14.9375 54.109375 19.578125 55.046875 
Q 24.21875 56 28.609375 56 
Q 40.484375 56 46.34375 49.84375 
Q 52.203125 43.703125 52.203125 31.203125 
z
" id="DejaVuSans-97"/>
      <path d="M 48.78125 52.59375 
L 48.78125 44.1875 
Q 44.96875 46.296875 41.140625 47.34375 
Q 37.3125 48.390625 33.40625 48.390625 
Q 24.65625 48.390625 19.8125 42.84375 
Q 14.984375 37.3125 14.984375 27.296875 
Q 14.984375 17.28125 19.8125 11.734375 
Q 24.65625 6.203125 33.40625 6.203125 
Q 37.3125 6.203125 41.140625 7.25 
Q 44.96875 8.296875 48.78125 10.40625 
L 48.78125 2.09375 
Q 45.015625 0.34375 40.984375 -0.53125 
Q 36.96875 -1.421875 32.421875 -1.421875 
Q 20.0625 -1.421875 12.78125 6.34375 
Q 5.515625 14.109375 5.515625 27.296875 
Q 5.515625 40.671875 12.859375 48.328125 
Q 20.21875 56 33.015625 56 
Q 37.15625 56 41.109375 55.140625 
Q 45.0625 54.296875 48.78125 52.59375 
z
" id="DejaVuSans-99"/>
      <path d="M 18.3125 70.21875 
L 18.3125 54.6875 
L 36.8125 54.6875 
L 36.8125 47.703125 
L 18.3125 47.703125 
L 18.3125 18.015625 
Q 18.3125 11.328125 20.140625 9.421875 
Q 21.96875 7.515625 27.59375 7.515625 
L 36.8125 7.515625 
L 36.8125 0 
L 27.59375 0 
Q 17.1875 0 13.234375 3.875 
Q 9.28125 7.765625 9.28125 18.015625 
L 9.28125 47.703125 
L 2.6875 47.703125 
L 2.6875 54.6875 
L 9.28125 54.6875 
L 9.28125 70.21875 
z
" id="DejaVuSans-116"/>
      <path d="M 9.421875 54.6875 
L 18.40625 54.6875 
L 18.40625 0 
L 9.421875 0 
z
M 9.421875 75.984375 
L 18.40625 75.984375 
L 18.40625 64.59375 
L 9.421875 64.59375 
z
" id="DejaVuSans-105"/>
      <path d="M 30.609375 48.390625 
Q 23.390625 48.390625 19.1875 42.75 
Q 14.984375 37.109375 14.984375 27.296875 
Q 14.984375 17.484375 19.15625 11.84375 
Q 23.34375 6.203125 30.609375 6.203125 
Q 37.796875 6.203125 41.984375 11.859375 
Q 46.1875 17.53125 46.1875 27.296875 
Q 46.1875 37.015625 41.984375 42.703125 
Q 37.796875 48.390625 30.609375 48.390625 
z
M 30.609375 56 
Q 42.328125 56 49.015625 48.375 
Q 55.71875 40.765625 55.71875 27.296875 
Q 55.71875 13.875 49.015625 6.21875 
Q 42.328125 -1.421875 30.609375 -1.421875 
Q 18.84375 -1.421875 12.171875 6.21875 
Q 5.515625 13.875 5.515625 27.296875 
Q 5.515625 40.765625 12.171875 48.375 
Q 18.84375 56 30.609375 56 
z
" id="DejaVuSans-111"/>
      <path d="M 37.109375 75.984375 
L 37.109375 68.5 
L 28.515625 68.5 
Q 23.6875 68.5 21.796875 66.546875 
Q 19.921875 64.59375 19.921875 59.515625 
L 19.921875 54.6875 
L 34.71875 54.6875 
L 34.71875 47.703125 
L 19.921875 47.703125 
L 19.921875 0 
L 10.890625 0 
L 10.890625 47.703125 
L 2.296875 47.703125 
L 2.296875 54.6875 
L 10.890625 54.6875 
L 10.890625 58.5 
Q 10.890625 67.625 15.140625 71.796875 
Q 19.390625 75.984375 28.609375 75.984375 
z
" id="DejaVuSans-102"/>
      <path d="M 18.109375 8.203125 
L 18.109375 -20.796875 
L 9.078125 -20.796875 
L 9.078125 54.6875 
L 18.109375 54.6875 
L 18.109375 46.390625 
Q 20.953125 51.265625 25.265625 53.625 
Q 29.59375 56 35.59375 56 
Q 45.5625 56 51.78125 48.09375 
Q 58.015625 40.1875 58.015625 27.296875 
Q 58.015625 14.40625 51.78125 6.484375 
Q 45.5625 -1.421875 35.59375 -1.421875 
Q 29.59375 -1.421875 25.265625 0.953125 
Q 20.953125 3.328125 18.109375 8.203125 
z
M 48.6875 27.296875 
Q 48.6875 37.203125 44.609375 42.84375 
Q 40.53125 48.484375 33.40625 48.484375 
Q 26.265625 48.484375 22.1875 42.84375 
Q 18.109375 37.203125 18.109375 27.296875 
Q 18.109375 17.390625 22.1875 11.75 
Q 26.265625 6.109375 33.40625 6.109375 
Q 40.53125 6.109375 44.609375 11.75 
Q 48.6875 17.390625 48.6875 27.296875 
z
" id="DejaVuSans-112"/>
      <path d="M 4.203125 54.6875 
L 13.1875 54.6875 
L 24.421875 12.015625 
L 35.59375 54.6875 
L 46.1875 54.6875 
L 57.421875 12.015625 
L 68.609375 54.6875 
L 77.59375 54.6875 
L 63.28125 0 
L 52.6875 0 
L 40.921875 44.828125 
L 29.109375 0 
L 18.5 0 
z
" id="DejaVuSans-119"/>
      <path d="M 44.28125 53.078125 
L 44.28125 44.578125 
Q 40.484375 46.53125 36.375 47.5 
Q 32.28125 48.484375 27.875 48.484375 
Q 21.1875 48.484375 17.84375 46.4375 
Q 14.5 44.390625 14.5 40.28125 
Q 14.5 37.15625 16.890625 35.375 
Q 19.28125 33.59375 26.515625 31.984375 
L 29.59375 31.296875 
Q 39.15625 29.25 43.1875 25.515625 
Q 47.21875 21.78125 47.21875 15.09375 
Q 47.21875 7.46875 41.1875 3.015625 
Q 35.15625 -1.421875 24.609375 -1.421875 
Q 20.21875 -1.421875 15.453125 -0.5625 
Q 10.6875 0.296875 5.421875 2 
L 5.421875 11.28125 
Q 10.40625 8.6875 15.234375 7.390625 
Q 20.0625 6.109375 24.8125 6.109375 
Q 31.15625 6.109375 34.5625 8.28125 
Q 37.984375 10.453125 37.984375 14.40625 
Q 37.984375 18.0625 35.515625 20.015625 
Q 33.0625 21.96875 24.703125 23.78125 
L 21.578125 24.515625 
Q 13.234375 26.265625 9.515625 29.90625 
Q 5.8125 33.546875 5.8125 39.890625 
Q 5.8125 47.609375 11.28125 51.796875 
Q 16.75 56 26.8125 56 
Q 31.78125 56 36.171875 55.265625 
Q 40.578125 54.546875 44.28125 53.078125 
z
" id="DejaVuSans-115"/>
      <path d="M 52 44.1875 
Q 55.375 50.25 60.0625 53.125 
Q 64.75 56 71.09375 56 
Q 79.640625 56 84.28125 50.015625 
Q 88.921875 44.046875 88.921875 33.015625 
L 88.921875 0 
L 79.890625 0 
L 79.890625 32.71875 
Q 79.890625 40.578125 77.09375 44.375 
Q 74.3125 48.1875 68.609375 48.1875 
Q 61.625 48.1875 57.5625 43.546875 
Q 53.515625 38.921875 53.515625 30.90625 
L 53.515625 0 
L 44.484375 0 
L 44.484375 32.71875 
Q 44.484375 40.625 41.703125 44.40625 
Q 38.921875 48.1875 33.109375 48.1875 
Q 26.21875 48.1875 22.15625 43.53125 
Q 18.109375 38.875 18.109375 30.90625 
L 18.109375 0 
L 9.078125 0 
L 9.078125 54.6875 
L 18.109375 54.6875 
L 18.109375 46.1875 
Q 21.1875 51.21875 25.484375 53.609375 
Q 29.78125 56 35.6875 56 
Q 41.65625 56 45.828125 52.96875 
Q 50 49.953125 52 44.1875 
z
" id="DejaVuSans-109"/>
      <path d="M 45.40625 46.390625 
L 45.40625 75.984375 
L 54.390625 75.984375 
L 54.390625 0 
L 45.40625 0 
L 45.40625 8.203125 
Q 42.578125 3.328125 38.25 0.953125 
Q 33.9375 -1.421875 27.875 -1.421875 
Q 17.96875 -1.421875 11.734375 6.484375 
Q 5.515625 14.40625 5.515625 27.296875 
Q 5.515625 40.1875 11.734375 48.09375 
Q 17.96875 56 27.875 56 
Q 33.9375 56 38.25 53.625 
Q 42.578125 51.265625 45.40625 46.390625 
z
M 14.796875 27.296875 
Q 14.796875 17.390625 18.875 11.75 
Q 22.953125 6.109375 30.078125 6.109375 
Q 37.203125 6.109375 41.296875 11.75 
Q 45.40625 17.390625 45.40625 27.296875 
Q 45.40625 37.203125 41.296875 42.84375 
Q 37.203125 48.484375 30.078125 48.484375 
Q 22.953125 48.484375 18.875 42.84375 
Q 14.796875 37.203125 14.796875 27.296875 
z
" id="DejaVuSans-100"/>
     </defs>
     <g transform="translate(28.617187 248.812375)rotate(-90)scale(0.1 -0.1)">
      <use xlink:href="#DejaVuSans-70"/>
      <use x="50.269531" xlink:href="#DejaVuSans-114"/>
      <use x="91.382812" xlink:href="#DejaVuSans-97"/>
      <use x="152.662109" xlink:href="#DejaVuSans-99"/>
      <use x="207.642578" xlink:href="#DejaVuSans-116"/>
      <use x="246.851562" xlink:href="#DejaVuSans-105"/>
      <use x="274.634766" xlink:href="#DejaVuSans-111"/>
      <use x="335.816406" xlink:href="#DejaVuSans-110"/>
      <use x="399.195312" xlink:href="#DejaVuSans-32"/>
      <use x="430.982422" xlink:href="#DejaVuSans-111"/>
      <use x="492.164062" xlink:href="#DejaVuSans-102"/>
      <use x="527.369141" xlink:href="#DejaVuSans-32"/>
      <use x="559.15625" xlink:href="#DejaVuSans-112"/>
      <use x="622.632812" xlink:href="#DejaVuSans-111"/>
      <use x="683.814453" xlink:href="#DejaVuSans-119"/>
      <use x="765.601562" xlink:href="#DejaVuSans-101"/>
      <use x="827.125" xlink:href="#DejaVuSans-114"/>
      <use x="868.238281" xlink:href="#DejaVuSans-32"/>
      <use x="900.025391" xlink:href="#DejaVuSans-116"/>
      <use x="939.234375" xlink:href="#DejaVuSans-114"/>
      <use x="980.347656" xlink:href="#DejaVuSans-97"/>
      <use x="1041.626953" xlink:href="#DejaVuSans-110"/>
      <use x="1105.005859" xlink:href="#DejaVuSans-115"/>
      <use x="1157.105469" xlink:href="#DejaVuSans-109"/>
      <use x="1254.517578" xlink:href="#DejaVuSans-105"/>
      <use x="1282.300781" xlink:href="#DejaVuSans-116"/>
      <use x="1321.509766" xlink:href="#DejaVuSans-116"/>
      <use x="1360.71875" xlink:href="#DejaVuSans-101"/>
      <use x="1422.242188" xlink:href="#DejaVuSans-100"/>
     </g>
    </g>
   </g>
   <g id="line2d_13">
    <path clip-path="url(#p280175a165)" d="M 393.792291 295.488 
L 384.206641 295.389783 
L 383.884885 295.17749 
L 383.563699 294.673928 
L 383.243081 293.663044 
L 382.92303 291.899498 
L 382.497173 288.006345 
L 381.966259 280.264817 
L 381.331218 266.948816 
L 378.085442 191.577257 
L 377.670887 187.596786 
L 376.741647 182.070245 
L 376.330204 176.72886 
L 375.305747 161.827934 
L 375.101564 161.124922 
L 374.999561 161.168692 
L 374.795731 161.894323 
L 373.982752 166.005975 
L 373.881392 165.916181 
L 373.678847 165.059683 
L 373.375465 162.126285 
L 372.267515 148.610795 
L 372.167138 148.560644 
L 371.966556 149.312076 
L 371.666111 151.997341 
L 371.066762 157.586043 
L 370.867434 158.134823 
L 370.767855 158.04089 
L 370.568867 157.089279 
L 370.27081 153.911932 
L 369.280945 140.979001 
L 369.182267 140.793958 
L 369.083645 140.92884 
L 368.886568 142.081145 
L 368.493083 146.678505 
L 368.002477 152.052825 
L 367.806622 152.895196 
L 367.708778 152.932654 
L 367.513254 152.205936 
L 367.220382 149.236361 
L 366.15074 134.661909 
L 366.053828 134.573732 
L 365.956969 134.818463 
L 365.763416 136.217404 
L 365.280482 142.790649 
L 364.798899 148.11935 
L 364.606642 148.722789 
L 364.510595 148.618458 
L 364.318661 147.588989 
L 364.031161 144.179809 
L 362.981103 129.11471 
L 362.885962 129.076949 
L 362.695839 130.011562 
L 362.41105 133.442538 
L 361.653928 144.051737 
L 361.465171 144.966669 
L 361.370872 145.017185 
L 361.182429 144.281143 
L 360.900156 141.211013 
L 360.337012 130.854962 
L 359.962619 125.225476 
L 359.775732 124.091375 
L 359.682366 124.049317 
L 359.495787 125.001283 
L 359.216305 128.545498 
L 358.38062 140.907121 
L 358.195473 141.664857 
L 358.102975 141.629256 
L 357.918132 140.719259 
L 357.641248 137.407984 
L 356.538246 119.487536 
L 356.446655 119.373563 
L 356.355115 119.616755 
L 356.172183 121.10291 
L 355.806918 126.916663 
L 355.169616 137.123635 
L 354.897229 138.543334 
L 354.806532 138.469938 
L 354.625285 137.490531 
L 354.353784 134.093027 
L 353.721996 121.268256 
L 353.362049 115.879777 
L 353.182367 115.000375 
L 353.092599 115.094987 
L 352.913208 116.315319 
L 352.555008 121.897851 
L 351.840921 134.046763 
L 351.57393 135.509894 
L 351.485029 135.458302 
L 351.307371 134.533789 
L 351.04124 131.229851 
L 350.510264 120.211353 
L 350.069088 112.288566 
L 349.804948 110.816864 
L 349.716996 111.026669 
L 349.541232 112.448739 
L 349.190268 118.290874 
L 348.490585 130.779918 
L 348.228973 132.46458 
L 348.141861 132.50189 
L 347.967778 131.771238 
L 347.706999 128.764956 
L 347.273292 119.994125 
L 346.668032 108.186782 
L 346.409322 106.789849 
L 346.323176 107.011241 
L 346.151022 108.436414 
L 345.80726 114.262885 
L 345.036446 128.130013 
L 344.780321 129.482199 
L 344.695036 129.41841 
L 344.5246 128.511949 
L 344.269282 125.322466 
L 343.844648 116.447545 
L 343.25203 104.503454 
L 342.998716 102.87816 
L 342.914366 103.00198 
L 342.7458 104.221492 
L 342.409196 109.731528 
L 341.57076 125.149316 
L 341.320081 126.419853 
L 341.236609 126.345978 
L 341.069795 125.447401 
L 340.819899 122.331696 
L 340.404271 113.625672 
L 339.741509 100.31008 
L 339.493682 99.092208 
L 339.328678 99.883536 
L 339.081492 103.181109 
L 337.933015 123.06425 
L 337.769624 123.322594 
L 337.6064 122.617716 
L 337.361881 119.836973 
L 336.955186 111.604637 
L 336.225765 96.636877 
L 335.983373 95.446122 
L 335.821985 96.18994 
L 335.580212 99.350431 
L 334.376899 120.129255 
L 334.297006 120.31172 
L 334.217153 120.263821 
L 334.057569 119.479773 
L 333.818498 116.668708 
L 333.420857 108.568781 
L 332.707644 93.545094 
L 332.470629 92.005783 
L 332.391704 92.079195 
L 332.233975 93.091913 
L 331.918994 97.997065 
L 330.977866 116.086915 
L 330.743474 117.40339 
L 330.665422 117.4095 
L 330.509435 116.765781 
L 330.27575 114.228727 
L 329.887059 106.609744 
L 329.112599 90.257827 
L 328.881017 88.828493 
L 328.803901 88.909846 
L 328.649784 89.895579 
L 328.342012 94.632312 
L 327.345993 113.67098 
L 327.117059 114.783816 
L 327.040824 114.742456 
L 326.888466 114.038775 
L 326.660215 111.500551 
L 326.280552 104.067904 
L 325.524048 87.806035 
L 325.297827 86.057356 
L 325.222495 85.997634 
L 325.071943 86.671258 
L 324.846393 89.476007 
L 324.396296 99.013475 
L 323.798236 110.393235 
L 323.50009 112.464734 
L 323.425645 112.500162 
L 323.276865 111.981305 
L 323.053969 109.780317 
L 322.683206 102.932377 
L 321.797077 84.580319 
L 321.576358 83.556539 
L 321.429391 84.128233 
L 321.209211 86.716572 
L 320.769816 95.901245 
L 320.185954 107.690082 
L 319.894875 110.400276 
L 319.749548 110.67532 
L 319.604361 110.206101 
L 319.386847 108.151876 
L 319.025026 101.666152 
L 318.088384 82.437181 
L 317.873071 81.57582 
L 317.729703 82.19108 
L 317.51491 84.753252 
L 317.086255 93.74813 
L 316.445591 106.700156 
L 316.16174 109.157662 
L 316.020019 109.356386 
L 315.878435 108.850984 
L 315.666312 106.818394 
L 315.313452 100.530112 
L 314.329923 80.667229 
L 314.189956 80.051919 
L 314.120022 80.084661 
L 313.980254 80.824382 
L 313.770853 83.471174 
L 313.352946 92.392911 
L 312.728319 105.422521 
L 312.451562 108.184443 
L 312.313381 108.601053 
L 312.244339 108.559029 
L 312.106354 107.976465 
L 311.899621 105.903153 
L 311.555719 99.72031 
L 310.597103 79.871455 
L 310.392507 78.955566 
L 310.256271 79.420801 
L 310.052157 81.639798 
L 309.644791 89.983278 
L 308.900928 105.650437 
L 308.631382 108.066641 
L 308.496798 108.350429 
L 308.36234 108.001851 
L 308.160889 106.323431 
L 307.825764 100.803734 
L 306.692166 78.506489 
L 306.55939 78.295058 
L 306.426738 78.904744 
L 306.22799 81.248909 
L 305.831324 89.583492 
L 305.106961 105.319268 
L 304.778921 108.334548 
L 304.647917 108.519003 
L 304.517034 108.10481 
L 304.320936 106.393054 
L 303.994708 100.967717 
L 302.826482 78.060991 
L 302.761863 77.913805 
L 302.697274 77.963655 
L 302.568184 78.647395 
L 302.31036 82.13342 
L 301.796125 94.110464 
L 301.219853 106.068692 
L 300.900723 108.862814 
L 300.773274 109.008776 
L 300.645941 108.5882 
L 300.45516 106.924893 
L 300.137768 101.698244 
L 298.938225 77.91329 
L 298.875377 77.773811 
L 298.812557 77.822087 
L 298.687002 78.475681 
L 298.436233 81.816931 
L 297.998475 91.895535 
L 297.313353 106.730735 
L 297.003054 109.500923 
L 296.879129 109.690593 
L 296.755315 109.344265 
L 296.569803 107.843311 
L 296.26117 102.972572 
L 295.645973 88.089727 
L 295.155791 78.89247 
L 294.972424 77.774151 
L 294.911356 77.753435 
L 294.789302 78.245 
L 294.606424 80.243413 
L 294.241401 87.710388 
L 293.33309 107.910006 
L 293.03166 110.286231 
L 292.911275 110.364024 
L 292.790996 109.936866 
L 292.550758 107.618772 
L 292.191195 100.969348 
L 291.118197 78.229344 
L 290.940189 77.73317 
L 290.821647 78.244783 
L 290.584876 81.147216 
L 290.171524 90.451009 
L 289.407224 107.748186 
L 289.114417 110.6283 
L 288.939039 110.96131 
L 288.822248 110.588736 
L 288.58897 108.458532 
L 288.239815 102.208881 
L 287.082517 77.879824 
L 286.967338 77.574852 
L 286.852259 77.909174 
L 286.679827 79.562309 
L 286.392937 84.866209 
L 285.194732 110.354054 
L 284.967728 111.335019 
L 284.854372 111.156505 
L 284.684521 110.061319 
L 284.401921 106.169657 
L 283.951019 95.860333 
L 283.221586 79.208771 
L 282.997959 77.349436 
L 282.942112 77.251193 
L 282.886288 77.303988 
L 282.774712 77.857689 
L 282.551846 80.630223 
L 282.162742 89.325755 
L 281.332833 108.295075 
L 281.002344 111.220155 
L 280.892367 111.374746 
L 280.782484 111.111006 
L 280.617833 109.943726 
L 280.343877 106.073558 
L 279.906749 96.043492 
L 279.14531 78.550674 
L 278.928578 76.77947 
L 278.874451 76.68128 
L 278.820348 76.724768 
L 278.712209 77.232413 
L 278.496203 79.819144 
L 278.119063 88.066393 
L 277.261162 107.846798 
L 276.940923 110.82373 
L 276.834355 111.052844 
L 276.781104 111.02084 
L 276.621484 110.342117 
L 276.408967 108.121293 
L 276.037911 101.08855 
L 274.931183 76.515375 
L 274.773863 75.841689 
L 274.669091 76.050903 
L 274.512095 77.326277 
L 274.250867 81.673216 
L 273.574185 98.736525 
L 273.107828 107.736808 
L 272.797878 110.233167 
L 272.694731 110.34978 
L 272.591668 110.103027 
L 272.385796 108.539657 
L 272.077618 103.72811 
L 271.565664 91.152002 
L 270.954068 77.141754 
L 270.700117 74.849418 
L 270.59868 74.769461 
L 270.497327 75.178596 
L 270.294866 77.378967 
L 269.941349 84.663005 
L 268.986837 106.45755 
L 268.686931 109.09223 
L 268.587123 109.309769 
L 268.53725 109.291967 
L 268.387749 108.734475 
L 268.188696 106.845798 
L 267.841123 100.72745 
L 266.558648 73.593168 
L 266.460548 73.436136 
L 266.362526 73.733233 
L 266.166717 75.626238 
L 265.824802 82.278396 
L 264.756394 105.951749 
L 264.466626 107.933379 
L 264.37019 107.976134 
L 264.225679 107.456368 
L 263.985208 105.080601 
L 263.649346 98.948034 
L 262.409947 72.295097 
L 262.267753 71.994475 
L 262.17305 72.317387 
L 261.983868 74.157908 
L 261.653512 80.474885 
L 260.527706 104.872079 
L 260.247899 106.488176 
L 260.154775 106.454293 
L 260.015224 105.865373 
L 259.783002 103.496276 
L 259.412384 96.553691 
L 258.21578 70.854466 
L 258.078482 70.480388 
L 257.987039 70.713121 
L 257.804364 72.291239 
L 257.485359 78.020701 
L 256.262921 103.8088 
L 256.037929 104.949543 
L 255.948052 104.943156 
L 255.813367 104.437219 
L 255.589233 102.309054 
L 255.231508 95.941753 
L 253.94385 69.189435 
L 253.855568 69.030841 
L 253.811451 69.084715 
L 253.679203 69.770486 
L 253.459123 72.528039 
L 253.064027 81.126255 
L 252.190824 100.515059 
L 251.886753 103.26641 
L 251.756682 103.549619 
L 251.713358 103.521782 
L 251.583481 103.073081 
L 251.367346 101.139216 
L 251.022371 95.279784 
L 250.33551 78.066288 
L 249.865668 69.171053 
L 249.652739 67.772317 
L 249.567678 67.77575 
L 249.440206 68.385456 
L 249.228068 70.899877 
L 248.84721 78.915629 
L 247.921553 99.432349 
L 247.628601 102.055563 
L 247.503281 102.355848 
L 247.461539 102.343569 
L 247.336404 101.970625 
L 247.128153 100.253926 
L 246.795747 94.922208 
L 246.216382 80.747116 
L 245.639982 68.628299 
L 245.393856 66.734125 
L 245.311934 66.688625 
L 245.189162 67.177717 
L 244.984842 69.391953 
L 244.618002 76.770041 
L 243.605277 99.00519 
L 243.323355 101.300079 
L 243.20275 101.52209 
L 243.162578 101.492757 
L 243.042147 101.096176 
L 242.841719 99.430387 
L 242.521786 94.385603 
L 241.964118 80.936406 
L 241.369723 68.140752 
L 241.093432 65.947319 
L 241.014618 65.924953 
L 240.896504 66.403968 
L 240.699929 68.493422 
L 240.346978 75.44766 
L 239.256124 99.083947 
L 238.985103 100.994681 
L 238.869158 101.10903 
L 238.753335 100.7966 
L 238.560571 99.347103 
L 238.252858 94.800708 
L 237.754675 83.2224 
L 237.068644 67.893357 
L 236.803025 65.565278 
L 236.727253 65.452414 
L 236.689388 65.491142 
L 236.575871 65.984126 
L 236.38694 67.996256 
L 236.047699 74.605797 
L 234.924573 99.128574 
L 234.627051 101.114611 
L 234.552799 101.178606 
L 234.515693 101.145028 
L 234.404451 100.783359 
L 234.182316 98.914665 
L 233.849978 93.519764 
L 233.261706 79.152759 
L 232.713147 67.562358 
L 232.458122 65.419641 
L 232.38537 65.318865 
L 232.349013 65.356377 
L 232.240017 65.817326 
L 232.022362 68.219274 
L 231.660598 75.626772 
L 230.618462 98.998002 
L 230.332788 101.411012 
L 230.190243 101.667992 
L 230.154637 101.6317 
L 230.012334 101.087191 
L 229.799243 99.106257 
L 229.480419 93.778982 
L 228.880845 79.004848 
L 228.319681 67.370345 
L 228.075123 65.520359 
L 228.005356 65.468075 
L 227.97049 65.523224 
L 227.831142 66.27768 
L 227.587735 69.494681 
L 227.171796 78.954565 
L 226.310612 98.789593 
L 225.968149 102.169001 
L 225.797346 102.503053 
L 225.695001 102.260292 
L 225.524652 101.129337 
L 225.252683 97.540934 
L 224.812273 87.986336 
L 223.903617 67.46551 
L 223.66936 65.847678 
L 223.602529 65.828206 
L 223.569129 65.893649 
L 223.435643 66.648706 
L 223.202465 69.727998 
L 222.803978 78.751729 
L 221.9131 99.672905 
L 221.585137 103.104273 
L 221.421557 103.5791 
L 221.388873 103.572212 
L 221.290885 103.348293 
L 221.127784 102.307068 
L 220.867375 98.99487 
L 220.445652 90.067073 
L 219.44715 67.554206 
L 219.223064 66.287098 
L 219.159132 66.337241 
L 219.031392 66.987782 
L 218.808244 69.773914 
L 218.42687 78.200391 
L 217.448429 101.262947 
L 217.134867 104.338485 
L 216.978462 104.733171 
L 216.947211 104.718749 
L 216.822306 104.351178 
L 216.635246 102.888099 
L 216.324273 98.198333 
L 215.828768 86.378961 
L 215.090205 69.181628 
L 214.814685 66.83696 
L 214.753565 66.771533 
L 214.723019 66.802893 
L 214.600932 67.351464 
L 214.38765 69.84939 
L 214.023115 77.660379 
L 212.937708 103.053014 
L 212.638369 105.5915 
L 212.518895 105.821829 
L 212.48905 105.80831 
L 212.369761 105.471037 
L 212.161364 103.812193 
L 211.864439 99.255122 
L 211.391274 87.954529 
L 210.598104 69.341986 
L 210.33518 67.226791 
L 210.276852 67.177073 
L 210.247701 67.211041 
L 210.131188 67.735282 
L 209.927634 70.068923 
L 209.579703 77.385476 
L 208.429129 104.267225 
L 208.143676 106.524633 
L 208.029738 106.710835 
L 208.001275 106.692659 
L 207.887511 106.362205 
L 207.688755 104.810005 
L 207.377277 100.044229 
L 206.897942 88.474873 
L 206.1138 69.764179 
L 205.835349 67.450405 
L 205.77976 67.406166 
L 205.751978 67.437799 
L 205.640932 67.919324 
L 205.446923 70.061998 
L 205.115284 76.844556 
L 203.882184 105.339431 
L 203.610402 107.190952 
L 203.529024 107.292151 
L 203.474813 107.242253 
L 203.339426 106.709428 
L 203.123223 104.675502 
L 202.799879 99.139915 
L 202.23678 84.642429 
L 201.597495 69.798897 
L 201.332455 67.475045 
L 201.253094 67.395541 
L 201.226656 67.434142 
L 201.120982 67.91063 
L 200.910005 70.326729 
L 200.568219 77.553707 
L 199.395075 105.099554 
L 199.110634 107.313367 
L 199.007425 107.489171 
L 198.955866 107.44988 
L 198.827098 106.982781 
L 198.621457 105.164064 
L 198.313885 100.155002 
L 197.803625 87.382156 
L 197.068942 69.65354 
L 196.791864 67.169347 
L 196.716449 67.092194 
L 196.691325 67.125285 
L 196.565812 67.726319 
L 196.365364 70.112242 
L 196.015679 77.589575 
L 194.851866 104.876574 
L 194.557199 107.122216 
L 194.459198 107.267023 
L 194.410239 107.225073 
L 194.287963 106.788518 
L 194.068299 104.835965 
L 193.751989 99.578785 
L 193.243461 86.710736 
L 192.522163 69.202414 
L 192.235333 66.57466 
L 192.163775 66.494561 
L 192.116103 66.573062 
L 191.997039 67.223951 
L 191.783141 69.922821 
L 191.427831 77.759273 
L 190.324037 103.840446 
L 190.021251 106.40399 
L 189.881869 106.626999 
L 189.858661 106.604466 
L 189.742717 106.237215 
L 189.534417 104.527433 
L 189.234446 99.842469 
L 188.752127 88.07149 
L 187.931697 68.056405 
L 187.66 65.703359 
L 187.592214 65.631882 
L 187.547054 65.70189 
L 187.41172 66.467043 
L 187.186653 69.454464 
L 186.805431 78.144096 
L 185.804707 102.083041 
L 185.47381 105.287972 
L 185.319846 105.634702 
L 185.297875 105.623445 
L 185.188107 105.33998 
L 185.012782 104.110256 
L 184.728676 100.185907 
L 184.293506 90.344452 
L 183.279906 66.105278 
L 183.044495 64.573429 
L 182.98041 64.588987 
L 182.95906 64.635829 
L 182.831076 65.346475 
L 182.618219 68.056609 
L 182.257644 75.979143 
L 181.185507 101.255236 
L 180.872881 104.070028 
L 180.727405 104.361566 
L 180.706645 104.349294 
L 180.602923 104.08645 
L 180.416562 102.779714 
L 180.127531 98.737481 
L 179.695945 88.951299 
L 178.677719 64.829886 
L 178.435286 63.362833 
L 178.35464 63.457263 
L 178.213709 64.317575 
L 177.972699 67.668829 
L 177.552706 77.507794 
L 176.660243 98.750245 
L 176.3061 102.483022 
L 176.129632 102.936873 
L 176.110049 102.927801 
L 176.01221 102.704448 
L 175.836408 101.56478 
L 175.563731 98.001774 
L 175.156511 89.241335 
L 174.023814 63.105058 
L 173.814471 62.130483 
L 173.738489 62.258125 
L 173.6057 63.089975 
L 173.3786 66.166022 
L 172.982797 75.159041 
L 172.011504 97.898613 
L 171.678173 101.13294 
L 171.512059 101.502305 
L 171.493624 101.491009 
L 171.383112 101.204282 
L 171.199284 99.905427 
L 170.924384 96.142266 
L 170.504819 86.910532 
L 169.45714 62.434517 
L 169.224326 60.99111 
L 169.170704 60.993303 
L 169.152838 61.02224 
L 169.045735 61.488347 
L 168.849781 63.578809 
L 168.530246 69.805271 
L 167.21358 98.730896 
L 166.953061 100.174731 
L 166.883746 100.212689 
L 166.849114 100.176647 
L 166.728028 99.763368 
L 166.520921 98.038599 
L 166.21136 93.228444 
L 165.715385 81.322887 
L 164.918717 62.519881 
L 164.632716 60.064583 
L 164.565586 59.991103 
L 164.515281 60.065244 
L 164.381304 60.795288 
L 164.164125 63.51508 
L 163.798086 71.38189 
L 162.711111 96.285574 
L 162.401255 98.951068 
L 162.254953 99.217613 
L 162.238716 99.207147 
L 162.125161 98.910479 
L 161.93092 97.508139 
L 161.640558 93.422295 
L 161.191254 83.322937 
L 160.23806 61.129584 
L 159.98606 59.289783 
L 159.923202 59.251596 
L 159.891795 59.296847 
L 159.766307 59.900718 
L 159.562872 62.239888 
L 159.219952 69.217159 
L 158.002424 96.496474 
L 157.712794 98.511538 
L 157.606396 98.623063 
L 157.576027 98.592069 
L 157.454686 98.190554 
L 157.257967 96.611149 
L 156.956426 92.104155 
L 156.476727 80.921449 
L 155.615845 60.946884 
L 155.350895 58.854261 
L 155.292158 58.79114 
L 155.24814 58.841887 
L 155.130898 59.38326 
L 154.926216 61.67156 
L 154.591307 68.391725 
L 153.31098 96.768613 
L 153.040824 98.432545 
L 152.95574 98.504779 
L 152.913239 98.45894 
L 152.785901 97.99602 
L 152.574217 96.166888 
L 152.250952 91.012316 
L 151.734235 78.467828 
L 150.987368 61.181846 
L 150.712912 58.756741 
L 150.6308 58.645447 
L 150.589784 58.699557 
L 150.466889 59.295244 
L 150.262583 61.648911 
L 149.9235 68.572835 
L 148.664312 96.9068 
L 148.386358 98.760891 
L 148.293975 98.86588 
L 148.254424 98.831897 
L 148.135916 98.447494 
L 147.938893 96.885552 
L 147.637975 92.414879 
L 147.169825 81.550151 
L 146.282143 60.861622 
L 146.014453 58.829329 
L 145.950886 58.795624 
L 145.912776 58.860197 
L 145.785913 59.528022 
L 145.570835 62.159993 
L 145.205644 70.00246 
L 144.048819 96.91179 
L 143.74151 99.432469 
L 143.60678 99.649383 
L 143.582315 99.629674 
L 143.472345 99.317135 
L 143.277329 97.874172 
L 142.985966 93.718314 
L 142.539492 83.603299 
L 141.573391 60.976772 
L 141.31364 59.193545 
L 141.266532 59.182899 
L 141.231226 59.239271 
L 141.113688 59.820602 
L 140.902697 62.304711 
L 140.552688 69.688689 
L 139.309396 98.526443 
L 139.013937 100.638038 
L 138.912006 100.756447 
L 138.878069 100.725526 
L 138.765083 100.369965 
L 138.573505 98.891878 
L 138.281705 94.643805 
L 137.835599 84.394744 
L 136.86601 61.491068 
L 136.615241 59.757627 
L 136.56087 59.745535 
L 136.528272 59.801789 
L 136.408902 60.410253 
L 136.203297 62.865129 
L 135.858667 70.18646 
L 134.58446 99.95654 
L 134.301649 101.926561 
L 134.197261 102.040633 
L 134.165983 102.009705 
L 134.051441 101.64085 
L 133.854142 100.077687 
L 133.554326 95.584711 
L 133.092234 84.678404 
L 132.15922 62.295554 
L 131.89835 60.396838 
L 131.848323 60.377569 
L 131.808334 60.443895 
L 131.688539 61.07303 
L 131.479521 63.634436 
L 131.132906 71.157873 
L 129.873943 101.079535 
L 129.575679 103.234217 
L 129.479813 103.350906 
L 129.431943 103.303015 
L 129.30768 102.849683 
L 129.098036 101.026587 
L 128.785086 95.994338 
L 128.295613 83.870178 
L 127.458871 63.389311 
L 127.182849 61.045105 
L 127.118649 60.986778 
L 127.07284 61.06103 
L 126.953921 61.699922 
L 126.744178 64.311736 
L 126.399458 71.889368 
L 125.139772 102.182851 
L 124.840509 104.395938 
L 124.735298 104.522268 
L 124.700274 104.488173 
L 124.586612 104.11612 
L 124.386126 102.499377 
L 124.091173 98.014491 
L 123.643308 87.322513 
L 122.666524 63.303013 
L 122.41476 61.492928 
L 122.364557 61.477023 
L 122.322758 61.553178 
L 122.197571 62.261791 
L 121.98131 65.083609 
L 121.625668 73.168004 
L 120.428562 102.574783 
L 120.115727 105.211916 
L 119.987953 105.426657 
L 119.956061 105.401028 
L 119.844601 105.063244 
L 119.654109 103.603255 
L 119.361867 99.305344 
L 118.922834 88.974253 
L 117.880389 63.278419 
L 117.636536 61.746284 
L 117.575764 61.792187 
L 117.560583 61.830656 
L 117.439307 62.520601 
L 117.227805 65.260396 
L 116.874862 73.255951 
L 115.65604 103.231402 
L 115.350725 105.749084 
L 115.227705 105.9537 
L 115.191583 105.924114 
L 115.07618 105.557286 
L 114.882077 104.016592 
L 114.588855 99.603019 
L 114.148908 89.098057 
L 113.115245 63.348961 
L 112.874143 61.747433 
L 112.826073 61.75032 
L 112.791769 61.818927 
L 112.668485 62.517476 
L 112.456938 65.268757 
L 112.104267 73.282689 
L 110.884473 103.322538 
L 110.576445 105.843626 
L 110.452522 106.034078 
L 110.419967 106.004561 
L 110.302967 105.625695 
L 110.108645 104.065202 
L 109.812322 99.561135 
L 109.371513 88.948999 
L 108.334936 63.014354 
L 108.09347 61.425668 
L 108.050271 61.427118 
L 108.013278 61.498321 
L 107.890193 62.194174 
L 107.675629 64.994697 
L 107.316325 73.211314 
L 106.120199 102.765341 
L 105.80876 105.419344 
L 105.680152 105.646016 
L 105.645145 105.618313 
L 105.534479 105.279402 
L 105.342956 103.800944 
L 105.054417 99.539039 
L 104.625291 89.413266 
L 103.529796 62.135796 
L 103.297588 60.782129 
L 103.225979 60.871635 
L 103.099591 61.611673 
L 102.880707 64.536302 
L 102.51668 72.956337 
L 101.35431 101.712655 
L 101.03497 104.543393 
L 100.899628 104.801171 
L 100.863268 104.773156 
L 100.754386 104.443091 
L 100.563267 102.981314 
L 100.275741 98.762061 
L 99.848327 88.725072 
L 98.735682 61.133861 
L 98.505172 59.860884 
L 98.436773 59.957611 
L 98.310067 60.708021 
L 98.091745 63.626105 
L 97.725808 72.061826 
L 96.574083 100.425372 
L 96.254634 103.285623 
L 96.111991 103.557543 
L 96.079856 103.531557 
L 95.969887 103.200085 
L 95.782767 101.782783 
L 95.497054 97.639789 
L 95.070321 87.704092 
L 93.944348 59.940064 
L 93.7155 58.716394 
L 93.646695 58.820222 
L 93.518037 59.595935 
L 93.296105 62.591935 
L 92.923606 71.208746 
L 91.800208 98.748134 
L 91.475254 101.72113 
L 91.329996 102.01411 
L 91.297798 101.990655 
L 91.189345 101.675779 
L 91.001354 100.277619 
L 90.719269 96.242975 
L 90.298422 86.575192 
L 89.148893 58.539901 
L 88.926552 57.428105 
L 88.855259 57.549515 
L 88.720587 58.405968 
L 88.493609 61.566103 
L 88.106451 70.651102 
L 87.04566 96.644284 
L 86.710018 99.925797 
L 86.548719 100.296872 
L 86.524243 100.283169 
L 86.423037 100.030592 
L 86.245809 98.835112 
L 85.973167 95.198219 
L 85.570145 86.379884 
L 84.321897 56.782674 
L 84.142867 56.086231 
L 84.123397 56.098022 
L 84.035933 56.362865 
L 83.874601 57.73536 
L 83.605414 62.283453 
L 83.102139 75.405696 
L 82.351485 93.58376 
L 81.985948 97.876897 
L 81.771716 98.554899 
L 81.768709 98.554416 
L 81.681646 98.420018 
L 81.532122 97.648886 
L 81.294411 95.0541 
L 80.941322 88.387956 
L 80.321801 71.551688 
L 79.714952 57.381321 
L 79.432832 54.863172 
L 79.363418 54.777628 
L 79.313543 54.850222 
L 79.194739 55.469379 
L 78.98594 57.993703 
L 78.640349 65.371871 
L 77.378316 94.790377 
L 77.087396 96.829178 
L 76.987686 96.939096 
L 76.944333 96.891897 
L 76.822287 96.4506 
L 76.617537 94.703933 
L 76.311966 89.894658 
L 75.840256 78.39505 
L 74.915827 55.723649 
L 74.647355 53.613152 
L 74.591174 53.570858 
L 74.542113 53.64958 
L 74.421013 54.299758 
L 74.210402 56.88539 
L 73.860014 64.421977 
L 73.832727 65.127161 
L 73.832727 65.127161 
" style="fill:none;stroke:#008000;stroke-linecap:square;stroke-opacity:0.7;stroke-width:0.8;"/>
   </g>
   <g id="line2d_14">
    <path clip-path="url(#p280175a165)" d="M 176.42534 62.386813 
L 176.44363 61.27407 
L 176.480222 64.752591 
L 176.535142 62.303789 
L 176.571778 66.412252 
L 176.663441 65.33102 
L 176.700137 62.305707 
L 176.791952 63.344468 
L 176.920675 69.930778 
L 177.031178 66.282099 
L 176.994326 70.682106 
L 177.049611 67.052333 
L 177.160297 70.276301 
L 177.123384 66.114406 
L 177.17876 69.749112 
L 177.215699 65.762581 
L 177.252655 71.98501 
L 177.289629 68.477992 
L 177.308123 69.184109 
L 177.419176 76.126628 
L 177.456229 70.597438 
L 177.511841 77.522421 
L 177.548938 74.151859 
L 177.678916 82.641971 
L 177.697501 80.275645 
L 177.716092 77.105108 
L 177.771889 84.532346 
L 177.790497 81.056565 
L 177.809109 80.817905 
L 177.939519 89.919327 
L 177.976818 84.611808 
L 178.014136 90.924386 
L 178.070146 86.449848 
L 178.20099 95.791301 
L 178.238414 91.152086 
L 178.275856 97.406299 
L 178.313316 92.999442 
L 178.369539 100.419008 
L 178.463334 99.783585 
L 178.500883 95.28658 
L 178.53845 102.808625 
L 178.576035 97.503572 
L 178.707724 104.089882 
L 178.839634 96.723473 
L 178.971764 103.553376 
L 179.009556 97.737574 
L 179.104115 99.35449 
L 179.14197 105.444299 
L 179.217736 104.62173 
L 179.3505 95.286854 
L 179.483487 101.606007 
L 179.521524 94.903244 
L 179.616697 96.273006 
L 179.654799 99.90086 
L 179.692918 91.617898 
L 179.731056 95.970502 
L 179.769212 90.353629 
L 179.788297 89.555446 
L 179.807387 93.342773 
L 179.826481 94.199867 
L 179.84558 91.760381 
L 179.902904 93.042187 
L 179.960269 87.435726 
L 179.998536 92.589801 
L 180.03682 86.450671 
L 180.075124 90.424322 
L 180.305332 79.239898 
L 180.324546 80.888051 
L 180.343765 83.519616 
L 180.382216 78.329098 
L 180.420686 80.179468 
L 180.632603 72.15051 
L 180.651897 73.259965 
L 180.690497 76.082513 
L 180.729116 70.308908 
L 180.767753 73.400257 
L 180.80641 68.984083 
L 180.825745 68.775838 
L 180.845085 71.247109 
L 180.903132 66.427049 
L 180.941854 70.67964 
L 180.980595 65.220869 
L 181.077528 65.344446 
L 181.116335 69.748838 
L 181.15516 65.284439 
L 181.194004 68.083696 
L 181.232867 64.062641 
L 181.291196 68.667879 
L 181.330106 65.706958 
L 181.369035 70.613056 
L 181.407983 65.398974 
L 181.44695 68.568141 
L 181.505435 64.41611 
L 181.544449 68.773098 
L 181.583482 65.921231 
L 181.720248 70.810615 
L 181.759366 67.538696 
L 181.798504 72.747024 
L 181.81808 72.842652 
L 181.83766 69.711573 
L 181.896431 74.741248 
L 181.935636 70.753348 
L 182.053364 79.152216 
L 182.073002 77.935624 
L 182.092644 74.599586 
L 182.151602 79.983005 
L 182.190931 76.107996 
L 182.309032 83.713613 
L 182.328733 82.857889 
L 182.348438 79.214141 
L 182.387863 85.206952 
L 182.447037 81.264811 
L 182.565514 90.328146 
L 182.585277 89.316785 
L 182.605045 87.203094 
L 182.644596 93.44991 
L 182.684166 88.908515 
L 182.703958 89.179234 
L 182.822813 97.622765 
L 182.783175 88.829327 
L 182.842639 95.251233 
L 182.86247 93.484435 
L 182.882306 96.620721 
L 182.902146 100.335436 
L 182.961698 94.497439 
L 183.001423 98.910599 
L 183.041168 94.242612 
L 183.080932 101.380225 
L 183.100822 99.723578 
L 183.120716 97.398901 
L 183.160519 104.636252 
L 183.299985 98.993075 
L 183.319928 102.072641 
L 183.419718 105.60569 
L 183.379787 99.103774 
L 183.43969 104.686122 
L 183.459668 100.791658 
L 183.51963 107.335771 
L 183.55963 102.407752 
L 183.599649 107.851178 
L 183.639688 101.461879 
L 183.679746 107.319331 
L 183.719824 102.55051 
L 183.779979 108.244105 
L 183.820106 102.589419 
L 183.860254 107.089165 
L 183.900421 101.206505 
L 183.940608 106.717885 
L 184.081419 100.078417 
L 184.101555 103.341842 
L 184.121696 104.989174 
L 184.141841 101.616419 
L 184.242645 96.102299 
L 184.202308 102.391586 
L 184.26282 97.477541 
L 184.343572 96.103395 
L 184.383978 101.192804 
L 184.505316 92.404572 
L 184.525557 94.948729 
L 184.545802 97.607146 
L 184.586309 90.796424 
L 184.626835 95.593468 
L 184.667381 88.816722 
L 184.768835 88.881114 
L 184.809452 93.090412 
L 184.850088 86.871546 
L 184.870414 88.347074 
L 184.890745 90.724086 
L 184.931423 83.394669 
L 184.97212 87.816596 
L 185.094333 79.225375 
L 185.11472 79.643784 
L 185.135112 82.443864 
L 185.196317 76.403376 
L 185.216729 78.628314 
L 185.237146 78.518163 
L 185.359755 71.97679 
L 185.400666 76.598743 
L 185.441596 71.353423 
L 185.482547 74.231595 
L 185.605523 69.476474 
L 185.626037 69.687186 
L 185.646556 71.515636 
L 185.708144 67.962311 
L 185.728683 70.38563 
L 185.749227 70.422073 
L 185.872602 67.072061 
L 185.954955 66.962459 
L 185.996162 71.489605 
L 186.119907 66.220447 
L 186.14055 67.407172 
L 186.202507 66.760241 
L 186.243838 70.158478 
L 186.28519 66.63639 
L 186.326562 70.788695 
L 186.367955 68.470046 
L 186.492259 76.389949 
L 186.512994 74.750838 
L 186.533735 72.454932 
L 186.575232 77.016604 
L 186.61675 73.267912 
L 186.762226 80.113707 
L 186.783029 77.504336 
L 186.845469 82.734311 
L 186.866294 80.0189 
L 186.887123 80.40936 
L 187.012208 87.215973 
L 187.053945 84.233678 
L 187.095704 89.699574 
L 187.137483 85.311623 
L 187.262946 92.705158 
L 187.304809 89.420634 
L 187.346694 95.674574 
L 187.388599 92.363745 
L 187.40956 95.38851 
L 187.472474 92.963273 
L 187.514442 99.158301 
L 187.556432 94.763774 
L 187.598444 101.705472 
L 187.640476 98.634673 
L 187.6615 99.887434 
L 187.766701 103.987677 
L 187.724605 98.819902 
L 187.787757 103.728193 
L 187.808818 100.739048 
L 187.850957 106.594582 
L 187.893117 102.281161 
L 187.914204 102.491872 
L 187.935298 106.691032 
L 187.99861 102.050995 
L 188.040844 106.010672 
L 188.0831 101.805484 
L 188.125377 106.45429 
L 188.146524 103.15223 
L 188.167676 103.54817 
L 188.209996 108.952139 
L 188.294701 108.721973 
L 188.379491 109.000091 
L 188.421919 104.378686 
L 188.464368 108.888022 
L 188.506838 103.125925 
L 188.528082 106.667741 
L 188.54933 106.836804 
L 188.591844 102.00688 
L 188.634379 107.285628 
L 188.676936 103.108114 
L 188.719514 107.355225 
L 188.762114 101.883576 
L 188.804736 105.822703 
L 188.932731 98.654676 
L 188.975439 102.87192 
L 189.018169 96.911168 
L 189.060921 101.216643 
L 189.189307 94.054369 
L 189.232146 98.402315 
L 189.275007 93.360035 
L 189.31789 96.468099 
L 189.446669 88.070601 
L 189.468151 89.645046 
L 189.489639 90.975351 
L 189.511133 88.158831 
L 189.532631 84.983636 
L 189.575645 89.370491 
L 189.618682 85.128038 
L 189.66174 88.146227 
L 189.683277 85.187497 
L 189.791046 79.48212 
L 189.812616 81.276045 
L 189.834192 81.910372 
L 189.855773 79.626522 
L 189.92055 81.08424 
L 189.963762 77.151963 
L 190.006997 79.585695 
L 190.028622 76.812468 
L 190.136833 73.423548 
L 190.093532 77.857806 
L 190.158492 74.700147 
L 190.180156 75.640814 
L 190.201826 73.279146 
L 190.223501 72.374648 
L 190.266869 75.011145 
L 190.310258 72.639065 
L 190.331962 73.600008 
L 190.375385 70.737729 
L 190.462298 67.808045 
L 190.48404 68.212753 
L 190.592834 70.575517 
L 190.636391 68.199053 
L 190.679971 70.599082 
L 190.723572 68.48676 
L 190.854512 72.246687 
L 190.898204 68.316602 
L 190.963783 70.356037 
L 190.985654 70.200949 
L 191.116999 74.513274 
L 191.138909 72.578784 
L 191.182747 76.461465 
L 191.226608 74.202276 
L 191.44625 82.46414 
L 191.468245 81.711717 
L 191.490246 79.718862 
L 191.534265 84.705519 
L 191.556284 83.494955 
L 191.578307 82.634573 
L 191.600337 85.282578 
L 191.666459 84.657294 
L 191.71057 88.749865 
L 191.754703 86.338876 
L 191.776778 90.025916 
L 191.843037 88.401328 
L 191.887239 92.94053 
L 191.931463 90.33938 
L 191.97571 94.928178 
L 191.997843 92.891483 
L 192.019981 93.461966 
L 192.152929 98.790583 
L 192.175107 95.780067 
L 192.219481 100.784534 
L 192.263877 97.942805 
L 192.397205 104.545008 
L 192.419447 103.482134 
L 192.441694 100.930031 
L 192.486206 105.151386 
L 192.530741 101.19664 
L 192.664485 107.413041 
L 192.709112 104.246066 
L 192.753763 108.423305 
L 192.798437 105.025343 
L 192.820783 108.055588 
L 192.865492 104.352655 
L 192.910224 107.923516 
L 192.954979 104.432391 
L 192.999758 108.450158 
L 193.04456 104.939304 
L 193.179107 109.085307 
L 193.313864 104.492947 
L 193.336344 107.237402 
L 193.403819 103.25553 
L 193.426323 105.999438 
L 193.561467 101.175542 
L 193.584012 102.448031 
L 193.606563 104.184141 
L 193.629119 101.40105 
L 193.696824 101.822473 
L 193.74199 97.922255 
L 193.787179 101.270896 
L 193.855008 100.014847 
L 194.172248 89.18992 
L 194.194953 90.508991 
L 194.217663 89.194578 
L 194.331305 83.262049 
L 194.354051 84.621125 
L 194.376803 85.500962 
L 194.399562 83.168887 
L 194.467872 83.968714 
L 194.513442 80.623634 
L 194.536236 82.430437 
L 194.581843 78.697638 
L 194.604655 78.461991 
L 194.627473 80.602535 
L 194.673127 76.471329 
L 194.718805 78.815735 
L 194.855984 73.154199 
L 194.924654 72.414379 
L 194.970465 74.915517 
L 195.108041 70.31521 
L 195.19988 69.581419 
L 195.222855 72.028851 
L 195.268823 70.288632 
L 195.360831 70.539622 
L 195.429901 69.736781 
L 195.475978 71.75731 
L 195.52208 70.14149 
L 195.54514 71.647159 
L 195.63744 73.193382 
L 195.591278 70.895009 
L 195.66053 73.039664 
L 195.683627 71.997614 
L 195.729838 74.257077 
L 195.776074 72.707019 
L 195.914928 77.901647 
L 195.961261 76.630528 
L 195.984438 78.853 
L 196.00762 78.916295 
L 196.030808 77.769849 
L 196.054003 79.429785 
L 196.170067 83.589488 
L 196.193299 82.276719 
L 196.589177 94.456886 
L 196.61252 92.518285 
L 196.635869 92.873399 
L 196.752707 98.117348 
L 196.776093 97.066256 
L 196.799486 96.422887 
L 196.916541 101.144853 
L 196.939971 100.431064 
L 196.963407 98.241473 
L 197.010298 102.213755 
L 197.057214 99.699739 
L 197.174613 105.104257 
L 197.198111 105.046989 
L 197.221616 103.518577 
L 197.268645 107.219044 
L 197.315699 104.595425 
L 197.433443 107.69609 
L 197.480585 105.627062 
L 197.504165 107.367008 
L 197.598549 108.706903 
L 197.574944 106.623078 
L 197.622161 108.544417 
L 197.693034 109.166139 
L 197.740315 106.104109 
L 197.787621 107.993388 
L 197.858627 107.968454 
L 198.071989 103.71367 
L 198.095727 104.029874 
L 198.119472 105.462384 
L 198.166981 101.677249 
L 198.214516 103.241556 
L 198.238293 100.769463 
L 198.262076 100.692741 
L 198.285865 102.429947 
L 198.333464 100.385305 
L 198.357272 100.63109 
L 198.381088 100.683425 
L 198.500259 95.708003 
L 198.524113 96.456316 
L 198.547973 97.324097 
L 198.571839 95.21479 
L 198.763002 90.03715 
L 198.786926 90.749569 
L 198.810857 90.205391 
L 198.930607 86.410939 
L 198.954576 87.81002 
L 199.194625 80.066303 
L 199.218666 81.051359 
L 199.242713 79.273875 
L 199.435323 74.055134 
L 199.483541 75.360504 
L 199.531784 73.997045 
L 199.555916 74.516562 
L 199.700843 71.07147 
L 199.72502 71.908288 
L 199.749204 71.270399 
L 199.846005 69.430989 
L 199.870222 69.567445 
L 199.991403 71.176689 
L 200.039922 70.306168 
L 200.064191 71.780053 
L 200.112749 70.493863 
L 200.23426 72.453562 
L 200.28291 72.371908 
L 200.404651 74.874964 
L 200.42902 74.427236 
L 200.453394 74.626165 
L 200.575368 79.176602 
L 200.624203 78.654619 
L 200.844293 84.321635 
L 200.868781 83.913638 
L 200.893275 85.35519 
L 201.064923 88.687391 
L 201.261493 94.668694 
L 201.286095 93.90942 
L 201.310703 94.182057 
L 201.433845 98.794145 
L 201.458493 97.865809 
L 201.483148 97.98692 
L 201.606526 102.40556 
L 201.631222 101.277472 
L 202.027274 107.266447 
L 202.052084 106.455934 
L 202.076902 105.409775 
L 202.126558 107.314124 
L 202.176241 105.851748 
L 202.300568 107.567307 
L 202.375246 107.717189 
L 202.425066 106.237824 
L 202.474913 108.096415 
L 202.524787 106.231248 
L 202.549735 107.519082 
L 202.699564 104.087964 
L 202.724559 105.186459 
L 202.774571 102.815749 
L 202.799587 103.463502 
L 202.82461 102.860686 
L 202.949829 99.517524 
L 202.974894 100.208296 
L 203.050128 97.975412 
L 203.07522 98.237911 
L 203.276206 92.02288 
L 203.326522 92.087272 
L 203.427237 89.451871 
L 203.654253 83.62182 
L 204.059235 75.278576 
L 204.084606 75.225419 
L 204.287828 72.434108 
L 204.466017 70.358503 
L 204.593507 70.92241 
L 204.721175 69.338101 
L 204.74673 69.880087 
L 204.951425 73.588226 
L 204.977044 73.413957 
L 206.241171 101.210889 
L 206.267151 101.20212 
L 206.449211 103.169492 
L 206.631629 105.478276 
L 206.736029 106.838174 
L 206.788273 106.705828 
L 206.814406 106.765562 
L 207.023736 105.257975 
L 207.076142 105.843802 
L 207.102356 105.360179 
L 207.154807 105.482934 
L 207.496456 100.832759 
L 207.81294 93.860098 
L 208.103995 86.796468 
L 208.369379 80.336201 
L 208.715505 73.244073 
L 208.848971 72.137084 
L 209.036143 69.566075 
L 209.062912 69.61019 
L 209.089689 69.929408 
L 209.116474 69.147392 
L 209.143266 69.129855 
L 209.250511 69.865291 
L 209.277341 69.799529 
L 209.546066 72.5122 
L 209.84255 77.855614 
L 209.896557 78.479802 
L 210.194145 86.162689 
L 210.248353 87.422848 
L 210.574253 94.531142 
L 211.03787 102.79465 
L 211.065213 102.559004 
L 211.092563 102.95467 
L 211.202042 103.899447 
L 211.229431 103.69038 
L 211.256829 103.564884 
L 211.393934 104.812987 
L 211.586214 103.54269 
L 211.641222 103.889857 
L 211.778882 102.34336 
L 211.806438 102.377885 
L 212.027172 99.053356 
L 212.0548 99.257766 
L 212.276109 93.766114 
L 212.303809 93.659799 
L 212.636832 85.954992 
L 213.138546 74.194878 
L 213.250395 72.209696 
L 213.446445 68.76707 
L 213.502532 69.113963 
L 213.614805 68.039581 
L 213.642894 68.239058 
L 213.670991 68.39442 
L 213.699096 67.959297 
L 213.72721 67.997658 
L 213.783461 67.863668 
L 213.924233 69.361391 
L 213.952412 69.244938 
L 214.744782 82.954339 
L 214.943893 88.297753 
L 214.97237 88.211167 
L 215.229047 93.92175 
L 215.543686 99.813726 
L 215.572341 99.098567 
L 215.629674 100.386675 
L 215.658354 99.534239 
L 215.801878 101.718624 
L 215.830608 100.831389 
L 215.888094 102.235402 
L 215.91685 101.190064 
L 215.974387 102.067435 
L 216.003168 100.961542 
L 216.031958 101.379951 
L 216.060756 101.561344 
L 216.176034 99.432308 
L 216.233724 100.693563 
L 216.262581 98.939095 
L 216.291448 99.766049 
L 216.320322 99.86661 
L 216.435907 97.597282 
L 216.464825 98.073781 
L 216.493751 97.884442 
L 216.609541 95.431803 
L 216.63851 95.867201 
L 216.754472 93.565267 
L 216.957736 87.926473 
L 216.986808 88.295835 
L 217.219697 82.357825 
L 217.248847 82.624434 
L 217.45314 75.735072 
L 217.511587 75.824398 
L 217.716427 71.024341 
L 217.745725 71.268207 
L 217.775032 70.820754 
L 217.951054 68.086984 
L 218.009798 68.113837 
L 218.068577 67.288801 
L 218.09798 68.285639 
L 218.127392 67.235918 
L 218.186241 67.738447 
L 218.304045 66.567614 
L 218.363 66.813399 
L 218.392491 66.150027 
L 218.451498 67.027398 
L 218.481016 66.649816 
L 218.687883 70.678818 
L 218.747067 70.799107 
L 218.954492 75.268438 
L 218.98416 74.762347 
L 219.013837 75.981131 
L 219.311093 82.306586 
L 219.340867 82.578401 
L 219.460055 85.809494 
L 219.489875 85.165029 
L 220.058151 97.113385 
L 220.088151 96.042839 
L 220.148176 97.847177 
L 220.178203 96.563179 
L 220.328472 98.938821 
L 220.358553 97.749082 
L 220.388643 98.956358 
L 220.44885 97.827722 
L 220.569374 100.135959 
L 220.690043 97.307931 
L 220.750433 98.029117 
L 220.871321 96.189707 
L 220.901567 97.66277 
L 220.962084 95.413445 
L 220.992357 96.639901 
L 221.022638 94.416607 
L 221.113538 92.453072 
L 221.083229 94.449762 
L 221.174184 92.694198 
L 221.295586 89.363367 
L 221.32596 90.359383 
L 221.356343 89.11813 
L 221.630203 81.907632 
L 221.660678 82.307134 
L 222.149542 70.517428 
L 222.180175 70.779652 
L 222.394868 66.646254 
L 222.425576 67.234 
L 222.456293 66.954238 
L 222.579256 65.669967 
L 222.61002 65.974389 
L 222.733171 64.287053 
L 222.794802 64.081821 
L 222.856471 65.001663 
L 222.88732 63.897688 
L 222.949046 65.362531 
L 222.979923 65.072631 
L 223.103526 67.55541 
L 223.13445 66.770106 
L 223.53733 75.261314 
L 223.568387 74.73659 
L 223.692711 78.712434 
L 223.723816 78.095644 
L 223.941818 84.397535 
L 223.973 84.050368 
L 224.004191 84.885816 
L 224.12905 87.888386 
L 224.160289 86.922785 
L 224.191538 88.748495 
L 224.254064 87.994153 
L 224.379232 91.483908 
L 224.410548 90.317186 
L 224.441873 92.185367 
L 224.473208 92.333878 
L 224.504553 91.755175 
L 224.63003 95.14574 
L 224.661423 93.904762 
L 224.724239 95.715949 
L 224.755661 94.350023 
L 224.881447 96.973368 
L 224.975889 97.198602 
L 225.007389 95.200815 
L 225.101947 95.019971 
L 225.133486 96.662918 
L 225.259739 94.123693 
L 225.291327 94.641293 
L 225.322924 94.402633 
L 225.449412 91.824499 
L 225.481059 93.092604 
L 225.512715 91.280047 
L 225.544381 91.660095 
L 225.576057 91.679823 
L 225.702858 88.093892 
L 225.734583 88.831519 
L 225.861581 84.627975 
L 225.893355 85.373274 
L 226.466979 71.096679 
L 226.498942 71.460012 
L 226.690924 67.517871 
L 226.883265 64.767113 
L 226.915357 65.216211 
L 226.947459 64.47557 
L 226.979571 64.594489 
L 227.043824 63.451057 
L 227.14028 63.831653 
L 227.172452 63.838777 
L 227.301241 62.719732 
L 227.365695 62.272826 
L 227.882786 70.401249 
L 228.077363 75.601083 
L 228.109829 75.658076 
L 228.239791 78.712982 
L 228.695947 87.223371 
L 228.728607 86.520816 
L 228.859347 90.429529 
L 228.892058 89.297879 
L 228.957511 90.79478 
L 228.990252 90.131957 
L 229.121322 92.777496 
L 229.154116 91.908893 
L 229.186919 93.604176 
L 229.219733 93.044105 
L 229.252558 92.617202 
L 229.285392 94.242338 
L 229.351093 93.241664 
L 229.383959 93.484161 
L 229.416835 92.353881 
L 229.449721 94.00861 
L 229.515526 92.62597 
L 229.548443 93.422509 
L 229.581371 91.855736 
L 229.61431 93.39456 
L 229.845171 89.383643 
L 229.878193 90.781628 
L 229.944268 89.316785 
L 229.977321 89.620659 
L 230.109638 86.692071 
L 230.142744 87.335166 
L 230.341597 81.869271 
L 230.574072 78.10359 
L 230.773746 71.958431 
L 230.807063 71.859789 
L 231.442086 62.188432 
L 231.542704 62.205146 
L 231.677012 63.317341 
L 231.710616 62.57396 
L 231.777855 62.847693 
L 231.845137 63.291037 
L 231.878795 63.200614 
L 232.013532 65.311839 
L 232.047243 64.997005 
L 232.249736 69.144652 
L 232.31732 69.577857 
L 232.520332 73.510408 
L 232.554205 73.153103 
L 232.757672 79.101524 
L 232.825582 79.249762 
L 233.029572 84.571529 
L 233.063608 83.962959 
L 233.199864 87.512448 
L 233.233955 86.486839 
L 233.268057 88.236375 
L 233.336294 87.715762 
L 233.438733 89.515989 
L 233.472901 89.426388 
L 233.50708 89.403646 
L 233.643906 91.197297 
L 233.67814 90.707646 
L 233.780908 92.066995 
L 233.746641 90.590371 
L 233.815186 91.828335 
L 233.883776 92.138785 
L 233.918087 90.988503 
L 233.952409 92.032745 
L 234.021087 90.753953 
L 234.055443 91.967531 
L 234.192976 89.468585 
L 234.227387 90.223749 
L 234.365143 87.492446 
L 234.399609 88.26679 
L 234.537588 84.708259 
L 234.57211 85.084197 
L 234.779479 80.056165 
L 234.81408 80.149602 
L 235.230163 71.231764 
L 235.26491 71.43453 
L 235.473627 66.844636 
L 235.508452 67.043291 
L 235.717645 63.388309 
L 235.75255 63.467771 
L 235.962218 62.208982 
L 236.102225 63.129098 
L 236.137255 62.51998 
L 236.242414 62.565466 
L 236.27749 62.57944 
L 236.312577 62.74905 
L 236.488185 65.471586 
L 236.734518 69.361117 
L 237.193491 79.356899 
L 237.228877 79.123719 
L 237.44144 83.83582 
L 237.476908 83.360692 
L 237.618895 86.621651 
L 237.654421 85.972254 
L 237.796641 88.716984 
L 237.832225 88.723286 
L 237.939048 90.717784 
L 237.974679 90.216625 
L 238.045976 91.013164 
L 238.081642 90.111406 
L 238.11732 91.176198 
L 238.153009 90.453915 
L 238.295885 91.69736 
L 238.438949 90.32705 
L 238.474744 90.2717 
L 238.582201 88.580254 
L 238.618044 88.864674 
L 239.229179 78.958492 
L 239.445694 73.539453 
L 239.481822 73.941695 
L 239.771273 67.46992 
L 240.279663 61.965664 
L 240.316067 61.905108 
L 240.352484 61.381755 
L 240.388912 61.920727 
L 240.425352 61.877708 
L 240.644248 63.351866 
L 240.680773 63.135126 
L 240.717311 63.370499 
L 241.266832 73.237497 
L 241.819109 84.794297 
L 241.892955 85.485343 
L 242.188835 89.183618 
L 242.522648 91.851078 
L 242.596965 92.124537 
L 242.634143 91.195653 
L 242.671333 91.708046 
L 242.708535 90.700796 
L 242.74575 90.788204 
L 243.118588 87.274884 
L 243.492681 80.414019 
L 243.717742 75.861389 
L 244.320138 65.077837 
L 244.546877 63.227193 
L 244.811989 62.521898 
L 245.07773 65.295125 
L 246.646974 91.953008 
L 246.685523 91.924512 
L 246.801249 92.548152 
L 246.83985 92.516641 
L 246.878465 92.711186 
L 246.917093 92.339359 
L 246.955734 92.297161 
L 247.110431 91.493224 
L 247.149139 91.744215 
L 247.965066 79.071383 
L 248.669132 66.904369 
L 249.022805 64.144569 
L 249.614709 70.408647 
L 250.967801 94.497987 
L 251.00784 94.406195 
L 251.208246 95.504141 
L 251.248369 95.51839 
L 251.489402 94.166164 
L 251.529623 94.235762 
L 252.2965 81.451958 
L 252.905543 68.646781 
L 253.190862 66.191402 
L 253.272511 66.256616 
L 253.395092 67.295925 
L 253.435981 67.202489 
L 253.640642 68.055747 
L 254.339193 81.099859 
L 254.917628 93.594859 
L 255.041952 94.498261 
L 255.249452 97.005427 
L 255.290996 97.062694 
L 255.498938 98.793871 
L 255.707249 97.662496 
L 255.748956 97.877866 
L 256.250595 91.191269 
L 257.218086 72.294912 
L 257.556472 68.751999 
L 257.683617 68.808993 
L 257.89583 69.982292 
L 259.349027 98.097071 
L 259.69355 101.593129 
L 259.736685 101.450645 
L 259.779836 101.800552 
L 259.823003 101.369813 
L 259.866185 101.326794 
L 259.952597 101.441055 
L 259.995826 100.874408 
L 260.039071 101.157183 
L 260.255529 98.798804 
L 260.298868 98.726192 
L 260.776633 88.604915 
L 261.431214 75.267616 
L 261.518761 73.835106 
L 261.737909 71.964733 
L 261.781787 72.085571 
L 261.913515 71.577013 
L 262.353653 76.688069 
L 263.639196 103.717506 
L 263.683769 103.551458 
L 263.817587 105.289211 
L 263.862226 104.960677 
L 263.996241 105.919428 
L 264.040946 105.880519 
L 264.130404 106.503611 
L 264.623606 100.519569 
L 264.893469 95.198623 
L 265.254219 86.860311 
L 265.616036 79.549526 
L 266.024365 74.768375 
L 266.069819 75.382151 
L 266.160777 75.33557 
L 266.206282 75.169795 
L 266.388469 76.476536 
L 266.434058 76.373783 
L 267.119934 90.149493 
L 267.395359 97.049542 
L 267.533303 100.014573 
L 267.763552 105.726801 
L 268.271618 109.716893 
L 268.31791 109.054344 
L 268.410545 109.157097 
L 268.781781 105.279621 
L 269.480859 90.49255 
L 270.136899 78.575156 
L 270.324976 76.93495 
L 270.37204 77.090312 
L 270.419121 76.824799 
L 271.174848 88.405164 
L 271.601961 98.950604 
L 271.982842 107.90461 
L 272.030534 108.248489 
L 272.221481 110.594264 
L 272.269264 110.66852 
L 272.41272 111.921281 
L 272.460575 111.598226 
L 272.508448 111.901552 
L 272.55634 111.837435 
L 273.03626 107.762126 
L 273.180594 105.428133 
L 273.807953 90.948772 
L 273.904747 89.249106 
L 274.244111 82.321382 
L 274.53572 79.605697 
L 274.584386 79.580489 
L 274.633072 79.354433 
L 274.681776 79.535004 
L 274.730499 79.606519 
L 274.925577 81.928182 
L 275.218758 86.416968 
L 276.348918 111.80702 
L 276.497071 112.789336 
L 276.694877 113.944276 
L 277.041774 112.826327 
L 277.63865 102.104974 
L 278.238315 87.268856 
L 278.639651 81.577179 
L 278.740181 80.901477 
L 278.790475 81.079034 
L 279.092653 82.858163 
L 279.294499 86.136384 
L 279.952685 101.81069 
L 280.41032 110.810456 
L 280.818467 115.40857 
L 280.920704 115.848078 
L 281.38177 110.698113 
L 281.690057 105.151112 
L 282.671133 84.065164 
L 282.878617 82.444138 
L 282.93054 82.280829 
L 282.982483 82.410161 
L 283.034446 82.372622 
L 283.086431 82.460852 
L 283.138436 82.496473 
L 284.866249 115.674905 
L 285.024453 116.022894 
L 285.130028 115.328012 
L 285.341431 113.399276 
L 286.884281 82.774864 
L 286.991349 82.613474 
L 287.205743 83.38864 
L 287.689395 90.429255 
L 288.391115 107.343717 
L 288.770495 113.392425 
L 289.042141 114.805754 
L 289.150954 114.755611 
L 289.58709 110.876218 
L 290.738725 84.561939 
L 290.959204 82.554289 
L 291.069579 82.338371 
L 291.345912 83.214098 
L 291.789222 91.265524 
L 292.568524 109.262041 
L 293.015856 113.33324 
L 293.071876 113.177604 
L 293.127919 113.301455 
L 293.183985 113.641224 
L 293.240075 113.580394 
L 293.745922 107.325085 
L 294.706557 85.061454 
L 295.047223 81.659381 
L 295.160966 81.2955 
L 295.502764 84.165725 
L 295.673983 86.74331 
L 295.959823 92.848738 
L 296.418406 103.425963 
L 296.99379 111.746738 
L 297.051461 111.778797 
L 297.109155 112.030884 
L 297.166874 111.967314 
L 297.513695 109.05544 
L 298.209956 94.362902 
L 298.676081 84.521386 
L 299.026705 79.579119 
L 299.143777 79.561308 
L 299.495583 82.418655 
L 299.789436 87.086641 
L 300.497219 102.760399 
L 300.79319 106.889413 
L 301.030419 108.552363 
L 301.089789 108.390425 
L 301.149184 108.318635 
L 301.26805 108.517564 
L 301.863896 99.910177 
L 302.822537 79.1081 
L 303.003012 77.701622 
L 303.063221 77.751491 
L 303.364654 79.703518 
L 303.84829 87.962368 
L 304.69865 104.288537 
L 304.881536 105.373058 
L 304.94255 105.588153 
L 305.003591 105.408679 
L 305.064657 105.400732 
L 305.125751 105.113847 
L 305.18687 105.369222 
L 305.43161 102.764509 
L 305.738129 96.97008 
L 306.599908 80.052603 
L 306.908951 76.729444 
L 307.218664 77.373361 
L 307.342737 78.628862 
L 307.653391 84.869101 
L 308.339208 98.74318 
L 308.840048 103.219361 
L 308.902776 103.292247 
L 309.216826 101.408996 
L 309.594591 94.845976 
L 310.606823 76.046892 
L 310.733851 75.288714 
L 310.797407 75.435856 
L 311.115606 78.026868 
L 311.434504 82.950503 
L 312.459706 100.192678 
L 312.652738 101.294735 
L 312.781567 101.651492 
L 312.846025 101.598609 
L 312.975026 100.174594 
L 313.23337 95.110941 
L 314.076153 78.139759 
L 314.33645 76.263084 
L 314.466772 76.069909 
L 314.662472 75.659994 
L 314.793083 76.467219 
L 314.923811 77.928226 
L 316.105619 100.123902 
L 316.369535 101.400502 
L 316.832524 97.596734 
L 317.23053 90.000159 
L 317.762872 79.674199 
L 318.029761 76.783424 
L 318.163386 76.310213 
L 318.430997 77.140455 
L 318.833317 83.258761 
L 319.371441 94.556899 
L 319.776311 101.465167 
L 319.843896 101.666015 
L 319.911512 102.229373 
L 319.979158 102.040856 
L 320.046835 102.258418 
L 320.182281 101.869876 
L 320.521434 99.073633 
L 321.680326 78.33403 
L 321.817256 77.662713 
L 321.954311 77.78355 
L 322.09149 79.523221 
L 322.71035 89.741497 
L 323.400962 103.279643 
L 323.678092 104.512401 
L 324.164295 100.102804 
L 324.582286 91.970545 
L 325.141402 81.824607 
L 325.351602 80.182482 
L 325.421734 80.344147 
L 325.491897 80.010132 
L 325.702582 81.702674 
L 326.054372 87.4086 
L 326.831177 103.870402 
L 327.114633 106.170418 
L 327.32757 106.471278 
L 327.469693 105.85942 
L 327.611948 104.92122 
L 328.253731 93.576501 
L 328.826465 84.305194 
L 328.969982 84.557829 
L 329.041791 84.290672 
L 329.257419 85.474383 
L 329.473348 88.038542 
L 330.6301 111.058432 
L 330.775305 111.88155 
L 330.847958 111.704541 
L 331.066122 110.674 
L 331.430413 104.781476 
L 332.234873 89.450775 
L 332.528438 87.237345 
L 332.748976 88.219387 
L 333.338606 99.215569 
L 333.634259 106.00163 
L 333.930471 112.425454 
L 334.152999 115.746421 
L 334.375844 116.580773 
L 334.673464 114.612853 
L 334.89705 111.081723 
L 335.794591 93.043009 
L 335.944681 91.809155 
L 336.019779 91.804497 
L 336.170083 90.926578 
L 336.621858 98.086111 
L 337.226243 112.868798 
L 337.681052 120.822404 
L 337.832946 121.766359 
L 338.21332 118.205909 
L 338.747379 107.358788 
L 339.129952 99.067605 
L 339.436675 96.183131 
L 339.513448 95.83843 
L 339.743989 97.492885 
L 340.051898 102.812735 
L 341.056721 125.919485 
L 341.211871 126.583405 
L 341.289502 126.611353 
L 341.600405 123.164891 
L 341.911912 116.654755 
L 342.458508 103.542416 
L 342.850075 100.47929 
L 342.928503 100.65164 
L 343.085473 101.517229 
L 343.399874 107.932285 
L 344.505126 130.762836 
L 344.584363 130.711323 
L 344.901698 127.807121 
L 345.219656 121.679772 
L 346.097268 103.739427 
L 346.177286 103.961099 
L 346.57797 111.058432 
L 347.543653 131.833108 
L 347.785969 133.684026 
L 347.866821 133.506744 
L 347.947713 133.301238 
L 348.271682 128.450215 
L 349.247453 110.595086 
L 349.32903 110.05447 
L 349.410647 110.100777 
L 349.492305 109.9772 
L 349.655743 112.287081 
L 350.147034 122.704559 
L 350.886731 137.273246 
L 351.05156 137.810848 
L 351.381712 134.385211 
L 352.376143 112.923051 
L 352.459283 112.301055 
L 352.542464 112.515602 
L 352.792258 115.144153 
L 353.879064 138.747679 
L 354.046898 139.316792 
L 354.2149 139.118685 
L 354.383072 137.419566 
L 354.551414 135.342866 
L 354.888608 127.964675 
L 355.311061 119.107941 
L 355.39568 118.898874 
L 355.565046 117.236746 
L 355.649794 117.440059 
L 355.989213 122.527824 
L 356.670122 137.823727 
L 356.840782 139.663411 
L 357.011616 140.983577 
L 357.097098 141.040023 
L 357.268192 140.907129 
L 357.439461 138.973735 
L 358.298428 122.65469 
L 358.470748 121.52989 
L 358.556974 121.122442 
L 358.643244 121.370966 
L 358.988766 126.478734 
L 359.942608 145.406327 
L 360.029588 145.489077 
L 360.377954 141.824779 
L 361.076839 125.927705 
L 361.339663 123.922795 
L 361.515106 124.849761 
L 362.748283 147.170385 
L 363.013698 146.654978 
L 363.279526 142.716125 
L 363.990424 128.168536 
L 364.079494 128.187717 
L 364.436237 131.574993 
L 365.331349 147.977336 
L 365.510931 148.652764 
L 365.690701 147.550981 
L 365.870658 145.640329 
L 366.592372 132.215074 
L 366.682798 131.734465 
L 366.773272 131.947917 
L 366.954362 133.664298 
L 368.044897 151.39859 
L 368.136086 151.454761 
L 368.409939 148.203392 
L 369.14233 135.814158 
L 369.234096 135.830325 
L 369.32591 135.983495 
L 369.417773 136.392861 
L 370.431471 153.205941 
L 370.523918 153.714772 
L 370.986888 147.294236 
L 371.358147 140.810405 
L 371.544072 139.7215 
L 371.637109 139.882891 
L 371.823331 142.003158 
L 372.663781 156.45457 
L 372.757413 156.945591 
L 373.038608 155.317166 
L 373.414236 149.754273 
L 373.60235 147.583314 
L 373.696482 147.987749 
L 373.790665 147.999257 
L 374.073516 151.756717 
L 374.640579 161.380671 
L 374.735267 162.160221 
L 374.830005 162.042946 
L 374.924794 162.030342 
L 375.30446 158.817608 
L 375.68494 156.701725 
L 375.875487 158.920635 
L 376.352751 169.277558 
L 376.735487 174.841821 
L 376.927165 176.201993 
L 377.119049 175.242968 
L 377.215069 175.107882 
L 377.31114 175.396138 
L 377.407264 175.275027 
L 377.695945 179.331155 
L 378.468053 197.283008 
L 379.243511 211.445891 
L 379.827316 226.331056 
L 382.181686 284.195041 
L 382.676074 290.292906 
L 383.271129 293.921559 
L 383.569391 294.6735 
L 383.868145 295.050561 
L 384.26725 295.284653 
L 385.268863 295.127042 
L 385.671057 295.351368 
L 386.478114 295.258346 
L 386.781682 295.242515 
L 386.984342 295.265533 
L 387.288752 295.287532 
L 388.205028 295.318512 
L 388.920862 295.175451 
L 389.331165 295.343437 
L 389.536659 295.343934 
L 389.845332 295.218667 
L 390.2577 295.255441 
L 390.46423 295.343615 
L 390.981567 295.244076 
L 392.229107 295.310062 
L 392.542308 295.26731 
L 392.856037 295.322509 
L 394.961183 295.315686 
L 395.279013 295.317704 
L 395.491199 295.258756 
L 395.916295 295.321473 
L 396.449023 295.27766 
L 396.769387 295.163767 
L 398.056331 295.340677 
L 398.487273 295.250985 
L 398.487273 295.250985 
" style="fill:none;stroke:#0000ff;stroke-linecap:square;stroke-opacity:0.5;stroke-width:0.8;"/>
   </g>
   <g id="patch_3">
    <path d="M 57.6 307.584 
L 57.6 41.472 
" style="fill:none;stroke:#000000;stroke-linecap:square;stroke-linejoin:miter;stroke-width:0.8;"/>
   </g>
   <g id="patch_4">
    <path d="M 414.72 307.584 
L 414.72 41.472 
" style="fill:none;stroke:#000000;stroke-linecap:square;stroke-linejoin:miter;stroke-width:0.8;"/>
   </g>
   <g id="patch_5">
    <path d="M 57.6 307.584 
L 414.72 307.584 
" style="fill:none;stroke:#000000;stroke-linecap:square;stroke-linejoin:miter;stroke-width:0.8;"/>
   </g>
   <g id="patch_6">
    <path d="M 57.6 41.472 
L 414.72 41.472 
" style="fill:none;stroke:#000000;stroke-linecap:square;stroke-linejoin:miter;stroke-width:0.8;"/>
   </g>
   <g id="text_15">
    <!-- Transmission at normal incidence -->
    <defs>
     <path d="M -0.296875 72.90625 
L 61.375 72.90625 
L 61.375 64.59375 
L 35.5 64.59375 
L 35.5 0 
L 25.59375 0 
L 25.59375 64.59375 
L -0.296875 64.59375 
z
" id="DejaVuSans-84"/>
     <path d="M 9.421875 75.984375 
L 18.40625 75.984375 
L 18.40625 0 
L 9.421875 0 
z
" id="DejaVuSans-108"/>
    </defs>
    <g transform="translate(135.902812 35.472)scale(0.12 -0.12)">
     <use xlink:href="#DejaVuSans-84"/>
     <use x="46.333984" xlink:href="#DejaVuSans-114"/>
     <use x="87.447266" xlink:href="#DejaVuSans-97"/>
     <use x="148.726562" xlink:href="#DejaVuSans-110"/>
     <use x="212.105469" xlink:href="#DejaVuSans-115"/>
     <use x="264.205078" xlink:href="#DejaVuSans-109"/>
     <use x="361.617188" xlink:href="#DejaVuSans-105"/>
     <use x="389.400391" xlink:href="#DejaVuSans-115"/>
     <use x="441.5" xlink:href="#DejaVuSans-115"/>
     <use x="493.599609" xlink:href="#DejaVuSans-105"/>
     <use x="521.382812" xlink:href="#DejaVuSans-111"/>
     <use x="582.564453" xlink:href="#DejaVuSans-110"/>
     <use x="645.943359" xlink:href="#DejaVuSans-32"/>
     <use x="677.730469" xlink:href="#DejaVuSans-97"/>
     <use x="739.009766" xlink:href="#DejaVuSans-116"/>
     <use x="778.21875" xlink:href="#DejaVuSans-32"/>
     <use x="810.005859" xlink:href="#DejaVuSans-110"/>
     <use x="873.384766" xlink:href="#DejaVuSans-111"/>
     <use x="934.566406" xlink:href="#DejaVuSans-114"/>
     <use x="973.929688" xlink:href="#DejaVuSans-109"/>
     <use x="1071.341797" xlink:href="#DejaVuSans-97"/>
     <use x="1132.621094" xlink:href="#DejaVuSans-108"/>
     <use x="1160.404297" xlink:href="#DejaVuSans-32"/>
     <use x="1192.191406" xlink:href="#DejaVuSans-105"/>
     <use x="1219.974609" xlink:href="#DejaVuSans-110"/>
     <use x="1283.353516" xlink:href="#DejaVuSans-99"/>
     <use x="1338.333984" xlink:href="#DejaVuSans-105"/>
     <use x="1366.117188" xlink:href="#DejaVuSans-100"/>
     <use x="1429.59375" xlink:href="#DejaVuSans-101"/>
     <use x="1491.117188" xlink:href="#DejaVuSans-110"/>
     <use x="1554.496094" xlink:href="#DejaVuSans-99"/>
     <use x="1609.476562" xlink:href="#DejaVuSans-101"/>
    </g>
   </g>
  </g>
 </g>
 <defs>
  <clipPath id="p280175a165">
   <rect height="266.112" width="357.12" x="57.6" y="41.472"/>
  </clipPath>
 </defs>
</svg>
