<?xml version="1.0" encoding="utf-8" standalone="no"?>
<!DOCTYPE svg PUBLIC "-//W3C//DTD SVG 1.1//EN"
  "http://www.w3.org/Graphics/SVG/1.1/DTD/svg11.dtd">
<!-- Created with matplotlib (https://matplotlib.org/) -->
<svg height="345.6pt" version="1.1" viewBox="0 0 460.8 345.6" width="460.8pt" xmlns="http://www.w3.org/2000/svg" xmlns:xlink="http://www.w3.org/1999/xlink">
 <defs>
  <style type="text/css">
*{stroke-linecap:butt;stroke-linejoin:round;}
  </style>
 </defs>
 <g id="figure_1">
  <g id="patch_1">
   <path d="M 0 345.6 
L 460.8 345.6 
L 460.8 0 
L 0 0 
z
" style="fill:#ffffff;"/>
  </g>
  <g id="axes_1">
   <g id="patch_2">
    <path d="M 57.6 307.584 
L 414.72 307.584 
L 414.72 41.472 
L 57.6 41.472 
z
" style="fill:#ffffff;"/>
   </g>
   <g id="matplotlib.axis_1">
    <g id="xtick_1">
     <g id="line2d_1">
      <defs>
       <path d="M 0 0 
L 0 3.5 
" id="mcbe1157440" style="stroke:#000000;stroke-width:0.8;"/>
      </defs>
      <g>
       <use style="stroke:#000000;stroke-width:0.8;" x="74.406955" xlink:href="#mcbe1157440" y="307.584"/>
      </g>
     </g>
     <g id="text_1">
      <!-- 0.5 -->
      <defs>
       <path d="M 31.78125 66.40625 
Q 24.171875 66.40625 20.328125 58.90625 
Q 16.5 51.421875 16.5 36.375 
Q 16.5 21.390625 20.328125 13.890625 
Q 24.171875 6.390625 31.78125 6.390625 
Q 39.453125 6.390625 43.28125 13.890625 
Q 47.125 21.390625 47.125 36.375 
Q 47.125 51.421875 43.28125 58.90625 
Q 39.453125 66.40625 31.78125 66.40625 
z
M 31.78125 74.21875 
Q 44.046875 74.21875 50.515625 64.515625 
Q 56.984375 54.828125 56.984375 36.375 
Q 56.984375 17.96875 50.515625 8.265625 
Q 44.046875 -1.421875 31.78125 -1.421875 
Q 19.53125 -1.421875 13.0625 8.265625 
Q 6.59375 17.96875 6.59375 36.375 
Q 6.59375 54.828125 13.0625 64.515625 
Q 19.53125 74.21875 31.78125 74.21875 
z
" id="DejaVuSans-48"/>
       <path d="M 10.6875 12.40625 
L 21 12.40625 
L 21 0 
L 10.6875 0 
z
" id="DejaVuSans-46"/>
       <path d="M 10.796875 72.90625 
L 49.515625 72.90625 
L 49.515625 64.59375 
L 19.828125 64.59375 
L 19.828125 46.734375 
Q 21.96875 47.46875 24.109375 47.828125 
Q 26.265625 48.1875 28.421875 48.1875 
Q 40.625 48.1875 47.75 41.5 
Q 54.890625 34.8125 54.890625 23.390625 
Q 54.890625 11.625 47.5625 5.09375 
Q 40.234375 -1.421875 26.90625 -1.421875 
Q 22.3125 -1.421875 17.546875 -0.640625 
Q 12.796875 0.140625 7.71875 1.703125 
L 7.71875 11.625 
Q 12.109375 9.234375 16.796875 8.0625 
Q 21.484375 6.890625 26.703125 6.890625 
Q 35.15625 6.890625 40.078125 11.328125 
Q 45.015625 15.765625 45.015625 23.390625 
Q 45.015625 31 40.078125 35.4375 
Q 35.15625 39.890625 26.703125 39.890625 
Q 22.75 39.890625 18.8125 39.015625 
Q 14.890625 38.140625 10.796875 36.28125 
z
" id="DejaVuSans-53"/>
      </defs>
      <g transform="translate(66.455392 322.182437)scale(0.1 -0.1)">
       <use xlink:href="#DejaVuSans-48"/>
       <use x="63.623047" xlink:href="#DejaVuSans-46"/>
       <use x="95.410156" xlink:href="#DejaVuSans-53"/>
      </g>
     </g>
    </g>
    <g id="xtick_2">
     <g id="line2d_2">
      <g>
       <use style="stroke:#000000;stroke-width:0.8;" x="127.831922" xlink:href="#mcbe1157440" y="307.584"/>
      </g>
     </g>
     <g id="text_2">
      <!-- 1.0 -->
      <defs>
       <path d="M 12.40625 8.296875 
L 28.515625 8.296875 
L 28.515625 63.921875 
L 10.984375 60.40625 
L 10.984375 69.390625 
L 28.421875 72.90625 
L 38.28125 72.90625 
L 38.28125 8.296875 
L 54.390625 8.296875 
L 54.390625 0 
L 12.40625 0 
z
" id="DejaVuSans-49"/>
      </defs>
      <g transform="translate(119.880359 322.182437)scale(0.1 -0.1)">
       <use xlink:href="#DejaVuSans-49"/>
       <use x="63.623047" xlink:href="#DejaVuSans-46"/>
       <use x="95.410156" xlink:href="#DejaVuSans-48"/>
      </g>
     </g>
    </g>
    <g id="xtick_3">
     <g id="line2d_3">
      <g>
       <use style="stroke:#000000;stroke-width:0.8;" x="181.256889" xlink:href="#mcbe1157440" y="307.584"/>
      </g>
     </g>
     <g id="text_3">
      <!-- 1.5 -->
      <g transform="translate(173.305327 322.182437)scale(0.1 -0.1)">
       <use xlink:href="#DejaVuSans-49"/>
       <use x="63.623047" xlink:href="#DejaVuSans-46"/>
       <use x="95.410156" xlink:href="#DejaVuSans-53"/>
      </g>
     </g>
    </g>
    <g id="xtick_4">
     <g id="line2d_4">
      <g>
       <use style="stroke:#000000;stroke-width:0.8;" x="234.681856" xlink:href="#mcbe1157440" y="307.584"/>
      </g>
     </g>
     <g id="text_4">
      <!-- 2.0 -->
      <defs>
       <path d="M 19.1875 8.296875 
L 53.609375 8.296875 
L 53.609375 0 
L 7.328125 0 
L 7.328125 8.296875 
Q 12.9375 14.109375 22.625 23.890625 
Q 32.328125 33.6875 34.8125 36.53125 
Q 39.546875 41.84375 41.421875 45.53125 
Q 43.3125 49.21875 43.3125 52.78125 
Q 43.3125 58.59375 39.234375 62.25 
Q 35.15625 65.921875 28.609375 65.921875 
Q 23.96875 65.921875 18.8125 64.3125 
Q 13.671875 62.703125 7.8125 59.421875 
L 7.8125 69.390625 
Q 13.765625 71.78125 18.9375 73 
Q 24.125 74.21875 28.421875 74.21875 
Q 39.75 74.21875 46.484375 68.546875 
Q 53.21875 62.890625 53.21875 53.421875 
Q 53.21875 48.921875 51.53125 44.890625 
Q 49.859375 40.875 45.40625 35.40625 
Q 44.1875 33.984375 37.640625 27.21875 
Q 31.109375 20.453125 19.1875 8.296875 
z
" id="DejaVuSans-50"/>
      </defs>
      <g transform="translate(226.730294 322.182437)scale(0.1 -0.1)">
       <use xlink:href="#DejaVuSans-50"/>
       <use x="63.623047" xlink:href="#DejaVuSans-46"/>
       <use x="95.410156" xlink:href="#DejaVuSans-48"/>
      </g>
     </g>
    </g>
    <g id="xtick_5">
     <g id="line2d_5">
      <g>
       <use style="stroke:#000000;stroke-width:0.8;" x="288.106824" xlink:href="#mcbe1157440" y="307.584"/>
      </g>
     </g>
     <g id="text_5">
      <!-- 2.5 -->
      <g transform="translate(280.155261 322.182437)scale(0.1 -0.1)">
       <use xlink:href="#DejaVuSans-50"/>
       <use x="63.623047" xlink:href="#DejaVuSans-46"/>
       <use x="95.410156" xlink:href="#DejaVuSans-53"/>
      </g>
     </g>
    </g>
    <g id="xtick_6">
     <g id="line2d_6">
      <g>
       <use style="stroke:#000000;stroke-width:0.8;" x="341.531791" xlink:href="#mcbe1157440" y="307.584"/>
      </g>
     </g>
     <g id="text_6">
      <!-- 3.0 -->
      <defs>
       <path d="M 40.578125 39.3125 
Q 47.65625 37.796875 51.625 33 
Q 55.609375 28.21875 55.609375 21.1875 
Q 55.609375 10.40625 48.1875 4.484375 
Q 40.765625 -1.421875 27.09375 -1.421875 
Q 22.515625 -1.421875 17.65625 -0.515625 
Q 12.796875 0.390625 7.625 2.203125 
L 7.625 11.71875 
Q 11.71875 9.328125 16.59375 8.109375 
Q 21.484375 6.890625 26.8125 6.890625 
Q 36.078125 6.890625 40.9375 10.546875 
Q 45.796875 14.203125 45.796875 21.1875 
Q 45.796875 27.640625 41.28125 31.265625 
Q 36.765625 34.90625 28.71875 34.90625 
L 20.21875 34.90625 
L 20.21875 43.015625 
L 29.109375 43.015625 
Q 36.375 43.015625 40.234375 45.921875 
Q 44.09375 48.828125 44.09375 54.296875 
Q 44.09375 59.90625 40.109375 62.90625 
Q 36.140625 65.921875 28.71875 65.921875 
Q 24.65625 65.921875 20.015625 65.03125 
Q 15.375 64.15625 9.8125 62.3125 
L 9.8125 71.09375 
Q 15.4375 72.65625 20.34375 73.4375 
Q 25.25 74.21875 29.59375 74.21875 
Q 40.828125 74.21875 47.359375 69.109375 
Q 53.90625 64.015625 53.90625 55.328125 
Q 53.90625 49.265625 50.4375 45.09375 
Q 46.96875 40.921875 40.578125 39.3125 
z
" id="DejaVuSans-51"/>
      </defs>
      <g transform="translate(333.580228 322.182437)scale(0.1 -0.1)">
       <use xlink:href="#DejaVuSans-51"/>
       <use x="63.623047" xlink:href="#DejaVuSans-46"/>
       <use x="95.410156" xlink:href="#DejaVuSans-48"/>
      </g>
     </g>
    </g>
    <g id="xtick_7">
     <g id="line2d_7">
      <g>
       <use style="stroke:#000000;stroke-width:0.8;" x="394.956758" xlink:href="#mcbe1157440" y="307.584"/>
      </g>
     </g>
     <g id="text_7">
      <!-- 3.5 -->
      <g transform="translate(387.005196 322.182437)scale(0.1 -0.1)">
       <use xlink:href="#DejaVuSans-51"/>
       <use x="63.623047" xlink:href="#DejaVuSans-46"/>
       <use x="95.410156" xlink:href="#DejaVuSans-53"/>
      </g>
     </g>
    </g>
    <g id="text_8">
     <!-- Energy (eV) -->
     <defs>
      <path d="M 9.8125 72.90625 
L 55.90625 72.90625 
L 55.90625 64.59375 
L 19.671875 64.59375 
L 19.671875 43.015625 
L 54.390625 43.015625 
L 54.390625 34.71875 
L 19.671875 34.71875 
L 19.671875 8.296875 
L 56.78125 8.296875 
L 56.78125 0 
L 9.8125 0 
z
" id="DejaVuSans-69"/>
      <path d="M 54.890625 33.015625 
L 54.890625 0 
L 45.90625 0 
L 45.90625 32.71875 
Q 45.90625 40.484375 42.875 44.328125 
Q 39.84375 48.1875 33.796875 48.1875 
Q 26.515625 48.1875 22.3125 43.546875 
Q 18.109375 38.921875 18.109375 30.90625 
L 18.109375 0 
L 9.078125 0 
L 9.078125 54.6875 
L 18.109375 54.6875 
L 18.109375 46.1875 
Q 21.34375 51.125 25.703125 53.5625 
Q 30.078125 56 35.796875 56 
Q 45.21875 56 50.046875 50.171875 
Q 54.890625 44.34375 54.890625 33.015625 
z
" id="DejaVuSans-110"/>
      <path d="M 56.203125 29.59375 
L 56.203125 25.203125 
L 14.890625 25.203125 
Q 15.484375 15.921875 20.484375 11.0625 
Q 25.484375 6.203125 34.421875 6.203125 
Q 39.59375 6.203125 44.453125 7.46875 
Q 49.3125 8.734375 54.109375 11.28125 
L 54.109375 2.78125 
Q 49.265625 0.734375 44.1875 -0.34375 
Q 39.109375 -1.421875 33.890625 -1.421875 
Q 20.796875 -1.421875 13.15625 6.1875 
Q 5.515625 13.8125 5.515625 26.8125 
Q 5.515625 40.234375 12.765625 48.109375 
Q 20.015625 56 32.328125 56 
Q 43.359375 56 49.78125 48.890625 
Q 56.203125 41.796875 56.203125 29.59375 
z
M 47.21875 32.234375 
Q 47.125 39.59375 43.09375 43.984375 
Q 39.0625 48.390625 32.421875 48.390625 
Q 24.90625 48.390625 20.390625 44.140625 
Q 15.875 39.890625 15.1875 32.171875 
z
" id="DejaVuSans-101"/>
      <path d="M 41.109375 46.296875 
Q 39.59375 47.171875 37.8125 47.578125 
Q 36.03125 48 33.890625 48 
Q 26.265625 48 22.1875 43.046875 
Q 18.109375 38.09375 18.109375 28.8125 
L 18.109375 0 
L 9.078125 0 
L 9.078125 54.6875 
L 18.109375 54.6875 
L 18.109375 46.1875 
Q 20.953125 51.171875 25.484375 53.578125 
Q 30.03125 56 36.53125 56 
Q 37.453125 56 38.578125 55.875 
Q 39.703125 55.765625 41.0625 55.515625 
z
" id="DejaVuSans-114"/>
      <path d="M 45.40625 27.984375 
Q 45.40625 37.75 41.375 43.109375 
Q 37.359375 48.484375 30.078125 48.484375 
Q 22.859375 48.484375 18.828125 43.109375 
Q 14.796875 37.75 14.796875 27.984375 
Q 14.796875 18.265625 18.828125 12.890625 
Q 22.859375 7.515625 30.078125 7.515625 
Q 37.359375 7.515625 41.375 12.890625 
Q 45.40625 18.265625 45.40625 27.984375 
z
M 54.390625 6.78125 
Q 54.390625 -7.171875 48.1875 -13.984375 
Q 42 -20.796875 29.203125 -20.796875 
Q 24.46875 -20.796875 20.265625 -20.09375 
Q 16.0625 -19.390625 12.109375 -17.921875 
L 12.109375 -9.1875 
Q 16.0625 -11.328125 19.921875 -12.34375 
Q 23.78125 -13.375 27.78125 -13.375 
Q 36.625 -13.375 41.015625 -8.765625 
Q 45.40625 -4.15625 45.40625 5.171875 
L 45.40625 9.625 
Q 42.625 4.78125 38.28125 2.390625 
Q 33.9375 0 27.875 0 
Q 17.828125 0 11.671875 7.65625 
Q 5.515625 15.328125 5.515625 27.984375 
Q 5.515625 40.671875 11.671875 48.328125 
Q 17.828125 56 27.875 56 
Q 33.9375 56 38.28125 53.609375 
Q 42.625 51.21875 45.40625 46.390625 
L 45.40625 54.6875 
L 54.390625 54.6875 
z
" id="DejaVuSans-103"/>
      <path d="M 32.171875 -5.078125 
Q 28.375 -14.84375 24.75 -17.8125 
Q 21.140625 -20.796875 15.09375 -20.796875 
L 7.90625 -20.796875 
L 7.90625 -13.28125 
L 13.1875 -13.28125 
Q 16.890625 -13.28125 18.9375 -11.515625 
Q 21 -9.765625 23.484375 -3.21875 
L 25.09375 0.875 
L 2.984375 54.6875 
L 12.5 54.6875 
L 29.59375 11.921875 
L 46.6875 54.6875 
L 56.203125 54.6875 
z
" id="DejaVuSans-121"/>
      <path id="DejaVuSans-32"/>
      <path d="M 31 75.875 
Q 24.46875 64.65625 21.28125 53.65625 
Q 18.109375 42.671875 18.109375 31.390625 
Q 18.109375 20.125 21.3125 9.0625 
Q 24.515625 -2 31 -13.1875 
L 23.1875 -13.1875 
Q 15.875 -1.703125 12.234375 9.375 
Q 8.59375 20.453125 8.59375 31.390625 
Q 8.59375 42.28125 12.203125 53.3125 
Q 15.828125 64.359375 23.1875 75.875 
z
" id="DejaVuSans-40"/>
      <path d="M 28.609375 0 
L 0.78125 72.90625 
L 11.078125 72.90625 
L 34.1875 11.53125 
L 57.328125 72.90625 
L 67.578125 72.90625 
L 39.796875 0 
z
" id="DejaVuSans-86"/>
      <path d="M 8.015625 75.875 
L 15.828125 75.875 
Q 23.140625 64.359375 26.78125 53.3125 
Q 30.421875 42.28125 30.421875 31.390625 
Q 30.421875 20.453125 26.78125 9.375 
Q 23.140625 -1.703125 15.828125 -13.1875 
L 8.015625 -13.1875 
Q 14.5 -2 17.703125 9.0625 
Q 20.90625 20.125 20.90625 31.390625 
Q 20.90625 42.671875 17.703125 53.65625 
Q 14.5 64.65625 8.015625 75.875 
z
" id="DejaVuSans-41"/>
     </defs>
     <g transform="translate(206.66625 335.860562)scale(0.1 -0.1)">
      <use xlink:href="#DejaVuSans-69"/>
      <use x="63.183594" xlink:href="#DejaVuSans-110"/>
      <use x="126.5625" xlink:href="#DejaVuSans-101"/>
      <use x="188.085938" xlink:href="#DejaVuSans-114"/>
      <use x="227.449219" xlink:href="#DejaVuSans-103"/>
      <use x="290.925781" xlink:href="#DejaVuSans-121"/>
      <use x="350.105469" xlink:href="#DejaVuSans-32"/>
      <use x="381.892578" xlink:href="#DejaVuSans-40"/>
      <use x="420.90625" xlink:href="#DejaVuSans-101"/>
      <use x="482.429688" xlink:href="#DejaVuSans-86"/>
      <use x="550.837891" xlink:href="#DejaVuSans-41"/>
     </g>
    </g>
   </g>
   <g id="matplotlib.axis_2">
    <g id="ytick_1">
     <g id="line2d_8">
      <defs>
       <path d="M 0 0 
L -3.5 0 
" id="m3a7e4110ab" style="stroke:#000000;stroke-width:0.8;"/>
      </defs>
      <g>
       <use style="stroke:#000000;stroke-width:0.8;" x="57.6" xlink:href="#m3a7e4110ab" y="295.488"/>
      </g>
     </g>
     <g id="text_9">
      <!-- 0.0 -->
      <g transform="translate(34.696875 299.287219)scale(0.1 -0.1)">
       <use xlink:href="#DejaVuSans-48"/>
       <use x="63.623047" xlink:href="#DejaVuSans-46"/>
       <use x="95.410156" xlink:href="#DejaVuSans-48"/>
      </g>
     </g>
    </g>
    <g id="ytick_2">
     <g id="line2d_9">
      <g>
       <use style="stroke:#000000;stroke-width:0.8;" x="57.6" xlink:href="#m3a7e4110ab" y="240.414372"/>
      </g>
     </g>
     <g id="text_10">
      <!-- 0.2 -->
      <g transform="translate(34.696875 244.21359)scale(0.1 -0.1)">
       <use xlink:href="#DejaVuSans-48"/>
       <use x="63.623047" xlink:href="#DejaVuSans-46"/>
       <use x="95.410156" xlink:href="#DejaVuSans-50"/>
      </g>
     </g>
    </g>
    <g id="ytick_3">
     <g id="line2d_10">
      <g>
       <use style="stroke:#000000;stroke-width:0.8;" x="57.6" xlink:href="#m3a7e4110ab" y="185.340743"/>
      </g>
     </g>
     <g id="text_11">
      <!-- 0.4 -->
      <defs>
       <path d="M 37.796875 64.3125 
L 12.890625 25.390625 
L 37.796875 25.390625 
z
M 35.203125 72.90625 
L 47.609375 72.90625 
L 47.609375 25.390625 
L 58.015625 25.390625 
L 58.015625 17.1875 
L 47.609375 17.1875 
L 47.609375 0 
L 37.796875 0 
L 37.796875 17.1875 
L 4.890625 17.1875 
L 4.890625 26.703125 
z
" id="DejaVuSans-52"/>
      </defs>
      <g transform="translate(34.696875 189.139962)scale(0.1 -0.1)">
       <use xlink:href="#DejaVuSans-48"/>
       <use x="63.623047" xlink:href="#DejaVuSans-46"/>
       <use x="95.410156" xlink:href="#DejaVuSans-52"/>
      </g>
     </g>
    </g>
    <g id="ytick_4">
     <g id="line2d_11">
      <g>
       <use style="stroke:#000000;stroke-width:0.8;" x="57.6" xlink:href="#m3a7e4110ab" y="130.267115"/>
      </g>
     </g>
     <g id="text_12">
      <!-- 0.6 -->
      <defs>
       <path d="M 33.015625 40.375 
Q 26.375 40.375 22.484375 35.828125 
Q 18.609375 31.296875 18.609375 23.390625 
Q 18.609375 15.53125 22.484375 10.953125 
Q 26.375 6.390625 33.015625 6.390625 
Q 39.65625 6.390625 43.53125 10.953125 
Q 47.40625 15.53125 47.40625 23.390625 
Q 47.40625 31.296875 43.53125 35.828125 
Q 39.65625 40.375 33.015625 40.375 
z
M 52.59375 71.296875 
L 52.59375 62.3125 
Q 48.875 64.0625 45.09375 64.984375 
Q 41.3125 65.921875 37.59375 65.921875 
Q 27.828125 65.921875 22.671875 59.328125 
Q 17.53125 52.734375 16.796875 39.40625 
Q 19.671875 43.65625 24.015625 45.921875 
Q 28.375 48.1875 33.59375 48.1875 
Q 44.578125 48.1875 50.953125 41.515625 
Q 57.328125 34.859375 57.328125 23.390625 
Q 57.328125 12.15625 50.6875 5.359375 
Q 44.046875 -1.421875 33.015625 -1.421875 
Q 20.359375 -1.421875 13.671875 8.265625 
Q 6.984375 17.96875 6.984375 36.375 
Q 6.984375 53.65625 15.1875 63.9375 
Q 23.390625 74.21875 37.203125 74.21875 
Q 40.921875 74.21875 44.703125 73.484375 
Q 48.484375 72.75 52.59375 71.296875 
z
" id="DejaVuSans-54"/>
      </defs>
      <g transform="translate(34.696875 134.066333)scale(0.1 -0.1)">
       <use xlink:href="#DejaVuSans-48"/>
       <use x="63.623047" xlink:href="#DejaVuSans-46"/>
       <use x="95.410156" xlink:href="#DejaVuSans-54"/>
      </g>
     </g>
    </g>
    <g id="ytick_5">
     <g id="line2d_12">
      <g>
       <use style="stroke:#000000;stroke-width:0.8;" x="57.6" xlink:href="#m3a7e4110ab" y="75.193486"/>
      </g>
     </g>
     <g id="text_13">
      <!-- 0.8 -->
      <defs>
       <path d="M 31.78125 34.625 
Q 24.75 34.625 20.71875 30.859375 
Q 16.703125 27.09375 16.703125 20.515625 
Q 16.703125 13.921875 20.71875 10.15625 
Q 24.75 6.390625 31.78125 6.390625 
Q 38.8125 6.390625 42.859375 10.171875 
Q 46.921875 13.96875 46.921875 20.515625 
Q 46.921875 27.09375 42.890625 30.859375 
Q 38.875 34.625 31.78125 34.625 
z
M 21.921875 38.8125 
Q 15.578125 40.375 12.03125 44.71875 
Q 8.5 49.078125 8.5 55.328125 
Q 8.5 64.0625 14.71875 69.140625 
Q 20.953125 74.21875 31.78125 74.21875 
Q 42.671875 74.21875 48.875 69.140625 
Q 55.078125 64.0625 55.078125 55.328125 
Q 55.078125 49.078125 51.53125 44.71875 
Q 48 40.375 41.703125 38.8125 
Q 48.828125 37.15625 52.796875 32.3125 
Q 56.78125 27.484375 56.78125 20.515625 
Q 56.78125 9.90625 50.3125 4.234375 
Q 43.84375 -1.421875 31.78125 -1.421875 
Q 19.734375 -1.421875 13.25 4.234375 
Q 6.78125 9.90625 6.78125 20.515625 
Q 6.78125 27.484375 10.78125 32.3125 
Q 14.796875 37.15625 21.921875 38.8125 
z
M 18.3125 54.390625 
Q 18.3125 48.734375 21.84375 45.5625 
Q 25.390625 42.390625 31.78125 42.390625 
Q 38.140625 42.390625 41.71875 45.5625 
Q 45.3125 48.734375 45.3125 54.390625 
Q 45.3125 60.0625 41.71875 63.234375 
Q 38.140625 66.40625 31.78125 66.40625 
Q 25.390625 66.40625 21.84375 63.234375 
Q 18.3125 60.0625 18.3125 54.390625 
z
" id="DejaVuSans-56"/>
      </defs>
      <g transform="translate(34.696875 78.992705)scale(0.1 -0.1)">
       <use xlink:href="#DejaVuSans-48"/>
       <use x="63.623047" xlink:href="#DejaVuSans-46"/>
       <use x="95.410156" xlink:href="#DejaVuSans-56"/>
      </g>
     </g>
    </g>
    <g id="text_14">
     <!-- Fraction of power transmitted -->
     <defs>
      <path d="M 9.8125 72.90625 
L 51.703125 72.90625 
L 51.703125 64.59375 
L 19.671875 64.59375 
L 19.671875 43.109375 
L 48.578125 43.109375 
L 48.578125 34.8125 
L 19.671875 34.8125 
L 19.671875 0 
L 9.8125 0 
z
" id="DejaVuSans-70"/>
      <path d="M 34.28125 27.484375 
Q 23.390625 27.484375 19.1875 25 
Q 14.984375 22.515625 14.984375 16.5 
Q 14.984375 11.71875 18.140625 8.90625 
Q 21.296875 6.109375 26.703125 6.109375 
Q 34.1875 6.109375 38.703125 11.40625 
Q 43.21875 16.703125 43.21875 25.484375 
L 43.21875 27.484375 
z
M 52.203125 31.203125 
L 52.203125 0 
L 43.21875 0 
L 43.21875 8.296875 
Q 40.140625 3.328125 35.546875 0.953125 
Q 30.953125 -1.421875 24.3125 -1.421875 
Q 15.921875 -1.421875 10.953125 3.296875 
Q 6 8.015625 6 15.921875 
Q 6 25.140625 12.171875 29.828125 
Q 18.359375 34.515625 30.609375 34.515625 
L 43.21875 34.515625 
L 43.21875 35.40625 
Q 43.21875 41.609375 39.140625 45 
Q 35.0625 48.390625 27.6875 48.390625 
Q 23 48.390625 18.546875 47.265625 
Q 14.109375 46.140625 10.015625 43.890625 
L 10.015625 52.203125 
Q 14.9375 54.109375 19.578125 55.046875 
Q 24.21875 56 28.609375 56 
Q 40.484375 56 46.34375 49.84375 
Q 52.203125 43.703125 52.203125 31.203125 
z
" id="DejaVuSans-97"/>
      <path d="M 48.78125 52.59375 
L 48.78125 44.1875 
Q 44.96875 46.296875 41.140625 47.34375 
Q 37.3125 48.390625 33.40625 48.390625 
Q 24.65625 48.390625 19.8125 42.84375 
Q 14.984375 37.3125 14.984375 27.296875 
Q 14.984375 17.28125 19.8125 11.734375 
Q 24.65625 6.203125 33.40625 6.203125 
Q 37.3125 6.203125 41.140625 7.25 
Q 44.96875 8.296875 48.78125 10.40625 
L 48.78125 2.09375 
Q 45.015625 0.34375 40.984375 -0.53125 
Q 36.96875 -1.421875 32.421875 -1.421875 
Q 20.0625 -1.421875 12.78125 6.34375 
Q 5.515625 14.109375 5.515625 27.296875 
Q 5.515625 40.671875 12.859375 48.328125 
Q 20.21875 56 33.015625 56 
Q 37.15625 56 41.109375 55.140625 
Q 45.0625 54.296875 48.78125 52.59375 
z
" id="DejaVuSans-99"/>
      <path d="M 18.3125 70.21875 
L 18.3125 54.6875 
L 36.8125 54.6875 
L 36.8125 47.703125 
L 18.3125 47.703125 
L 18.3125 18.015625 
Q 18.3125 11.328125 20.140625 9.421875 
Q 21.96875 7.515625 27.59375 7.515625 
L 36.8125 7.515625 
L 36.8125 0 
L 27.59375 0 
Q 17.1875 0 13.234375 3.875 
Q 9.28125 7.765625 9.28125 18.015625 
L 9.28125 47.703125 
L 2.6875 47.703125 
L 2.6875 54.6875 
L 9.28125 54.6875 
L 9.28125 70.21875 
z
" id="DejaVuSans-116"/>
      <path d="M 9.421875 54.6875 
L 18.40625 54.6875 
L 18.40625 0 
L 9.421875 0 
z
M 9.421875 75.984375 
L 18.40625 75.984375 
L 18.40625 64.59375 
L 9.421875 64.59375 
z
" id="DejaVuSans-105"/>
      <path d="M 30.609375 48.390625 
Q 23.390625 48.390625 19.1875 42.75 
Q 14.984375 37.109375 14.984375 27.296875 
Q 14.984375 17.484375 19.15625 11.84375 
Q 23.34375 6.203125 30.609375 6.203125 
Q 37.796875 6.203125 41.984375 11.859375 
Q 46.1875 17.53125 46.1875 27.296875 
Q 46.1875 37.015625 41.984375 42.703125 
Q 37.796875 48.390625 30.609375 48.390625 
z
M 30.609375 56 
Q 42.328125 56 49.015625 48.375 
Q 55.71875 40.765625 55.71875 27.296875 
Q 55.71875 13.875 49.015625 6.21875 
Q 42.328125 -1.421875 30.609375 -1.421875 
Q 18.84375 -1.421875 12.171875 6.21875 
Q 5.515625 13.875 5.515625 27.296875 
Q 5.515625 40.765625 12.171875 48.375 
Q 18.84375 56 30.609375 56 
z
" id="DejaVuSans-111"/>
      <path d="M 37.109375 75.984375 
L 37.109375 68.5 
L 28.515625 68.5 
Q 23.6875 68.5 21.796875 66.546875 
Q 19.921875 64.59375 19.921875 59.515625 
L 19.921875 54.6875 
L 34.71875 54.6875 
L 34.71875 47.703125 
L 19.921875 47.703125 
L 19.921875 0 
L 10.890625 0 
L 10.890625 47.703125 
L 2.296875 47.703125 
L 2.296875 54.6875 
L 10.890625 54.6875 
L 10.890625 58.5 
Q 10.890625 67.625 15.140625 71.796875 
Q 19.390625 75.984375 28.609375 75.984375 
z
" id="DejaVuSans-102"/>
      <path d="M 18.109375 8.203125 
L 18.109375 -20.796875 
L 9.078125 -20.796875 
L 9.078125 54.6875 
L 18.109375 54.6875 
L 18.109375 46.390625 
Q 20.953125 51.265625 25.265625 53.625 
Q 29.59375 56 35.59375 56 
Q 45.5625 56 51.78125 48.09375 
Q 58.015625 40.1875 58.015625 27.296875 
Q 58.015625 14.40625 51.78125 6.484375 
Q 45.5625 -1.421875 35.59375 -1.421875 
Q 29.59375 -1.421875 25.265625 0.953125 
Q 20.953125 3.328125 18.109375 8.203125 
z
M 48.6875 27.296875 
Q 48.6875 37.203125 44.609375 42.84375 
Q 40.53125 48.484375 33.40625 48.484375 
Q 26.265625 48.484375 22.1875 42.84375 
Q 18.109375 37.203125 18.109375 27.296875 
Q 18.109375 17.390625 22.1875 11.75 
Q 26.265625 6.109375 33.40625 6.109375 
Q 40.53125 6.109375 44.609375 11.75 
Q 48.6875 17.390625 48.6875 27.296875 
z
" id="DejaVuSans-112"/>
      <path d="M 4.203125 54.6875 
L 13.1875 54.6875 
L 24.421875 12.015625 
L 35.59375 54.6875 
L 46.1875 54.6875 
L 57.421875 12.015625 
L 68.609375 54.6875 
L 77.59375 54.6875 
L 63.28125 0 
L 52.6875 0 
L 40.921875 44.828125 
L 29.109375 0 
L 18.5 0 
z
" id="DejaVuSans-119"/>
      <path d="M 44.28125 53.078125 
L 44.28125 44.578125 
Q 40.484375 46.53125 36.375 47.5 
Q 32.28125 48.484375 27.875 48.484375 
Q 21.1875 48.484375 17.84375 46.4375 
Q 14.5 44.390625 14.5 40.28125 
Q 14.5 37.15625 16.890625 35.375 
Q 19.28125 33.59375 26.515625 31.984375 
L 29.59375 31.296875 
Q 39.15625 29.25 43.1875 25.515625 
Q 47.21875 21.78125 47.21875 15.09375 
Q 47.21875 7.46875 41.1875 3.015625 
Q 35.15625 -1.421875 24.609375 -1.421875 
Q 20.21875 -1.421875 15.453125 -0.5625 
Q 10.6875 0.296875 5.421875 2 
L 5.421875 11.28125 
Q 10.40625 8.6875 15.234375 7.390625 
Q 20.0625 6.109375 24.8125 6.109375 
Q 31.15625 6.109375 34.5625 8.28125 
Q 37.984375 10.453125 37.984375 14.40625 
Q 37.984375 18.0625 35.515625 20.015625 
Q 33.0625 21.96875 24.703125 23.78125 
L 21.578125 24.515625 
Q 13.234375 26.265625 9.515625 29.90625 
Q 5.8125 33.546875 5.8125 39.890625 
Q 5.8125 47.609375 11.28125 51.796875 
Q 16.75 56 26.8125 56 
Q 31.78125 56 36.171875 55.265625 
Q 40.578125 54.546875 44.28125 53.078125 
z
" id="DejaVuSans-115"/>
      <path d="M 52 44.1875 
Q 55.375 50.25 60.0625 53.125 
Q 64.75 56 71.09375 56 
Q 79.640625 56 84.28125 50.015625 
Q 88.921875 44.046875 88.921875 33.015625 
L 88.921875 0 
L 79.890625 0 
L 79.890625 32.71875 
Q 79.890625 40.578125 77.09375 44.375 
Q 74.3125 48.1875 68.609375 48.1875 
Q 61.625 48.1875 57.5625 43.546875 
Q 53.515625 38.921875 53.515625 30.90625 
L 53.515625 0 
L 44.484375 0 
L 44.484375 32.71875 
Q 44.484375 40.625 41.703125 44.40625 
Q 38.921875 48.1875 33.109375 48.1875 
Q 26.21875 48.1875 22.15625 43.53125 
Q 18.109375 38.875 18.109375 30.90625 
L 18.109375 0 
L 9.078125 0 
L 9.078125 54.6875 
L 18.109375 54.6875 
L 18.109375 46.1875 
Q 21.1875 51.21875 25.484375 53.609375 
Q 29.78125 56 35.6875 56 
Q 41.65625 56 45.828125 52.96875 
Q 50 49.953125 52 44.1875 
z
" id="DejaVuSans-109"/>
      <path d="M 45.40625 46.390625 
L 45.40625 75.984375 
L 54.390625 75.984375 
L 54.390625 0 
L 45.40625 0 
L 45.40625 8.203125 
Q 42.578125 3.328125 38.25 0.953125 
Q 33.9375 -1.421875 27.875 -1.421875 
Q 17.96875 -1.421875 11.734375 6.484375 
Q 5.515625 14.40625 5.515625 27.296875 
Q 5.515625 40.1875 11.734375 48.09375 
Q 17.96875 56 27.875 56 
Q 33.9375 56 38.25 53.625 
Q 42.578125 51.265625 45.40625 46.390625 
z
M 14.796875 27.296875 
Q 14.796875 17.390625 18.875 11.75 
Q 22.953125 6.109375 30.078125 6.109375 
Q 37.203125 6.109375 41.296875 11.75 
Q 45.40625 17.390625 45.40625 27.296875 
Q 45.40625 37.203125 41.296875 42.84375 
Q 37.203125 48.484375 30.078125 48.484375 
Q 22.953125 48.484375 18.875 42.84375 
Q 14.796875 37.203125 14.796875 27.296875 
z
" id="DejaVuSans-100"/>
     </defs>
     <g transform="translate(28.617187 248.812375)rotate(-90)scale(0.1 -0.1)">
      <use xlink:href="#DejaVuSans-70"/>
      <use x="50.269531" xlink:href="#DejaVuSans-114"/>
      <use x="91.382812" xlink:href="#DejaVuSans-97"/>
      <use x="152.662109" xlink:href="#DejaVuSans-99"/>
      <use x="207.642578" xlink:href="#DejaVuSans-116"/>
      <use x="246.851562" xlink:href="#DejaVuSans-105"/>
      <use x="274.634766" xlink:href="#DejaVuSans-111"/>
      <use x="335.816406" xlink:href="#DejaVuSans-110"/>
      <use x="399.195312" xlink:href="#DejaVuSans-32"/>
      <use x="430.982422" xlink:href="#DejaVuSans-111"/>
      <use x="492.164062" xlink:href="#DejaVuSans-102"/>
      <use x="527.369141" xlink:href="#DejaVuSans-32"/>
      <use x="559.15625" xlink:href="#DejaVuSans-112"/>
      <use x="622.632812" xlink:href="#DejaVuSans-111"/>
      <use x="683.814453" xlink:href="#DejaVuSans-119"/>
      <use x="765.601562" xlink:href="#DejaVuSans-101"/>
      <use x="827.125" xlink:href="#DejaVuSans-114"/>
      <use x="868.238281" xlink:href="#DejaVuSans-32"/>
      <use x="900.025391" xlink:href="#DejaVuSans-116"/>
      <use x="939.234375" xlink:href="#DejaVuSans-114"/>
      <use x="980.347656" xlink:href="#DejaVuSans-97"/>
      <use x="1041.626953" xlink:href="#DejaVuSans-110"/>
      <use x="1105.005859" xlink:href="#DejaVuSans-115"/>
      <use x="1157.105469" xlink:href="#DejaVuSans-109"/>
      <use x="1254.517578" xlink:href="#DejaVuSans-105"/>
      <use x="1282.300781" xlink:href="#DejaVuSans-116"/>
      <use x="1321.509766" xlink:href="#DejaVuSans-116"/>
      <use x="1360.71875" xlink:href="#DejaVuSans-101"/>
      <use x="1422.242188" xlink:href="#DejaVuSans-100"/>
     </g>
    </g>
   </g>
   <g id="line2d_13">
    <path clip-path="url(#p0d1e78a541)" d="M 395.26825 295.488 
L 384.74417 295.407862 
L 384.31402 295.136616 
L 383.992074 294.607515 
L 383.670698 293.56152 
L 383.349891 291.730704 
L 382.92303 287.605573 
L 382.497173 281.158386 
L 381.860264 267.207074 
L 381.120033 245.71158 
L 380.067814 207.30909 
L 379.439428 188.05195 
L 378.917451 178.189388 
L 378.293082 167.163525 
L 377.774435 153.17862 
L 376.844657 126.410543 
L 376.638697 124.260433 
L 376.535806 123.94553 
L 376.432975 124.089813 
L 376.227491 125.476604 
L 375.510166 132.36563 
L 375.407927 132.553364 
L 375.305747 132.388818 
L 375.101564 130.928386 
L 374.795731 125.938479 
L 373.678847 101.191421 
L 373.577661 100.976179 
L 373.476534 101.326647 
L 373.274453 103.554508 
L 372.770264 113.9681 
L 372.36795 120.893435 
L 372.167138 122.360127 
L 372.066818 122.47904 
L 371.966556 122.174581 
L 371.766202 120.317418 
L 371.4661 114.778723 
L 370.568867 95.127934 
L 370.469458 94.593634 
L 370.370106 94.619221 
L 370.17157 96.29463 
L 369.874189 101.987432 
L 369.083645 118.516006 
L 368.886568 119.837759 
L 368.788113 119.885899 
L 368.591371 118.748612 
L 368.296674 114.214887 
L 367.220382 92.473882 
L 367.122868 92.45967 
L 366.928005 93.996056 
L 366.636121 99.462189 
L 365.860166 116.676028 
L 365.57008 118.898872 
L 365.473493 118.864939 
L 365.280482 117.627993 
L 364.99137 113.110462 
L 363.935435 91.395314 
L 363.839762 91.220088 
L 363.744143 91.552283 
L 363.553064 93.646544 
L 363.171545 101.882712 
L 362.505927 116.213059 
L 362.221454 118.264678 
L 362.126735 118.213475 
L 361.937455 117.005714 
L 361.653928 112.666894 
L 360.524519 90.274954 
L 360.43074 90.327849 
L 360.243337 91.837651 
L 359.962619 96.982596 
L 359.03024 116.600214 
L 358.844379 117.676069 
L 358.751525 117.689761 
L 358.565971 116.669368 
L 358.288021 112.70977 
L 357.733492 99.378505 
L 357.272776 90.408944 
L 357.088842 89.327766 
L 356.996951 89.464992 
L 356.813318 91.059094 
L 356.538246 96.145365 
L 355.624584 115.715698 
L 355.351455 117.194284 
L 355.260511 117.02731 
L 355.078771 115.714002 
L 354.806532 111.508681 
L 353.631936 88.446416 
L 353.541925 88.524914 
L 353.362049 89.939901 
L 353.092599 94.692624 
L 352.108343 115.467467 
L 351.930013 116.581543 
L 351.840921 116.673034 
L 351.751876 116.451222 
L 351.57393 115.087237 
L 351.307371 110.942317 
L 350.687066 95.86877 
L 350.333652 89.120049 
L 350.157228 87.680168 
L 350.069088 87.557662 
L 349.980994 87.842207 
L 349.804948 89.572575 
L 349.453421 96.596637 
L 348.665226 113.883129 
L 348.403335 116.040923 
L 348.316131 116.181659 
L 348.228973 116.026916 
L 348.054796 114.845135 
L 347.793879 111.05616 
L 347.273292 98.720114 
L 346.75436 88.076432 
L 346.58175 86.786901 
L 346.495513 86.709468 
L 346.323176 87.695814 
L 346.065014 91.684152 
L 344.865651 115.339794 
L 344.695036 115.677986 
L 344.5246 114.907939 
L 344.269282 111.785185 
L 343.844648 102.547828 
L 343.167547 87.54399 
L 342.914366 85.853289 
L 342.830061 86.006422 
L 342.661583 87.369445 
L 342.325155 93.530965 
L 341.403597 113.412626 
L 341.15318 115.158943 
L 341.069795 115.224115 
L 340.903154 114.57146 
L 340.653518 111.722768 
L 340.238322 103.012541 
L 339.493682 86.545641 
L 339.24624 85.029197 
L 339.163845 85.201794 
L 338.999182 86.542971 
L 338.670368 92.488281 
L 337.687991 113.316834 
L 337.443345 114.754374 
L 337.361881 114.744763 
L 337.199078 113.990637 
L 336.955186 111.110976 
L 336.549536 102.600025 
L 335.821985 86.18463 
L 335.580212 84.266936 
L 335.499704 84.26035 
L 335.338811 85.20464 
L 335.09778 88.75421 
L 334.536809 102.179727 
L 334.057569 111.70455 
L 333.738889 114.266956 
L 333.65932 114.339619 
L 333.500304 113.791645 
L 333.262083 111.301069 
L 332.865854 103.462404 
L 331.997679 84.54885 
L 331.761743 83.445514 
L 331.60465 84.218777 
L 331.36931 87.436453 
L 330.899696 98.357082 
L 330.27575 111.373111 
L 329.964719 113.837561 
L 329.887059 113.91969 
L 329.731855 113.432173 
L 329.499343 111.125856 
L 329.112599 103.733304 
L 328.188357 83.671622 
L 327.958163 82.67617 
L 327.804891 83.434479 
L 327.575271 86.516752 
L 327.117059 97.05589 
L 326.508236 110.230155 
L 326.204732 113.208356 
L 326.053206 113.505768 
L 325.901831 112.987438 
L 325.675049 110.732653 
L 325.297827 103.620245 
L 324.321409 82.70247 
L 324.171747 81.929109 
L 324.096971 81.945282 
L 323.94753 82.778115 
L 323.723645 85.842976 
L 323.276865 96.097586 
L 322.609163 110.323224 
L 322.313352 112.918786 
L 322.165664 113.089991 
L 322.018121 112.4967 
L 321.797077 110.226596 
L 321.429391 103.302343 
L 320.477601 82.387309 
L 320.258812 81.163368 
L 320.185954 81.258927 
L 320.040344 82.197697 
L 319.749548 86.691372 
L 318.447933 112.336296 
L 318.304009 112.737991 
L 318.232099 112.6693 
L 318.088384 111.996489 
L 317.873071 109.70021 
L 317.51491 102.941245 
L 316.516639 81.368297 
L 316.303597 80.439986 
L 316.16174 81.006075 
L 315.94921 83.516242 
L 315.525066 92.710796 
L 314.820865 108.532499 
L 314.470025 112.089328 
L 314.329923 112.370221 
L 314.189956 111.978504 
L 313.980254 110.162086 
L 313.631418 104.227 
L 312.451562 80.004727 
L 312.313381 79.744658 
L 312.17533 80.375789 
L 311.9685 82.872171 
L 311.555719 91.790924 
L 310.801988 108.562704 
L 310.460674 111.793568 
L 310.324373 112.011494 
L 310.188201 111.60008 
L 309.984183 109.833548 
L 309.644791 104.153318 
L 308.429554 79.280657 
L 308.295159 79.050979 
L 308.160889 79.657334 
L 307.95972 82.026183 
L 307.558227 90.550008 
L 306.7586 108.343466 
L 306.426738 111.441492 
L 306.294209 111.675197 
L 306.161802 111.320179 
L 305.963423 109.708824 
L 305.633404 104.423361 
L 304.975654 88.391966 
L 304.517034 79.759627 
L 304.320936 78.413394 
L 304.255631 78.352033 
L 304.125109 78.818029 
L 303.929553 80.907952 
L 303.604225 87.292671 
L 302.632714 108.700549 
L 302.31036 111.242816 
L 302.181625 111.311452 
L 302.053007 110.831167 
L 301.860301 109.110315 
L 301.539712 103.842501 
L 300.836984 86.688114 
L 300.391624 78.793199 
L 300.201188 77.704271 
L 300.137768 77.706446 
L 300.011013 78.260015 
L 299.821096 80.380854 
L 299.442037 88.120839 
L 298.561561 107.783623 
L 298.248453 110.72982 
L 298.123408 111.032451 
L 298.060927 110.991049 
L 297.936051 110.524589 
L 297.686635 108.107219 
L 297.313353 101.257873 
L 296.199526 77.656433 
L 296.01476 77.038064 
L 295.891721 77.484115 
L 295.707369 79.376097 
L 295.339404 86.588873 
L 294.362967 108.074557 
L 294.059255 110.556362 
L 293.937959 110.72545 
L 293.81677 110.415936 
L 293.635189 109.071398 
L 293.33309 104.662112 
L 292.851122 93.542953 
L 292.191195 78.833826 
L 291.952015 76.592922 
L 291.832583 76.406816 
L 291.713257 76.862747 
L 291.474919 79.573628 
L 291.058835 88.483914 
L 290.230497 106.963562 
L 289.935892 109.947943 
L 289.759438 110.438418 
L 289.64193 110.20825 
L 289.465862 109.039426 
L 289.172927 105.03969 
L 288.705558 94.602979 
L 287.949548 77.805107 
L 287.717788 75.887757 
L 287.659911 75.773389 
L 287.602059 75.809568 
L 287.48643 76.329117 
L 287.255472 79.03485 
L 286.852259 87.653897 
L 285.992329 106.806073 
L 285.649913 109.927109 
L 285.535971 110.157064 
L 285.479037 110.116336 
L 285.365241 109.72484 
L 285.137945 107.734398 
L 284.797731 102.038127 
L 284.007297 82.733959 
L 283.613854 76.212868 
L 283.389558 75.158556 
L 283.277553 75.466572 
L 283.109725 76.939404 
L 282.830488 81.685294 
L 281.498392 109.005928 
L 281.277693 109.884032 
L 281.167483 109.745913 
L 281.002344 108.823252 
L 280.727577 105.475465 
L 280.289156 96.311783 
L 279.416738 76.602928 
L 279.14531 74.588585 
L 279.091093 74.568558 
L 278.982727 74.918615 
L 278.766267 77.100706 
L 278.442258 83.340788 
L 277.314613 107.660488 
L 277.04758 109.505263 
L 276.940923 109.623768 
L 276.834355 109.384639 
L 276.621484 107.853497 
L 276.30284 103.126221 
L 275.77353 90.710504 
L 275.141247 76.624847 
L 274.878721 74.152167 
L 274.773863 73.982182 
L 274.669091 74.29646 
L 274.459806 76.310451 
L 274.146526 82.159768 
L 272.952758 107.68115 
L 272.694731 109.2962 
L 272.591668 109.366549 
L 272.48869 109.105609 
L 272.282986 107.608875 
L 271.97506 103.105337 
L 271.463524 91.258638 
L 270.750866 75.542682 
L 270.497327 73.490531 
L 270.396055 73.439401 
L 270.244302 74.199608 
L 269.99179 77.508374 
L 269.538555 87.776963 
L 268.786819 104.791922 
L 268.437563 108.598548 
L 268.238429 109.139772 
L 268.138983 108.950349 
L 267.94033 107.664882 
L 267.642948 103.612301 
L 267.198215 93.817573 
L 266.362526 74.964575 
L 266.117814 72.955049 
L 266.020065 72.864045 
L 265.922395 73.189583 
L 265.727288 75.034037 
L 265.386596 81.384901 
L 264.177547 107.237952 
L 263.889153 108.884874 
L 263.793173 108.870016 
L 263.649346 108.31814 
L 263.410013 106.030002 
L 263.075738 100.260759 
L 262.36253 82.582377 
L 261.889388 73.768373 
L 261.653512 72.315988 
L 261.559291 72.403835 
L 261.418097 73.249373 
L 261.183143 76.394602 
L 260.76138 85.838515 
L 259.922281 104.775989 
L 259.597549 108.159536 
L 259.412384 108.69422 
L 259.319909 108.569101 
L 259.135174 107.542244 
L 258.858608 104.156578 
L 258.444962 95.65165 
L 257.439857 73.248696 
L 257.21261 71.796424 
L 257.121833 71.833027 
L 256.985798 72.550541 
L 256.759422 75.378939 
L 256.353038 84.187738 
L 255.454958 104.596233 
L 255.097642 108.123935 
L 254.919393 108.47563 
L 254.785883 108.107127 
L 254.563706 106.315949 
L 254.253366 101.536906 
L 253.723269 89.010039 
L 253.02021 73.481101 
L 252.757656 71.33269 
L 252.670271 71.259678 
L 252.539315 71.765611 
L 252.321385 74.154855 
L 251.973549 81.120902 
L 250.85027 105.853023 
L 250.549713 108.122893 
L 250.421143 108.273898 
L 250.292717 107.926397 
L 250.078994 106.2629 
L 249.780449 101.825684 
L 249.270464 90.023705 
L 248.509735 72.979621 
L 248.257284 70.856204 
L 248.173258 70.739554 
L 248.131268 70.795274 
L 248.005392 71.412594 
L 247.795909 73.848173 
L 247.419812 81.613065 
L 246.381611 104.948199 
L 246.051395 107.833405 
L 245.927813 108.090653 
L 245.886649 108.074482 
L 245.763248 107.72131 
L 245.55788 106.137028 
L 245.230071 101.21206 
L 244.699418 88.714408 
L 244.009264 73.037375 
L 243.726319 70.390457 
L 243.64561 70.240135 
L 243.605277 70.269855 
L 243.484366 70.774682 
L 243.283139 72.928092 
L 242.921847 80.067726 
L 241.76563 105.545226 
L 241.488346 107.682567 
L 241.369723 107.907463 
L 241.33021 107.889004 
L 241.211757 107.554396 
L 241.014618 106.082962 
L 240.699929 101.519656 
L 240.22958 90.798889 
L 239.411296 72.125621 
L 239.13989 69.846737 
L 239.062469 69.756908 
L 239.023779 69.808254 
L 238.907793 70.342765 
L 238.676189 73.016393 
L 238.291274 81.078893 
L 237.258772 104.428441 
L 236.916781 107.467114 
L 236.765132 107.727134 
L 236.651535 107.474076 
L 236.462473 106.212454 
L 236.160661 102.14109 
L 235.709525 92.268497 
L 234.775708 71.129949 
L 234.515693 69.309244 
L 234.441519 69.30864 
L 234.330355 69.745727 
L 234.145338 71.587145 
L 233.813115 77.780354 
L 232.494516 106.056505 
L 232.240017 107.499981 
L 232.167415 107.563477 
L 232.131133 107.536705 
L 232.022362 107.223289 
L 231.805154 105.567725 
L 231.480181 100.702063 
L 230.976653 88.945046 
L 230.190243 71.13219 
L 229.905734 68.868309 
L 229.834728 68.826355 
L 229.799243 68.885944 
L 229.657423 69.652523 
L 229.409701 72.869937 
L 228.986401 82.322895 
L 228.075123 103.263261 
L 227.726755 106.886245 
L 227.518295 107.397402 
L 227.414223 107.173915 
L 227.241003 106.101536 
L 226.964454 102.656581 
L 226.551018 94.154333 
L 225.456592 69.652901 
L 225.218738 68.36642 
L 225.150882 68.435665 
L 225.015303 69.154051 
L 224.778474 72.133208 
L 224.373758 80.968058 
L 223.402299 103.314346 
L 223.069461 106.719472 
L 222.870284 107.249629 
L 222.770842 107.079131 
L 222.605323 106.156919 
L 222.341057 103.093678 
L 221.945955 95.354083 
L 220.704963 68.522567 
L 220.542815 67.924108 
L 220.510417 67.937694 
L 220.413285 68.244596 
L 220.219307 70.009494 
L 219.896846 75.814066 
L 218.458595 106.089852 
L 218.236735 107.07857 
L 218.141804 107.06405 
L 218.015372 106.636387 
L 217.794506 104.791603 
L 217.47984 99.923305 
L 216.978462 88.113756 
L 216.200161 70.159716 
L 215.921484 67.632873 
L 215.828768 67.495823 
L 215.797882 67.531084 
L 215.674437 68.072405 
L 215.458785 70.474316 
L 215.090205 77.962702 
L 213.901909 104.482609 
L 213.599557 106.779148 
L 213.478882 106.964455 
L 213.448737 106.944539 
L 213.32825 106.60107 
L 213.117761 105.003253 
L 212.817861 100.666425 
L 212.339962 89.831374 
L 211.450291 69.315717 
L 211.185001 67.160573 
L 211.096734 67.085816 
L 211.067331 67.134157 
L 210.949806 67.689048 
L 210.744488 69.97519 
L 210.393545 76.988391 
L 209.146586 104.638543 
L 208.858945 106.677776 
L 208.744135 106.830446 
L 208.715455 106.808853 
L 208.60082 106.484517 
L 208.400545 105.016619 
L 208.08669 100.544783 
L 207.603703 89.586238 
L 206.701284 68.808904 
L 206.421065 66.701679 
L 206.365123 66.668618 
L 206.337165 66.701715 
L 206.225415 67.161631 
L 206.030177 69.167961 
L 205.696438 75.520613 
L 204.346076 105.016319 
L 204.072914 106.634944 
L 203.991124 106.703649 
L 203.963877 106.683543 
L 203.85497 106.388991 
L 203.664694 105.062122 
L 203.366487 101.011504 
L 202.907533 90.947539 
L 201.916573 68.139024 
L 201.650596 66.291412 
L 201.597495 66.272919 
L 201.570956 66.308338 
L 201.438377 66.92639 
L 201.226656 69.355543 
L 200.883667 76.291849 
L 199.628476 104.308835 
L 199.343291 106.39681 
L 199.213962 106.581624 
L 199.188118 106.560721 
L 199.059014 106.168388 
L 198.852837 104.561888 
L 198.544464 100.046794 
L 198.058387 88.904146 
L 197.169915 68.23197 
L 196.892519 65.955574 
L 196.817017 65.881945 
L 196.791864 65.910864 
L 196.666208 66.451956 
L 196.465531 68.621839 
L 196.115446 75.520584 
L 194.802685 104.539615 
L 194.508184 106.392148 
L 194.410239 106.461212 
L 194.38577 106.435373 
L 194.263528 106.048971 
L 194.068299 104.555269 
L 193.776279 100.420243 
L 193.315924 90.162847 
L 192.330836 67.401848 
L 192.068458 65.534525 
L 191.997039 65.51858 
L 191.973246 65.561048 
L 191.854381 66.126963 
L 191.64084 68.546983 
L 191.286121 75.748872 
L 190.021251 104.082212 
L 189.719547 106.219848 
L 189.603793 106.356076 
L 189.580662 106.337209 
L 189.465098 106.013417 
L 189.257483 104.483692 
L 188.958497 100.257605 
L 188.500586 90.041205 
L 187.501918 66.967073 
L 187.254109 65.18369 
L 187.186653 65.136871 
L 187.141712 65.212167 
L 187.007036 65.941137 
L 186.783061 68.718818 
L 186.403687 76.84511 
L 185.27591 102.897706 
L 184.947131 105.892018 
L 184.77232 106.252287 
L 184.663252 106.034339 
L 184.489046 104.986438 
L 184.22843 101.872067 
L 183.839061 94.200704 
L 182.512 65.24529 
L 182.363528 64.77187 
L 182.34234 64.779794 
L 182.257644 65.000057 
L 182.088518 66.320191 
L 181.814443 70.676803 
L 181.310901 83.119692 
L 180.540754 101.068329 
L 180.168757 105.387487 
L 179.942279 106.155551 
L 179.860082 106.072864 
L 179.716443 105.466942 
L 179.491249 103.361562 
L 179.144475 97.582294 
L 178.576614 83.467351 
L 177.872497 67.232696 
L 177.572654 64.52827 
L 177.49289 64.424221 
L 177.453038 64.472685 
L 177.333604 65.015356 
L 177.134953 67.175104 
L 176.798402 73.769965 
L 175.408346 104.418988 
L 175.137173 105.99223 
L 175.040556 106.050621 
L 175.021247 106.030383 
L 174.905496 105.686739 
L 174.712963 104.281622 
L 174.425064 100.334698 
L 173.985709 90.768705 
L 172.888861 65.531762 
L 172.645169 64.091421 
L 172.570345 64.144778 
L 172.439579 64.799448 
L 172.215933 67.475287 
L 171.844654 75.307676 
L 170.632264 103.125534 
L 170.323132 105.688002 
L 170.178099 105.970306 
L 170.141885 105.947479 
L 170.033347 105.655879 
L 169.834772 104.266294 
L 169.546879 100.378961 
L 169.11712 91.119702 
L 167.98316 65.072909 
L 167.754942 63.763615 
L 167.702377 63.769035 
L 167.667354 63.83727 
L 167.527432 64.618343 
L 167.300626 67.500748 
L 166.918395 75.813553 
L 165.766535 102.580016 
L 165.44319 105.508855 
L 165.273588 105.883419 
L 165.25665 105.875999 
L 165.155103 105.660773 
L 164.986177 104.659584 
L 164.716716 101.459411 
L 164.31441 93.470226 
L 162.973098 63.910015 
L 162.825611 63.429771 
L 162.792878 63.447106 
L 162.694769 63.768654 
L 162.515255 65.370432 
L 162.222483 70.428766 
L 161.640558 85.419357 
L 160.967677 100.74728 
L 160.601915 104.998384 
L 160.380212 105.797584 
L 160.285412 105.714931 
L 160.143453 105.116263 
L 159.907497 102.889122 
L 159.562872 97.09005 
L 159.002613 83.087671 
L 158.277945 66.075538 
L 157.98715 63.28526 
L 157.895576 63.115819 
L 157.849834 63.163585 
L 157.728007 63.717845 
L 157.51533 66.098774 
L 157.167364 73.132722 
L 155.807849 103.737744 
L 155.512685 105.630036 
L 155.409682 105.715528 
L 155.380282 105.684793 
L 155.262809 105.318182 
L 155.057726 103.755981 
L 154.751272 99.353328 
L 154.286979 88.841475 
L 153.254013 64.616061 
L 152.998268 62.843042 
L 152.94157 62.816349 
L 152.899079 62.885285 
L 152.771768 63.542803 
L 152.560129 66.049592 
L 152.208904 73.322964 
L 150.891176 103.349834 
L 150.589784 105.495068 
L 150.466889 105.641482 
L 150.439611 105.616032 
L 150.317001 105.242205 
L 150.113167 103.693779 
L 149.815369 99.458483 
L 149.357829 89.200391 
L 148.293975 64.228098 
L 148.043896 62.541758 
L 147.991373 62.516888 
L 147.952009 62.574641 
L 147.834064 63.135779 
L 147.624924 65.490265 
L 147.286538 72.302259 
L 145.887383 103.754994 
L 145.608736 105.480135 
L 145.507718 105.568592 
L 145.469878 105.527458 
L 145.343912 105.099668 
L 145.130354 103.367788 
L 144.817627 98.679526 
L 144.345287 87.716566 
L 143.362572 64.357971 
L 143.095064 62.282715 
L 143.03443 62.222155 
L 142.985966 62.28551 
L 142.864974 62.872952 
L 142.659838 65.198919 
L 142.323467 71.969189 
L 140.914399 103.700071 
L 140.634174 105.416765 
L 140.541056 105.500802 
L 140.494552 105.451064 
L 140.366851 105.001173 
L 140.158473 103.295843 
L 139.847266 98.635479 
L 139.377789 87.752357 
L 138.382549 64.04418 
L 138.114016 61.990713 
L 138.047075 61.942534 
L 138.00249 62.015639 
L 137.880057 62.644262 
L 137.669182 65.118701 
L 137.315741 72.438249 
L 135.976901 103.145964 
L 135.676419 105.282494 
L 135.558802 105.433374 
L 135.526766 105.406806 
L 135.409456 105.062678 
L 135.207393 103.571851 
L 134.910914 99.427344 
L 134.46907 89.643428 
L 133.33821 63.111453 
L 133.092234 61.664847 
L 133.030908 61.698113 
L 133.010481 61.744536 
L 132.877886 62.469463 
L 132.654209 65.258231 
L 132.290115 73.093437 
L 131.034272 102.461288 
L 130.710029 105.121835 
L 130.563277 105.366966 
L 130.533974 105.343151 
L 130.416917 105.006708 
L 130.222377 103.603568 
L 129.931861 99.635941 
L 129.498973 90.205221 
L 128.314357 62.591905 
L 128.08053 61.384932 
L 128.005921 61.483313 
L 127.875604 62.214994 
L 127.652941 65.009617 
L 127.28389 72.996748 
L 126.030036 102.383813 
L 125.707793 105.045693 
L 125.565208 105.304345 
L 125.529622 105.279495 
L 125.414135 104.953104 
L 125.219277 103.560218 
L 124.928349 99.600956 
L 124.499349 90.276752 
L 123.292918 62.214271 
L 123.063477 61.113683 
L 122.987225 61.239123 
L 122.851946 62.06102 
L 122.624476 65.053024 
L 122.239266 73.639967 
L 121.060192 101.723251 
L 120.71909 104.871263 
L 120.549409 105.240213 
L 120.533279 105.233041 
L 120.436609 105.036314 
L 120.267887 104.066103 
L 120.003907 100.999465 
L 119.622431 93.586504 
L 118.844847 72.76853 
L 118.348658 62.777493 
L 118.087099 60.884023 
L 118.033423 60.847814 
L 117.987462 60.914277 
L 117.865112 61.525131 
L 117.651741 64.020756 
L 117.303235 71.256012 
L 115.919315 103.088511 
L 115.626877 105.052746 
L 115.517677 105.173873 
L 115.481333 105.13953 
L 115.357972 104.7455 
L 115.155489 103.181559 
L 114.853389 98.835383 
L 114.403856 88.662328 
L 113.288238 62.132892 
L 113.039334 60.588412 
L 112.991092 60.590126 
L 112.956664 60.652035 
L 112.832937 61.287152 
L 112.620631 63.802216 
L 112.27348 71.046046 
L 110.89105 102.977726 
L 110.596044 104.983858 
L 110.4851 105.109216 
L 110.446009 105.070557 
L 110.322446 104.665149 
L 110.115109 103.031062 
L 109.812322 98.607408 
L 109.358801 88.241892 
L 108.260497 61.963486 
L 108.007115 60.32191 
L 107.957846 60.316184 
L 107.920931 60.379901 
L 107.798107 61.006791 
L 107.583998 63.544835 
L 107.237557 70.793286 
L 105.849763 102.924248 
L 105.551933 104.928536 
L 105.447315 105.043745 
L 105.4067 105.00508 
L 105.28509 104.61099 
L 105.083182 103.046954 
L 104.779271 98.657901 
L 104.330326 88.450067 
L 103.20397 61.541411 
L 102.957184 60.03831 
L 102.908004 60.046354 
L 102.87525 60.109225 
L 102.749937 60.769386 
L 102.538323 63.314181 
L 102.188056 70.702399 
L 100.811383 102.762971 
L 100.51177 104.842057 
L 100.398712 104.973489 
L 100.362806 104.939506 
L 100.245058 104.572403 
L 100.046195 103.073303 
L 99.74724 98.838951 
L 99.305518 88.918314 
L 98.13531 61.052714 
L 97.898713 59.744701 
L 97.83138 59.807939 
L 97.82177 59.832846 
L 97.697066 60.511157 
L 97.482187 63.144403 
L 97.126717 70.752383 
L 95.778215 102.469523 
L 95.469957 104.737506 
L 95.348265 104.899988 
L 95.312284 104.867557 
L 95.195586 104.510064 
L 94.99893 103.045004 
L 94.705893 98.943321 
L 94.270663 89.255646 
L 93.062843 60.574466 
L 92.835281 59.437737 
L 92.763938 59.538047 
L 92.634207 60.277343 
L 92.41349 63.085381 
L 92.050006 71.061792 
L 90.750939 102.028472 
L 90.431597 104.594652 
L 90.294513 104.819662 
L 90.263255 104.796146 
L 90.150182 104.479259 
L 89.959964 103.134957 
L 89.67467 99.288806 
L 89.25492 90.184633 
L 87.963779 59.88869 
L 87.770859 59.107892 
L 87.756344 59.114083 
L 87.676625 59.310846 
L 87.524962 60.430717 
L 87.273716 64.247782 
L 86.843865 74.791238 
L 85.839409 99.793567 
L 85.468478 104.020301 
L 85.245932 104.729553 
L 85.158683 104.622497 
L 85.011571 103.951706 
L 84.778913 101.660023 
L 84.439632 95.807929 
L 83.906802 82.127587 
L 83.080168 61.617033 
L 82.786628 58.861333 
L 82.705925 58.740443 
L 82.656367 58.807158 
L 82.538984 59.389343 
L 82.333104 61.780474 
L 81.998063 68.736596 
L 80.523034 102.97912 
L 80.247403 104.564029 
L 80.164641 104.617677 
L 80.121923 104.568473 
L 79.99414 104.109533 
L 79.785204 102.366206 
L 79.474559 97.61539 
L 79.013328 86.647134 
L 77.93761 60.110938 
L 77.68273 58.3388 
L 77.633072 58.320277 
L 77.588715 58.395521 
L 77.466441 59.046591 
L 77.254372 61.637644 
L 76.908681 69.072761 
L 75.506833 102.370183 
L 75.213309 104.37277 
L 75.108222 104.491451 
L 75.067729 104.452084 
L 74.946613 104.052281 
L 74.745954 102.470455 
L 74.446585 98.077328 
L 74.006018 87.877742 
L 73.832727 83.026039 
L 73.832727 83.026039 
" style="fill:none;stroke:#008000;stroke-linecap:square;stroke-opacity:0.7;stroke-width:0.8;"/>
   </g>
   <g id="line2d_14">
    <path clip-path="url(#p0d1e78a541)" d="M 73.832727 59.826016 
L 73.949255 77.540724 
L 73.906822 56.689849 
L 73.959874 73.914677 
L 73.991757 57.344399 
L 74.034326 80.46596 
L 74.076964 59.69026 
L 74.20529 84.259707 
L 74.216012 79.52365 
L 74.248204 60.429623 
L 74.291186 85.712274 
L 74.334238 63.968655 
L 74.463813 91.850781 
L 74.474639 85.202017 
L 74.507144 67.001009 
L 74.550546 94.007464 
L 74.594018 70.274585 
L 74.724859 96.20022 
L 74.735791 89.970567 
L 74.757669 72.781812 
L 74.801478 97.723557 
L 74.85634 76.456049 
L 74.977431 102.0383 
L 74.988466 96.194988 
L 75.021599 77.425896 
L 75.054772 102.734156 
L 75.110152 79.336675 
L 75.232388 105.201454 
L 75.187874 79.044234 
L 75.243527 101.133441 
L 75.276974 81.18357 
L 75.321634 106.498714 
L 75.366367 81.973601 
L 75.489764 107.434139 
L 75.501009 102.85697 
L 75.534774 82.235476 
L 75.579859 107.744479 
L 75.625019 85.5264 
L 75.749593 109.015854 
L 75.704228 82.935737 
L 75.760947 102.144868 
L 75.874738 83.322354 
L 75.829165 108.439508 
L 75.886143 86.675236 
L 76.000455 107.741725 
L 75.966111 83.687217 
L 76.011912 105.118568 
L 76.126749 81.794336 
L 76.092248 106.296593 
L 76.138259 82.337637 
L 76.253625 105.53465 
L 76.218965 81.320152 
L 76.265188 104.513034 
L 76.299906 80.638065 
L 76.392702 81.658304 
L 76.427581 102.040779 
L 76.474154 77.596899 
L 76.520806 97.689687 
L 76.637779 76.16884 
L 76.602636 97.745036 
L 76.649504 77.49226 
L 76.684706 95.349057 
L 76.731713 73.295374 
L 76.778799 89.732649 
L 76.896862 70.061726 
L 76.849577 92.336805 
L 76.908696 74.312308 
L 76.944228 88.210414 
L 76.979805 69.539352 
L 77.027311 87.472702 
L 77.158369 64.304604 
L 77.170314 69.281883 
L 77.194219 82.461002 
L 77.242089 65.021387 
L 77.290042 80.923071 
L 77.410281 58.681036 
L 77.422333 61.452891 
L 77.458521 75.601582 
L 77.494755 57.782509 
L 77.543139 73.552017 
L 77.579481 57.715044 
L 77.676624 59.036536 
L 77.713138 70.590432 
L 77.749699 55.716698 
L 77.798521 68.241267 
L 77.920944 54.34977 
L 77.933216 54.877376 
L 78.043896 66.883427 
L 78.006955 53.645103 
L 78.056221 65.900087 
L 78.093226 53.602421 
L 78.130279 66.082656 
L 78.179758 54.426322 
L 78.216923 67.107852 
L 78.266553 53.751671 
L 78.316268 66.08954 
L 78.440935 53.568 
L 78.566145 69.146953 
L 78.578696 65.062142 
L 78.603815 54.905738 
L 78.654117 68.842395 
L 78.691902 56.730328 
L 78.81821 72.652389 
L 78.830871 70.63752 
L 78.85621 60.455783 
L 78.906954 74.457152 
L 78.945071 61.529719 
L 79.072491 77.704293 
L 79.098042 70.421081 
L 79.110826 66.177107 
L 79.162018 81.600752 
L 79.200472 67.571021 
L 79.329018 84.018209 
L 79.354795 78.240435 
L 79.380595 72.572257 
L 79.419338 86.729209 
L 79.471075 75.406346 
L 79.58782 90.756192 
L 79.548853 75.30501 
L 79.60082 88.55545 
L 79.626839 77.077555 
L 79.678944 92.714335 
L 79.718084 77.588914 
L 79.848929 96.578301 
L 79.862045 93.504366 
L 79.888296 82.794749 
L 79.940867 97.050557 
L 79.980357 83.216612 
L 80.112374 99.952111 
L 80.125609 95.208069 
L 80.152095 86.20298 
L 80.191869 101.059917 
L 80.244983 89.53521 
L 80.364841 103.936688 
L 80.404902 89.336119 
L 80.445016 104.127794 
L 80.498586 90.807961 
L 80.525408 104.622355 
L 80.579123 90.379213 
L 80.619473 104.129997 
L 80.754369 90.885891 
L 80.700338 104.449975 
L 80.767892 96.825581 
L 80.794957 105.132612 
L 80.8356 90.489636 
L 80.876298 104.083735 
L 80.998726 90.19747 
L 81.01236 92.292471 
L 81.039646 103.222934 
L 81.094294 90.728655 
L 81.135345 101.796252 
L 81.258835 87.412672 
L 81.272587 89.836738 
L 81.300111 99.817181 
L 81.341444 87.647286 
L 81.396642 97.086355 
L 81.479629 97.613134 
L 81.521208 84.181502 
L 81.562845 95.389812 
L 81.604538 81.116655 
L 81.646289 93.406335 
L 81.771888 78.079069 
L 81.785876 81.291514 
L 81.81387 90.709104 
L 81.85591 77.08141 
L 81.898008 87.089665 
L 82.038757 74.090086 
L 82.052868 78.817882 
L 82.066985 82.600614 
L 82.123519 71.095733 
L 82.151825 79.383763 
L 82.165988 79.197339 
L 82.279528 67.401394 
L 82.293751 68.227223 
L 82.322215 75.192385 
L 82.364961 65.763229 
L 82.407766 73.511813 
L 82.550883 62.42797 
L 82.579586 69.375233 
L 82.709084 58.843778 
L 82.737935 62.464869 
L 82.795718 58.418334 
L 82.839127 65.588095 
L 82.969719 56.20823 
L 82.984263 57.414067 
L 83.013372 63.32567 
L 83.057087 56.593194 
L 83.100864 61.910829 
L 83.217903 56.079357 
L 83.232564 56.443394 
L 83.350101 62.346186 
L 83.305973 55.383778 
L 83.364825 60.647715 
L 83.438546 61.599387 
L 83.482862 55.16486 
L 83.61619 64.691771 
L 83.631039 62.506725 
L 83.660759 58.724819 
L 83.705391 64.818441 
L 83.750087 59.902018 
L 83.869588 68.375096 
L 83.884558 66.776584 
L 83.914519 62.951445 
L 83.959513 68.709393 
L 83.989546 65.049199 
L 84.125046 73.047542 
L 84.140137 71.388174 
L 84.170342 66.94566 
L 84.215703 74.662852 
L 84.245981 69.552845 
L 84.26113 69.625267 
L 84.382587 79.47133 
L 84.397802 79.314646 
L 84.428254 75.058281 
L 84.473986 81.944136 
L 84.504511 76.205189 
L 84.642238 85.981584 
L 84.596263 76.114317 
L 84.672925 80.702501 
L 84.688279 79.952674 
L 84.703641 84.208213 
L 84.811383 90.140194 
L 84.765164 83.040377 
L 84.826805 89.025779 
L 84.904024 91.475729 
L 84.950445 84.949504 
L 85.074565 94.80493 
L 85.090114 92.465402 
L 85.121235 89.360076 
L 85.152386 96.085667 
L 85.199168 90.191137 
L 85.324257 99.119949 
L 85.339927 98.545806 
L 85.37129 90.93408 
L 85.418393 98.666417 
L 85.465565 91.761286 
L 85.591694 99.895385 
L 85.718317 94.080436 
L 85.670776 100.711852 
L 85.73418 95.477379 
L 85.765929 101.048352 
L 85.813611 93.539889 
L 85.861364 99.489768 
L 85.893238 93.873084 
L 85.941107 99.888226 
L 85.989048 94.379211 
L 86.021047 98.564256 
L 86.053078 92.90489 
L 86.101184 98.068318 
L 86.229814 91.108388 
L 86.245929 92.447779 
L 86.278182 96.84293 
L 86.326621 90.51855 
L 86.358954 95.49335 
L 86.5699 87.389817 
L 86.602474 89.721083 
L 86.618773 91.449845 
L 86.667719 85.279395 
L 86.700391 88.649351 
L 86.749459 84.287519 
L 86.782211 87.682533 
L 86.930003 78.738576 
L 86.946466 82.82559 
L 86.962936 84.051253 
L 86.995902 78.714894 
L 87.045412 80.716545 
L 87.094997 76.382526 
L 87.128095 79.552564 
L 87.177804 73.455087 
L 87.210985 77.011467 
L 87.227588 76.783187 
L 87.344042 69.646195 
L 87.360711 70.453574 
L 87.394076 71.61673 
L 87.427474 68.752075 
L 87.477634 71.098762 
L 87.594969 64.742715 
L 87.611765 65.387902 
L 87.62857 67.254072 
L 87.679034 63.882464 
L 87.729575 66.829179 
L 87.847802 60.706644 
L 87.864726 60.728122 
L 87.898599 62.308185 
L 87.932507 59.991513 
L 87.983432 62.289184 
L 88.119614 57.365051 
L 88.136676 59.213322 
L 88.153746 60.757311 
L 88.205009 58.353898 
L 88.239228 60.228605 
L 88.359269 57.035436 
L 88.376453 57.709537 
L 88.496985 60.839647 
L 88.531502 58.908765 
L 88.583343 61.865117 
L 88.600641 61.378267 
L 88.652589 62.948966 
L 88.704617 59.985179 
L 88.843749 66.638624 
L 88.861181 65.555601 
L 88.91353 68.010508 
L 88.948474 66.168846 
L 89.17649 74.469268 
L 89.194094 72.350586 
L 89.229327 71.034601 
L 89.264597 73.731281 
L 89.282246 73.246634 
L 89.299903 72.726738 
L 89.31757 74.291105 
L 89.441495 77.938356 
L 89.494743 80.015733 
L 89.56587 78.937392 
L 89.619312 82.452191 
L 89.637144 80.826417 
L 89.690698 83.457284 
L 89.708567 82.302941 
L 89.780139 88.108803 
L 89.887776 86.460174 
L 89.905748 85.449848 
L 89.959722 88.12147 
L 89.977731 87.555588 
L 89.995751 87.557516 
L 90.122149 92.868541 
L 90.140244 91.048082 
L 90.176462 88.801078 
L 90.212718 92.880107 
L 90.376341 97.479856 
L 90.249012 92.723698 
L 90.412807 95.688036 
L 90.522435 93.076444 
L 90.650772 97.334186 
L 90.798024 94.139916 
L 90.908873 97.675368 
L 90.853404 93.682805 
L 90.9459 95.625527 
L 90.964429 95.41845 
L 90.982967 96.411978 
L 91.001516 96.557648 
L 91.020074 96.512763 
L 91.206197 92.990529 
L 91.224863 93.460307 
L 91.29963 93.222114 
L 91.337072 94.774915 
L 91.374555 92.172135 
L 91.468437 92.684595 
L 91.487243 93.995623 
L 91.524886 91.143635 
L 91.656954 87.155478 
L 91.675861 87.57569 
L 91.694778 85.853538 
L 91.770549 85.97828 
L 91.998838 78.916464 
L 92.037029 79.316023 
L 92.05614 78.710213 
L 92.132687 76.747939 
L 92.267043 72.55959 
L 92.286278 72.571982 
L 92.49855 65.675386 
L 92.537281 67.572673 
L 92.556662 67.844186 
L 92.576054 66.769149 
L 92.829105 59.491444 
L 92.868195 59.944975 
L 92.966106 61.823537 
L 92.98572 61.083072 
L 93.10363 59.186612 
L 93.281221 61.504661 
L 93.340613 58.333796 
L 93.419953 58.817068 
L 93.63904 61.473819 
L 93.819281 64.898573 
L 93.859456 64.874891 
L 93.980247 68.009407 
L 94.0206 67.687501 
L 94.040793 67.564687 
L 94.24334 73.880806 
L 94.283984 73.553394 
L 94.324674 74.895538 
L 94.61077 83.311615 
L 94.651823 83.280498 
L 94.672367 83.393123 
L 94.919788 88.844862 
L 95.33587 95.799835 
L 95.777826 98.227756 
L 95.799003 97.977171 
L 95.968849 97.292055 
L 96.011431 96.386094 
L 96.075394 97.016412 
L 96.526213 90.842107 
L 96.547815 90.879006 
L 97.510716 68.091742 
L 97.532885 68.026755 
L 97.822261 61.972236 
L 97.844611 62.303504 
L 97.88935 61.729912 
L 98.001428 59.66768 
L 98.04635 59.812799 
L 98.068831 59.810871 
L 98.203992 58.307636 
L 98.27175 59.362572 
L 98.316989 58.813212 
L 98.384946 58.513612 
L 98.407625 58.938505 
L 98.430317 58.607237 
L 98.498473 59.31273 
L 98.566749 60.121762 
L 98.612334 59.557532 
L 98.635146 59.467212 
L 98.841062 64.266052 
L 98.932931 65.642067 
L 99.094225 68.831105 
L 99.793112 85.620026 
L 99.816623 85.615344 
L 100.504617 96.000303 
L 100.528556 95.879692 
L 100.576475 96.085392 
L 100.648463 96.32744 
L 100.624453 95.99397 
L 100.672488 96.170756 
L 100.841069 97.248547 
L 100.961921 96.074102 
L 100.986135 96.228033 
L 101.010364 96.552416 
L 101.058866 95.918519 
L 101.64551 88.102194 
L 102.516606 68.226122 
L 102.541771 68.321124 
L 103.099358 60.079906 
L 103.124884 60.282852 
L 103.175984 59.120799 
L 103.227148 59.857408 
L 103.252753 60.156458 
L 103.278375 59.441878 
L 103.304012 60.058978 
L 103.406722 59.135118 
L 103.43244 59.542387 
L 103.587083 61.76571 
L 103.612913 61.107029 
L 103.638759 61.00707 
L 103.716396 60.160038 
L 103.742307 60.934649 
L 104.132931 70.997427 
L 105.408089 95.654165 
L 105.435071 95.383754 
L 105.46207 95.72879 
L 105.489087 95.565772 
L 105.678686 97.18356 
L 105.760203 96.590417 
L 105.787411 96.801624 
L 105.896415 97.815255 
L 105.92371 97.478755 
L 106.778643 84.878459 
L 107.452439 68.99192 
L 107.480743 68.948412 
L 107.679395 64.09257 
L 107.707849 64.133325 
L 108.022073 59.824364 
L 108.050752 59.70926 
L 108.108166 58.691775 
L 108.165656 58.706645 
L 108.252033 59.278034 
L 108.280864 58.872692 
L 108.338582 58.597874 
L 108.512196 59.950483 
L 108.541199 59.933961 
L 108.832286 64.135528 
L 109.125316 69.964796 
L 110.347459 95.303897 
L 110.559513 96.988599 
L 110.620284 98.150928 
L 110.681139 97.645903 
L 110.711597 97.376868 
L 110.803095 97.536857 
L 110.833636 97.589728 
L 110.864198 98.259423 
L 110.925384 97.590279 
L 111.048006 97.215503 
L 111.232568 94.920585 
L 111.263402 95.004847 
L 111.635058 89.244696 
L 111.947116 82.211794 
L 112.166839 77.215515 
L 112.641266 66.466795 
L 113.217136 59.202583 
L 113.378386 60.188126 
L 113.475407 59.893206 
L 113.670062 61.943047 
L 113.996313 67.643718 
L 115.324615 94.486604 
L 115.358309 94.484952 
L 115.662639 96.169379 
L 115.696575 95.847198 
L 115.76452 95.951012 
L 115.968939 96.867713 
L 116.037275 96.902134 
L 116.483867 91.011734 
L 116.518394 91.003473 
L 116.969528 80.623746 
L 117.424943 68.97292 
L 117.460154 69.194867 
L 117.884701 61.922119 
L 117.920248 62.138558 
L 117.955822 62.052919 
L 118.169814 59.453719 
L 118.205571 59.648679 
L 118.313 60.095877 
L 118.348863 59.463907 
L 118.420667 59.607649 
L 118.636717 62.63367 
L 119.217563 73.403318 
L 119.547336 81.576244 
L 120.027602 91.520063 
L 120.064739 91.67069 
L 120.362845 96.211235 
L 120.400234 96.252816 
L 120.625162 97.50161 
L 120.700365 97.992041 
L 120.813381 97.903923 
L 120.888868 97.916315 
L 121.306095 94.063639 
L 121.611728 88.758947 
L 122.77463 63.296481 
L 123.168259 59.174771 
L 123.20779 59.441052 
L 123.247351 59.455922 
L 123.286943 60.051543 
L 123.366218 59.906149 
L 123.564945 61.456747 
L 124.367629 76.717649 
L 124.7737 86.338186 
L 124.855297 87.661054 
L 125.347588 95.653064 
L 125.595487 97.45287 
L 125.636918 97.247996 
L 125.719879 97.365578 
L 125.802971 98.050144 
L 125.886195 97.658845 
L 126.220418 94.960788 
L 126.598974 88.460173 
L 128.010622 61.169262 
L 128.140827 60.936301 
L 128.314928 60.095877 
L 128.884682 67.092706 
L 129.683633 85.572938 
L 130.132627 93.553657 
L 130.177731 93.751922 
L 130.358519 96.744348 
L 130.403809 96.676057 
L 130.449137 96.558474 
L 130.494503 96.647694 
L 130.630825 97.821037 
L 130.676342 97.566597 
L 130.904491 97.017238 
L 131.455942 90.09641 
L 132.906468 61.08142 
L 133.096412 60.511408 
L 133.143999 60.768877 
L 133.191626 60.459914 
L 133.239294 60.32994 
L 133.287002 60.37097 
L 133.334751 60.399884 
L 133.910919 69.109778 
L 134.737347 88.56674 
L 135.081167 94.164148 
L 135.675433 98.883408 
L 135.77508 97.979099 
L 135.974894 96.728376 
L 136.125212 95.387884 
L 136.427029 90.110729 
L 137.035435 77.108947 
L 137.856689 61.594706 
L 138.063822 60.332694 
L 138.167663 60.560974 
L 138.375901 61.939192 
L 138.480298 62.962735 
L 138.689649 66.502592 
L 138.952389 71.528887 
L 139.694341 88.417766 
L 140.337769 97.065702 
L 140.553797 97.545945 
L 140.824935 96.940685 
L 141.151928 94.183149 
L 142.757886 62.846805 
L 143.039123 61.195422 
L 143.095527 61.414891 
L 143.265051 61.767362 
L 143.378328 63.263712 
L 143.776457 68.978978 
L 144.754212 90.82944 
L 145.278177 97.072036 
L 145.45382 98.372875 
L 145.512477 98.331019 
L 145.629959 97.798732 
L 145.688783 97.187691 
L 145.747662 97.350433 
L 145.865588 96.774363 
L 146.399026 88.725077 
L 147.661613 63.323467 
L 147.783187 62.260271 
L 147.965985 60.847632 
L 148.027035 61.030477 
L 148.210538 62.086238 
L 148.456034 65.426729 
L 149.198241 81.025784 
L 149.6352 90.45136 
L 150.138243 97.050833 
L 150.454648 98.706621 
L 150.645235 97.630483 
L 150.964132 94.665869 
L 151.477642 85.395601 
L 152.648006 62.688193 
L 152.845111 61.440224 
L 153.50641 68.301297 
L 153.839554 75.254067 
L 154.578398 91.972769 
L 155.189047 98.135508 
L 155.393839 97.896213 
L 155.530714 97.802588 
L 156.15012 89.902551 
L 156.427246 84.177097 
L 157.054953 69.50796 
L 157.759265 61.622794 
L 157.830097 61.578735 
L 157.901003 61.694389 
L 159.045571 83.289585 
L 159.407184 90.958037 
L 160.062882 99.224313 
L 160.57718 96.425747 
L 161.393092 82.529018 
L 161.767123 73.588641 
L 162.369735 63.532472 
L 162.672979 62.269358 
L 163.053869 65.298132 
L 163.821825 81.027436 
L 164.754403 95.810574 
L 165.067974 100.145695 
L 165.146581 99.686932 
L 165.699238 93.31629 
L 166.096595 85.637374 
L 166.817362 71.223504 
L 167.140007 64.695902 
L 167.301865 62.901052 
L 167.382929 63.717519 
L 167.545326 63.189638 
L 167.789598 65.026344 
L 168.527325 77.874195 
L 168.774884 83.247178 
L 168.857589 83.627462 
L 169.189334 90.285588 
L 169.272503 91.117751 
L 169.606115 97.768717 
L 169.773485 97.109486 
L 169.857311 97.217155 
L 170.025247 98.55985 
L 170.109357 98.511936 
L 170.785672 90.454113 
L 170.870643 89.811129 
L 171.468149 75.641786 
L 171.725684 69.568541 
L 171.897864 66.911514 
L 172.590536 63.346323 
L 172.85193 67.701821 
L 172.939261 67.507135 
L 174.261396 93.352363 
L 174.528588 96.424095 
L 174.707234 98.261351 
L 174.886297 99.167037 
L 175.787904 88.613002 
L 176.333957 74.668359 
L 176.42534 83.458936 
L 177.252655 66.121758 
L 177.345123 66.31782 
L 177.623185 62.253662 
L 177.716092 63.170087 
L 177.809109 62.688744 
L 179.028458 84.030325 
L 179.407467 93.426437 
L 179.788297 96.669998 
L 179.9794 97.442131 
L 180.075124 98.132203 
L 180.170963 98.010491 
L 180.266918 98.348918 
L 180.555478 94.746552 
L 180.748432 92.182599 
L 182.309032 63.960118 
L 182.506254 64.522971 
L 182.605045 64.151499 
L 182.703958 62.448347 
L 182.902146 65.544862 
L 183.299985 73.869241 
L 183.599649 77.270588 
L 184.000926 88.149833 
L 184.101555 88.815673 
L 184.606569 96.387195 
L 185.012838 98.654577 
L 185.728683 89.25461 
L 186.970492 66.221441 
L 187.283875 65.114462 
L 187.388599 65.451788 
L 187.493455 65.131534 
L 187.914204 68.947586 
L 188.231164 75.149703 
L 189.403721 97.479305 
L 189.618682 98.761695 
L 189.834192 97.255982 
L 189.942153 97.13895 
L 190.158492 96.074928 
L 190.701769 86.369302 
L 191.029413 78.837433 
L 191.688512 66.796135 
L 192.019981 64.570334 
L 192.241676 65.471063 
L 192.575299 68.280644 
L 192.686795 67.953507 
L 193.35883 82.982274 
L 193.471347 84.347825 
L 193.809783 90.401518 
L 194.263102 97.060746 
L 194.376803 97.889329 
L 194.490654 97.075891 
L 194.604655 97.084427 
L 194.718805 97.701252 
L 194.947557 96.402065 
L 195.062158 96.085667 
L 196.565841 65.939465 
L 196.682586 65.688053 
L 196.799486 64.268531 
L 196.916541 64.216486 
L 197.033753 64.54858 
L 197.151121 64.270458 
L 197.504165 69.16375 
L 197.977098 79.708422 
L 198.452571 90.362416 
L 198.810857 95.250476 
L 198.930607 95.301694 
L 199.050518 96.907917 
L 199.170591 96.945917 
L 199.290827 97.734021 
L 199.411224 97.582844 
L 199.531784 96.592345 
L 199.652508 96.681564 
L 200.137038 88.428781 
L 200.258581 87.350714 
L 201.236898 67.165679 
L 201.730072 64.16334 
L 202.101727 67.316856 
L 202.84964 81.954876 
L 203.477636 94.445024 
L 203.730051 96.965468 
L 203.85652 97.925402 
L 203.983164 97.523364 
L 204.109984 97.585598 
L 204.491501 94.097234 
L 204.619027 93.261216 
L 206.033598 67.177795 
L 206.42318 65.488962 
L 206.553406 65.209739 
L 206.683814 65.487585 
L 206.945182 68.524345 
L 207.338616 76.298539 
L 208.1305 93.253506 
L 208.662172 97.586148 
L 208.795562 97.682527 
L 208.929142 97.561916 
L 209.062912 97.018339 
L 209.331025 93.601571 
L 209.599903 89.452049 
L 210.683136 67.941116 
L 210.955891 66.016292 
L 211.092563 65.488136 
L 211.229431 65.702097 
L 211.503761 67.379089 
L 211.916741 74.930234 
L 213.026827 95.372464 
L 213.306369 97.501335 
L 213.586725 98.792811 
L 213.8679 96.583808 
L 214.432719 87.90503 
L 215.286178 69.922389 
L 215.572341 66.960805 
L 215.859347 65.372206 
L 216.147201 67.024966 
L 216.291448 68.054292 
L 217.892345 97.122428 
L 218.039183 97.768993 
L 218.186241 97.773399 
L 218.481016 97.106182 
L 218.776673 92.936006 
L 219.370651 81.760466 
L 219.968207 70.41282 
L 220.268337 67.303914 
L 220.569374 65.634907 
L 220.720234 66.338748 
L 221.174184 72.66781 
L 222.394868 95.428914 
L 222.702369 97.674817 
L 222.856471 97.488393 
L 223.165384 96.035275 
L 223.475244 92.764452 
L 225.038898 66.481389 
L 225.196593 66.383909 
L 225.354532 67.053329 
L 225.671143 70.268252 
L 226.147903 79.118584 
L 226.787049 91.124084 
L 227.269029 97.461957 
L 227.43019 97.951011 
L 227.91519 95.639846 
L 228.239791 90.827513 
L 229.383959 69.623615 
L 229.713188 66.809352 
L 229.878193 66.88976 
L 230.208986 69.290695 
L 230.707146 77.573493 
L 231.710616 96.506981 
L 232.047243 98.25722 
L 232.21596 98.257771 
L 232.384947 97.227619 
L 232.893535 90.611349 
L 233.404576 80.479453 
L 234.08981 69.057183 
L 234.26181 67.82078 
L 234.434087 67.63766 
L 234.606644 68.22502 
L 235.12599 74.794202 
L 235.822394 87.903103 
L 236.347676 96.374253 
L 236.699293 98.087869 
L 236.875533 97.652512 
L 237.052061 96.846509 
L 237.228877 95.172546 
L 237.761068 85.494733 
L 238.653898 69.822155 
L 239.013093 68.205469 
L 239.193135 68.914267 
L 239.554113 72.679651 
L 240.279663 85.919075 
L 240.826995 95.114719 
L 241.010047 96.768305 
L 241.193404 97.014209 
L 241.377066 97.449015 
L 241.745312 95.45948 
L 242.11479 90.409228 
L 242.85747 74.836609 
L 243.230684 69.764603 
L 243.417762 68.874614 
L 243.605155 68.560143 
L 243.792864 69.492815 
L 244.169234 73.630221 
L 245.496601 96.624287 
L 245.687514 98.016273 
L 245.878753 98.362411 
L 246.070318 97.421478 
L 246.454427 93.290681 
L 247.809197 69.53357 
L 248.004066 68.765843 
L 248.19927 69.190185 
L 248.39481 70.63752 
L 248.786901 76.011054 
L 250.169932 97.789645 
L 250.368879 97.953489 
L 250.568173 97.303896 
L 250.767813 95.748066 
L 251.168137 89.862623 
L 251.972984 74.514979 
L 252.377521 69.257651 
L 252.580322 68.896092 
L 252.783478 69.894026 
L 253.190862 74.538936 
L 253.599681 81.707044 
L 254.215615 93.137851 
L 254.628053 97.63241 
L 254.834819 98.496791 
L 255.041952 98.427949 
L 255.45732 94.033899 
L 256.712317 71.518974 
L 256.922791 70.114046 
L 257.13364 69.957361 
L 257.344867 70.912613 
L 257.768457 76.202435 
L 258.834102 95.689688 
L 259.048384 97.420377 
L 259.263051 98.216191 
L 259.478106 97.846371 
L 259.69355 96.426298 
L 260.125607 90.210963 
L 260.99443 73.667671 
L 261.431214 70.412269 
L 261.650202 70.699478 
L 261.86959 72.085406 
L 262.089378 74.793376 
L 263.194361 95.270027 
L 263.416574 97.813052 
L 263.639196 98.762521 
L 263.862226 98.11458 
L 264.309519 93.335015 
L 264.983557 81.322355 
L 265.434994 74.010229 
L 265.661339 72.03997 
L 265.888104 72.007202 
L 266.11529 72.355818 
L 266.342897 74.220886 
L 266.570928 77.012018 
L 267.487304 93.512903 
L 267.948062 98.101637 
L 268.179087 98.166349 
L 268.410545 97.253504 
L 268.874764 90.784004 
L 269.808447 74.517458 
L 270.042967 72.410065 
L 270.277931 72.195278 
L 270.513337 72.795305 
L 270.985488 78.435671 
L 271.697073 91.25158 
L 272.173717 98.046288 
L 272.41272 98.579952 
L 272.652178 98.397107 
L 273.132464 93.302246 
L 274.341239 73.864284 
L 274.584386 72.373992 
L 274.828001 72.84377 
L 275.072083 74.942075 
L 275.56166 82.627325 
L 276.299572 95.141981 
L 276.546494 97.409087 
L 276.793894 98.558473 
L 277.041774 98.115406 
L 277.290135 96.316426 
L 277.788304 88.62677 
L 278.5392 75.63793 
L 278.790475 73.638758 
L 279.042241 73.108399 
L 279.294499 74.513327 
L 279.800498 81.080306 
L 280.563225 95.35071 
L 280.818467 97.679498 
L 281.074212 98.556821 
L 281.33046 98.173784 
L 281.587214 96.160017 
L 282.878617 75.993706 
L 283.138436 73.870067 
L 283.39877 73.833718 
L 283.659621 75.472159 
L 284.971697 97.356491 
L 285.235687 98.503675 
L 285.500205 98.532589 
L 286.030834 92.881208 
L 287.098503 76.434846 
L 287.366765 74.780985 
L 287.635569 75.841428 
L 287.904916 77.710351 
L 288.445246 85.767348 
L 288.987768 96.013796 
L 289.259855 98.835218 
L 289.532495 99.368606 
L 289.80569 98.037752 
L 290.079441 95.173648 
L 291.180044 77.536318 
L 291.456603 75.499971 
L 291.733729 75.175037 
L 292.011423 77.472433 
L 293.408482 98.199668 
L 293.689624 99.151341 
L 293.971347 97.963403 
L 294.536542 91.761561 
L 295.388737 77.426171 
L 295.673983 75.496116 
L 295.959823 76.179855 
L 296.246258 78.96961 
L 297.687432 99.031556 
L 297.97748 99.00512 
L 298.268136 97.015585 
L 298.851283 88.481651 
L 299.436887 79.204774 
L 299.730616 76.495427 
L 300.024965 76.782911 
L 300.319936 78.771069 
L 300.911754 87.671243 
L 301.506085 96.818973 
L 301.804198 98.658707 
L 302.102945 98.643837 
L 302.402328 96.259425 
L 303.003012 87.974423 
L 303.606265 79.164846 
L 303.908861 77.19321 
L 304.212105 77.890993 
L 304.820548 85.554763 
L 305.43161 94.933527 
L 305.738129 98.296323 
L 306.04531 99.209168 
L 306.353153 97.60983 
L 306.661663 93.954318 
L 307.280687 84.24704 
L 307.591206 80.900216 
L 307.9024 79.018074 
L 308.21427 79.691625 
L 308.526818 82.207388 
L 309.153961 91.250203 
L 309.468559 96.023709 
L 309.783845 99.048628 
L 310.099821 99.661047 
L 310.416489 97.491146 
L 311.690128 79.383763 
L 312.010291 78.484411 
L 312.33116 80.141852 
L 312.975026 89.217435 
L 313.621743 98.628967 
L 313.946178 99.747788 
L 314.271332 98.210959 
L 314.597209 94.943716 
L 315.5792 80.681573 
L 315.907992 79.59442 
L 316.237518 81.132902 
L 316.567781 85.035144 
L 317.23053 96.054275 
L 317.56302 99.600191 
L 317.896257 100.41473 
L 318.230244 98.287511 
L 318.564983 94.12835 
L 319.236727 83.381283 
L 319.573738 80.507541 
L 319.911512 80.484685 
L 320.25005 83.612867 
L 321.270283 98.59372 
L 321.611907 100.362685 
L 321.954311 99.105905 
L 322.297494 95.396972 
L 323.331758 81.575143 
L 323.678092 81.745045 
L 324.025221 83.75358 
L 325.0714 99.040643 
L 325.421734 100.418585 
L 325.772875 99.044773 
L 326.124828 95.220185 
L 326.831177 85.236989 
L 327.185579 82.532047 
L 327.540804 83.395877 
L 327.896854 87.171725 
L 328.61144 98.013244 
L 328.969982 101.161804 
L 329.329362 101.428635 
L 330.050642 93.714472 
L 330.412549 87.937524 
L 330.775305 84.448334 
L 331.138912 83.576243 
L 331.503374 86.097514 
L 332.601916 100.543877 
L 332.969826 101.209993 
L 333.338606 97.809196 
L 334.450196 85.148595 
L 334.822486 84.908199 
L 335.195661 87.548979 
L 335.944681 98.007186 
L 336.320531 101.263139 
L 336.69728 101.75357 
L 337.07493 97.990939 
L 337.832946 87.392295 
L 338.21332 85.122711 
L 338.594607 87.169247 
L 339.743989 100.778766 
L 340.128968 101.257632 
L 340.514877 98.671925 
L 341.289502 89.581747 
L 341.678225 86.35994 
L 342.067892 87.376048 
L 342.458508 91.664907 
L 343.242597 101.585871 
L 343.636077 102.649067 
L 344.03052 99.151892 
L 344.822306 89.693822 
L 345.219656 88.094208 
L 345.617982 90.426301 
L 346.417578 101.313807 
L 346.818855 103.635986 
L 347.221123 102.020401 
L 348.028645 91.588079 
L 348.433908 88.549943 
L 348.840176 90.534796 
L 350.065051 103.800106 
L 350.475379 103.400271 
L 351.299112 93.515932 
L 351.712525 90.737743 
L 352.126975 92.484127 
L 352.958997 103.011727 
L 353.376578 104.306783 
L 353.795211 101.034859 
L 354.635649 92.101916 
L 355.057461 91.586152 
L 356.329322 105.631579 
L 356.755431 104.677153 
L 357.610904 95.643151 
L 358.040278 94.519373 
L 358.470748 97.847197 
L 358.90232 103.218804 
L 359.334996 105.742277 
L 359.768782 104.769952 
L 360.203682 100.239871 
L 360.639699 97.12711 
L 361.076839 97.279388 
L 361.954503 106.123938 
L 362.395036 107.847467 
L 362.836709 104.962985 
L 363.279526 101.033207 
L 363.723492 98.421064 
L 364.16861 101.106179 
L 365.062326 108.750674 
L 365.510931 107.385399 
L 365.960708 103.754945 
L 366.41166 101.555855 
L 366.863793 104.048488 
L 367.317112 108.220591 
L 367.77162 110.540567 
L 368.684224 104.222796 
L 369.14233 104.360205 
L 370.062172 112.586828 
L 370.523918 112.793354 
L 370.986888 108.845125 
L 371.451085 107.672057 
L 372.383184 115.245783 
L 372.851095 116.856962 
L 373.320254 115.137288 
L 373.790665 115.438816 
L 374.735267 122.578836 
L 375.209467 123.17611 
L 375.68494 124.939017 
L 376.639726 136.766354 
L 377.599666 150.166594 
L 378.564802 171.042528 
L 379.535176 198.208972 
L 381.49181 262.759395 
L 381.984309 275.296135 
L 382.478157 284.708384 
L 382.973357 290.587934 
L 383.469916 293.701456 
L 383.967839 294.888617 
L 384.467131 295.210363 
L 388.001015 295.250803 
L 390.0514 295.177924 
L 391.085208 295.308057 
L 394.221676 295.276781 
L 394.749597 295.18029 
L 396.876297 295.285327 
L 398.487273 295.234697 
L 398.487273 295.234697 
" style="fill:none;stroke:#0000ff;stroke-linecap:square;stroke-opacity:0.5;stroke-width:0.8;"/>
   </g>
   <g id="patch_3">
    <path d="M 57.6 307.584 
L 57.6 41.472 
" style="fill:none;stroke:#000000;stroke-linecap:square;stroke-linejoin:miter;stroke-width:0.8;"/>
   </g>
   <g id="patch_4">
    <path d="M 414.72 307.584 
L 414.72 41.472 
" style="fill:none;stroke:#000000;stroke-linecap:square;stroke-linejoin:miter;stroke-width:0.8;"/>
   </g>
   <g id="patch_5">
    <path d="M 57.6 307.584 
L 414.72 307.584 
" style="fill:none;stroke:#000000;stroke-linecap:square;stroke-linejoin:miter;stroke-width:0.8;"/>
   </g>
   <g id="patch_6">
    <path d="M 57.6 41.472 
L 414.72 41.472 
" style="fill:none;stroke:#000000;stroke-linecap:square;stroke-linejoin:miter;stroke-width:0.8;"/>
   </g>
   <g id="text_15">
    <!-- Transmission at normal incidence -->
    <defs>
     <path d="M -0.296875 72.90625 
L 61.375 72.90625 
L 61.375 64.59375 
L 35.5 64.59375 
L 35.5 0 
L 25.59375 0 
L 25.59375 64.59375 
L -0.296875 64.59375 
z
" id="DejaVuSans-84"/>
     <path d="M 9.421875 75.984375 
L 18.40625 75.984375 
L 18.40625 0 
L 9.421875 0 
z
" id="DejaVuSans-108"/>
    </defs>
    <g transform="translate(135.902812 35.472)scale(0.12 -0.12)">
     <use xlink:href="#DejaVuSans-84"/>
     <use x="46.333984" xlink:href="#DejaVuSans-114"/>
     <use x="87.447266" xlink:href="#DejaVuSans-97"/>
     <use x="148.726562" xlink:href="#DejaVuSans-110"/>
     <use x="212.105469" xlink:href="#DejaVuSans-115"/>
     <use x="264.205078" xlink:href="#DejaVuSans-109"/>
     <use x="361.617188" xlink:href="#DejaVuSans-105"/>
     <use x="389.400391" xlink:href="#DejaVuSans-115"/>
     <use x="441.5" xlink:href="#DejaVuSans-115"/>
     <use x="493.599609" xlink:href="#DejaVuSans-105"/>
     <use x="521.382812" xlink:href="#DejaVuSans-111"/>
     <use x="582.564453" xlink:href="#DejaVuSans-110"/>
     <use x="645.943359" xlink:href="#DejaVuSans-32"/>
     <use x="677.730469" xlink:href="#DejaVuSans-97"/>
     <use x="739.009766" xlink:href="#DejaVuSans-116"/>
     <use x="778.21875" xlink:href="#DejaVuSans-32"/>
     <use x="810.005859" xlink:href="#DejaVuSans-110"/>
     <use x="873.384766" xlink:href="#DejaVuSans-111"/>
     <use x="934.566406" xlink:href="#DejaVuSans-114"/>
     <use x="973.929688" xlink:href="#DejaVuSans-109"/>
     <use x="1071.341797" xlink:href="#DejaVuSans-97"/>
     <use x="1132.621094" xlink:href="#DejaVuSans-108"/>
     <use x="1160.404297" xlink:href="#DejaVuSans-32"/>
     <use x="1192.191406" xlink:href="#DejaVuSans-105"/>
     <use x="1219.974609" xlink:href="#DejaVuSans-110"/>
     <use x="1283.353516" xlink:href="#DejaVuSans-99"/>
     <use x="1338.333984" xlink:href="#DejaVuSans-105"/>
     <use x="1366.117188" xlink:href="#DejaVuSans-100"/>
     <use x="1429.59375" xlink:href="#DejaVuSans-101"/>
     <use x="1491.117188" xlink:href="#DejaVuSans-110"/>
     <use x="1554.496094" xlink:href="#DejaVuSans-99"/>
     <use x="1609.476562" xlink:href="#DejaVuSans-101"/>
    </g>
   </g>
  </g>
 </g>
 <defs>
  <clipPath id="p0d1e78a541">
   <rect height="266.112" width="357.12" x="57.6" y="41.472"/>
  </clipPath>
 </defs>
</svg>
